<svg id="Calque_1" data-name="Calque 1" xmlns="http://www.w3.org/2000/svg" viewBox="0 0 124.33 126.07"><defs><style>.cls-1{fill:#002c3f;}.cls-2{fill:#fff;}.cls-3{fill:#00a359;}</style></defs><path class="cls-1" d="M88.91,37.79H78.77V35a1.09,1.09,0,0,0-1.16-1.15H73.12V33a6.19,6.19,0,0,0-6.46-5.88H57.44A6.19,6.19,0,0,0,51,33v.81H46.61a1.09,1.09,0,0,0-1.16,1.15l-.13,3.21-11.16-.27c-2.42,0-3.23,1.67-3.23,4V96a4.29,4.29,0,0,0,4.49,4.15H88.91A4.37,4.37,0,0,0,93.41,96V41.94A4.29,4.29,0,0,0,88.91,37.79ZM53.41,33a3.89,3.89,0,0,1,4.15-3.57h9.22A3.9,3.9,0,0,1,70.93,33v.81H53.41Zm23.17,3.23V42.4H47.87V36.18ZM91.1,96.12A2.06,2.06,0,0,1,88.91,98H35.42a2.06,2.06,0,0,1-2.19-1.84V41.94a2.06,2.06,0,0,1,2.19-1.84H45.57v3.34a1.09,1.09,0,0,0,1.15,1.15h31a1.09,1.09,0,0,0,1.15-1.15V40.1H89a2.06,2.06,0,0,1,2.19,1.84V96.12Z"/><path class="cls-1" d="M88.91,100.4H35.42A4.53,4.53,0,0,1,30.68,96V41.82c0-2.8,1.17-4.22,3.48-4.22l10.92.27.12-3a1.34,1.34,0,0,1,1.41-1.39h4.13V33a6.44,6.44,0,0,1,6.7-6.13h9.22c3.7,0,6.71,2.75,6.71,6.13v.67h4.24A1.35,1.35,0,0,1,79,35v2.52h9.89a4.54,4.54,0,0,1,4.75,4.4V96A4.59,4.59,0,0,1,88.91,100.4ZM34.15,38.1c-2,0-3,1.22-3,3.72V96a4,4,0,0,0,4.24,3.9H88.91A4.14,4.14,0,0,0,93.16,96V41.94A4,4,0,0,0,88.91,38H78.52V35a.84.84,0,0,0-.91-.9H72.87V33c0-3.1-2.79-5.63-6.21-5.63H57.44A5.94,5.94,0,0,0,51.24,33V34H46.61a.84.84,0,0,0-.91.9l-.14,3.47ZM88.91,98.21H35.42A2.32,2.32,0,0,1,33,96.12V41.94a2.32,2.32,0,0,1,2.44-2.09h10.4v3.59a.83.83,0,0,0,.9.9h31a.83.83,0,0,0,.9-.9V39.85H89a2.32,2.32,0,0,1,2.45,2.09V96.37h-.14A2.38,2.38,0,0,1,88.91,98.21ZM35.42,40.35a1.82,1.82,0,0,0-1.94,1.59V96.12a1.82,1.82,0,0,0,1.94,1.59H88.91a1.82,1.82,0,0,0,1.94-1.59v-.25H91V41.94a1.82,1.82,0,0,0-2-1.59H79.13v3.09a1.34,1.34,0,0,1-1.4,1.4h-31a1.34,1.34,0,0,1-1.4-1.4V40.35Zm41.41,2.3H47.62V35.93H76.83Zm-28.71-.5H76.33V36.43H48.12ZM71.18,34h-18V33a4.14,4.14,0,0,1,4.4-3.82h9.22A4.15,4.15,0,0,1,71.18,33Zm-17.52-.5h17V33a3.65,3.65,0,0,0-3.9-3.32H57.56A3.65,3.65,0,0,0,53.66,33Z"/><rect class="cls-2" x="40.91" y="40.1" width="41.45" height="6.7"/><rect class="cls-1" x="26.36" y="37.44" width="71.68" height="3.07" rx="1.15"/><rect class="cls-2" x="43.99" y="33.03" width="37.1" height="4.37"/><rect class="cls-1" x="50.75" y="32.76" width="2.9" height="5.28"/><rect class="cls-1" x="70.69" y="32.76" width="2.67" height="5.28"/><path class="cls-3" d="M78.75,84.26V53.8c0-.62-.55-1-1.37-1s-1.38.41-1.38,1V84.26c0,.62.55,1,1.38,1A1.24,1.24,0,0,0,78.75,84.26Z"/><path class="cls-3" d="M63.61,84.26V53.8c0-.62-.55-1-1.37-1s-1.38.41-1.38,1V84.26c0,.62.55,1,1.38,1C62.92,85.29,63.61,84.77,63.61,84.26Z"/><path class="cls-3" d="M48.33,84.26V53.8c0-.62-.55-1-1.37-1s-1.38.41-1.38,1V84.26c0,.62.55,1,1.38,1A1.24,1.24,0,0,0,48.33,84.26Z"/></svg>