<svg id="Calque_1" data-name="Calque 1" xmlns="http://www.w3.org/2000/svg" viewBox="0 0 124.33 126.07"><defs><style>.cls-1,.cls-4{fill:#00a359;}.cls-1{stroke:#00a359;stroke-miterlimit:10;stroke-width:0.5px;}.cls-2{fill:#002c3f;}.cls-3{fill:#fff;}</style></defs><path class="cls-1" d="M88.91,37.79H78.77V35a1.09,1.09,0,0,0-1.16-1.15H73.12V33a6.19,6.19,0,0,0-6.46-5.88H57.44A6.19,6.19,0,0,0,51,33v.81H46.61a1.09,1.09,0,0,0-1.16,1.15l-.13,3.21-11.16-.27c-2.42,0-3.23,1.67-3.23,4V96a4.29,4.29,0,0,0,4.49,4.15H88.91A4.37,4.37,0,0,0,93.41,96V41.94A4.29,4.29,0,0,0,88.91,37.79ZM53.41,33a3.89,3.89,0,0,1,4.15-3.57h9.22A3.9,3.9,0,0,1,70.93,33v.81H53.41Zm23.17,3.23V42.4H47.87V36.18ZM91.1,96.12A2.06,2.06,0,0,1,88.91,98H35.42a2.06,2.06,0,0,1-2.19-1.84V41.94a2.06,2.06,0,0,1,2.19-1.84H45.57v3.34a1.09,1.09,0,0,0,1.15,1.15h31a1.09,1.09,0,0,0,1.15-1.15V40.1H89a2.06,2.06,0,0,1,2.19,1.84V96.12Z"/><path class="cls-2" d="M78.75,84.26V53.8c0-.62-.55-1-1.37-1s-1.38.41-1.38,1V84.26c0,.62.55,1,1.38,1A1.24,1.24,0,0,0,78.75,84.26Z"/><path class="cls-2" d="M63.61,84.26V53.8c0-.62-.55-1-1.37-1s-1.38.41-1.38,1V84.26c0,.62.55,1,1.38,1C62.92,85.29,63.61,84.77,63.61,84.26Z"/><path class="cls-2" d="M48.33,84.26V53.8c0-.62-.55-1-1.37-1s-1.38.41-1.38,1V84.26c0,.62.55,1,1.38,1A1.24,1.24,0,0,0,48.33,84.26Z"/><rect class="cls-3" x="40.91" y="40.1" width="41.45" height="6.7"/><rect class="cls-4" x="26.36" y="37.44" width="71.68" height="3.07" rx="1.15"/><rect class="cls-3" x="43.99" y="33.03" width="37.1" height="4.37"/><rect class="cls-4" x="50.75" y="32.76" width="2.9" height="5.28"/><rect class="cls-4" x="70.69" y="32.76" width="2.67" height="5.28"/></svg>