<svg id="Calque_1" data-name="Calque 1" xmlns="http://www.w3.org/2000/svg" viewBox="0 0 124.33 126.07"><defs><style>.cls-1{fill:#002c3f;}.cls-2{fill:#00a359;}</style></defs><path class="cls-1" d="M60.86,56.25A14,14,0,1,1,74.79,42.17v.08A14,14,0,0,1,60.86,56.25Zm0-24.83a10.83,10.83,0,1,0,10.76,10.9v-.07A10.81,10.81,0,0,0,60.86,31.42Z"/><path class="cls-2" d="M60.79,62.59A27.51,27.51,0,0,0,33.28,90.1a1.59,1.59,0,1,0,3.17,0h0A24.34,24.34,0,0,1,82.91,80a14.24,14.24,0,0,1,2.81-1.49A27.51,27.51,0,0,0,60.79,62.59Z"/><path class="cls-1" d="M90.94,75.83a15.86,15.86,0,1,0,15.85,15.86A15.87,15.87,0,0,0,90.94,75.83Zm13.71,15.86A13.72,13.72,0,1,1,90.94,78,13.73,13.73,0,0,1,104.65,91.69Z"/><path class="cls-2" d="M99.2,90.52H92.1V83.43a1.17,1.17,0,1,0-2.33,0v7.09h-7.1a1.17,1.17,0,0,0,0,2.34h7.1V100a1.17,1.17,0,1,0,2.33,0V92.86h7.1a1.17,1.17,0,0,0,0-2.34Z"/></svg>