<svg width="104" height="59" viewBox="0 0 104 59" fill="none" xmlns="http://www.w3.org/2000/svg">
<g clip-path="url(#clip0_332135_923)">
<path d="M103.883 0.116699H43.7734V39.1758H103.883V0.116699Z" fill="white"/>
<path d="M104 39.2928H43.6566V0H104V39.2928ZM43.8903 39.0591H103.766V0.233687H43.8903V39.0591Z" fill="#E4E4E4"/>
<path d="M70.0508 3.93701C71.8164 3.96717 71.8161 6.59383 70.0507 6.62372C68.2852 6.59357 68.2855 3.96691 70.0508 3.93701Z" fill="#3F3D56"/>
<path d="M73.8283 3.93701C75.5939 3.96717 75.5936 6.59383 73.8282 6.62372C72.0627 6.59357 72.063 3.96691 73.8283 3.93701Z" fill="#00BFA6"/>
<path d="M77.6059 3.93701C79.3715 3.96717 79.3712 6.59383 77.6059 6.62372C75.8403 6.59357 75.8406 3.96691 77.6059 3.93701Z" fill="#CACACA"/>
<path d="M66.178 14.2231H54.1561V14.3689H66.178V14.2231Z" fill="#CACACA"/>
<path d="M93.5734 35.3557H77.0341V19.907H93.5734V35.3557ZM77.1799 35.21H93.4277V20.0527H77.1799L77.1799 35.21Z" fill="#CACACA"/>
<path d="M77.1568 19.9266L77.0573 20.0332L93.4509 35.3362L93.5504 35.2296L77.1568 19.9266Z" fill="#CACACA"/>
<path d="M93.4511 19.927L77.0568 35.2292L77.1563 35.3358L93.5506 20.0336L93.4511 19.927Z" fill="#CACACA"/>
<path d="M93.5734 12.1826H54.0831V9.48633H93.5734V12.1826ZM54.2288 12.0368H93.4277V9.63207H54.2288V12.0368Z" fill="#CACACA"/>
<path d="M68.6895 24.1008H54.2V21.4045H68.6895V24.1008ZM54.3457 23.955H68.5438V21.5503H54.3457V23.955Z" fill="#CACACA"/>
<path d="M68.6895 28.6577H54.2V25.9614H68.6895V28.6577ZM54.3457 28.5119H68.5438V26.1072H54.3457V28.5119Z" fill="#CACACA"/>
<path d="M68.6895 33.2146H54.2V30.5183H68.6895V33.2146ZM54.3457 33.0688H68.5438V30.6641H54.3457V33.0688Z" fill="#CACACA"/>
<path d="M57.9946 17.5638H54.1083C54.4083 16.3563 54.3721 15.0501 54.1083 13.677H57.9946C57.7255 14.2896 57.5866 14.9513 57.5866 15.6204C57.5866 16.2895 57.7255 16.9513 57.9946 17.5638Z" fill="#00BFA6"/>
<path d="M57.0526 14.5015H54.6973V14.9726H57.0526V14.5015Z" fill="white"/>
<path d="M57.0526 15.4438H54.6973V15.915H57.0526V15.4438Z" fill="white"/>
<path d="M57.0526 16.386H54.6973V16.8571H57.0526V16.386Z" fill="white"/>
<path d="M87.2602 23.4337H83.374C83.674 22.2262 83.6378 20.92 83.374 19.5469H87.2602C86.9912 20.1594 86.8522 20.8212 86.8522 21.4903C86.8522 22.1594 86.9912 22.8211 87.2602 23.4337Z" fill="#00BFA6"/>
<path d="M86.3182 20.3716H83.963V20.8427H86.3182V20.3716Z" fill="white"/>
<path d="M86.3182 21.3137H83.963V21.7849H86.3182V21.3137Z" fill="white"/>
<path d="M86.3182 22.2559H83.963V22.727H86.3182V22.2559Z" fill="white"/>
<path d="M92.2567 15.1048H88.3705C88.6705 13.8974 88.6343 12.5911 88.3705 11.218H92.2567C91.9876 11.8306 91.8487 12.4924 91.8487 13.1614C91.8487 13.8305 91.9876 14.4923 92.2567 15.1048Z" fill="#00BFA6"/>
<path d="M91.3147 12.0427H88.9594V12.5139H91.3147V12.0427Z" fill="white"/>
<path d="M91.3147 12.9849H88.9594V13.456H91.3147V12.9849Z" fill="white"/>
<path d="M91.3147 13.927H88.9594V14.3981H91.3147V13.927Z" fill="white"/>
<path d="M24.1361 17.9294H17.477V14.3657C17.477 13.4825 17.8278 12.6355 18.4522 12.011C19.0766 11.3865 19.9235 11.0356 20.8065 11.0356C21.6896 11.0356 22.5365 11.3865 23.1609 12.011C23.7853 12.6355 24.1361 13.4825 24.1361 14.3657V17.9294Z" fill="#2F2E41"/>
<path d="M27.1086 57.5797H28.5407L29.2222 52.0544L27.1083 52.0546L27.1086 57.5797Z" fill="#FFB6B6"/>
<path d="M26.7433 57.1119L29.5639 57.1118H29.564C30.0407 57.1118 30.4979 57.3013 30.835 57.6384C31.1721 57.9755 31.3615 58.4328 31.3615 58.9096V58.968L26.7433 58.9682L26.7433 57.1119Z" fill="#2F2E41"/>
<path d="M9.9873 55.6679L11.2345 56.3722L14.544 51.8958L12.7031 50.8564L9.9873 55.6679Z" fill="#FFB6B6"/>
<path d="M9.89909 55.0811L12.3554 56.4679L12.3555 56.468C12.7706 56.7024 13.0756 57.0921 13.2034 57.5515C13.3312 58.0108 13.2714 58.5021 13.037 58.9173L13.0083 58.9682L8.98669 56.6975L9.89909 55.0811Z" fill="#2F2E41"/>
<path d="M19.141 32.7304L19.0304 33.2831C19.0304 33.2831 18.6988 33.6147 18.8646 33.7805C19.0304 33.9463 18.9752 34.7202 18.9752 34.7202C18.8824 36.1312 17.039 44.0601 16.7094 45.6087C16.7094 45.6087 14.1672 47.2669 12.1777 50.528C10.1883 53.789 10.133 54.6181 10.133 54.6181L12.3435 55.5577L17.8699 48.8698C17.8699 48.8698 19.4173 47.9302 19.9699 47.1011C20.5225 46.272 23.9489 37.7048 23.9489 37.7048L25.8831 46.6589C25.8831 46.6589 25.7726 49.92 26.2699 52.0203C26.5758 53.3458 26.7607 54.6962 26.8226 56.0551L29.42 55.7788C29.42 55.7788 29.2542 47.9302 28.9779 47.1011C28.9779 47.1011 30.1384 37.539 27.8173 33.7252L25.9467 28.7375L24.1147 28.0322L19.141 32.7304Z" fill="#2F2E41"/>
<path d="M20.7724 11.9067C24.2593 11.9663 24.2587 17.1538 20.7722 17.2128C17.2855 17.1533 17.286 11.9658 20.7724 11.9067Z" fill="#FFB8B8"/>
<path d="M23.4557 14.4222H22.8631L22.7018 14.0187L22.7824 14.4222H19.5412L19.6467 13.5779L18.8588 14.4222H18.0729V13.9647C18.0722 13.6108 18.1413 13.2602 18.2763 12.933C18.4113 12.6059 18.6094 12.3085 18.8594 12.058C19.1094 11.8075 19.4063 11.6088 19.7332 11.4732C20.0601 11.3376 20.4104 11.2678 20.7643 11.2678C21.1182 11.2678 21.4686 11.3376 21.7954 11.4732C22.1223 11.6088 22.4192 11.8075 22.6692 12.058C22.9192 12.3085 23.1173 12.6059 23.2523 12.933C23.3873 13.2602 23.4564 13.6108 23.4557 13.9647V14.4222Z" fill="#2F2E41"/>
<path d="M24.3677 18.7627L17.7781 18.816L19.1708 32.944C19.1708 32.944 26.8766 32.5372 26.8813 30.1848L26.1594 28.0944L24.3677 18.7627Z" fill="#E4E4E4"/>
<path d="M36.631 43.4145L13.6606 48.1721C13.4257 48.2201 13.1548 47.8703 13.055 47.3897L10.6406 35.7291C10.5411 35.2486 10.6511 34.82 10.8857 34.7705L33.8562 30.013C34.0911 29.9649 34.362 30.3148 34.4618 30.7953L36.8761 42.4558C36.9753 42.9364 36.8654 43.3653 36.631 43.4145Z" fill="white"/>
<path d="M19.229 39.9088C20.3619 39.9088 21.2803 38.9903 21.2803 37.8572C21.2803 36.7242 20.3619 35.8057 19.229 35.8057C18.0961 35.8057 17.1777 36.7242 17.1777 37.8572C17.1777 38.9903 18.0961 39.9088 19.229 39.9088Z" fill="#F0F0F0"/>
<path d="M26.8096 42.7433L16.9559 44.7842C16.9436 44.7869 16.9311 44.7884 16.9185 44.7888L19.9074 35.75C19.9254 35.6938 19.958 35.6434 20.0019 35.604C20.0458 35.5645 20.0993 35.5374 20.1571 35.5255C20.2149 35.5135 20.2748 35.5171 20.3307 35.5359C20.3866 35.5547 20.4366 35.588 20.4754 35.6324L24.7249 40.4026L24.9285 40.6307L26.8096 42.7433Z" fill="#E4E4E4"/>
<path d="M32.2958 41.6071L23.7731 43.3723L24.9278 40.6312L25.0108 40.4337L26.5155 36.8613C26.5437 36.8056 26.5832 36.7565 26.6317 36.717C26.6801 36.6776 26.7362 36.6488 26.7965 36.6326C26.8567 36.6163 26.9198 36.6129 26.9814 36.6226C27.0431 36.6323 27.102 36.6548 27.1544 36.6888C27.1681 36.6987 27.1811 36.7094 27.1934 36.721L32.2958 41.6071Z" fill="#E4E4E4"/>
<path d="M36.631 43.4145L13.6606 48.1721C13.4257 48.2201 13.1548 47.8703 13.055 47.3897L10.6406 35.7291C10.5411 35.2486 10.6511 34.82 10.8857 34.7705L33.8562 30.013C34.0911 29.9649 34.362 30.3148 34.4618 30.7953L36.8761 42.4558C36.9753 42.9364 36.8654 43.3653 36.631 43.4145ZM10.9578 35.1187C10.8169 35.1479 10.7512 35.4056 10.8107 35.6939L13.2251 47.3544C13.2848 47.6427 13.4475 47.8527 13.5885 47.8238L36.5589 43.0662C36.6998 43.037 36.7655 42.7795 36.706 42.491L34.2917 30.8306C34.232 30.5423 34.0693 30.3322 33.9283 30.3611L10.9578 35.1187Z" fill="#CACACA"/>
<path d="M29.8351 32.6216C29.6901 32.5535 29.5618 32.4545 29.4592 32.3315C29.3566 32.2085 29.2823 32.0645 29.2413 31.9096C29.2004 31.7548 29.194 31.5928 29.2224 31.4352C29.2508 31.2776 29.3135 31.1281 29.4059 30.9973L28.0715 28.8789L29.1609 27.7539L31.0033 30.7719C31.2127 30.9418 31.3525 31.1826 31.3963 31.4487C31.44 31.7148 31.3846 31.9877 31.2406 32.2157C31.0966 32.4437 30.874 32.611 30.6149 32.6858C30.3559 32.7606 30.0784 32.7377 29.8351 32.6216Z" fill="#FFB6B6"/>
<path d="M23.3553 19.319L24.3113 18.689C24.3113 18.689 25.049 18.8544 25.8336 20.3638C26.6183 21.8733 29.7825 28.6214 29.7825 28.6214L28.4819 29.942L25.0122 24.648L23.3553 19.319Z" fill="#E4E4E4"/>
<path d="M17.4961 34.3096C17.5973 34.1855 17.6702 34.0407 17.7094 33.8854C17.7486 33.7302 17.7534 33.5681 17.7232 33.4108C17.6931 33.2535 17.6289 33.1047 17.535 32.9749C17.4412 32.8451 17.32 32.7375 17.1801 32.6596L17.4664 30.1723L15.9976 29.6296L15.6425 33.1478C15.5273 33.3916 15.5054 33.6693 15.5812 33.9281C15.6569 34.1869 15.8249 34.409 16.0534 34.5522C16.2818 34.6954 16.5549 34.7498 16.8208 34.7051C17.0867 34.6604 17.327 34.5197 17.4961 34.3096H17.4961Z" fill="#FFB6B6"/>
<path d="M18.6452 20.0326L17.7782 18.8206C17.7782 18.8206 17.1849 18.6889 16.484 19.5068C15.783 20.3247 15.3741 30.5485 15.3741 30.5485L17.9443 31.1327L19.463 23.8884L18.6452 20.0326Z" fill="#E4E4E4"/>
<path d="M44.6274 59H0.116826C0.0858416 59 0.0561264 58.9877 0.0342174 58.9658C0.0123083 58.9439 0 58.9142 0 58.8832C0 58.8522 0.0123083 58.8225 0.0342174 58.8006C0.0561264 58.7787 0.0858416 58.7664 0.116826 58.7664H44.6274C44.6584 58.7664 44.6881 58.7787 44.71 58.8006C44.7319 58.8225 44.7443 58.8522 44.7443 58.8832C44.7443 58.9142 44.7319 58.9439 44.71 58.9658C44.6881 58.9877 44.6584 59 44.6274 59Z" fill="#CACACA"/>
<path d="M15.9881 37.8572L12.1866 38.6645C12.2293 37.421 11.9227 36.1508 11.3795 34.8624L15.181 34.0552C15.045 34.7103 15.0465 35.3865 15.1854 36.041C15.3244 36.6954 15.5977 37.3139 15.9881 37.8572Z" fill="#00BFA6"/>
<path d="M14.4305 35.0574L12.1266 35.5466L12.2244 36.0075L14.5284 35.5182L14.4305 35.0574Z" fill="white"/>
<path d="M14.6262 35.9793L12.3223 36.4685L12.4201 36.9294L14.7241 36.4401L14.6262 35.9793Z" fill="white"/>
<path d="M14.822 36.9009L12.5181 37.3901L12.6159 37.851L14.9198 37.3617L14.822 36.9009Z" fill="white"/>
</g>
<defs>
<clipPath id="clip0_332135_923">
<rect width="104" height="59" fill="white"/>
</clipPath>
</defs>
</svg>
