<svg width="10" height="13" viewBox="0 0 10 13" fill="none" xmlns="http://www.w3.org/2000/svg">
<path d="M5.00625 9.1C4.8375 9.1 4.68125 9.035 4.5625 8.9115C4.4375 8.7815 4.38125 8.632 4.38125 8.45C4.375 8.0925 4.65 7.8065 4.99375 7.8C5 7.8 5 7.8 5.00625 7.8C5.18125 7.8 5.325 7.865 5.45 7.9885C5.5625 8.112 5.625 8.268 5.625 8.4435C5.625 8.619 5.5625 8.775 5.44375 8.905C5.325 9.035 5.175 9.1 5.00625 9.1ZM4.45625 6.721C4.45625 6.4285 4.51875 6.175 4.6375 5.967C4.75625 5.7525 4.96875 5.512 5.2625 5.239C5.4375 5.0765 5.5625 4.9335 5.64375 4.81C5.725 4.6865 5.7625 4.55 5.7625 4.394C5.7625 4.2055 5.69375 4.0495 5.5625 3.913C5.43125 3.783 5.25 3.718 5.03125 3.718C4.8 3.718 4.56875 3.783 4.43125 3.913C4.3 4.043 4.18125 4.2055 4.18125 4.55H3.125C3.125 3.8935 3.4125 3.4255 3.73125 3.1135C4.08125 2.782 4.53125 2.6 5 2.6C5.36875 2.6 5.69375 2.678 5.98125 2.8275C6.26875 2.977 6.475 3.185 6.6375 3.4515C6.8 3.718 6.875 4.0105 6.875 4.329C6.875 4.6475 6.8125 4.914 6.68125 5.1415C6.55 5.369 6.38125 5.603 6.125 5.85C5.925 6.045 5.79375 6.214 5.71875 6.3505C5.64375 6.487 5.60625 6.669 5.60625 6.877V7.15H4.45V6.721H4.45625ZM8.75 5.33C8.75 2.9705 7.09375 1.3 5 1.3C2.90625 1.3 1.25 2.9705 1.25 5.33C1.25 6.851 2.46875 8.866 5 11.271C7.53125 8.866 8.75 6.851 8.75 5.33ZM5 0C7.625 0 10 2.093 10 5.33C10 7.488 8.33125 10.0425 5 13C1.66875 10.0425 0 7.488 0 5.33C0 2.093 2.375 0 5 0Z" fill="#00A359"/>
</svg>
