<?xml version="1.0" encoding="utf-8"?>
<!-- Generator: Adobe Illustrator 25.2.1, SVG Export Plug-In . SVG Version: 6.00 Build 0)  -->
<svg version="1.1" xmlns="http://www.w3.org/2000/svg" xmlns:xlink="http://www.w3.org/1999/xlink" x="0px" y="0px"
	 viewBox="0 0 185.2 176.1" style="enable-background:new 0 0 185.2 176.1;" xml:space="preserve">
<style type="text/css">
	.st0{fill:url(#SVGID_1_);}
	.st1{fill:url(#SVGID_2_);}
	.st2{fill:url(#SVGID_3_);}
	.st3{fill:url(#SVGID_4_);}
	.st4{fill:url(#SVGID_5_);}
	.st5{fill:url(#SVGID_6_);}
	.st6{fill:url(#SVGID_7_);}
	.st7{fill:url(#SVGID_8_);}
	.st8{fill:url(#SVGID_9_);}
	.st9{fill:url(#SVGID_10_);}
	.st10{fill:url(#SVGID_11_);}
	.st11{fill:url(#SVGID_12_);}
	.st12{fill:url(#SVGID_13_);}
	.st13{fill:url(#SVGID_14_);}
	.st14{fill:url(#SVGID_15_);}
	.st15{fill:url(#SVGID_16_);}
	.st16{fill:url(#SVGID_17_);}
	.st17{fill:url(#SVGID_18_);}
	.st18{fill:url(#SVGID_19_);}
	.st19{fill:url(#SVGID_20_);}
	.st20{fill:url(#SVGID_21_);}
	.st21{fill:url(#SVGID_22_);}
	.st22{fill:url(#SVGID_23_);}
	.st23{fill:url(#SVGID_24_);}
	.st24{fill:url(#SVGID_25_);}
	.st25{fill:url(#SVGID_26_);}
	.st26{fill:url(#SVGID_27_);}
	.st27{fill:url(#SVGID_28_);}
	.st28{fill:url(#SVGID_29_);}
	.st29{fill:url(#SVGID_30_);}
	.st30{fill:url(#SVGID_31_);}
	.st31{fill:url(#SVGID_32_);}
	.st32{fill:#85D8B5;}
	.st33{fill:url(#SVGID_33_);}
	.st34{fill:#E8E8E8;}
	.st35{opacity:0.6;}
	.st36{fill-rule:evenodd;clip-rule:evenodd;fill:#00A258;}
	.st37{opacity:0.18;}
	.st38{opacity:0.15;}
	.st39{fill:#A3A29A;}
	.st40{fill:none;stroke:#00A359;stroke-width:4;stroke-miterlimit:10;}
	.st41{fill:none;stroke:#00A359;stroke-width:2.5;stroke-linecap:round;stroke-linejoin:round;stroke-miterlimit:10;}
	.st42{fill:#002C3F;}
	.st43{fill:none;stroke:#00A359;stroke-width:2;stroke-linecap:round;stroke-linejoin:round;stroke-miterlimit:10;}
	.st44{fill:#00A359;}
	.st45{fill-rule:evenodd;clip-rule:evenodd;fill:#002C3F;}
	.st46{fill-rule:evenodd;clip-rule:evenodd;fill:#00A359;}
	.st47{fill:none;}
	.st48{fill:#00A359;stroke:#FFFFFF;stroke-miterlimit:10;}
	.st49{fill:none;stroke:#002C3F;stroke-width:1.8;stroke-miterlimit:10;}
	.st50{fill:#FFFFFF;}
	.st51{fill:none;stroke:#00A359;stroke-width:3;stroke-linecap:round;stroke-linejoin:round;stroke-miterlimit:10;}
	.st52{fill:#00A359;stroke:#FFFFFF;stroke-width:0.5;stroke-miterlimit:10;}
	.st53{fill:url(#SVGID_34_);}
	.st54{fill:#F4F4F4;}
	.st55{fill:#FBFCFE;}
	.st56{fill:none;stroke:#FBFCFE;stroke-width:2;stroke-linecap:round;stroke-linejoin:round;stroke-miterlimit:10;}
	.st57{fill:#CCCCCC;}
	.st58{fill:url(#SVGID_35_);}
	.st59{opacity:0.3;fill:#6A7570;}
	.st60{fill:#D5EDE3;}
	.st61{fill:#00A258;}
	.st62{fill:none;stroke:#002C3F;stroke-width:0.75;stroke-linecap:round;stroke-linejoin:round;stroke-miterlimit:10;}
	.st63{fill:#082C3E;}
	.st64{fill:url(#SVGID_36_);}
	.st65{fill:#F6C5B9;}
	.st66{fill:#D3FBF6;}
	.st67{fill:#35B7EE;}
	.st68{fill:#E2BB59;}
	.st69{fill-rule:evenodd;clip-rule:evenodd;fill:url(#SVGID_37_);}
	.st70{opacity:0.7;fill-rule:evenodd;clip-rule:evenodd;fill:#D5EDE3;}
	.st71{fill-rule:evenodd;clip-rule:evenodd;fill:url(#SVGID_38_);}
	.st72{fill:#F5F7FD;}
	.st73{fill:#E6ECF7;}
	.st74{clip-path:url(#SVGID_40_);fill:#E6ECF7;}
	.st75{fill:#C9DBEC;}
	.st76{fill:#BECEEB;}
	.st77{fill:#F2F6FD;}
	.st78{clip-path:url(#SVGID_42_);fill:#DDE7F8;}
	.st79{opacity:0.38;fill:url(#SVGID_43_);}
	.st80{fill:#C5887B;}
	.st81{fill:#663300;}
	.st82{fill:url(#SVGID_44_);}
	.st83{fill:url(#SVGID_45_);}
	.st84{fill:url(#SVGID_46_);}
	.st85{fill:url(#SVGID_47_);}
	.st86{fill:url(#SVGID_48_);}
	.st87{fill:#9BF7D6;}
	.st88{fill:#828282;}
	.st89{fill:#E6ECF8;}
	.st90{fill:#E6ECF9;}
	.st91{fill-rule:evenodd;clip-rule:evenodd;fill:#828282;}
	.st92{fill-rule:evenodd;clip-rule:evenodd;fill:#E6ECF8;}
	.st93{fill:#46586B;}
	.st94{fill:url(#SVGID_49_);}
	.st95{clip-path:url(#SVGID_51_);fill:#E6ECF7;}
	.st96{fill:#956EE1;}
	.st97{fill:url(#SVGID_52_);}
	.st98{opacity:0.3;}
	.st99{fill:url(#SVGID_53_);}
	.st100{fill:none;stroke:#00A359;stroke-linecap:round;stroke-linejoin:round;stroke-miterlimit:10;}
	.st101{fill:#C0ABF4;}
	.st102{fill:#6A7570;}
	.st103{fill:#F0D3C7;}
	.st104{fill:#7C4939;}
	.st105{fill:#1B0E14;}
	.st106{fill:#B5AACC;}
	.st107{fill:#968AB3;}
	.st108{fill:#AF9F98;}
	.st109{fill:#BF7F64;}
	.st110{fill:#212D67;}
	.st111{fill:#F0937B;}
	.st112{fill:#54505D;}
	.st113{fill:#FDFFFF;}
	.st114{fill:#B39D98;}
	.st115{fill:#3A2E40;}
	.st116{fill-rule:evenodd;clip-rule:evenodd;fill:#FFFFFF;}
	.st117{fill-rule:evenodd;clip-rule:evenodd;fill:#006032;}
	.st118{fill:url(#SVGID_54_);}
	.st119{fill:url(#SVGID_55_);}
	.st120{fill:url(#SVGID_56_);}
	.st121{fill:#57CE90;}
	.st122{clip-path:url(#SVGID_58_);fill:#E6ECF7;}
	.st123{fill:url(#SVGID_59_);}
	.st124{fill:#46A578;}
	.st125{fill:#707C79;}
	.st126{fill:#AEBDB9;}
	.st127{fill:#07492A;}
	.st128{fill:url(#SVGID_60_);}
	.st129{fill:#0FDB7A;}
	.st130{fill:url(#SVGID_61_);}
	.st131{fill:url(#SVGID_62_);}
	.st132{fill:url(#SVGID_63_);}
	.st133{fill:url(#SVGID_64_);}
	.st134{fill:url(#SVGID_65_);}
	.st135{fill:#2B435C;}
	.st136{fill:#0E539B;}
	.st137{fill:#EDC5B7;}
	.st138{fill:#517CA5;}
	.st139{fill:#F1BCA7;}
	.st140{fill:#5FB6DC;}
	.st141{fill:#F2CFBD;}
	.st142{fill:#0EDCBF;}
	.st143{fill:#0B7060;}
	.st144{fill:#5F7D83;}
	.st145{fill:#D2F9F5;}
	.st146{fill:#0D9A84;}
	.st147{fill:#074339;}
	.st148{fill:#0DC0A6;}
	.st149{fill:#89F0E5;}
	.st150{fill:#E3E5E4;}
	.st151{fill:#385F66;}
	.st152{fill:#ECAAA9;}
	.st153{fill:#1C6065;}
	.st154{fill:#059B85;}
	.st155{fill:#4DEBDB;}
	.st156{fill:#FDFEFE;}
	.st157{fill:url(#SVGID_66_);}
	.st158{fill:url(#SVGID_67_);}
	.st159{fill:#8B8C8C;}
	.st160{fill:#00755D;}
	.st161{fill:#004537;}
	.st162{fill:url(#SVGID_68_);}
	.st163{fill:#003F36;}
	.st164{fill:#EEF9F6;}
	.st165{opacity:0.38;fill:url(#SVGID_69_);}
	.st166{fill:#008B77;}
	.st167{fill:#077A66;}
	.st168{fill-rule:evenodd;clip-rule:evenodd;fill:#05C2A8;}
	.st169{fill:url(#SVGID_70_);}
	.st170{fill:#FDFDFD;}
	.st171{fill:#DFE6F6;}
	.st172{fill:url(#SVGID_71_);}
	.st173{fill:#002C3F;stroke:#002C3F;stroke-width:0.75;stroke-miterlimit:10;}
	.st174{fill:#00A359;stroke:#00A359;stroke-miterlimit:10;}
	.st175{fill:#002C3F;stroke:#002C3F;stroke-width:0.5;stroke-miterlimit:10;}
	.st176{fill:#EAF2FA;}
	.st177{fill:#12176D;}
	.st178{fill:#4AA1FA;}
	.st179{fill:#F9B7CC;}
	.st180{fill:#B4E0FC;}
	.st181{fill:#113F86;}
	.st182{fill:#093075;}
	.st183{fill:#FB93A7;}
	.st184{fill:#FAB8CC;}
	.st185{fill:#FCDDE6;}
	.st186{fill:#FCEEF5;}
	.st187{fill:#EEF0F4;}
	.st188{fill:#171719;}
	.st189{fill:#F6C52A;}
	.st190{fill:#ECF1F7;}
	.st191{fill:#F8B91B;}
	.st192{fill:#EFE0D3;}
	.st193{fill:#3D325B;}
	.st194{fill:#FCF1E8;}
	.st195{fill:#513027;}
	.st196{opacity:0.4;}
	.st197{opacity:0.4;fill:none;stroke:#00A359;stroke-width:0.25;stroke-miterlimit:10;}
	.st198{fill:none;stroke:#00A359;stroke-width:0.25;stroke-miterlimit:10;}
	.st199{fill:url(#SVGID_72_);}
	.st200{fill:url(#SVGID_73_);}
	.st201{fill:url(#SVGID_74_);}
	.st202{fill:url(#SVGID_75_);}
	.st203{fill:url(#SVGID_76_);}
	.st204{fill:url(#SVGID_77_);}
	.st205{fill:url(#SVGID_78_);}
	.st206{fill:url(#SVGID_79_);}
	.st207{fill:url(#SVGID_80_);}
	.st208{fill:#10166D;}
	.st209{fill:#603209;}
	.st210{fill:#5AB3FA;}
	.st211{fill:#95A3D4;}
	.st212{fill:#0DD375;}
	.st213{fill:#13176D;}
	.st214{fill:#253392;}
	.st215{fill:#EBF2FA;}
	.st216{fill:#026033;}
	.st217{fill:#AD8679;}
	.st218{fill:#FAC5DC;}
	.st219{fill:#B3B7BC;}
	.st220{fill:#FFFFFF;stroke:#BAC0BF;stroke-width:0.5;stroke-miterlimit:10;}
	.st221{fill:#7F8182;}
	.st222{fill:#012D26;}
	.st223{fill:#024C3A;}
	.st224{fill:#02543F;}
	.st225{fill:#045E44;}
	.st226{fill:#05C2A8;}
	.st227{fill:#F9F8F7;}
	.st228{fill:#55A5CA;}
	.st229{fill:#0F2B4C;}
	.st230{fill:#191B22;}
	.st231{fill:#131316;}
	.st232{fill:#EEA98B;}
	.st233{fill:#0A1F3D;}
	.st234{fill:#F4D37D;}
	.st235{fill:#E0977B;}
	.st236{fill:#3F1B0B;}
	.st237{fill:#953928;}
	.st238{fill:#2B3359;}
	.st239{fill:#E9D6D0;}
	.st240{fill:#1D2128;}
	.st241{fill:#0BACBB;}
	.st242{fill:#084A98;}
	.st243{fill:#603524;}
	.st244{fill:#038C4B;}
	.st245{fill:url(#SVGID_81_);}
	.st246{fill:url(#SVGID_82_);}
	.st247{fill:#03723D;}
	.st248{fill:none;stroke:#85D8B5;stroke-width:0.5;stroke-miterlimit:10;}
	.st249{fill:url(#SVGID_83_);}
	.st250{fill:#098446;}
	.st251{fill:none;stroke:#85D8B5;stroke-width:2;stroke-miterlimit:10;}
	.st252{fill:#1BAA63;}
	.st253{fill:url(#SVGID_84_);}
	.st254{fill:url(#SVGID_85_);}
	.st255{fill:url(#SVGID_86_);}
	.st256{fill:url(#SVGID_87_);}
	.st257{fill:url(#SVGID_88_);}
	.st258{fill:url(#SVGID_89_);}
	.st259{fill:url(#SVGID_90_);}
	.st260{fill:url(#SVGID_91_);}
	.st261{fill:url(#SVGID_92_);}
	.st262{fill:url(#SVGID_93_);}
	.st263{fill:url(#SVGID_94_);}
	.st264{fill:url(#SVGID_95_);}
	.st265{fill:url(#SVGID_96_);}
	.st266{fill:url(#SVGID_97_);}
	.st267{fill:url(#SVGID_98_);}
	.st268{fill:url(#SVGID_99_);}
	.st269{fill:none;stroke:#00A359;stroke-width:0.75;stroke-miterlimit:10;}
	.st270{fill:url(#SVGID_100_);}
	.st271{fill:url(#SVGID_101_);}
	.st272{fill:url(#SVGID_102_);}
	.st273{fill:url(#SVGID_103_);}
	.st274{fill:url(#SVGID_104_);}
	.st275{fill:#00A359;stroke:#FFFFFF;stroke-width:1.5;stroke-miterlimit:10;}
	.st276{fill:url(#SVGID_105_);}
	.st277{fill:#20B4CF;}
	.st278{fill:#1BA0BC;}
	.st279{fill:#DB1628;}
	.st280{fill:#C91424;}
	.st281{fill:#3DCCE8;}
	.st282{fill:#36B7D4;}
	.st283{fill:#D69567;}
	.st284{fill:#F9CBA4;}
	.st285{fill:#CF8954;}
	.st286{fill:#EAAC78;}
	.st287{fill:#DFF1F6;}
	.st288{fill:#1386A0;}
	.st289{fill:#2099B9;}
	.st290{fill:#D7403F;}
	.st291{fill:#C12B2B;}
	.st292{fill:#844C27;}
	.st293{fill:#D7996B;}
	.st294{fill:#D7D3CF;}
	.st295{fill:#FDC103;}
	.st296{fill:#FAF9F6;}
	.st297{fill:#A6683D;}
	.st298{fill:#EBAD77;}
	.st299{fill:#FAF8ED;}
	.st300{fill:#EBEBEB;}
	.st301{fill:#E0E0E0;}
	.st302{fill:#2B3288;}
	.st303{fill:#9C9C9E;}
	.st304{fill:#FCD16B;}
	.st305{fill:#CEBDA2;}
	.st306{fill:#454B95;}
	.st307{fill:#D67B88;}
	.st308{fill:#F9C63A;}
	.st309{fill:#33398B;}
	.st310{fill:#EC939D;}
	.st311{fill:#0F1549;}
	.st312{fill:#D21F42;}
	.st313{fill:#A9258E;}
	.st314{fill:#50CAB0;}
	.st315{fill:#FDFDB5;}
	.st316{fill:#FCE2E0;}
	.st317{fill:#FA4863;}
	.st318{fill:#FCC21A;}
	.st319{fill:#077B94;}
	.st320{fill:#06CEC4;}
	.st321{fill:#F1E2E7;}
	.st322{fill:#046A81;}
	.st323{fill:#111229;}
	.st324{fill:#F9C5B7;}
	.st325{fill:#22224B;}
	.st326{fill:#07B9B0;}
	.st327{fill:#E23E56;}
	.st328{fill:#B1BDC5;}
	.st329{fill:#E59D29;}
	.st330{fill:#724527;}
	.st331{fill:#3B2D65;}
	.st332{fill:#2F4079;}
	.st333{fill:#2F4076;}
	.st334{fill:#3A2D66;}
	.st335{fill:#557BCE;}
	.st336{fill:#48224A;}
	.st337{fill:#F5DBD3;}
	.st338{fill:#7A5152;}
	.st339{fill:#F59B7E;}
	.st340{fill:#F7987A;}
	.st341{fill:#F9EBE0;}
	.st342{fill:#708CCB;}
	.st343{fill:#946262;}
	.st344{fill:#607BB8;}
	.st345{fill:#E0F1FB;}
	.st346{fill:#895A49;}
	.st347{fill:none;stroke:#32003D;stroke-width:0.75;stroke-linecap:round;stroke-linejoin:round;stroke-miterlimit:10;}
	.st348{fill:#FCC99B;}
	.st349{fill:#C4CEDD;}
	.st350{fill:#9BA8BA;}
	.st351{fill:#FF5C97;}
	.st352{fill:#FFDF29;}
	.st353{fill:#F9DBAA;}
	.st354{fill:#1A1E1C;}
	.st355{fill:#FFB65B;}
	.st356{clip-path:url(#SVGID_107_);fill:#514FB8;}
	.st357{fill:#F4C084;}
	.st358{fill:#663E1B;}
	.st359{fill:#442610;}
	.st360{fill:#110A04;}
	.st361{fill:#464C5B;}
	.st362{fill:#4D469F;}
	.st363{clip-path:url(#SVGID_109_);fill:#9B7FB5;}
	.st364{fill:#723A01;}
	.st365{fill:#D8D8D8;}
	.st366{fill:#E8AE7E;}
	.st367{fill:#6560B1;}
	.st368{clip-path:url(#SVGID_111_);fill:#9BA8BA;}
	.st369{clip-path:url(#SVGID_113_);fill:#FABB2D;}
	.st370{clip-path:url(#SVGID_115_);}
	.st371{clip-path:url(#SVGID_117_);fill:#DD9900;}
	.st372{fill:#8BD6F5;}
	.st373{fill:#D6EF31;}
	.st374{clip-path:url(#SVGID_119_);fill:#FFFFFF;}
	.st375{fill:#FEFDFD;}
	.st376{fill:#F6B29C;}
	.st377{fill:#DE8D77;}
	.st378{fill:#D3AB9F;}
	.st379{clip-path:url(#SVGID_121_);fill:#2099B9;}
	.st380{opacity:0.38;fill:url(#SVGID_122_);}
	.st381{fill:none;stroke:url(#SVGID_123_);stroke-width:0.5;stroke-miterlimit:10;}
	.st382{fill:url(#SVGID_124_);}
	.st383{fill:none;stroke:url(#SVGID_125_);stroke-width:0.5;stroke-miterlimit:10;}
	.st384{fill:url(#SVGID_126_);}
	.st385{fill:none;stroke:url(#SVGID_127_);stroke-width:0.5;stroke-miterlimit:10;}
	.st386{fill:url(#SVGID_128_);}
	.st387{fill:none;stroke:url(#SVGID_129_);stroke-width:0.5;stroke-miterlimit:10;}
	.st388{fill:url(#SVGID_130_);}
	.st389{opacity:0.81;fill:url(#SVGID_131_);}
	.st390{opacity:0.81;fill:url(#SVGID_132_);}
	.st391{fill:url(#SVGID_133_);}
	.st392{fill:url(#SVGID_134_);}
	.st393{fill:url(#SVGID_135_);}
	.st394{fill:url(#SVGID_136_);}
	.st395{fill:url(#SVGID_137_);}
	.st396{opacity:0.5;fill:#9BF7D6;}
	.st397{fill:url(#SVGID_138_);}
	.st398{fill:#3D2D29;}
	.st399{fill:#FBDF50;}
	.st400{fill:#EAB98E;}
	.st401{fill:#95794A;}
	.st402{fill:#F6D5B6;}
	.st403{fill:#C0B237;}
	.st404{fill:#E7C639;}
	.st405{fill:#CCA735;}
	.st406{fill:#8E8217;}
	.st407{fill:#C6A524;}
	.st408{fill:#F5D83E;}
	.st409{fill:#DAAB7F;}
	.st410{fill:#927848;}
	.st411{fill:#D5AD8A;}
</style>
<g id="Calque_2">
</g>
<g id="Calque_1">
	<g>
		<path class="st63" d="M101.7,25.1c-0.3,0.4-0.5,0.8-0.7,1.2c-0.2,0.4-0.4,0.8-0.5,1.1c-0.1,0.4-0.2,0.8-0.3,1.2
			c-0.1,0.4-0.1,0.9-0.1,1.3c0,0.9,0.1,1.7,0.4,2.6c0.3,0.8,0.6,1.6,1.2,2.3l-0.7,0.5c-0.6-0.8-1-1.6-1.3-2.5
			c-0.3-0.9-0.5-1.9-0.5-2.8c0-0.9,0.1-1.8,0.4-2.8s0.7-1.8,1.3-2.6L101.7,25.1z"/>
		<path class="st63" d="M104.7,30.4l-2-2.7h1.4l1.4,2l1.4-2h1.3l-1.9,2.7l2.3,3H107l-1.7-2.4l-1.7,2.4h-1.3L104.7,30.4z"/>
		<path class="st63" d="M112.2,31h-3v-1h3V31z"/>
		<path class="st63" d="M114.7,31.3c0.1,0.4,0.3,0.7,0.5,0.9c0.2,0.2,0.6,0.3,1,0.3c0.2,0,0.4,0,0.6-0.1s0.4-0.2,0.5-0.3
			c0.2-0.1,0.3-0.3,0.4-0.5c0.1-0.2,0.1-0.4,0.1-0.6c0-0.4-0.1-0.6-0.2-0.8c-0.1-0.2-0.3-0.4-0.6-0.5c-0.2-0.1-0.5-0.2-0.8-0.2
			c-0.3,0-0.6,0-0.8,0v-1c0.4,0,0.8,0,1.1-0.1c0.3-0.1,0.5-0.1,0.7-0.3s0.3-0.3,0.3-0.4c0.1-0.2,0.1-0.4,0.1-0.6
			c0-0.5-0.1-0.8-0.4-1c-0.3-0.2-0.6-0.3-1-0.3c-0.3,0-0.6,0.1-0.8,0.3s-0.4,0.4-0.6,0.7l-1.2-0.4c0.2-0.5,0.6-0.9,1-1.2
			c0.5-0.3,1-0.4,1.5-0.4c0.3,0,0.7,0,1,0.1c0.3,0.1,0.6,0.2,0.8,0.4c0.2,0.2,0.4,0.4,0.6,0.7c0.1,0.3,0.2,0.6,0.2,1
			c0,0.4-0.1,0.8-0.4,1.2c-0.3,0.4-0.6,0.6-1,0.7v0c0.3,0,0.5,0.1,0.7,0.3c0.2,0.1,0.4,0.3,0.5,0.5c0.1,0.2,0.3,0.4,0.3,0.6
			c0.1,0.2,0.1,0.5,0.1,0.8c0,0.4-0.1,0.8-0.2,1.1c-0.2,0.3-0.4,0.6-0.6,0.8s-0.6,0.4-0.9,0.5c-0.3,0.1-0.7,0.2-1.1,0.2
			c-0.6,0-1.2-0.1-1.7-0.4c-0.5-0.3-0.8-0.8-1-1.4L114.7,31.3z"/>
		<path class="st63" d="M120.2,34.9c0.3-0.4,0.5-0.8,0.7-1.2c0.2-0.4,0.4-0.8,0.5-1.1c0.1-0.4,0.2-0.8,0.3-1.2
			c0.1-0.4,0.1-0.9,0.1-1.3c0-0.9-0.1-1.7-0.4-2.6s-0.6-1.6-1.2-2.3l0.7-0.5c0.6,0.8,1,1.6,1.3,2.5c0.3,0.9,0.5,1.9,0.5,2.8
			c0,0.9-0.1,1.8-0.4,2.8c-0.3,0.9-0.7,1.8-1.3,2.6L120.2,34.9z"/>
		<path class="st63" d="M126.6,25.1c-0.3,0.4-0.5,0.8-0.7,1.2c-0.2,0.4-0.4,0.8-0.5,1.1c-0.1,0.4-0.2,0.8-0.3,1.2
			c-0.1,0.4-0.1,0.9-0.1,1.3c0,0.9,0.1,1.7,0.4,2.6c0.3,0.8,0.6,1.6,1.2,2.3l-0.7,0.5c-0.6-0.8-1-1.6-1.3-2.5
			c-0.3-0.9-0.5-1.9-0.5-2.8c0-0.9,0.1-1.8,0.4-2.8s0.7-1.8,1.3-2.6L126.6,25.1z"/>
		<path class="st63" d="M129.5,30.4l-2-2.7h1.4l1.4,2l1.4-2h1.3l-1.9,2.7l2.3,3h-1.4l-1.7-2.4l-1.7,2.4h-1.3L129.5,30.4z"/>
		<path class="st63" d="M134.5,29.3h2.7v-2.7h0.9v2.7h2.7v0.9h-2.7V33h-0.9v-2.7h-2.7V29.3z"/>
		<path class="st63" d="M147.6,26h-3.4l0,2.1c0.1,0,0.1,0,0.2-0.1c0.1,0,0.2,0,0.3-0.1c0.1,0,0.2,0,0.3,0c0.1,0,0.2,0,0.3,0
			c0.4,0,0.8,0.1,1.1,0.2c0.3,0.1,0.6,0.3,0.8,0.6c0.2,0.2,0.4,0.5,0.5,0.9s0.2,0.7,0.2,1.1c0,0.4-0.1,0.8-0.2,1.2
			c-0.2,0.3-0.4,0.6-0.6,0.9c-0.3,0.2-0.6,0.4-0.9,0.6c-0.4,0.1-0.7,0.2-1.2,0.2c-0.6,0-1.1-0.1-1.6-0.4s-0.8-0.7-1-1.3l1.2-0.4
			c0.2,0.4,0.4,0.7,0.6,0.8c0.3,0.2,0.6,0.3,1,0.3c0.2,0,0.4,0,0.6-0.1c0.2-0.1,0.4-0.2,0.5-0.3c0.1-0.1,0.3-0.3,0.4-0.5
			c0.1-0.2,0.1-0.5,0.1-0.7c0-0.6-0.2-1.1-0.6-1.4c-0.4-0.3-0.9-0.5-1.5-0.5c-0.2,0-0.5,0-0.8,0.1s-0.6,0.2-0.9,0.3l0.1-4.5h4.6V26z
			"/>
		<path class="st63" d="M149.2,34.9c0.3-0.4,0.5-0.8,0.7-1.2c0.2-0.4,0.4-0.8,0.5-1.1c0.1-0.4,0.2-0.8,0.3-1.2
			c0.1-0.4,0.1-0.9,0.1-1.3c0-0.9-0.1-1.7-0.4-2.6s-0.6-1.6-1.2-2.3l0.7-0.5c0.6,0.8,1,1.6,1.3,2.5c0.3,0.9,0.5,1.9,0.5,2.8
			c0,0.9-0.1,1.8-0.4,2.8c-0.3,0.9-0.7,1.8-1.3,2.6L149.2,34.9z"/>
		<path class="st63" d="M159.8,28.4v0.9h-6.4v-0.9H159.8z M159.8,30.3v0.9h-6.4v-0.9H159.8z"/>
		<path class="st63" d="M164.1,26.2l-1.6,1.4l-0.7-0.8l2.4-2h1v8.5h-1.2V26.2z"/>
		<path class="st63" d="M168.2,29.2c0-0.3,0-0.6,0-1s0.1-0.7,0.2-1s0.2-0.6,0.3-0.9c0.1-0.3,0.3-0.6,0.5-0.8
			c0.2-0.2,0.5-0.4,0.8-0.5c0.3-0.1,0.7-0.2,1-0.2c0.4,0,0.8,0.1,1.1,0.2c0.3,0.1,0.6,0.3,0.8,0.5c0.2,0.2,0.4,0.5,0.5,0.8
			s0.3,0.6,0.3,0.9s0.1,0.7,0.2,1c0,0.3,0,0.7,0,1c0,0.4,0,0.9-0.1,1.4c-0.1,0.5-0.2,1-0.4,1.4c-0.2,0.4-0.5,0.8-0.9,1.1
			c-0.4,0.3-0.9,0.4-1.5,0.4c-0.6,0-1.1-0.1-1.5-0.4s-0.7-0.7-0.9-1.1c-0.2-0.4-0.4-0.9-0.4-1.4S168.2,29.6,168.2,29.2z M169.4,29.2
			c0,0.3,0,0.6,0.1,1s0.1,0.8,0.2,1.1c0.1,0.4,0.3,0.7,0.5,0.9c0.2,0.2,0.6,0.4,1,0.4c0.4,0,0.7-0.1,1-0.4c0.2-0.2,0.4-0.6,0.5-0.9
			c0.1-0.4,0.2-0.7,0.2-1.1s0.1-0.7,0.1-1c0-0.2,0-0.4,0-0.7c0-0.2,0-0.5-0.1-0.7s-0.1-0.5-0.2-0.7c-0.1-0.2-0.2-0.4-0.3-0.6
			c-0.1-0.2-0.3-0.3-0.5-0.5c-0.2-0.1-0.4-0.2-0.7-0.2c-0.3,0-0.5,0.1-0.7,0.2s-0.4,0.3-0.5,0.5s-0.2,0.4-0.3,0.6
			c-0.1,0.2-0.1,0.5-0.2,0.7s-0.1,0.5-0.1,0.7S169.4,29,169.4,29.2z"/>
	</g>
	<g id="Calque_3">
	</g>
	<g>
		<g>
			<g>
				<path class="st34" d="M85.6,60.4c-1.2,1.7-2.7,2.7-4.7,3.4c-6.5,2.2-8,7.8-4.6,12c2.9,3.6,2.8,4.9,0.1,8.6
					c-0.4,0.6-0.6,1.6-1.2,2.1c-0.5,0.5-0.2,0.6-0.2,1.3c0.2,1.8-0.5,3.7,0.5,5.4c0.5,1,0.9,2.1,0.4,3.3c-0.7-0.5,1.4-1.2,0.2-1.7
					c1.4,2.2-0.2,4-1.3,5.9c-1.1,1.7-1.7,3.3-0.8,5.2c-3.5,6.4-7,12.7-10.5,19.1c-0.5-0.2-0.5-0.6-0.6-1c-1.1-4.9-2.3-9.9-3.4-14.8
					c-0.3-1.1-0.7-1.9-2.1-1.9c-6.6-0.3-13.3-0.7-19.9-1.1c-4.9-0.3-9.8-0.5-14.6-0.8c-1.4-0.1-2.2,0.4-2.5,1.7
					c-1.2,0.5-1.4,1.4-1.2,2.7c1.9,9.4,3.7,18.8,5.5,28.3c-0.9,0.9-2.3-0.1-3.3,0.7c-1.5-1.7-2.4-3.7-3.3-5.7
					c-1.2-2.6-2.1-5.3-2.6-8.1c-1-5.2-1-10.4-0.4-15.6c0.7-5.7,3-10.6,7.1-14.7c2.5-2.4,5.5-3.9,8.5-5.7c3.7-2.1,7.8-3.5,11.1-6.4
					c1.9-1.7,3.1-4,4.1-6.3c2-4.5,2-9.5,2.5-14.3c0.3-3.4,0.5-6.8,1.9-9.9c2.5-5.4,5.8-10.3,11.2-13.6c3.2-1.9,6.4-3.6,10.1-4
					c5.6-0.6,11.1-0.2,16.5,2.2c5.3,2.4,9.3,6.2,13.4,10.1c2.2,2.1,5.1,3.1,8.1,3.6c5.6,0.9,11.2,0.8,16.9,0.4
					c4.1-0.3,8.3,0.5,12.4,0.3c2.7-0.1,5.5,0,8.1,0.7c6.1,1.4,10.7,5,14,10.3c2,3.2,3.6,6.5,4.2,10.2c1,5.7,0.1,10.8-3.5,15.4
					c-2.7,3.5-4.9,7.3-6.1,11.6c-0.8,3.1-0.6,6.3,0.3,9.5c1,3.5,2.4,6.7,4.9,9.2c2.1,2.1,3.8,4.3,4.8,7c1.2,3.3,1.9,6.6,1.1,10
					c-0.3,1.3-0.2,2.8-0.9,4c-0.3-1-1.1-0.7-1.7-0.7c-4,0-8,0-12.3,0c0.4-0.4,0.6-0.6,0.8-0.9c2.8-3.1,1.6-7.5-2.5-8.4
					c-1.4-0.3-1.7-0.9-1.6-2c0.2-1.3-0.3-1.8-1.6-1.7c-2.6,0.1-5.3,0.1-7.9,0c-1.3,0-1.7,0.3-1.6,1.7c0.1,3.3,0.1,6.6,0.1,10
					c0,0.6,0,1.3-0.8,1.3c-2.4,0-4.8,0.3-7.1-0.2c2.2-0.9,3.2-2.5,3-4.8c-0.4-4.5-2.7-8.2-4.8-12c-1.4-2.6-3.1-5.1-4.1-8
					c2.6-0.8,4.8-2.2,6.2-4.5c1.7-2.7,1.9-5.6,1.3-8.6c0.6-0.3,0.4,0.7,1.1,0.4c-0.4-1.7-1.4-3.1-2.7-4.3c-1.4-1.3-2.6-2.7-3.6-4.3
					c-1.2-1.9-1-3.8,0.4-5.5c0.2-0.3,0.5-0.5,0.5-0.9c1.3-0.9,1.2-2,0.6-3.2c-0.4-0.4-0.1-1.3-0.9-1.4l0,0c0.2-0.4-0.1-0.6-0.4-0.7
					l0,0c-0.1-0.1-0.2-0.3-0.4-0.4l0,0c-0.1-0.1-0.2-0.2-0.4-0.4l0,0c-0.2-0.3-0.3-0.6-0.7-0.4l0,0c-0.1-0.7-0.5-0.8-1.1-0.7l0,0
					c-1.2-1.2-2.8-1.5-4.4-1.6c-3.8-0.4-5.9-2.5-6.2-6.3c-0.2-2.9,0.2-6-2.4-8.3c-1.4-1.2-2.5-2.8-4-3.9c-4.1-2.9-8.7-4.1-13.9-3.7
					L85.6,60.4 M143.3,123.9c0.7-1.5,0.4-3-0.3-4.3c-1.5-2.8-1.1-5.2,0.5-7.8c1.1-1.9,2.3-4,0.8-6.4c0.3,2.7-1.7,4.3-2.8,6.3
					c-1.3,2.7-2.2,5.4,0,8.1C142.5,121,143.2,122.3,143.3,123.9z"/>
				<path class="st44" d="M129.7,138.3c2.4,0.5,4.7,0.1,7.1,0.2c0.8,0,0.8-0.7,0.8-1.3c0-3.3,0.1-6.7-0.1-10
					c-0.1-1.4,0.4-1.7,1.6-1.7c2.6,0.1,5.3,0.1,7.9,0c1.3-0.1,1.8,0.4,1.6,1.7c-0.2,1.2,0.1,1.7,1.6,2c4.1,0.9,5.3,5.3,2.5,8.4
					c-0.2,0.2-0.5,0.5-0.8,0.9c4.2,0,8.3,0,12.3,0c0.7,0,1.5-0.3,1.7,0.7c-0.6,1.3-1.2,2.6-1.8,4c-0.4,1-1.3,1.3-2.2,1.5
					c-5.9,1.6-11.8,3.1-17.7,4.8c-6.1,1.7-12.1,3.4-18.1,5.1c-5.2,1.4-10.3,2.8-15.5,4.3c-1.7,0.5-3.4,0.3-5,0.2
					c-7-0.5-13.9-1.1-20.9-1.7c-7.9-0.7-15.9-1.3-23.9-1.8c-7.1-0.5-14.1-1.3-21.2-1.9c-1.1-0.1-2-0.5-2.9-1
					c-5.9-3.2-10.8-7.7-15-12.9c-0.2-0.2-0.2-0.5-0.4-0.8c0.9-0.9,2.3,0.2,3.3-0.7c0.5,0.6,1.1,1,2.1,1.1
					c11.7,0.9,23.5,1.9,35.2,2.8c2.5,0.2,2.9-0.3,2.4-2.8c-2.1-9.4-4.3-18.7-6.4-28.1c-0.3-1.2-1-1.9-2.3-1.9
					c-5.6-0.3-11.3-0.6-16.9-1c-6.1-0.4-12.2-0.5-18.3-1.1c0.3-1.4,1.1-1.8,2.5-1.7c4.9,0.3,9.8,0.6,14.6,0.8
					c6.6,0.4,13.2,0.7,19.9,1.1c1.3,0.1,1.8,0.8,2.1,1.9c1.1,4.9,2.3,9.9,3.4,14.8c0.1,0.4,0.1,0.8,0.6,1c-0.2,3,1.1,5.8,1.6,8.8
					c0.1,0.7,0.8,0.9,1.5,0.9c1.3,0,2.7,0,4,0c3,1,6.1,0.6,9.1,0.8c0.1,0,0.2,0.1,0.3,0.1c0.3,0.7,1.1,0.1,1.5,0.7
					c-0.2,0.5-0.6,0.8-1.1,1.2c-0.8,0.6-1.5,1.5-2,2.4c-0.4,0.6-0.5,1.4-0.1,2c0.4,0.6,1.1,0.4,1.6,0.3c1.4-0.4,3-0.2,4.3-1.2
					c1-0.7,2.3-1.3,3.5-0.7c0.8,0.5,1.7,0.4,2.5,0.6c1.9,0.5,3.5-0.8,5.3-0.8c1,0.7,2.2,1,3.3,0.7c4.2-1,8.5-0.6,12.8-1
					c4.8-0.5,9.6-0.7,14.4-0.9C127.4,138.8,128.6,138.7,129.7,138.3z M148.8,134c0,0.3,0,0.6,0,0.9c0.1,0.7-0.5,1.7,0.4,2
					c1,0.4,2-0.3,2.6-1c0.4-0.5,0.6-1.3,0.6-1.9c0.1-1.3-1.4-2.8-2.6-2.8c-1.9,0.1-0.7,1.6-1,2.4C148.7,133.7,148.8,133.9,148.8,134
					z"/>
				<path class="st96" d="M129.7,138.3c-1.1,0.5-2.4,0.5-3.6,0.6c-4.8,0.3-9.6,0.5-14.4,0.9c-4.3,0.4-8.6,0.1-12.8,1
					c-1.1,0.3-2.3,0-3.3-0.7c1.1-0.8,1.9-1.6,1.3-3.2c-0.6-1.6-1.8-1.8-3.3-1.6c-0.9,0.1-1.7-0.2-2.6-0.4c-2.3-0.6-4.8-1.3-7-0.2
					c-1.4,0.7-2.7,1-4.1,0.9c-0.1,0-0.2-0.1-0.3-0.1c-0.2-2.4,0.1-4.9-0.4-7.3c-0.1-0.7-0.2-1.6-0.8-1.8c-0.7-0.2-1.1,0.7-1.5,1.2
					c-2,2.5-4.1,4.9-6.4,7c-1.3,0-2.7-0.1-4,0c-0.7,0-1.4-0.3-1.5-0.9c-0.5-2.9-1.8-5.7-1.6-8.8c3.5-6.4,7-12.7,10.5-19.1
					c1.6-1.6,2.7-3.8,4.6-5.1c3.6-2.3,7.3-4.4,11.3-6.1c-0.5,3.6,0.3,5.2,3.2,6.2c5.1,1.7,8.8-1.1,8.4-6.4c3.8,0.4,7.1,2.4,10.4,4.1
					c3.8,2,6.1,5.7,8.5,9.1c1.3,1.8,1.9,4.1,3.5,5.6c1,2.8,2.7,5.4,4.1,8c2.1,3.8,4.4,7.5,4.8,12C133,135.8,132,137.4,129.7,138.3z
					 M119.2,130.1c-2.3-3.2-4.4-6.2-6.7-9.4c-0.8,3.4-1.2,6.6-1.6,9.8c-0.1,0.8,0.2,1,1,0.9C114.2,130.9,116.5,130.5,119.2,130.1z"
					/>
				<path class="st110" d="M72.6,90.7c0.2-3.4,2.1-4.4,2.6-4.9c0.5-0.5,0.8-0.8,1.2-1.4c2.7-3.7,2.8-5-0.1-8.6
					c-3.4-4.2-1.9-9.8,4.6-12c2-0.7,3.5-1.7,4.7-3.4c0,0,2.6-6.2,10.5-5.4c0,0,6.2,0.3,10.6,3.7c1.5,1.1,2.6,2.6,4,3.9
					c2.6,2.3,2.2,5.3,2.4,8.2c0.3,3.4,2.9,6.1,6.2,6.4c1.6,0.2,3.2,0.4,4.4,1.7c-0.3,0.1-1.1,0.3-0.5,0.6c2.6,1.4,3.3,3.8,3.7,6.4
					c0.1,0.4-0.3,0.6-0.5,0.9c-1.4,1.7-1.6,3.5-0.4,5.5c1,1.6,2.2,3,3.6,4.3c1.3,1.2,2.5,2.7,2.7,4.3c0.4,3-1,6.6-2.4,8.2
					c-1.8,2.1-3.6,3.7-6.2,4.5c-1.7-1.6-2.2-3.8-3.5-5.6c-2.4-3.4-4.7-7.1-8.5-9.1c-3.3-1.7-6.5-3.7-10.4-4.1
					c-0.7-2.3-0.6-4.7-0.2-6.9c0.3-1.5,0.9-3,2.5-3.9c1.9-1.1,2.6-3,2.4-5.3c-0.1-1.2-0.6-2.3-1.8-2.7c-1.3-0.4-2.2,0.5-2.9,1.5
					c-0.1,0.2-0.2,0.6-0.6,0.5c-0.7-1.5-2-2.1-3.5-2.7c-4.7-1.9-9.6-3.4-13.1-7.4c-0.6,0.4-0.8,1.1-1.1,1.7c-1.9,4.7-1.6,9.5,0,14.2
					c1.1,3.1,2.6,6.1,5.5,7.8c1.7,1,1.9,1.9,1.1,3.4c-4,1.6-7.7,3.7-11.3,6.1c-2,1.3-3,3.4-4.6,5.1c-0.8-1.9-1-3.8,0.1-5.5
					c0.2-0.4,0.4-0.7,0.6-1.1c0.6-1.4,0.4-3-0.5-4.2C73.4,94.1,72.5,92.6,72.6,90.7z"/>
				<path class="st163" d="M20.4,107.1c6.1,0.7,12.2,0.7,18.3,1.1c5.6,0.4,11.3,0.7,16.9,1c1.3,0.1,2,0.7,2.3,1.9
					c2.1,9.4,4.3,18.7,6.4,28.1c0.6,2.5,0.1,3-2.4,2.8c-11.7-0.9-23.5-1.9-35.2-2.8c-0.9-0.1-1.5-0.5-2.1-1.1
					c-1.8-9.4-3.6-18.9-5.5-28.3C18.9,108.6,19.1,107.7,20.4,107.1z M41.7,127.2c1.4,0,2.5-1.1,2.5-2.6c0-2.1-2.1-4.3-4.2-4.3
					c-1.5,0-2.5,1-2.5,2.5C37.4,124.9,39.6,127.2,41.7,127.2z"/>
				<path class="st156" d="M143.4,123.9c-0.2-1.6-0.8-2.9-1.8-4.1c-2.2-2.7-1.4-5.4,0-8.1c1-2.1,3-3.7,2.8-6.3
					c1.5,2.4,0.3,4.6-0.8,6.4c-1.6,2.6-2,5.1-0.5,7.8C143.8,120.9,144.1,122.4,143.4,123.9z"/>
				<path class="st109" d="M79.6,135.5c1.5,0.2,3.1,0,4.5-0.7c2.2-1.1,4.7-0.4,7,0.2c0.8,0.2,1.7,0.6,2.6,0.4c1.4-0.2,2.6,0,3.3,1.6
					c0.6,1.5-0.2,2.4-1.3,3.2c-1.8,0-3.4,1.3-5.3,0.8c-0.8-0.2-1.7-0.1-2.5-0.6c-1.2-0.7-2.5-0.1-3.5,0.7c-1.3,1-2.9,0.8-4.3,1.2
					c-0.5,0.1-1.2,0.3-1.6-0.3c-0.4-0.6-0.3-1.4,0.1-2c0.5-0.9,1.1-1.8,2-2.4c0.5-0.3,0.4-0.5,0.6-1
					C80.7,135.9,78.9,136.5,79.6,135.5z"/>
				<path class="st345" d="M69.3,135.4c2.3-2.2,5.6-5.3,7.6-7.7c0.4-0.5,0.8-1.4,1.5-1.2c0.7,0.2,0.7,1.1,0.8,1.8
					c0.5,2.4,0.3,5.5,0.4,7.9C76.6,135.9,72.3,136.4,69.3,135.4z"/>
				<path class="st345" d="M148.8,134c0-0.2,0-0.4,0-0.5c0.3-0.8-0.9-2.3,1-2.4c1.2,0,2.7,1.5,2.6,2.8c0,0.7-0.2,1.5-0.6,1.9
					c-0.6,0.7-1.6,1.4-2.6,1c-0.9-0.3-0.3-1.3-0.4-2C148.7,134.6,148.8,134.3,148.8,134z"/>
				<path class="st109" d="M89.9,94.8c0.9-1.5,0.6-2.4-1.1-3.4c-2.9-1.7-4.5-4.7-5.5-7.8c-1.6-4.7-1.9-9.5,0-14.2
					c0.3-0.6,0.5-1.3,1.1-1.7c3.5,4,8.4,5.6,13.1,7.4c1.4,0.6,2.8,1.2,3.5,2.7c0.4,0.1,0.5-0.2,0.6-0.5c0.7-1,1.6-1.9,2.9-1.5
					c1.2,0.4,1.7,1.5,1.8,2.7c0.2,2.2-0.5,4.2-2.4,5.3c-1.6,0.9-2.3,2.4-2.5,3.9c-0.4,2.3-0.4,4.6,0.2,6.9c0.4,5.3-3.3,8.1-8.4,6.4
					C90.2,100,89.3,98.4,89.9,94.8z"/>
				<path class="st34" d="M119.2,130.1c-2.6,0.4-5,0.8-7.3,1.2c-0.8,0.1-1.1-0.1-1-0.9c0.4-3.2,0.8-6.3,1.6-9.8
					C114.8,123.9,116.9,126.9,119.2,130.1z"/>
				<path class="st226" d="M41.7,127.2c-2,0-4.3-2.3-4.2-4.4c0-1.5,1.1-2.5,2.5-2.5c2.1,0,4.2,2.2,4.2,4.3
					C44.1,126.1,43.1,127.2,41.7,127.2z"/>
			</g>
			<path class="st160" d="M64,142.1l14.5-2.1c0,0,1.4-1.4,2.1-2.3c0.1-0.1,0.4-0.6,0.4-0.6l-15.1,2.3l-1.6,0.2L64,142.1z"/>
			<path class="st226" d="M65.1,135.1l15.4,1c0.5,0,0.7,0.6,0.4,1l-0.2,0.2l-14.9,2.2L65.1,135.1z"/>
			<path class="st160" d="M19.7,107.4l1.4-1.4c0.4-0.4,0.9-0.5,1.4-0.5l35.5,1.6c0.7,0,1.3,0.5,1.5,1.2l7,32.6l-2.5,1.1l-6.5-31.2
				c-0.2-0.8-0.8-1.3-1.6-1.4L19.7,107.4z"/>
			<path class="st163" d="M30.5,148.4l78.7,4.7l57.3-14.8l-1.9,4.7c-0.5,1.2-1.5,2.1-2.8,2.5l-53,14.1l-69.7-5.9c-1-0.1-2-0.4-2.8-1
				L30.5,148.4z"/>
			<path class="st110" d="M120.6,77.4c0,0,3.4,0.5,6.4,3.7c0,0,3,3.1-0.5,5.7c0,0-6.2-6.1-6.2-6.2C120.3,80.5,120.6,77.4,120.6,77.4
				z"/>
			<path class="st346" d="M89.4,91.7c0,0,0.7,1.4,8.4-1.8l-7.4,3.8C90.3,93.6,90.5,92.4,89.4,91.7z"/>
		</g>
	</g>
	<g>
		<path class="st44" d="M136,64.2c0-0.6,0.1-1.1,0.3-1.6c0.2-0.5,0.5-0.9,0.9-1.3c0.4-0.4,0.8-0.7,1.3-0.9c0.5-0.2,1-0.3,1.6-0.3
			s1.1,0.1,1.6,0.3c0.5,0.2,0.9,0.5,1.3,0.9c0.4,0.4,0.7,0.8,0.9,1.3c0.2,0.5,0.3,1,0.3,1.6c0,0.6-0.1,1.1-0.3,1.6
			c-0.2,0.5-0.5,0.9-0.9,1.3c-0.4,0.4-0.8,0.7-1.3,0.9c-0.5,0.2-1,0.3-1.6,0.3s-1.1-0.1-1.6-0.3c-0.5-0.2-0.9-0.5-1.3-0.9
			s-0.7-0.8-0.9-1.3C136.1,65.3,136,64.8,136,64.2z M137.8,64.2c0,0.7,0.2,1.2,0.7,1.7c0.4,0.4,1,0.7,1.7,0.7c0.7,0,1.2-0.2,1.7-0.7
			c0.4-0.4,0.7-1,0.7-1.7c0-0.7-0.2-1.2-0.7-1.7c-0.4-0.4-1-0.7-1.7-0.7c-0.7,0-1.2,0.2-1.7,0.7C138,63,137.8,63.5,137.8,64.2z
			 M140.6,77.8l-1.4-0.7l10.4-17.4l1.4,0.7L140.6,77.8z M145.9,73.3c0-0.6,0.1-1.1,0.3-1.6c0.2-0.5,0.5-0.9,0.9-1.3
			c0.4-0.4,0.8-0.7,1.3-0.9c0.5-0.2,1-0.3,1.6-0.3c0.6,0,1.1,0.1,1.6,0.3c0.5,0.2,0.9,0.5,1.3,0.9c0.4,0.4,0.7,0.8,0.9,1.3
			c0.2,0.5,0.3,1,0.3,1.6c0,0.6-0.1,1.1-0.3,1.6c-0.2,0.5-0.5,0.9-0.9,1.3c-0.4,0.4-0.8,0.7-1.3,0.9c-0.5,0.2-1,0.3-1.6,0.3
			c-0.6,0-1.1-0.1-1.6-0.3c-0.5-0.2-0.9-0.5-1.3-0.9c-0.4-0.4-0.7-0.8-0.9-1.3C146,74.5,145.9,73.9,145.9,73.3z M147.7,73.3
			c0,0.7,0.2,1.2,0.7,1.7c0.4,0.4,1,0.7,1.7,0.7c0.7,0,1.2-0.2,1.7-0.7c0.4-0.4,0.7-1,0.7-1.7s-0.2-1.2-0.7-1.7
			c-0.4-0.4-1-0.7-1.7-0.7c-0.7,0-1.2,0.2-1.7,0.7C148,72.1,147.7,72.7,147.7,73.3z"/>
	</g>
	<g>
		<path class="st44" d="M83.7,26c-0.4-0.3-0.8-0.5-1.4-0.6c-0.5-0.1-1.1-0.2-1.8-0.2c-1,0-2,0.3-2.7,0.9c-0.8,0.6-1.3,1.6-1.7,2.9
			h6.7l-0.4,1.6h-6.5c0,0.3-0.1,0.6-0.1,0.8c0,0.3,0,0.6,0,0.9c0,0.2,0,0.4,0,0.6c0,0.2,0,0.4,0,0.6h5.8l-0.4,1.6h-5.3
			c0.2,1.4,0.6,2.4,1.3,3c0.6,0.7,1.6,1,2.8,1c0.7,0,1.3-0.1,1.7-0.4c0.5-0.3,0.9-0.6,1.3-1l1.2,1.2c-0.4,0.6-1,1-1.8,1.4
			c-0.8,0.4-1.6,0.6-2.5,0.6c-1.7,0-3.1-0.5-4.1-1.5c-1-1-1.6-2.4-2-4.4h-1.7l0.5-1.6h1.1c0-0.2,0-0.4,0-0.6c0-0.2,0-0.4,0-0.7
			c0-0.6,0-1.2,0.1-1.7h-1.6l0.5-1.6H74c0.2-1,0.5-1.8,1-2.5s0.9-1.3,1.5-1.8c0.6-0.5,1.2-0.8,1.9-1.1c0.7-0.2,1.5-0.3,2.3-0.3
			c0.7,0,1.3,0.1,2,0.2c0.6,0.2,1.2,0.4,1.6,0.6L83.7,26z"/>
	</g>
	<g>
		<path class="st63" d="M158.5,89.1h4.6v-4.6h1.6v4.6h4.6v1.6h-4.6v4.6h-1.6v-4.6h-4.6V89.1z"/>
	</g>
	<g>
		<path class="st63" d="M48.2,59.3l-4.4-5.8h3.1l3,4.4l3-4.4h2.9l-4.3,5.8l5.1,6.7h-3.1l-3.7-5.3L46.1,66h-2.9L48.2,59.3z"/>
	</g>
</g>
</svg>
