<?xml version="1.0" encoding="utf-8"?>
<!-- Generator: Adobe Illustrator 25.1.0, SVG Export Plug-In . SVG Version: 6.00 Build 0)  -->
<svg version="1.1" id="Calque_1" xmlns="http://www.w3.org/2000/svg" xmlns:xlink="http://www.w3.org/1999/xlink" x="0px" y="0px"
	viewBox="0 0 124.3 126.1" style="enable-background:new 0 0 124.3 126.1;" xml:space="preserve">
<style type="text/css">
	.st0{fill:none;stroke:#A3A29A;stroke-width:0.5;stroke-miterlimit:10;}
	.st1{fill:none;stroke:#00A359;stroke-width:4;stroke-miterlimit:10;}
	.st2{fill:none;stroke:#00A359;stroke-width:2.5;stroke-linecap:round;stroke-linejoin:round;stroke-miterlimit:10;}
	.st3{fill:#002C3F;}
	.st4{fill:none;stroke:#00A359;stroke-width:2;stroke-linecap:round;stroke-linejoin:round;stroke-miterlimit:10;}
	.st5{fill:#00A359;}
	.st6{fill-rule:evenodd;clip-rule:evenodd;fill:#002C3F;}
	.st7{fill-rule:evenodd;clip-rule:evenodd;fill:#00A359;}
	.st8{fill:#00A359;stroke:#FFFFFF;stroke-miterlimit:10;}
	.st9{fill:#002C3F;stroke:#FFFFFF;stroke-width:2;stroke-miterlimit:10;}
	.st10{fill:none;stroke:#002C3F;stroke-width:3;stroke-linecap:round;stroke-linejoin:round;stroke-miterlimit:10;}
	.st11{fill:none;stroke:#00A359;stroke-width:3;stroke-linecap:round;stroke-linejoin:round;stroke-miterlimit:10;}
	.st12{fill:#002C3F;stroke:#FFFFFF;stroke-miterlimit:10;}
	.st13{fill:#00A359;stroke:#FFFFFF;stroke-width:0.5;stroke-miterlimit:10;}
	.st14{fill:#FFFFFF;}
	.st15{fill:none;stroke:#00A359;stroke-width:2.5;stroke-miterlimit:10;}
	.st16{fill:none;}
	.st17{fill:none;stroke:#002C3F;stroke-width:1.8;stroke-miterlimit:10;}
</style>
<g>
	<path class="st16" d="M89.8,63.5c3.1,0,5.6-2.5,5.6-5.6s-2.5-5.6-5.6-5.6s-5.6,2.5-5.6,5.6S86.7,63.5,89.8,63.5z"/>
	<path class="st16" d="M67.6,85.8c3.1,0,5.6-2.5,5.6-5.6s-2.5-5.6-5.6-5.6S62,77.1,62,80.2S64.5,85.8,67.6,85.8z"/>
	<path class="st16" d="M45.4,50.6c3.1,0,5.6-2.5,5.6-5.6s-2.5-5.6-5.6-5.6S39.8,42,39.8,45S42.3,50.6,45.4,50.6z"/>
	<path class="st5" d="M65.7,89.3V95c0,1,0.8,1.9,1.9,1.9c1,0,1.9-0.8,1.9-1.9v-5.7c4.2-0.9,7.4-4.6,7.4-9.1c0-4.5-3.2-8.2-7.4-9.1
		V32.1c0-1-0.8-1.9-1.9-1.9c-1,0-1.9,0.8-1.9,1.9v39.1c-4.2,0.9-7.4,4.6-7.4,9.1C58.3,84.7,61.5,88.4,65.7,89.3z M67.6,74.7
		c3.1,0,5.6,2.5,5.6,5.6s-2.5,5.6-5.6,5.6S62,83.3,62,80.2S64.5,74.7,67.6,74.7z"/>
	<path class="st3" d="M43.5,54.1V95c0,1,0.8,1.9,1.9,1.9c1,0,1.9-0.8,1.9-1.9V54.1c4.2-0.9,7.4-4.6,7.4-9.1s-3.2-8.2-7.4-9.1v-3.9
		c0-1-0.8-1.9-1.9-1.9c-1,0-1.9,0.8-1.9,1.9V36c-4.2,0.9-7.4,4.6-7.4,9.1S39.3,53.2,43.5,54.1z M45.4,39.5c3.1,0,5.6,2.5,5.6,5.6
		s-2.5,5.6-5.6,5.6s-5.6-2.5-5.6-5.6S42.3,39.5,45.4,39.5z"/>
	<path class="st3" d="M87.9,67.1V95c0,1,0.8,1.9,1.9,1.9c1,0,1.9-0.8,1.9-1.9V67.1c4.2-0.9,7.4-4.6,7.4-9.1s-3.2-8.2-7.4-9.1V32.1
		c0-1-0.8-1.9-1.9-1.9c-1,0-1.9,0.8-1.9,1.9v16.8c-4.2,0.9-7.4,4.6-7.4,9.1S83.7,66.2,87.9,67.1z M89.8,52.4c3.1,0,5.6,2.5,5.6,5.6
		s-2.5,5.6-5.6,5.6s-5.6-2.5-5.6-5.6S86.7,52.4,89.8,52.4z"/>
</g>
</svg>
