<?xml version="1.0" encoding="utf-8"?>
<!-- Generator: Adobe Illustrator 25.1.0, SVG Export Plug-In . SVG Version: 6.00 Build 0)  -->
<svg version="1.1" id="Calque_1" xmlns="http://www.w3.org/2000/svg" xmlns:xlink="http://www.w3.org/1999/xlink" x="0px" y="0px"
	 viewBox="0 0 124.3 126.1" style="enable-background:new 0 0 124.3 126.1;" xml:space="preserve">
<style type="text/css">
	.st0{fill:none;stroke:#A3A29A;stroke-width:0.5;stroke-miterlimit:10;}
	.st1{fill:none;stroke:#00A359;stroke-width:4;stroke-miterlimit:10;}
	.st2{fill:none;stroke:#00A359;stroke-width:2.5;stroke-linecap:round;stroke-linejoin:round;stroke-miterlimit:10;}
	.st3{fill:#002C3F;}
	.st4{fill:none;stroke:#00A359;stroke-width:2;stroke-linecap:round;stroke-linejoin:round;stroke-miterlimit:10;}
	.st5{fill:#00A359;}
	.st6{fill-rule:evenodd;clip-rule:evenodd;fill:#002C3F;}
	.st7{fill-rule:evenodd;clip-rule:evenodd;fill:#00A359;}
	.st8{fill:#00A359;stroke:#FFFFFF;stroke-miterlimit:10;}
	.st9{fill:#002C3F;stroke:#FFFFFF;stroke-width:2;stroke-miterlimit:10;}
	.st10{fill:none;stroke:#002C3F;stroke-width:3;stroke-linecap:round;stroke-linejoin:round;stroke-miterlimit:10;}
	.st11{fill:none;stroke:#00A359;stroke-width:3;stroke-linecap:round;stroke-linejoin:round;stroke-miterlimit:10;}
	.st12{fill:#002C3F;stroke:#FFFFFF;stroke-miterlimit:10;}
	.st13{fill:#00A359;stroke:#FFFFFF;stroke-width:0.5;stroke-miterlimit:10;}
	.st14{fill:#FFFFFF;}
	.st15{fill:none;stroke:#00A359;stroke-width:2.5;stroke-miterlimit:10;}
	.st16{fill:none;}
	.st17{fill:none;stroke:#002C3F;stroke-width:1.8;stroke-miterlimit:10;}
</style>
<g>
	<path class="st12" d="M25,59.4l8.6-8.6c0.4-0.4,0.7-1,0.6-1.6c-0.1-0.8-0.6-1.4-1.3-1.7c-0.7-0.2-1.6-0.1-2.1,0.5l-12,12
		c-0.4,0.4-0.6,0.9-0.6,1.4c0,0.5,0.2,1,0.6,1.4l12,12c0.7,0.8,2.1,0.8,2.8,0c0.8-0.7,0.8-2.1,0-2.8L25,63.4h25.4v-4H25z"/>
	<path class="st12" d="M64.2,24.3l8.6,8.6c0.4,0.4,1,0.7,1.6,0.6c0.8-0.1,1.4-0.6,1.7-1.3c0.2-0.7,0.1-1.6-0.5-2.1l-12-12
		c-0.4-0.4-0.9-0.6-1.4-0.6s-1,0.2-1.4,0.6l-12,12c-0.8,0.7-0.8,2.1-0.1,2.8s2.1,0.8,2.9,0l8.6-8.6v25.4h4V24.3z"/>
	<path class="st12" d="M60.2,98.6L51.6,90c-0.7-0.8-2.1-0.8-2.9,0s-0.7,2.1,0.1,2.9l12,12c0.4,0.4,0.9,0.6,1.4,0.6s1.1-0.2,1.4-0.6
		l12-12c0.8-0.7,0.8-2.1,0-2.9c-0.7-0.8-2.1-0.7-2.8,0l-8.6,8.6V73.2h-4V98.6z"/>
	<path class="st12" d="M105.6,60l-12-12c-0.7-0.8-2.1-0.8-2.8,0s-0.8,2.1,0,2.8l8.6,8.6H73.9v4h25.4L90.8,72c-0.8,0.7-0.8,2.1,0,2.8
		s2.1,0.7,2.8,0l12-12c0.4-0.4,0.6-0.9,0.6-1.4S105.9,60.4,105.6,60z"/>
</g>
</svg>
