<?xml version="1.0" encoding="utf-8"?>
<!-- Generator: Adobe Illustrator 25.1.0, SVG Export Plug-In . SVG Version: 6.00 Build 0)  -->
<svg version="1.1" id="Calque_1" xmlns="http://www.w3.org/2000/svg" xmlns:xlink="http://www.w3.org/1999/xlink" x="0px" y="0px"
	 viewBox="0 0 121 126.1" style="enable-background:new 0 0 121 126.1;" xml:space="preserve">
<style type="text/css">
	.st0{fill:none;stroke:#A3A29A;stroke-width:0.5;stroke-miterlimit:10;}
	.st1{fill:none;stroke:#00A359;stroke-width:4;stroke-miterlimit:10;}
	.st2{fill:none;stroke:#00A359;stroke-width:2.5;stroke-linecap:round;stroke-linejoin:round;stroke-miterlimit:10;}
	.st3{fill:#002C3F;}
	.st4{fill:none;stroke:#00A359;stroke-width:2;stroke-linecap:round;stroke-linejoin:round;stroke-miterlimit:10;}
	.st5{fill:#00A359;}
	.st6{fill-rule:evenodd;clip-rule:evenodd;fill:#002C3F;}
	.st7{fill-rule:evenodd;clip-rule:evenodd;fill:#00A359;}
	.st8{fill:#00A359;stroke:#FFFFFF;stroke-miterlimit:10;}
	.st9{fill:#002C3F;stroke:#FFFFFF;stroke-width:2;stroke-miterlimit:10;}
	.st10{fill:none;stroke:#002C3F;stroke-width:3;stroke-linecap:round;stroke-linejoin:round;stroke-miterlimit:10;}
	.st11{fill:none;stroke:#00A359;stroke-width:3;stroke-linecap:round;stroke-linejoin:round;stroke-miterlimit:10;}
	.st12{fill:#002C3F;stroke:#FFFFFF;stroke-miterlimit:10;}
	.st13{fill:#00A359;stroke:#FFFFFF;stroke-width:0.5;stroke-miterlimit:10;}
	.st14{fill:#FFFFFF;}
	.st15{fill:none;stroke:#00A359;stroke-width:2.5;stroke-miterlimit:10;}
	.st16{fill:none;}
	.st17{fill:none;stroke:#002C3F;stroke-width:1.8;stroke-miterlimit:10;}
</style>
<g>
	<g>
		<g>
			<path class="st5" d="M79.2,36.2h-8.8v-2.4c0-0.6-0.4-1-1-1h-3.9V32c0-2.8-2.5-5.1-5.6-5.1h-8c-3.1,0-5.6,2.3-5.6,5.1v0.7h-3.8
				c-0.6,0-1,0.4-1,1v2.4h-8.7c-2.1,0-3.9,1.6-3.9,3.6v49.5c0,2,1.7,3.6,3.9,3.6h46.4c2.1,0,3.9-1.6,3.9-3.6V39.8
				C83.1,37.8,81.4,36.2,79.2,36.2z M48.4,32c0-1.7,1.6-3.1,3.6-3.1h8c2,0,3.6,1.4,3.6,3.1v0.7H48.4V32z M68.5,34.8v5.4H43.6
				c0-2,0-3.3,0-5.4C63.8,34.8,64.5,34.8,68.5,34.8z M81.1,89.3c0,0.9-0.9,1.6-1.9,1.6H32.8c-1,0-1.9-0.7-1.9-1.6V39.8
				c0-0.9,0.9-1.6,1.9-1.6h8.8v2.9c0,0.6,0.4,1,1,1h26.9c0.6,0,1-0.4,1-1v-2.9h8.8c1,0,1.9,0.7,1.9,1.6L81.1,89.3L81.1,89.3z"/>
		</g>
		<g>
			<path class="st3" d="M39.4,45.7c-2.3,0-4.2,1.9-4.2,4.2c0,2.3,1.9,4.2,4.2,4.2s4.2-1.9,4.2-4.2C43.6,47.6,41.7,45.7,39.4,45.7z
				 M39.4,52.2c-1.2,0-2.2-1-2.2-2.2s1-2.2,2.2-2.2s2.2,1,2.2,2.2S40.6,52.2,39.4,52.2z"/>
		</g>
		<g>
			<path class="st3" d="M39.4,57c-2.3,0-4.2,1.9-4.2,4.2s1.9,4.2,4.2,4.2s4.2-1.9,4.2-4.2S41.7,57,39.4,57z M39.4,63.5
				c-1.2,0-2.2-1-2.2-2.2s1-2.2,2.2-2.2s2.2,1,2.2,2.2S40.6,63.5,39.4,63.5z"/>
		</g>
		<g>
			<path class="st3" d="M39.4,68.3c-2.3,0-4.2,1.9-4.2,4.2c0,2.3,1.9,4.2,4.2,4.2s4.2-1.9,4.2-4.2C43.6,70.2,41.7,68.3,39.4,68.3z
				 M39.4,74.8c-1.2,0-2.2-1-2.2-2.2c0-1.2,1-2.2,2.2-2.2s2.2,1,2.2,2.2C41.6,73.8,40.6,74.8,39.4,74.8z"/>
		</g>
		<g>
			<path class="st3" d="M39.4,79.6c-2.3,0-4.2,1.9-4.2,4.2c0,2.3,1.9,4.2,4.2,4.2s4.2-1.9,4.2-4.2C43.6,81.5,41.7,79.6,39.4,79.6z
				 M39.4,86.1c-1.2,0-2.2-1-2.2-2.2c0-1.2,1-2.2,2.2-2.2s2.2,1,2.2,2.2C41.6,85.1,40.6,86.1,39.4,86.1z"/>
		</g>
		<g>
			<path class="st3" d="M76.3,50.6H46.6c-0.6,0-1,0.4-1,1c0,0.6,0.4,1,1,1h29.7c0.6,0,1-0.4,1-1C77.3,51,76.8,50.6,76.3,50.6z"/>
		</g>
		<g>
			<path class="st3" d="M76.3,61.6H46.6c-0.6,0-1,0.4-1,1s0.4,1,1,1h29.7c0.6,0,1-0.4,1-1C77.3,62.1,76.8,61.6,76.3,61.6z"/>
		</g>
		<g>
			<path class="st3" d="M76.3,72.7H46.6c-0.6,0-1,0.4-1,1s0.4,1,1,1h29.7c0.6,0,1-0.4,1-1S76.8,72.7,76.3,72.7z"/>
		</g>
		<g>
			<path class="st3" d="M76.3,83.7H46.6c-0.6,0-1,0.4-1,1s0.4,1,1,1h29.7c0.6,0,1-0.4,1-1S76.8,83.7,76.3,83.7z"/>
		</g>
	</g>
	<g>
		<path class="st9" d="M109.3,71.4l-22,22L76.1,82.2c-1.1-1.1-2.9-1.1-4,0c-1.1,1.1-1.1,2.9,0,4l13.2,13.2c0.5,0.5,1.3,0.9,2,0.9
			c0.8,0,1.5-0.3,2-0.9l24-24c1.1-1.1,1.1-2.9,0-4C112.2,70.3,110.5,70.3,109.3,71.4z"/>
	</g>
</g>
</svg>
