<?xml version="1.0" encoding="utf-8"?>
<!-- Generator: Adobe Illustrator 25.2.1, SVG Export Plug-In . SVG Version: 6.00 Build 0)  -->
<svg version="1.1" xmlns="http://www.w3.org/2000/svg" xmlns:xlink="http://www.w3.org/1999/xlink" x="0px" y="0px"
	 viewBox="0 0 185.2 176.1" style="enable-background:new 0 0 185.2 176.1;" xml:space="preserve">
<style type="text/css">
	.st0{fill:url(#SVGID_1_);}
	.st1{fill:url(#SVGID_2_);}
	.st2{fill:url(#SVGID_3_);}
	.st3{fill:url(#SVGID_4_);}
	.st4{fill:url(#SVGID_5_);}
	.st5{fill:url(#SVGID_6_);}
	.st6{fill:url(#SVGID_7_);}
	.st7{fill:url(#SVGID_8_);}
	.st8{fill:url(#SVGID_9_);}
	.st9{fill:url(#SVGID_10_);}
	.st10{fill:url(#SVGID_11_);}
	.st11{fill:url(#SVGID_12_);}
	.st12{fill:url(#SVGID_13_);}
	.st13{fill:url(#SVGID_14_);}
	.st14{fill:url(#SVGID_15_);}
	.st15{fill:url(#SVGID_16_);}
	.st16{fill:url(#SVGID_17_);}
	.st17{fill:url(#SVGID_18_);}
	.st18{fill:url(#SVGID_19_);}
	.st19{fill:url(#SVGID_20_);}
	.st20{fill:url(#SVGID_21_);}
	.st21{fill:url(#SVGID_22_);}
	.st22{fill:url(#SVGID_23_);}
	.st23{fill:url(#SVGID_24_);}
	.st24{fill:url(#SVGID_25_);}
	.st25{fill:url(#SVGID_26_);}
	.st26{fill:url(#SVGID_27_);}
	.st27{fill:url(#SVGID_28_);}
	.st28{fill:url(#SVGID_29_);}
	.st29{fill:url(#SVGID_30_);}
	.st30{fill:url(#SVGID_31_);}
	.st31{fill:url(#SVGID_32_);}
	.st32{fill:#85D8B5;}
	.st33{fill:url(#SVGID_33_);}
	.st34{fill:#E8E8E8;}
	.st35{opacity:0.6;}
	.st36{fill-rule:evenodd;clip-rule:evenodd;fill:#00A258;}
	.st37{opacity:0.18;}
	.st38{opacity:0.15;}
	.st39{fill:#A3A29A;}
	.st40{fill:none;stroke:#00A359;stroke-width:4;stroke-miterlimit:10;}
	.st41{fill:none;stroke:#00A359;stroke-width:2.5;stroke-linecap:round;stroke-linejoin:round;stroke-miterlimit:10;}
	.st42{fill:#002C3F;}
	.st43{fill:none;stroke:#00A359;stroke-width:2;stroke-linecap:round;stroke-linejoin:round;stroke-miterlimit:10;}
	.st44{fill:#00A359;}
	.st45{fill-rule:evenodd;clip-rule:evenodd;fill:#002C3F;}
	.st46{fill-rule:evenodd;clip-rule:evenodd;fill:#00A359;}
	.st47{fill:none;}
	.st48{fill:#00A359;stroke:#FFFFFF;stroke-miterlimit:10;}
	.st49{fill:none;stroke:#002C3F;stroke-width:1.8;stroke-miterlimit:10;}
	.st50{fill:#FFFFFF;}
	.st51{fill:none;stroke:#00A359;stroke-width:3;stroke-linecap:round;stroke-linejoin:round;stroke-miterlimit:10;}
	.st52{fill:#00A359;stroke:#FFFFFF;stroke-width:0.5;stroke-miterlimit:10;}
	.st53{fill:url(#SVGID_34_);}
	.st54{fill:#F4F4F4;}
	.st55{fill:#FBFCFE;}
	.st56{fill:none;stroke:#FBFCFE;stroke-width:2;stroke-linecap:round;stroke-linejoin:round;stroke-miterlimit:10;}
	.st57{fill:#CCCCCC;}
	.st58{fill:url(#SVGID_35_);}
	.st59{opacity:0.3;fill:#6A7570;}
	.st60{fill:#D5EDE3;}
	.st61{fill:#00A258;}
	.st62{fill:none;stroke:#002C3F;stroke-width:0.75;stroke-linecap:round;stroke-linejoin:round;stroke-miterlimit:10;}
	.st63{fill:#082C3E;}
	.st64{fill:url(#SVGID_36_);}
	.st65{fill:#F6C5B9;}
	.st66{fill:#D3FBF6;}
	.st67{fill:#35B7EE;}
	.st68{fill:#E2BB59;}
	.st69{fill-rule:evenodd;clip-rule:evenodd;fill:url(#SVGID_37_);}
	.st70{opacity:0.7;fill-rule:evenodd;clip-rule:evenodd;fill:#D5EDE3;}
	.st71{fill-rule:evenodd;clip-rule:evenodd;fill:url(#SVGID_38_);}
	.st72{fill:#F5F7FD;}
	.st73{fill:#E6ECF7;}
	.st74{clip-path:url(#SVGID_40_);fill:#E6ECF7;}
	.st75{fill:#C9DBEC;}
	.st76{fill:#BECEEB;}
	.st77{fill:#F2F6FD;}
	.st78{clip-path:url(#SVGID_42_);fill:#DDE7F8;}
	.st79{opacity:0.38;fill:url(#SVGID_43_);}
	.st80{fill:#C5887B;}
	.st81{fill:#663300;}
	.st82{fill:url(#SVGID_44_);}
	.st83{fill:url(#SVGID_45_);}
	.st84{fill:url(#SVGID_46_);}
	.st85{fill:url(#SVGID_47_);}
	.st86{fill:url(#SVGID_48_);}
	.st87{fill:#9BF7D6;}
	.st88{fill:#828282;}
	.st89{fill:#E6ECF8;}
	.st90{fill:#E6ECF9;}
	.st91{fill-rule:evenodd;clip-rule:evenodd;fill:#828282;}
	.st92{fill-rule:evenodd;clip-rule:evenodd;fill:#E6ECF8;}
	.st93{fill:#46586B;}
	.st94{fill:url(#SVGID_49_);}
	.st95{clip-path:url(#SVGID_51_);fill:#E6ECF7;}
	.st96{fill:#956EE1;}
	.st97{fill:url(#SVGID_52_);}
	.st98{opacity:0.3;}
	.st99{fill:url(#SVGID_53_);}
	.st100{fill:none;stroke:#00A359;stroke-linecap:round;stroke-linejoin:round;stroke-miterlimit:10;}
	.st101{fill:#C0ABF4;}
	.st102{fill:#6A7570;}
	.st103{fill:#F0D3C7;}
	.st104{fill:#7C4939;}
	.st105{fill:#1B0E14;}
	.st106{fill:#B5AACC;}
	.st107{fill:#968AB3;}
	.st108{fill:#AF9F98;}
	.st109{fill:#BF7F64;}
	.st110{fill:#212D67;}
	.st111{fill:#F0937B;}
	.st112{fill:#54505D;}
	.st113{fill:#FDFFFF;}
	.st114{fill:#B39D98;}
	.st115{fill:#3A2E40;}
	.st116{fill-rule:evenodd;clip-rule:evenodd;fill:#FFFFFF;}
	.st117{fill-rule:evenodd;clip-rule:evenodd;fill:#006032;}
	.st118{fill:url(#SVGID_54_);}
	.st119{fill:url(#SVGID_55_);}
	.st120{fill:url(#SVGID_56_);}
	.st121{fill:#57CE90;}
	.st122{clip-path:url(#SVGID_58_);fill:#E6ECF7;}
	.st123{fill:url(#SVGID_59_);}
	.st124{fill:#46A578;}
	.st125{fill:#707C79;}
	.st126{fill:#AEBDB9;}
	.st127{fill:#07492A;}
	.st128{fill:url(#SVGID_60_);}
	.st129{fill:#0FDB7A;}
	.st130{fill:url(#SVGID_61_);}
	.st131{fill:url(#SVGID_62_);}
	.st132{fill:url(#SVGID_63_);}
	.st133{fill:url(#SVGID_64_);}
	.st134{fill:url(#SVGID_65_);}
	.st135{fill:#2B435C;}
	.st136{fill:#0E539B;}
	.st137{fill:#EDC5B7;}
	.st138{fill:#517CA5;}
	.st139{fill:#F1BCA7;}
	.st140{fill:#5FB6DC;}
	.st141{fill:#F2CFBD;}
	.st142{fill:#0EDCBF;}
	.st143{fill:#0B7060;}
	.st144{fill:#5F7D83;}
	.st145{fill:#D2F9F5;}
	.st146{fill:#0D9A84;}
	.st147{fill:#074339;}
	.st148{fill:#0DC0A6;}
	.st149{fill:#89F0E5;}
	.st150{fill:#E3E5E4;}
	.st151{fill:#385F66;}
	.st152{fill:#ECAAA9;}
	.st153{fill:#1C6065;}
	.st154{fill:#059B85;}
	.st155{fill:#4DEBDB;}
	.st156{fill:#FDFEFE;}
	.st157{fill:url(#SVGID_66_);}
	.st158{fill:url(#SVGID_67_);}
	.st159{fill:#8B8C8C;}
	.st160{fill:#00755D;}
	.st161{fill:#004537;}
	.st162{fill:url(#SVGID_68_);}
	.st163{fill:#003F36;}
	.st164{fill:#EEF9F6;}
	.st165{opacity:0.38;fill:url(#SVGID_69_);}
	.st166{fill:#008B77;}
	.st167{fill:#077A66;}
	.st168{fill-rule:evenodd;clip-rule:evenodd;fill:#05C2A8;}
	.st169{fill:url(#SVGID_70_);}
	.st170{fill:#FDFDFD;}
	.st171{fill:#DFE6F6;}
	.st172{fill:url(#SVGID_71_);}
	.st173{fill:#002C3F;stroke:#002C3F;stroke-width:0.75;stroke-miterlimit:10;}
	.st174{fill:#00A359;stroke:#00A359;stroke-miterlimit:10;}
	.st175{fill:#002C3F;stroke:#002C3F;stroke-width:0.5;stroke-miterlimit:10;}
	.st176{fill:#EAF2FA;}
	.st177{fill:#12176D;}
	.st178{fill:#4AA1FA;}
	.st179{fill:#F9B7CC;}
	.st180{fill:#B4E0FC;}
	.st181{fill:#113F86;}
	.st182{fill:#093075;}
	.st183{fill:#FB93A7;}
	.st184{fill:#FAB8CC;}
	.st185{fill:#FCDDE6;}
	.st186{fill:#FCEEF5;}
	.st187{fill:#EEF0F4;}
	.st188{fill:#171719;}
	.st189{fill:#F6C52A;}
	.st190{fill:#ECF1F7;}
	.st191{fill:#F8B91B;}
	.st192{fill:#EFE0D3;}
	.st193{fill:#3D325B;}
	.st194{fill:#FCF1E8;}
	.st195{fill:#513027;}
	.st196{opacity:0.4;}
	.st197{opacity:0.4;fill:none;stroke:#00A359;stroke-width:0.25;stroke-miterlimit:10;}
	.st198{fill:none;stroke:#00A359;stroke-width:0.25;stroke-miterlimit:10;}
	.st199{fill:url(#SVGID_72_);}
	.st200{fill:url(#SVGID_73_);}
	.st201{fill:url(#SVGID_74_);}
	.st202{fill:url(#SVGID_75_);}
	.st203{fill:url(#SVGID_76_);}
	.st204{fill:url(#SVGID_77_);}
	.st205{fill:url(#SVGID_78_);}
	.st206{fill:url(#SVGID_79_);}
	.st207{fill:url(#SVGID_80_);}
	.st208{fill:#10166D;}
	.st209{fill:#603209;}
	.st210{fill:#5AB3FA;}
	.st211{fill:#95A3D4;}
	.st212{fill:#0DD375;}
	.st213{fill:#13176D;}
	.st214{fill:#253392;}
	.st215{fill:#EBF2FA;}
	.st216{fill:#026033;}
	.st217{fill:#AD8679;}
	.st218{fill:#FAC5DC;}
	.st219{fill:#B3B7BC;}
	.st220{fill:#FFFFFF;stroke:#BAC0BF;stroke-width:0.5;stroke-miterlimit:10;}
	.st221{fill:#7F8182;}
	.st222{fill:#012D26;}
	.st223{fill:#024C3A;}
	.st224{fill:#02543F;}
	.st225{fill:#045E44;}
	.st226{fill:#05C2A8;}
	.st227{fill:#F9F8F7;}
	.st228{fill:#55A5CA;}
	.st229{fill:#0F2B4C;}
	.st230{fill:#191B22;}
	.st231{fill:#131316;}
	.st232{fill:#EEA98B;}
	.st233{fill:#0A1F3D;}
	.st234{fill:#F4D37D;}
	.st235{fill:#E0977B;}
	.st236{fill:#3F1B0B;}
	.st237{fill:#953928;}
	.st238{fill:#2B3359;}
	.st239{fill:#E9D6D0;}
	.st240{fill:#1D2128;}
	.st241{fill:#0BACBB;}
	.st242{fill:#084A98;}
	.st243{fill:#603524;}
	.st244{fill:#038C4B;}
	.st245{fill:url(#SVGID_81_);}
	.st246{fill:url(#SVGID_82_);}
	.st247{fill:#03723D;}
	.st248{fill:none;stroke:#85D8B5;stroke-width:0.5;stroke-miterlimit:10;}
	.st249{fill:url(#SVGID_83_);}
	.st250{fill:#098446;}
	.st251{fill:none;stroke:#85D8B5;stroke-width:2;stroke-miterlimit:10;}
	.st252{fill:#1BAA63;}
	.st253{fill:url(#SVGID_84_);}
	.st254{fill:url(#SVGID_85_);}
	.st255{fill:url(#SVGID_86_);}
	.st256{fill:url(#SVGID_87_);}
	.st257{fill:url(#SVGID_88_);}
	.st258{fill:url(#SVGID_89_);}
	.st259{fill:url(#SVGID_90_);}
	.st260{fill:url(#SVGID_91_);}
	.st261{fill:url(#SVGID_92_);}
	.st262{fill:url(#SVGID_93_);}
	.st263{fill:url(#SVGID_94_);}
	.st264{fill:url(#SVGID_95_);}
	.st265{fill:url(#SVGID_96_);}
	.st266{fill:url(#SVGID_97_);}
	.st267{fill:url(#SVGID_98_);}
	.st268{fill:url(#SVGID_99_);}
	.st269{fill:none;stroke:#00A359;stroke-width:0.75;stroke-miterlimit:10;}
	.st270{fill:url(#SVGID_100_);}
	.st271{fill:url(#SVGID_101_);}
	.st272{fill:url(#SVGID_102_);}
	.st273{fill:url(#SVGID_103_);}
	.st274{fill:url(#SVGID_104_);}
	.st275{fill:#00A359;stroke:#FFFFFF;stroke-width:1.5;stroke-miterlimit:10;}
	.st276{fill:url(#SVGID_105_);}
	.st277{fill:#20B4CF;}
	.st278{fill:#1BA0BC;}
	.st279{fill:#DB1628;}
	.st280{fill:#C91424;}
	.st281{fill:#3DCCE8;}
	.st282{fill:#36B7D4;}
	.st283{fill:#D69567;}
	.st284{fill:#F9CBA4;}
	.st285{fill:#CF8954;}
	.st286{fill:#EAAC78;}
	.st287{fill:#DFF1F6;}
	.st288{fill:#1386A0;}
	.st289{fill:#2099B9;}
	.st290{fill:#D7403F;}
	.st291{fill:#C12B2B;}
	.st292{fill:#844C27;}
	.st293{fill:#D7996B;}
	.st294{fill:#D7D3CF;}
	.st295{fill:#FDC103;}
	.st296{fill:#FAF9F6;}
	.st297{fill:#A6683D;}
	.st298{fill:#EBAD77;}
	.st299{fill:#FAF8ED;}
	.st300{fill:#EBEBEB;}
	.st301{fill:#E0E0E0;}
	.st302{fill:#2B3288;}
	.st303{fill:#9C9C9E;}
	.st304{fill:#FCD16B;}
	.st305{fill:#CEBDA2;}
	.st306{fill:#454B95;}
	.st307{fill:#D67B88;}
	.st308{fill:#F9C63A;}
	.st309{fill:#33398B;}
	.st310{fill:#EC939D;}
	.st311{fill:#0F1549;}
	.st312{fill:#D21F42;}
	.st313{fill:#A9258E;}
	.st314{fill:#50CAB0;}
	.st315{fill:#FDFDB5;}
	.st316{fill:#FCE2E0;}
	.st317{fill:#FA4863;}
	.st318{fill:#FCC21A;}
	.st319{fill:#077B94;}
	.st320{fill:#06CEC4;}
	.st321{fill:#F1E2E7;}
	.st322{fill:#046A81;}
	.st323{fill:#111229;}
	.st324{fill:#F9C5B7;}
	.st325{fill:#22224B;}
	.st326{fill:#07B9B0;}
	.st327{fill:#E23E56;}
	.st328{fill:#B1BDC5;}
	.st329{fill:#E59D29;}
	.st330{fill:#724527;}
	.st331{fill:#3B2D65;}
	.st332{fill:#2F4079;}
	.st333{fill:#2F4076;}
	.st334{fill:#3A2D66;}
	.st335{fill:#557BCE;}
	.st336{fill:#48224A;}
	.st337{fill:#F5DBD3;}
	.st338{fill:#7A5152;}
	.st339{fill:#F59B7E;}
	.st340{fill:#F7987A;}
	.st341{fill:#F9EBE0;}
	.st342{fill:#708CCB;}
	.st343{fill:#946262;}
	.st344{fill:#607BB8;}
	.st345{fill:#E0F1FB;}
	.st346{fill:#895A49;}
	.st347{fill:none;stroke:#32003D;stroke-width:0.75;stroke-linecap:round;stroke-linejoin:round;stroke-miterlimit:10;}
	.st348{fill:#FCC99B;}
	.st349{fill:#C4CEDD;}
	.st350{fill:#9BA8BA;}
	.st351{fill:#FF5C97;}
	.st352{fill:#FFDF29;}
	.st353{fill:#F9DBAA;}
	.st354{fill:#1A1E1C;}
	.st355{fill:#FFB65B;}
	.st356{clip-path:url(#SVGID_107_);fill:#514FB8;}
	.st357{fill:#F4C084;}
	.st358{fill:#663E1B;}
	.st359{fill:#442610;}
	.st360{fill:#110A04;}
	.st361{fill:#464C5B;}
	.st362{fill:#4D469F;}
	.st363{clip-path:url(#SVGID_109_);fill:#9B7FB5;}
	.st364{fill:#723A01;}
	.st365{fill:#D8D8D8;}
	.st366{fill:#E8AE7E;}
	.st367{fill:#6560B1;}
	.st368{clip-path:url(#SVGID_111_);fill:#9BA8BA;}
	.st369{clip-path:url(#SVGID_113_);fill:#FABB2D;}
	.st370{clip-path:url(#SVGID_115_);}
	.st371{clip-path:url(#SVGID_117_);fill:#DD9900;}
	.st372{fill:#8BD6F5;}
	.st373{fill:#D6EF31;}
	.st374{clip-path:url(#SVGID_119_);fill:#FFFFFF;}
	.st375{fill:#FEFDFD;}
	.st376{fill:#F6B29C;}
	.st377{fill:#DE8D77;}
	.st378{fill:#D3AB9F;}
	.st379{clip-path:url(#SVGID_121_);fill:#2099B9;}
	.st380{opacity:0.38;fill:url(#SVGID_122_);}
	.st381{fill:none;stroke:url(#SVGID_123_);stroke-width:0.5;stroke-miterlimit:10;}
	.st382{fill:url(#SVGID_124_);}
	.st383{fill:none;stroke:url(#SVGID_125_);stroke-width:0.5;stroke-miterlimit:10;}
	.st384{fill:url(#SVGID_126_);}
	.st385{fill:none;stroke:url(#SVGID_127_);stroke-width:0.5;stroke-miterlimit:10;}
	.st386{fill:url(#SVGID_128_);}
	.st387{fill:none;stroke:url(#SVGID_129_);stroke-width:0.5;stroke-miterlimit:10;}
	.st388{fill:url(#SVGID_130_);}
	.st389{opacity:0.81;fill:url(#SVGID_131_);}
	.st390{opacity:0.81;fill:url(#SVGID_132_);}
	.st391{fill:url(#SVGID_133_);}
	.st392{fill:url(#SVGID_134_);}
	.st393{fill:url(#SVGID_135_);}
	.st394{fill:url(#SVGID_136_);}
	.st395{fill:url(#SVGID_137_);}
	.st396{opacity:0.5;fill:#9BF7D6;}
	.st397{fill:url(#SVGID_138_);}
	.st398{fill:#3D2D29;}
	.st399{fill:#FBDF50;}
	.st400{fill:#EAB98E;}
	.st401{fill:#95794A;}
	.st402{fill:#F6D5B6;}
	.st403{fill:#C0B237;}
	.st404{fill:#E7C639;}
	.st405{fill:#CCA735;}
	.st406{fill:#8E8217;}
	.st407{fill:#C6A524;}
	.st408{fill:#F5D83E;}
	.st409{fill:#DAAB7F;}
	.st410{fill:#927848;}
	.st411{fill:#D5AD8A;}
</style>
<g id="Calque_2">
</g>
<g id="Calque_1">
	<g id="Calque_3">
	</g>
	<path class="st34" d="M153.5,148.6c-4.1,9.5-13.8,19-36.6,12.7c0,0-4.8-4.9-26.8-8.6c-22.1-3.7-28.7-11.2-29.5-18.9
		c-0.7-6.2,2.1-8.3-21.2-17.9S20.9,81.3,20.9,81.3s4.1-29.9,40-33.2c7.3-0.7,15.1,0,25.3-12.3s54.9-1.5,54.9-1.5s15.3,4.1,20.6,25.9
		c2.3,9.4,0.8,19-3.7,27.8c-4.1,8-8.2,21.7-3.1,40.3C156.7,135.1,156.3,142.1,153.5,148.6z"/>
	<g>
		<g>
			<path class="st163" d="M20.5,109.5c0.2-2.2,0.2-4.4,0.5-6.5c0.6-4.2,2.9-6.8,6.7-8.4c4.1-1.7,8.5-2.2,12.9-2.4
				c8.6-0.4,17.1-0.1,25.7,0.4c2.6,0.1,4.9,1,7.2,2.3c0.1,1-0.4,1.9-0.7,2.8c-0.3,0.3-0.7,0.6-1,0.9c-5.9,1.2-11.5,3.3-16.1,7.3
				c-2.1,1.8-4,3.8-4.5,6.7c-0.9,4.6-1.8,9.2-1.8,14c-0.6,2.9-0.5,5.8-0.5,8.6c-0.1,1.6-0.2,3.3-0.2,4.9c0,6-0.3,12,0.3,18
				c0.1,1.3,1.1,1,1.8,1c13.2,0,26.4,0,39.7,0c0.9,0,1.8,0.2,2.4-0.8c0.1,0,0.2,0,0.3,0c0.7,0.8,1.7,0.7,2.6,0.7
				c20.6,0,41.2,0,61.8,0c1.6,0,3.3-0.1,4.9-0.1c0.3,0.2,0.7,0,0.9,0c0.7,0.1,1.5,0,2.3,0c1.9,0.1,1.7,2.9-0.1,2.9
				c-0.1,0-0.2,0-0.3,0c-33.4,0-66.7,0-100.1,0c-10.2,0-20.5,0-30.7,0c-1.8,0-3.7-0.1-5.5,0.5c-0.5-0.8-1.2-0.4-1.9-0.5
				c-0.9-0.1-1.8,0-2.7,0c-0.9-0.1-1.6-0.7-1.7-1.5c0-0.7,0.8-1.1,1.5-1.2c1,0,2-0.9,3.2-0.2c0.8,0.5,1.5-0.2,1.5-1.1
				c0-0.7-0.2-1.3-0.4-2c-2.3-8-3.9-16.2-5.5-24.5c-1-5.2-1.4-10.5-2.1-15.8C20.7,113.6,20.8,111.5,20.5,109.5z"/>
			<path class="st187" d="M162.2,158.9c-1.6,0-3.3,0.1-4.9,0.1c-20.6,0-41.2,0-61.8,0c-1,0-1.9,0.1-2.6-0.8c0.8-1.9,2.1-2.9,4.4-2.8
				c4.4,0.1,8.7,0,13.1-0.1c0.6,0,1.4,0.3,1.7-0.6c0.9-0.3,0.8-1,0.8-1.7c0.1-1.7,0.1-3.3,0.7-5c1.1-3.6,0.3-4.4-3.4-4.3
				c-0.2,0-0.4,0-0.6,0c0-0.3,0-0.5-0.1-0.8c0.7,0.1,1.3,0.3,2,0.3c1.6,0.2,2.6,0,2.7-2.1c0.1-2.8,0.5-5.7,0.8-8.5
				c0.5-5.1,1.4-10.1,1.9-15.2c0.2-1.5,0.7-1.8,2-1.8c5.3,0,10.5,0,15.8,0l12.8-0.4l6.2,0c3.4,0,6.8,0,10.2,0c0.5,0,1.3,0,2,0.1
				c1,0.1,1.8,1,1.6,2l-0.4,2.3c-0.7,3.3-1,6.7-1.4,10.1c-0.7,6-1.4,11.9-2.2,17.9C162.9,151.3,161.9,155,162.2,158.9z"/>
			<path class="st104" d="M99.8,79.5c-0.3,1.1-0.4,2.2-0.4,3.3c0,1.3-0.1,2.6-0.3,3.9c0,0.2,0,0.4-0.1,0.5
				c-0.7,4.6-1.5,9.1-4.6,12.8c-0.4,0.3-1,0.8-1.5,1.1c-2.2,1-4.4,1.3-6.8,0.6c-1-0.3-1.4,0.1-1.5,1.2c-0.2,2.4,0.7,4.8,0.1,7.2
				c-3.5,2.1-6.6,1.9-9.8-0.6c-0.5-0.4-1-0.6-1.6-0.7c-1-1.7-1.7-3.5-1.5-5.5c0.2-1.7,0.4-3.5,0.6-5.2c0.2-1.2,1-2.2,0.9-3.4
				c1-1.6,1.1-3.3,1.1-5.1c0-0.4-0.2-0.7-0.6-0.9c-3.6-2-3.9-4.1-1-7c0.2-0.2,0.2-0.5,0.3-0.7c0.4,0.3,0.3,0.9,0.9,1.1
				c2.2,0.7,2.6,2.6,3,4.5c0.2,0.9,0.2,1.8,0.2,2.7c1-2.1,1.3-4.3,2.3-6.3c1.1-2.1,1.8-4.1,1.7-6.6c-0.1-2.2,1.5-3.1,3.6-2.4
				c2.2,0.7,4.2,2,6.1,3.3c2.8,1.8,5.5,2.4,8.2-0.1C99.7,78.1,99.3,78.9,99.8,79.5z"/>
			<path class="st188" d="M99.8,79.5c-0.6-0.6-0.1-1.5-0.6-2.3c-2.7,2.5-5.4,1.9-8.2,0.1c-2-1.3-3.9-2.6-6.1-3.3
				c-2.1-0.7-3.7,0.2-3.6,2.4c0.1,2.5-0.6,4.5-1.7,6.6c-1,2-1.4,4.2-2.3,6.3c-0.1-0.9-0.1-1.8-0.2-2.7c-0.4-1.9-0.8-3.8-3-4.5
				c-0.6-0.2-0.5-0.8-0.9-1.1c-0.3-2.9-0.5-5.7-0.3-8.6c0.6-6.5,6.6-9.8,12.5-8.2c1.2,0.3,2,0.3,3-0.7c2.3-2.4,5.4-2.3,8.5-2
				c1.3,0.6,2.6,1.2,3.7,2.1c2.3,1.9,3.4,4.3,2.3,7.1C101.8,73.8,101.3,76.8,99.8,79.5z"/>
			<path class="st44" d="M133.9,72.7c-6.1,3.7-12.5,3-16.7-1.6c-2.8-3-3.6-6.7-3.2-10.7c1.3-5.1,4.3-8.7,9.6-9.9
				c5.6-1.3,11.1,1.2,13.9,6.3c2.6,4.8,1.6,10.9-2.5,14.9C134.6,72.1,134.4,72.5,133.9,72.7z M115.9,62.5
				c-0.1,5.8,4.5,10.6,10.3,10.7c5.8,0.1,10.3-4.1,10.7-10.2c0.3-5.6-4.3-10.7-10.3-10.8C120.8,52.1,116,56.6,115.9,62.5z"/>
			<path class="st189" d="M112,154.6c-0.3,1-1.1,0.6-1.7,0.6c-4.4,0.1-8.7,0.2-13.1,0.1c-2.2-0.1-3.5,0.9-4.4,2.8
				c-0.1,0-0.2,0-0.3,0.1c-1.2-0.7-2.2,0.4-3.4,0.4c-12.6-0.1-25.3-0.1-37.9-0.1c-0.9,0-1.7-0.1-2.5-0.6c-0.6-6-0.3-12-0.3-18
				c0-1.6,0.2-3.3,0.2-4.9c0.8-0.2,0.4-0.9,0.5-1.3c0.1-2.4,0.1-4.9,0.1-7.3c0-4.7,0.9-9.4,1.8-14c0.6-2.8,2.4-4.8,4.5-6.7
				c4.6-4,10.2-6,16.1-7.3c-0.3,0.4-0.5,0.8-0.9,1.1c-2.6,2.7-3.1,5.9-2.6,9.5c0.1,0.8,0.3,1.4,1.3,1.5c1.5,0.1,1.5,0.8,0.9,1.9
				c-0.6,0.9-0.8,2.3,0.1,2.8c1,0.6,1.3,1.5,1.9,2.3c2.9,3.9,6.5,7.4,8.4,12c-0.1,1.4,0.9,2.5,1.1,4.2c1.3-3.8,2.5-7.2,3.7-10.6
				c1.3-3.9,3.3-7.8,1-12c-0.1-0.1-0.1-0.3,0-0.4c1.6-1.9,0-3.6-0.3-5.4c-0.1-0.4-0.9-0.7-0.5-1.2c0.5-0.5,1,0,1.5,0.2
				c1.4,1.1,2.9,2.2,4.3,3.2c5.4,3.9,9.4,8.7,11.5,15.2c1.9,5.7,3.8,11.4,5,17.3c0.2,0.9,0.1,2.3,1.4,2.7c0,0.3,0,0.5,0.1,0.8
				c-2-0.4-2.3,1.8-3.7,2.4c-1.8,0.7-1.8,1.5-0.6,3c0.4,0.5,0.8,0.9,0.9,1.6c0.4,2.9,1.7,4,4.3,2.9
				C112.3,152.8,111.8,153.9,112,154.6z M91.5,142c-0.2-0.4-0.3-0.9-0.5-1.3c-0.2-0.3-0.6-0.3-0.9-0.1c-0.4,0.2-0.5,0.6-0.3,0.8
				c1.2,1.6,0.6,3.5,0.7,5.3c0.1,0.9,0.4,0.6,0.7,0.3c1.3,1,2.5-0.1,4-0.2C93.9,145.1,92.7,143.6,91.5,142z"/>
			<path class="st190" d="M80.6,129.7c-1.9-4.6-5.5-8.1-8.4-12c-0.6-0.8-0.9-1.7-1.9-2.3c-0.9-0.5-0.6-1.9-0.1-2.8
				c0.7-1.1,0.6-1.9-0.9-1.9c-1,0-1.2-0.7-1.3-1.5c-0.4-3.5,0.1-6.8,2.6-9.5c0.3-0.3,0.6-0.7,0.9-1.1c0.3-0.1,0.6-0.2,0.9-0.3
				c-0.2,1.7-0.4,3.5-0.6,5.2c-0.2,2,0.5,3.8,1.5,5.5c1.9,4.4,4.4,8.3,8,11.4c0.1,1.3,0.6,2.8,0.5,3.9c-0.1,1.7,0,3.7-1,5.3
				C80.8,129.7,80.7,129.7,80.6,129.7z"/>
			<path class="st191" d="M48.7,158c0.8,0.5,1.6,0.6,2.5,0.6c12.6,0,25.3-0.1,37.9,0.1c1.2,0,2.2-1.2,3.4-0.4
				c-0.6,1-1.5,0.8-2.4,0.8c-13.2,0-26.4,0-39.7,0C49.8,159,48.8,159.4,48.7,158z"/>
			<path class="st189" d="M49.2,126.5c0,2.4,0,4.9-0.1,7.3c0,0.5,0.4,1.1-0.5,1.3C48.7,132.3,48.6,129.4,49.2,126.5z"/>
			<path class="st104" d="M112,154.6c-0.2-0.8,0.3-1.9-1.5-1.1c-2.6,1.1-3.9,0-4.3-2.9c-0.1-0.7-0.5-1.1-0.9-1.6
				c-1.2-1.5-1.2-2.3,0.6-3c1.4-0.6,1.7-2.7,3.7-2.4c0.2,0,0.4,0,0.6,0c3.7,0,4.5,0.8,3.4,4.3c-0.5,1.7-0.5,3.3-0.7,5
				C112.8,153.6,112.9,154.3,112,154.6z"/>
			<path class="st192" d="M87.2,104.5c-0.5-0.2-1-0.7-1.5-0.2c-0.5,0.5,0.4,0.8,0.5,1.2c0.3,1.8,1.9,3.5,0.3,5.4
				c-0.1,0.1-0.1,0.3,0,0.4c2.3,4.2,0.3,8.1-1,12c-1.1,3.4-2.3,6.7-3.7,10.6c-0.2-1.8-1.2-2.8-1.1-4.2c0.1,0,0.2,0,0.2-0.1
				c1-1.6,0.9-3.6,1-5.3c0.1-1-0.4-2.6-0.5-3.9c1.7-3.2,3.4-6.5,3.4-10.2c0.6-2.4-0.3-4.8-0.1-7.2C84.7,103,85.9,102.3,87.2,104.5z"
				/>
			<path class="st193" d="M84.8,110.2c0,3.8-1.7,7-3.4,10.2c-3.6-3.1-6.2-7.1-8-11.4c0.6,0,1.1,0.3,1.6,0.7
				C78.1,112.1,81.3,112.3,84.8,110.2z"/>
			<path class="st194" d="M115.9,62.5c0.1-5.8,4.8-10.4,10.7-10.3c6,0.1,10.6,5.2,10.3,10.8c-0.3,6-4.9,10.3-10.7,10.2
				C120.4,73.1,115.8,68.2,115.9,62.5z M126.8,54.4c-0.3,0-0.5,0-0.8,0c0.1,2.9-0.4,5.7,0.3,8.5c0.3,1.2,4,3.6,5.1,3.7
				c-1-1-1.9-1.9-2.8-2.6c-1.4-1-2-2.2-1.9-4C126.9,58.2,126.8,56.3,126.8,54.4z"/>
			<path class="st163" d="M91.5,142c-1.1,0.1-0.8,1-0.6,1.6c0.3,1.1,0.3,2.3,0.3,3.4c-0.4,0.3-0.7,0.7-0.7-0.3
				c-0.1-1.8,0.5-3.7-0.7-5.3c-0.2-0.2-0.1-0.7,0.3-0.8c0.3-0.1,0.7-0.2,0.9,0.1C91.3,141.1,91.4,141.6,91.5,142z"/>
			<path class="st44" d="M126.8,54.4c0,1.9,0.1,3.8,0,5.7c-0.2,1.8,0.4,3,1.9,4c1,0.7,1.8,1.6,2.8,2.6c-1.1-0.1-4.8-2.5-5.1-3.7
				c-0.7-2.8-0.2-5.7-0.3-8.5C126.2,54.4,126.5,54.4,126.8,54.4z"/>
		</g>
		<path class="st191" d="M48.6,135.2c0,0,1.8,24.4,57.5,15.4l1.6,4.7l-10.5,0c0,0-3.5-0.7-4.6,2.9L48.7,158
			C48.7,158,47.4,139.7,48.6,135.2z"/>
		<polygon class="st191" points="91,140.7 93.6,132.3 102.1,146.7 95.2,146.9 		"/>
		<ellipse class="st163" cx="142" cy="137.1" rx="3.4" ry="4.2"/>
	</g>
	<path class="st195" d="M86.2,101.8c0,0-4.8-2.1-5.8-3.8l4.3,7.2C84.7,105.1,84.2,100.9,86.2,101.8z"/>
	<polygon class="st220" points="18.1,29.3 38.5,29.5 38.9,45.4 18.3,45.8 	"/>
	<polygon class="st44" points="18.7,30 37.8,30.2 38.1,44.7 19,44.7 	"/>
	<path class="st163" d="M19,44.7c0.3-0.4,6.7-8.7,6.7-8.7l4,5.5l2.9-3l5.4,6.3L19,44.7z"/>
	<circle class="st163" cx="30" cy="34.5" r="1.3"/>
	<g>
		<g>
			<path class="st50" d="M99.5,43.1l-8.7-2.6c-1.1-0.3-1.7-1.5-1.4-2.5l9.1-30c0.3-1.1,1.5-1.7,2.5-1.4l8.7,2.6
				c1.1,0.3,1.7,1.5,1.4,2.5l-9.1,30C101.7,42.8,100.6,43.4,99.5,43.1z"/>
			<path class="st221" d="M89.4,39.9c-0.3-0.3-0.4-0.8-0.3-1.2l9.5-31.5c0.1-0.3,0.3-0.6,0.6-0.8c0.3-0.2,0.7-0.2,1-0.1l10.2,3.1
				c0.7,0.2,1.1,0.9,0.9,1.6l-9.5,31.5c-0.2,0.7-0.9,1.1-1.6,0.9l-10.2-3.1C89.8,40.2,89.6,40.1,89.4,39.9z M111.1,9.9
				c-0.1-0.2-0.3-0.3-0.5-0.4l-10.2-3.1c-0.3-0.1-0.6-0.1-0.9,0.1c-0.3,0.1-0.5,0.4-0.6,0.7l-9.5,31.5c-0.2,0.6,0.2,1.3,0.8,1.5
				l10.2,3.1c0.6,0.2,1.3-0.2,1.5-0.8l9.5-31.5c0.1-0.3,0.1-0.6-0.1-0.9C111.2,10,111.1,10,111.1,9.9z"/>
		</g>
		
			<rect x="98.8" y="9.4" transform="matrix(0.957 0.2901 -0.2901 0.957 8.0379 -29.6752)" class="st222" width="10.7" height="5.8"/>
		
			<rect x="96.8" y="15.8" transform="matrix(0.957 0.2901 -0.2901 0.957 9.8246 -28.831)" class="st222" width="10.7" height="5.8"/>
		
			<rect x="94.9" y="22.3" transform="matrix(0.957 0.2901 -0.2901 0.957 11.6114 -27.9867)" class="st222" width="10.7" height="5.8"/>
		
			<rect x="92.9" y="28.7" transform="matrix(0.957 0.2901 -0.2901 0.957 13.3981 -27.1424)" class="st222" width="10.7" height="5.8"/>
		<g>
			<path class="st50" d="M98.2,45.3l-7.7-4.8c-0.9-0.6-1.2-1.9-0.6-2.8l16.7-26.5c0.6-0.9,1.9-1.2,2.8-0.6l7.7,4.8
				c0.9,0.6,1.2,1.9,0.6,2.8L101,44.7C100.4,45.7,99.2,45.9,98.2,45.3z"/>
			<path class="st221" d="M89.5,39.9c-0.4-0.4-0.4-1.1-0.1-1.6l17.5-27.9c0.4-0.6,1.2-0.8,1.8-0.4l9,5.7c0.6,0.4,0.8,1.2,0.4,1.8
				l-17.5,27.9c-0.2,0.3-0.5,0.5-0.8,0.6c-0.3,0.1-0.7,0-1-0.2l-9-5.7C89.7,40.1,89.6,40,89.5,39.9z M118,16.1
				c-0.1-0.1-0.2-0.2-0.3-0.2l-9-5.7c-0.5-0.3-1.3-0.2-1.6,0.4L89.5,38.4c-0.3,0.5-0.2,1.3,0.4,1.6l9,5.7c0.3,0.2,0.6,0.2,0.9,0.1
				c0.3-0.1,0.6-0.3,0.7-0.5l17.5-27.9C118.3,17,118.3,16.5,118,16.1z"/>
		</g>
		
			<rect x="105.5" y="13.9" transform="matrix(0.8465 0.5324 -0.5324 0.8465 25.9599 -56.4029)" class="st222" width="10.7" height="5.8"/>
		
			<rect x="101.9" y="19.6" transform="matrix(0.8465 0.5324 -0.5324 0.8465 28.4463 -53.6171)" class="st223" width="10.7" height="5.8"/>
		
			<rect x="98.3" y="25.3" transform="matrix(0.8465 0.5324 -0.5324 0.8465 30.9328 -50.8314)" class="st224" width="10.7" height="5.8"/>
		
			<rect x="94.7" y="31.1" transform="matrix(0.8465 0.5324 -0.5324 0.8465 33.4192 -48.0457)" class="st225" width="10.7" height="5.8"/>
		<g>
			<path class="st50" d="M96.1,47.5l-5.9-6.9c-0.7-0.9-0.6-2.1,0.2-2.9l23.9-20.3c0.9-0.7,2.1-0.6,2.9,0.2l5.9,6.9
				c0.7,0.9,0.6,2.1-0.2,2.9L98.9,47.7C98.1,48.4,96.8,48.3,96.1,47.5z"/>
			<path class="st221" d="M96.5,48.1L89.6,40c-0.5-0.6-0.4-1.4,0.2-1.9l25.1-21.3c0.6-0.5,1.4-0.4,1.9,0.2l6.9,8.1
				c0.5,0.6,0.4,1.4-0.2,1.9L98.4,48.3C97.8,48.7,97,48.7,96.5,48.1z M116.6,17.1c-0.4-0.5-1.2-0.5-1.6-0.1L89.9,38.3
				c-0.5,0.4-0.6,1.2-0.1,1.6l6.9,8.1c0.4,0.5,1.2,0.5,1.6,0.1l25.1-21.3c0.5-0.4,0.5-1.2,0.1-1.6L116.6,17.1z"/>
		</g>
		
			<rect x="111.3" y="21.2" transform="matrix(0.6472 0.7623 -0.7623 0.6472 59.4779 -80.4213)" class="st163" width="10.7" height="5.8"/>
		
			<rect x="106.2" y="25.5" transform="matrix(0.6472 0.7623 -0.7623 0.6472 60.9904 -74.966)" class="st160" width="10.7" height="5.8"/>
		
			<rect x="101" y="29.9" transform="matrix(0.6472 0.7623 -0.7623 0.6472 62.5029 -69.5107)" class="st44" width="10.7" height="5.8"/>
		
			<rect x="95.9" y="34.3" transform="matrix(0.6472 0.7623 -0.7623 0.6472 64.0153 -64.0554)" class="st226" width="10.7" height="5.8"/>
		<circle cx="95.5" cy="41.5" r="1.1"/>
		<path class="st221" d="M85.7,48.4c-2.1-2.5-1.8-6.3,0.7-8.4c0.3-0.2,0.5-0.4,0.8-0.6c0.1-0.1,0.2-0.1,0.3-0.2
			c0.4-0.3,1.6-0.6,1.9-0.6l0,0.2c-0.2,0-1.4,0.3-1.8,0.6c-0.1,0.1-0.2,0.1-0.3,0.2c-0.3,0.2-0.6,0.3-0.8,0.5
			c-2.4,2.1-2.7,5.8-0.7,8.2c2.1,2.4,5.8,2.7,8.2,0.7c2.1-1.8,2.7-4.9,1.3-7.3l0.1-0.1c1.4,2.5,0.9,5.6-1.3,7.5
			C91.6,51.2,87.9,50.9,85.7,48.4z"/>
	</g>
	<g class="st98">
		<path class="st102" d="M167.6,69.3l1.4,1.9l1.7-1.2l0,0c0.5-0.4,0.6-1.1,0.3-1.6c-0.4-0.5-1.1-0.6-1.6-0.3l0,0L167.6,69.3z
			 M145.7,88.7c-0.3,0.2-0.4-0.1-0.4-0.1l-0.5-0.6c-0.2-0.3,0.1-0.4,0.1-0.4l1.5-1.1l0.8,1.1L145.7,88.7z M147.9,87.2l-0.8-1.1
			l3.6-2.6c0.3-0.2,0.4,0.1,0.4,0.1l0.5,0.6c0.2,0.3-0.1,0.4-0.1,0.4L147.9,87.2z M143.4,91.9L169,72.6l-2.7-3.7L140,87.1l0,0
			c0,0,0,0,0,0l0,0l0,0l0,0c0,0,0,0.1,0,0.1l-2.2,4.8l-0.8,0.6l0,0l0,0c-0.1,0.1-0.1,0.3,0,0.4c0.1,0.1,0.3,0.2,0.4,0.1l0,0l0,0
			l0.8-0.6l5.3-0.6c0,0,0.1,0,0.1,0l0,0l0,0C143.4,91.9,143.4,91.9,143.4,91.9C143.4,91.9,143.4,91.9,143.4,91.9L143.4,91.9z"/>
	</g>
	<g>
		<path class="st44" d="M167.6,68.5l1.4,1.9l1.7-1.2l0,0c0.5-0.4,0.6-1.1,0.3-1.6c-0.4-0.5-1.1-0.6-1.6-0.3l0,0L167.6,68.5z
			 M145.7,87.9c-0.3,0.2-0.4-0.1-0.4-0.1l-0.5-0.6c-0.2-0.3,0.1-0.4,0.1-0.4l1.5-1.1l0.8,1.1L145.7,87.9z M147.9,86.4l-0.8-1.1
			l3.6-2.6c0.3-0.2,0.4,0.1,0.4,0.1l0.5,0.6c0.2,0.3-0.1,0.4-0.1,0.4L147.9,86.4z M143.4,91.1L169,71.8l-2.7-3.7L140,86.3l0,0
			c0,0,0,0,0,0l0,0l0,0l0,0c0,0,0,0.1,0,0.1l-2.2,4.8l-0.8,0.6l0,0l0,0c-0.1,0.1-0.1,0.3,0,0.4c0.1,0.1,0.3,0.2,0.4,0.1l0,0l0,0
			l0.8-0.6l5.3-0.6c0,0,0.1,0,0.1,0l0,0l0,0C143.4,91.1,143.4,91.1,143.4,91.1C143.4,91.1,143.4,91.1,143.4,91.1L143.4,91.1z"/>
	</g>
	
		<rect x="29.7" y="13.3" transform="matrix(0.9998 -2.084631e-02 2.084631e-02 0.9998 -0.5329 0.9602)" class="st59" width="32.2" height="25.5"/>
	<polygon class="st220" points="30.7,12.7 62.4,13 62.9,37.7 30.9,38.2 	"/>
	<polygon class="st44" points="31.6,13.7 61.3,14 61.8,36.6 32.1,36.6 	"/>
	<path class="st163" d="M32.6,36.6c0.5-0.6,9.8-13.5,9.8-13.5l6.2,8.5l4.5-4.7l8.4,9.8L32.6,36.6z"/>
	<circle class="st163" cx="49.1" cy="20.8" r="2"/>
</g>
</svg>
