<?xml version="1.0" encoding="utf-8"?>
<!-- Generator: Adobe Illustrator 25.1.0, SVG Export Plug-In . SVG Version: 6.00 Build 0)  -->
<svg version="1.1" id="Calque_1" xmlns="http://www.w3.org/2000/svg" xmlns:xlink="http://www.w3.org/1999/xlink" x="0px" y="0px"
	 viewBox="0 0 124.3 126.1" style="enable-background:new 0 0 124.3 126.1;" xml:space="preserve">
<style type="text/css">
	.st0{fill:none;stroke:#A3A29A;stroke-width:0.5;stroke-miterlimit:10;}
	.st1{fill:none;stroke:#00A359;stroke-width:4;stroke-miterlimit:10;}
	.st2{fill:none;stroke:#00A359;stroke-width:2.5;stroke-linecap:round;stroke-linejoin:round;stroke-miterlimit:10;}
	.st3{fill:#002C3F;}
	.st4{fill:none;stroke:#00A359;stroke-width:2;stroke-linecap:round;stroke-linejoin:round;stroke-miterlimit:10;}
	.st5{fill:#00A359;}
	.st6{fill-rule:evenodd;clip-rule:evenodd;fill:#002C3F;}
	.st7{fill-rule:evenodd;clip-rule:evenodd;fill:#00A359;}
	.st8{fill:#00A359;stroke:#FFFFFF;stroke-miterlimit:10;}
	.st9{fill:#002C3F;stroke:#FFFFFF;stroke-width:2;stroke-miterlimit:10;}
	.st10{fill:none;stroke:#002C3F;stroke-width:3;stroke-linecap:round;stroke-linejoin:round;stroke-miterlimit:10;}
	.st11{fill:none;stroke:#00A359;stroke-width:3;stroke-linecap:round;stroke-linejoin:round;stroke-miterlimit:10;}
	.st12{fill:#002C3F;stroke:#FFFFFF;stroke-miterlimit:10;}
	.st13{fill:#00A359;stroke:#FFFFFF;stroke-width:0.5;stroke-miterlimit:10;}
	.st14{fill:#FFFFFF;}
	.st15{fill:none;stroke:#00A359;stroke-width:2.5;stroke-miterlimit:10;}
	.st16{fill:none;}
	.st17{fill:none;stroke:#002C3F;stroke-width:1.8;stroke-miterlimit:10;}
</style>
<g>
	<g>
		<path class="st14" d="M99.1,61.5c0-19-15.4-34.4-34.4-34.4c-19,0-34.5,15.4-34.5,34.4c0,19,15.4,34.5,34.4,34.5
			C83.6,95.9,99.1,80.5,99.1,61.5z"/>
		<path class="st3" d="M99.1,61.5c0,19-15.5,34.4-34.5,34.4c-19,0-34.4-15.5-34.4-34.5c0-19,15.5-34.4,34.5-34.4
			C83.7,27,99.1,42.5,99.1,61.5z M64.6,93.4c17.6,0,31.9-14.4,31.9-31.9c0-17.6-14.2-31.8-31.9-31.9c-17.5-0.1-31.9,14.3-31.9,31.9
			C32.7,79,47.1,93.4,64.6,93.4z"/>
	</g>
	<path class="st15" d="M55.8,61.4c0-3.6,0-7.2,0-10.8c0-0.6,0.1-1.2,0.3-1.7c0.3-0.8,0.9-1.1,1.7-0.9c0.4,0.1,0.9,0.3,1.2,0.5
		c6.2,3.6,12.3,7.2,18.5,10.8c0.1,0.1,0.2,0.1,0.3,0.2c1.6,1.1,1.6,2.7,0.1,3.8c-0.2,0.1-0.4,0.3-0.6,0.4c-6,3.6-12,7.1-18.1,10.7
		c-0.3,0.2-0.6,0.4-1,0.5c-1.2,0.4-2-0.1-2.3-1.3c-0.1-0.4-0.1-0.9-0.1-1.3C55.8,68.6,55.8,65,55.8,61.4z"/>
</g>
</svg>
