<?xml version="1.0" encoding="utf-8"?>
<!-- Generator: Adobe Illustrator 25.2.1, SVG Export Plug-In . SVG Version: 6.00 Build 0)  -->
<svg version="1.1" xmlns="http://www.w3.org/2000/svg" xmlns:xlink="http://www.w3.org/1999/xlink" x="0px" y="0px"
	 viewBox="0 0 219.7 206.3" style="enable-background:new 0 0 219.7 206.3;" xml:space="preserve">
<style type="text/css">
	.st0{fill:url(#SVGID_1_);}
	.st1{fill:url(#SVGID_2_);}
	.st2{fill:url(#SVGID_3_);}
	.st3{fill:url(#SVGID_4_);}
	.st4{fill:url(#SVGID_5_);}
	.st5{fill:url(#SVGID_6_);}
	.st6{fill:url(#SVGID_7_);}
	.st7{fill:url(#SVGID_8_);}
	.st8{fill:url(#SVGID_9_);}
	.st9{fill:url(#SVGID_10_);}
	.st10{fill:url(#SVGID_11_);}
	.st11{fill:url(#SVGID_12_);}
	.st12{fill:url(#SVGID_13_);}
	.st13{fill:url(#SVGID_14_);}
	.st14{fill:url(#SVGID_15_);}
	.st15{fill:url(#SVGID_16_);}
	.st16{fill:url(#SVGID_17_);}
	.st17{fill:url(#SVGID_18_);}
	.st18{fill:url(#SVGID_19_);}
	.st19{fill:url(#SVGID_20_);}
	.st20{fill:url(#SVGID_21_);}
	.st21{fill:url(#SVGID_22_);}
	.st22{fill:url(#SVGID_23_);}
	.st23{fill:url(#SVGID_24_);}
	.st24{fill:url(#SVGID_25_);}
	.st25{fill:url(#SVGID_26_);}
	.st26{fill:url(#SVGID_27_);}
	.st27{fill:url(#SVGID_28_);}
	.st28{fill:url(#SVGID_29_);}
	.st29{fill:url(#SVGID_30_);}
	.st30{fill:url(#SVGID_31_);}
	.st31{fill:url(#SVGID_32_);}
	.st32{fill:#85D8B5;}
	.st33{fill:url(#SVGID_33_);}
	.st34{fill:#E8E8E8;}
	.st35{opacity:0.6;}
	.st36{fill-rule:evenodd;clip-rule:evenodd;fill:#00A258;}
	.st37{opacity:0.18;}
	.st38{opacity:0.15;}
	.st39{fill:#A3A29A;}
	.st40{fill:none;stroke:#00A359;stroke-width:4;stroke-miterlimit:10;}
	.st41{fill:none;stroke:#00A359;stroke-width:2.5;stroke-linecap:round;stroke-linejoin:round;stroke-miterlimit:10;}
	.st42{fill:#002C3F;}
	.st43{fill:none;stroke:#00A359;stroke-width:2;stroke-linecap:round;stroke-linejoin:round;stroke-miterlimit:10;}
	.st44{fill:#00A359;}
	.st45{fill-rule:evenodd;clip-rule:evenodd;fill:#002C3F;}
	.st46{fill-rule:evenodd;clip-rule:evenodd;fill:#00A359;}
	.st47{fill:none;}
	.st48{fill:#00A359;stroke:#FFFFFF;stroke-miterlimit:10;}
	.st49{fill:none;stroke:#002C3F;stroke-width:1.8;stroke-miterlimit:10;}
	.st50{fill:#FFFFFF;}
	.st51{fill:none;stroke:#00A359;stroke-width:3;stroke-linecap:round;stroke-linejoin:round;stroke-miterlimit:10;}
	.st52{fill:#00A359;stroke:#FFFFFF;stroke-width:0.5;stroke-miterlimit:10;}
	.st53{fill:url(#SVGID_34_);}
	.st54{fill:#F4F4F4;}
	.st55{fill:#FBFCFE;}
	.st56{fill:none;stroke:#FBFCFE;stroke-width:2;stroke-linecap:round;stroke-linejoin:round;stroke-miterlimit:10;}
	.st57{fill:#CCCCCC;}
	.st58{fill:url(#SVGID_35_);}
	.st59{opacity:0.3;fill:#6A7570;}
	.st60{fill:#D5EDE3;}
	.st61{fill:#00A258;}
	.st62{fill:none;stroke:#002C3F;stroke-width:0.75;stroke-linecap:round;stroke-linejoin:round;stroke-miterlimit:10;}
	.st63{fill:#082C3E;}
	.st64{fill:url(#SVGID_36_);}
	.st65{fill:#F6C5B9;}
	.st66{fill:#D3FBF6;}
	.st67{fill:#35B7EE;}
	.st68{fill:#E2BB59;}
	.st69{fill-rule:evenodd;clip-rule:evenodd;fill:url(#SVGID_37_);}
	.st70{opacity:0.7;fill-rule:evenodd;clip-rule:evenodd;fill:#D5EDE3;}
	.st71{fill-rule:evenodd;clip-rule:evenodd;fill:url(#SVGID_38_);}
	.st72{fill:#F5F7FD;}
	.st73{fill:#E6ECF7;}
	.st74{clip-path:url(#SVGID_40_);fill:#E6ECF7;}
	.st75{fill:#C9DBEC;}
	.st76{fill:#BECEEB;}
	.st77{fill:#F2F6FD;}
	.st78{clip-path:url(#SVGID_42_);fill:#DDE7F8;}
	.st79{opacity:0.38;fill:url(#SVGID_43_);}
	.st80{fill:#C5887B;}
	.st81{fill:#663300;}
	.st82{fill:url(#SVGID_44_);}
	.st83{fill:url(#SVGID_45_);}
	.st84{fill:url(#SVGID_46_);}
	.st85{fill:url(#SVGID_47_);}
	.st86{fill:url(#SVGID_48_);}
	.st87{fill:#9BF7D6;}
	.st88{fill:#828282;}
	.st89{fill:#E6ECF8;}
	.st90{fill:#E6ECF9;}
	.st91{fill-rule:evenodd;clip-rule:evenodd;fill:#828282;}
	.st92{fill-rule:evenodd;clip-rule:evenodd;fill:#E6ECF8;}
	.st93{fill:#46586B;}
	.st94{fill:url(#SVGID_49_);}
	.st95{clip-path:url(#SVGID_51_);fill:#E6ECF7;}
	.st96{fill:#956EE1;}
	.st97{fill:url(#SVGID_52_);}
	.st98{opacity:0.3;}
	.st99{fill:url(#SVGID_53_);}
	.st100{fill:none;stroke:#00A359;stroke-linecap:round;stroke-linejoin:round;stroke-miterlimit:10;}
	.st101{fill:#C0ABF4;}
	.st102{fill:#6A7570;}
	.st103{fill:#F0D3C7;}
	.st104{fill:#7C4939;}
	.st105{fill:#1B0E14;}
	.st106{fill:#B5AACC;}
	.st107{fill:#968AB3;}
	.st108{fill:#AF9F98;}
	.st109{fill:#BF7F64;}
	.st110{fill:#212D67;}
	.st111{fill:#F0937B;}
	.st112{fill:#54505D;}
	.st113{fill:#FDFFFF;}
	.st114{fill:#B39D98;}
	.st115{fill:#3A2E40;}
	.st116{fill-rule:evenodd;clip-rule:evenodd;fill:#FFFFFF;}
	.st117{fill-rule:evenodd;clip-rule:evenodd;fill:#006032;}
	.st118{fill:url(#SVGID_54_);}
	.st119{fill:url(#SVGID_55_);}
	.st120{fill:url(#SVGID_56_);}
	.st121{fill:#57CE90;}
	.st122{clip-path:url(#SVGID_58_);fill:#E6ECF7;}
	.st123{fill:url(#SVGID_59_);}
	.st124{fill:#46A578;}
	.st125{fill:#707C79;}
	.st126{fill:#AEBDB9;}
	.st127{fill:#07492A;}
	.st128{fill:url(#SVGID_60_);}
	.st129{fill:#0FDB7A;}
	.st130{fill:url(#SVGID_61_);}
	.st131{fill:url(#SVGID_62_);}
	.st132{fill:url(#SVGID_63_);}
	.st133{fill:url(#SVGID_64_);}
	.st134{fill:url(#SVGID_65_);}
	.st135{fill:#2B435C;}
	.st136{fill:#0E539B;}
	.st137{fill:#EDC5B7;}
	.st138{fill:#517CA5;}
	.st139{fill:#F1BCA7;}
	.st140{fill:#5FB6DC;}
	.st141{fill:#F2CFBD;}
	.st142{fill:#0EDCBF;}
	.st143{fill:#0B7060;}
	.st144{fill:#5F7D83;}
	.st145{fill:#D2F9F5;}
	.st146{fill:#0D9A84;}
	.st147{fill:#074339;}
	.st148{fill:#0DC0A6;}
	.st149{fill:#89F0E5;}
	.st150{fill:#E3E5E4;}
	.st151{fill:#385F66;}
	.st152{fill:#ECAAA9;}
	.st153{fill:#1C6065;}
	.st154{fill:#059B85;}
	.st155{fill:#4DEBDB;}
	.st156{fill:#FDFEFE;}
	.st157{fill:url(#SVGID_66_);}
	.st158{fill:url(#SVGID_67_);}
	.st159{fill:#8B8C8C;}
	.st160{fill:#00755D;}
	.st161{fill:#004537;}
	.st162{fill:url(#SVGID_68_);}
	.st163{fill:#003F36;}
	.st164{fill:#EEF9F6;}
	.st165{opacity:0.38;fill:url(#SVGID_69_);}
	.st166{fill:#008B77;}
	.st167{fill:#077A66;}
	.st168{fill-rule:evenodd;clip-rule:evenodd;fill:#05C2A8;}
	.st169{fill:url(#SVGID_70_);}
	.st170{fill:#FDFDFD;}
	.st171{fill:#DFE6F6;}
	.st172{fill:url(#SVGID_71_);}
	.st173{fill:#002C3F;stroke:#002C3F;stroke-width:0.75;stroke-miterlimit:10;}
	.st174{fill:#00A359;stroke:#00A359;stroke-miterlimit:10;}
	.st175{fill:#002C3F;stroke:#002C3F;stroke-width:0.5;stroke-miterlimit:10;}
	.st176{fill:#EAF2FA;}
	.st177{fill:#12176D;}
	.st178{fill:#4AA1FA;}
	.st179{fill:#F9B7CC;}
	.st180{fill:#B4E0FC;}
	.st181{fill:#113F86;}
	.st182{fill:#093075;}
	.st183{fill:#FB93A7;}
	.st184{fill:#FAB8CC;}
	.st185{fill:#FCDDE6;}
	.st186{fill:#FCEEF5;}
	.st187{fill:#EEF0F4;}
	.st188{fill:#171719;}
	.st189{fill:#F6C52A;}
	.st190{fill:#ECF1F7;}
	.st191{fill:#F8B91B;}
	.st192{fill:#EFE0D3;}
	.st193{fill:#3D325B;}
	.st194{fill:#FCF1E8;}
	.st195{fill:#513027;}
	.st196{opacity:0.4;}
	.st197{opacity:0.4;fill:none;stroke:#00A359;stroke-width:0.25;stroke-miterlimit:10;}
	.st198{fill:none;stroke:#00A359;stroke-width:0.25;stroke-miterlimit:10;}
	.st199{fill:url(#SVGID_72_);}
	.st200{fill:url(#SVGID_73_);}
	.st201{fill:url(#SVGID_74_);}
	.st202{fill:url(#SVGID_75_);}
	.st203{fill:url(#SVGID_76_);}
	.st204{fill:url(#SVGID_77_);}
	.st205{fill:url(#SVGID_78_);}
	.st206{fill:url(#SVGID_79_);}
	.st207{fill:url(#SVGID_80_);}
	.st208{fill:#10166D;}
	.st209{fill:#603209;}
	.st210{fill:#5AB3FA;}
	.st211{fill:#95A3D4;}
	.st212{fill:#0DD375;}
	.st213{fill:#13176D;}
	.st214{fill:#253392;}
	.st215{fill:#EBF2FA;}
	.st216{fill:#026033;}
	.st217{fill:#AD8679;}
	.st218{fill:#FAC5DC;}
	.st219{fill:#B3B7BC;}
	.st220{fill:#FFFFFF;stroke:#BAC0BF;stroke-width:0.5;stroke-miterlimit:10;}
	.st221{fill:#7F8182;}
	.st222{fill:#012D26;}
	.st223{fill:#024C3A;}
	.st224{fill:#02543F;}
	.st225{fill:#045E44;}
	.st226{fill:#05C2A8;}
	.st227{fill:#F9F8F7;}
	.st228{fill:#55A5CA;}
	.st229{fill:#0F2B4C;}
	.st230{fill:#191B22;}
	.st231{fill:#131316;}
	.st232{fill:#EEA98B;}
	.st233{fill:#0A1F3D;}
	.st234{fill:#F4D37D;}
	.st235{fill:#E0977B;}
	.st236{fill:#3F1B0B;}
	.st237{fill:#953928;}
	.st238{fill:#2B3359;}
	.st239{fill:#E9D6D0;}
	.st240{fill:#1D2128;}
	.st241{fill:#0BACBB;}
	.st242{fill:#084A98;}
	.st243{fill:#603524;}
	.st244{fill:#038C4B;}
	.st245{fill:url(#SVGID_81_);}
	.st246{fill:url(#SVGID_82_);}
	.st247{fill:#03723D;}
	.st248{fill:none;stroke:#85D8B5;stroke-width:0.5;stroke-miterlimit:10;}
	.st249{fill:url(#SVGID_83_);}
	.st250{fill:#098446;}
	.st251{fill:none;stroke:#85D8B5;stroke-width:2;stroke-miterlimit:10;}
	.st252{fill:#1BAA63;}
	.st253{fill:url(#SVGID_84_);}
	.st254{fill:url(#SVGID_85_);}
	.st255{fill:url(#SVGID_86_);}
	.st256{fill:url(#SVGID_87_);}
	.st257{fill:url(#SVGID_88_);}
	.st258{fill:url(#SVGID_89_);}
	.st259{fill:url(#SVGID_90_);}
	.st260{fill:url(#SVGID_91_);}
	.st261{fill:url(#SVGID_92_);}
	.st262{fill:url(#SVGID_93_);}
	.st263{fill:url(#SVGID_94_);}
	.st264{fill:url(#SVGID_95_);}
	.st265{fill:url(#SVGID_96_);}
	.st266{fill:url(#SVGID_97_);}
	.st267{fill:url(#SVGID_98_);}
	.st268{fill:url(#SVGID_99_);}
	.st269{fill:none;stroke:#00A359;stroke-width:0.75;stroke-miterlimit:10;}
	.st270{fill:url(#SVGID_100_);}
	.st271{fill:url(#SVGID_101_);}
	.st272{fill:url(#SVGID_102_);}
	.st273{fill:url(#SVGID_103_);}
	.st274{fill:url(#SVGID_104_);}
	.st275{fill:#00A359;stroke:#FFFFFF;stroke-width:1.5;stroke-miterlimit:10;}
	.st276{fill:url(#SVGID_105_);}
	.st277{fill:#20B4CF;}
	.st278{fill:#1BA0BC;}
	.st279{fill:#DB1628;}
	.st280{fill:#C91424;}
	.st281{fill:#3DCCE8;}
	.st282{fill:#36B7D4;}
	.st283{fill:#D69567;}
	.st284{fill:#F9CBA4;}
	.st285{fill:#CF8954;}
	.st286{fill:#EAAC78;}
	.st287{fill:#DFF1F6;}
	.st288{fill:#1386A0;}
	.st289{fill:#2099B9;}
	.st290{fill:#D7403F;}
	.st291{fill:#C12B2B;}
	.st292{fill:#844C27;}
	.st293{fill:#D7996B;}
	.st294{fill:#D7D3CF;}
	.st295{fill:#FDC103;}
	.st296{fill:#FAF9F6;}
	.st297{fill:#A6683D;}
	.st298{fill:#EBAD77;}
	.st299{fill:#FAF8ED;}
	.st300{fill:#EBEBEB;}
	.st301{fill:#E0E0E0;}
	.st302{fill:#2B3288;}
	.st303{fill:#9C9C9E;}
	.st304{fill:#FCD16B;}
	.st305{fill:#CEBDA2;}
	.st306{fill:#454B95;}
	.st307{fill:#D67B88;}
	.st308{fill:#F9C63A;}
	.st309{fill:#33398B;}
	.st310{fill:#EC939D;}
	.st311{fill:#0F1549;}
	.st312{fill:#D21F42;}
	.st313{fill:#A9258E;}
	.st314{fill:#50CAB0;}
	.st315{fill:#FDFDB5;}
	.st316{fill:#FCE2E0;}
	.st317{fill:#FA4863;}
	.st318{fill:#FCC21A;}
	.st319{fill:#077B94;}
	.st320{fill:#06CEC4;}
	.st321{fill:#F1E2E7;}
	.st322{fill:#046A81;}
	.st323{fill:#111229;}
	.st324{fill:#F9C5B7;}
	.st325{fill:#22224B;}
	.st326{fill:#07B9B0;}
	.st327{fill:#E23E56;}
	.st328{fill:#B1BDC5;}
	.st329{fill:#E59D29;}
	.st330{fill:#724527;}
	.st331{fill:#3B2D65;}
	.st332{fill:#2F4079;}
	.st333{fill:#2F4076;}
	.st334{fill:#3A2D66;}
	.st335{fill:#557BCE;}
	.st336{fill:#48224A;}
	.st337{fill:#F5DBD3;}
	.st338{fill:#7A5152;}
	.st339{fill:#F59B7E;}
	.st340{fill:#F7987A;}
	.st341{fill:#F9EBE0;}
	.st342{fill:#708CCB;}
	.st343{fill:#946262;}
	.st344{fill:#607BB8;}
	.st345{fill:#E0F1FB;}
	.st346{fill:#895A49;}
	.st347{fill:none;stroke:#32003D;stroke-width:0.75;stroke-linecap:round;stroke-linejoin:round;stroke-miterlimit:10;}
	.st348{fill:#FCC99B;}
	.st349{fill:#C4CEDD;}
	.st350{fill:#9BA8BA;}
	.st351{fill:#FF5C97;}
	.st352{fill:#FFDF29;}
	.st353{fill:#F9DBAA;}
	.st354{fill:#1A1E1C;}
	.st355{fill:#FFB65B;}
	.st356{clip-path:url(#SVGID_107_);fill:#514FB8;}
	.st357{fill:#F4C084;}
	.st358{fill:#663E1B;}
	.st359{fill:#442610;}
	.st360{fill:#110A04;}
	.st361{fill:#464C5B;}
	.st362{fill:#4D469F;}
	.st363{clip-path:url(#SVGID_109_);fill:#9B7FB5;}
	.st364{fill:#723A01;}
	.st365{fill:#D8D8D8;}
	.st366{fill:#E8AE7E;}
	.st367{fill:#6560B1;}
	.st368{clip-path:url(#SVGID_111_);fill:#9BA8BA;}
	.st369{clip-path:url(#SVGID_113_);fill:#FABB2D;}
	.st370{clip-path:url(#SVGID_115_);}
	.st371{clip-path:url(#SVGID_117_);fill:#DD9900;}
	.st372{fill:#8BD6F5;}
	.st373{fill:#D6EF31;}
	.st374{clip-path:url(#SVGID_119_);fill:#FFFFFF;}
	.st375{fill:#FEFDFD;}
	.st376{fill:#F6B29C;}
	.st377{fill:#DE8D77;}
	.st378{fill:#D3AB9F;}
	.st379{clip-path:url(#SVGID_121_);fill:#2099B9;}
	.st380{opacity:0.38;fill:url(#SVGID_122_);}
	.st381{fill:none;stroke:url(#SVGID_123_);stroke-width:0.5;stroke-miterlimit:10;}
	.st382{fill:url(#SVGID_124_);}
	.st383{fill:none;stroke:url(#SVGID_125_);stroke-width:0.5;stroke-miterlimit:10;}
	.st384{fill:url(#SVGID_126_);}
	.st385{fill:none;stroke:url(#SVGID_127_);stroke-width:0.5;stroke-miterlimit:10;}
	.st386{fill:url(#SVGID_128_);}
	.st387{fill:none;stroke:url(#SVGID_129_);stroke-width:0.5;stroke-miterlimit:10;}
	.st388{fill:url(#SVGID_130_);}
	.st389{opacity:0.81;fill:url(#SVGID_131_);}
	.st390{opacity:0.81;fill:url(#SVGID_132_);}
	.st391{fill:url(#SVGID_133_);}
	.st392{fill:url(#SVGID_134_);}
	.st393{fill:url(#SVGID_135_);}
	.st394{fill:url(#SVGID_136_);}
	.st395{fill:url(#SVGID_137_);}
	.st396{opacity:0.5;fill:#9BF7D6;}
	.st397{fill:url(#SVGID_138_);}
	.st398{fill:#3D2D29;}
	.st399{fill:#FBDF50;}
	.st400{fill:#EAB98E;}
	.st401{fill:#95794A;}
	.st402{fill:#F6D5B6;}
	.st403{fill:#C0B237;}
	.st404{fill:#E7C639;}
	.st405{fill:#CCA735;}
	.st406{fill:#8E8217;}
	.st407{fill:#C6A524;}
	.st408{fill:#F5D83E;}
	.st409{fill:#DAAB7F;}
	.st410{fill:#927848;}
	.st411{fill:#D5AD8A;}
</style>
<g id="Calque_2">
</g>
<g id="Calque_1">
	<path class="st34" d="M47.4,100.8c2.9-7.1,6.9-16.9,22.1-21.4c15.2-4.5,19.3-15.2,19.3-15.2s3-15.8,15.9-15
		c12.9,0.8,15.4,14.3,15.4,14.3s1.5,18.6,19.1,21.4c0,0,7.1,0.8,14.6-0.2c7.5-0.9,24.9-2.1,32.6,21.9s-6.8,38.4-6.8,38.4
		s-8.3,11.1-29.1,11.1s-38.6,12-38.6,12l-19.3,15.2c0,0-12.8,11.6-28.9,1.3c0,0-0.9-0.7-2.2-2.1c-8-8.3-9.5-20.8-4-31
		c1.2-2.3,2.2-3.1,1.8-6.7c-0.6-5.1-2.3-10-8-17.1c-2.7-3.3-4.7-7.3-5.5-11.5C45.1,112,45,106.6,47.4,100.8z"/>
	<g id="Calque_3">
	</g>
	<g>
		<linearGradient id="SVGID_1_" gradientUnits="userSpaceOnUse" x1="35.5359" y1="74.275" x2="99.105" y2="160.9897">
			<stop  offset="0" style="stop-color:#00A093"/>
			<stop  offset="1" style="stop-color:#00A359"/>
		</linearGradient>
		<path class="st0" d="M90.5,171.3H48.9c-3.9,0-7-3.1-7-7V77.5c0-3.9,3.1-7,7-7h41.5c3.9,0,7,3.1,7,7v86.8
			C97.5,168.1,94.3,171.3,90.5,171.3z"/>
		<rect x="46.5" y="79.4" class="st54" width="46.3" height="78.5"/>
		<circle class="st55" cx="69.7" cy="164.2" r="3.4"/>
		<line class="st56" x1="63" y1="74.3" x2="76.3" y2="74.3"/>
	</g>
	<g>
		<path class="st96" d="M172.6,171.3h-41.5c-3.9,0-7-3.1-7-7V77.5c0-3.9,3.1-7,7-7h41.5c3.9,0,7,3.1,7,7v86.8
			C179.7,168.1,176.5,171.3,172.6,171.3z"/>
		<rect x="128.7" y="79.4" class="st54" width="46.3" height="78.5"/>
		<circle class="st55" cx="151.9" cy="164.2" r="3.4"/>
		<line class="st56" x1="145.2" y1="74.3" x2="158.5" y2="74.3"/>
	</g>
	<g>
		<g>
			<path class="st288" d="M167.2,153.6c-3.7-2.7-7.8-4.6-11.7-7.1c-3.9-2.5-8-4.6-12-7c-3.4-2-6.7-4-10.2-5.9
				c-1.3-1.2-2.8-1.9-4.3-2.5c-0.7-0.5-1-1-0.4-1.9c0.4-0.5,0.5-1,0.5-1.6c1.1-1.2,1.9-2.6,2.2-4.2c0.7,0.3,0.8,1,1,1.6
				c0.9,2.1,1.8,4.3,2.7,6.4c0.2,0.4,0.1,1.2,1,0.8c1-0.4,1.8-1,2.1-2c0.2-0.8-0.4-1.6-0.9-2.1c-1.9-1.9-3.3-4.2-4.9-6.4
				c0.3-0.7,0.4-1.4,0.8-1.9c1.5-2,2.5-4.3,3.5-6.6c0.2-0.1,0.4-0.2,0.7-0.2c-0.2,1.4,0.8,1.8,1.8,2.4c4.1,2.3,8.2,4.6,12.4,6.9
				c7.3,4,14.7,8.1,22,12.1c1.4,0.8,1.8,0.5,1.8-1.1c-0.1-7.9,0-15.8,0-23.7c0.1,0,0.2,0,0.3-0.1c0,15.1,0,30.1,0.1,45.2
				c0,1,0,2,0,3.1c-0.1,0.1-0.2,0.3-0.3,0.4c-1.7-1-3.3-2.3-5.2-2.9C169.2,154.6,168.4,153.9,167.2,153.6z"/>
			<path class="st289" d="M146.5,93.4c0.8-1.4,1.8-0.6,2.5,0c3.4,2.6,7.4,4.1,10.8,6.8c0.2,0.1,0.5,0.1,0.7,0.1
				c0.2,1.4,1.3,1.4,2.3,1.5c2,1.7,4.3,3,6.6,4.3c1.4,0.7,2.2,2.3,4.1,2.2c-0.2,1.3,1.1,1,1.6,1.5c0,7.9,0,15.8,0,23.7
				c0,1.6-0.4,1.9-1.8,1.1c-7.3-4.1-14.7-8.1-22-12.1c-4.1-2.3-8.2-4.6-12.4-6.9c-1-0.5-2-1-1.8-2.4c0-0.4,0-0.8,0.1-1
				c2.3-4.5,4.7-8.9,7-13.4c2.6-0.2,1.8-2.1,1.9-3.6l0,0c1.2-0.3,0.9-1,0.5-1.7L146.5,93.4z"/>
			<path class="st290" d="M47.9,106.7c0.4-0.1,0.9-0.1,1.2-0.4c3.7-3,8-4.9,11.9-7.5c3.4-2.3,6.9-4.4,10.5-6.2
				c0.5-0.3,0.5-1.2,1.3-1c0.9,0,2.2-0.8,2.2,1.1C75,93,75.6,93,76,93c0.4,0.6,0.7,1.2,1.1,1.7c2.3,5,4.5,9.9,6.8,14.9
				c0.4,0.8,0.9,1.5,0.8,2.5c-0.4,0.1-0.9,0.1-1.2,0.3c-4.6,2.7-9.2,5.3-13.8,8c-6.7,3.9-13.4,7.8-20.1,11.6
				c-0.9,0.5-1.5,1.6-2.8,1.4c0-8.5-0.1-17.1-0.1-25.6C46.9,107.3,47.5,107.1,47.9,106.7z"/>
			<path class="st291" d="M46.7,133.4c1.3,0.2,1.9-0.9,2.8-1.4c6.7-3.9,13.4-7.7,20.1-11.6c4.6-2.7,9.2-5.3,13.8-8
				c0.3-0.2,0.8-0.2,1.2-0.3c0.1,0.1,0.3,0.3,0.4,0.4c-0.3,0.3-0.6,0.4-0.3,1c0.5,0.9,1,1.8,1.8,2.4c0.2,0.2,0.7,0.3,0.7,0.5
				c0.5,2.6,2,4.8,2.9,7.2c0.1,1.2,1.5,2,0.8,3.4c-1.3,3-2.9,5.8-4.7,8.5c-2.5,1.3-5,2.5-7.4,3.8c-1,0.5-2.3,0.7-2.9,1.9
				c-0.2,0-0.4,0.1-0.7,0.1c-0.1,0.1-0.3,0.2-0.4,0.3c0,0,0,0,0,0c-2.3,1.1-4.6,2.2-6.8,3.2c-4.9,2.7-9.7,5.4-14.6,8.1
				c-2.1,1.1-4.2,2.2-6.3,3.3c-0.3-0.7-0.4-1.3-0.4-2.1C46.7,147.3,46.7,140.3,46.7,133.4z"/>
			<path class="st292" d="M136.9,82.1c1.2,1.2,1.5,2.6,0.6,4c-0.4,0.6-0.9,1.1-1.3,1.7c-1.2,1.3-2.3,2.7-3.7,3.7
				c-0.3,0.2-0.7,0.4-1,0.7c-6.1,5-11.7,10.6-19.1,13.7c-1,0.1-2,0.3-2.9,0.7c-2.3,0.1-4.5,1.1-6.8,0.8c-0.2,0-0.5,0-0.7,0.2
				c-2,2.2-4.9,2.8-7.1,4.5c-0.6-1-1.2-2-1.8-3c-1-2.1-2-4.2-3.2-6.2c1.6-0.1,2.8-1,4-1.8c2.1-1.4,3.9-2.7,6.8-1.6
				c3.4,1.3,6.9,0.6,10.3-0.7c5.2-1.9,10-4.6,14.7-7.5c3.6-2.2,7.3-4.4,10.3-7.5C136.5,83.5,137,83,136.9,82.1z"/>
			<path class="st293" d="M112.3,105.9c7.4-3.1,13-8.8,19.1-13.7c0.3-0.3,0.7-0.5,1-0.7c0.9,0.6,0.2,1.2,0,1.7
				c-0.6,2-1.5,3.8-2.6,5.6c-0.3,0.5-0.9,1.1-0.2,1.6c1.2,0.9,2.3,2.1,3.7,2.7c-0.1,0.7-0.5,1.2-0.9,1.7c-0.9,1.4-1.9,2.9-2.8,4.3
				c-0.8,0.6-1.4,1.3-1.8,2.2c-1.3-0.9-2.5-1.9-3.9-2.8c-0.7-0.5-1.6-1.1-2.4-1.1c-2.9,0.2-5.7-0.7-8.5-0.9
				C113.1,106.2,112.7,106,112.3,105.9z"/>
			<path class="st294" d="M93,109.2c0.6,1,1.2,2,1.8,3c0.6,0.8,1.1,1.6,1.7,2.5c0,0.5,0.1,1,0.5,1.5c0.8,1,1.3,2.2,0.9,3.6
				c0,0,0,0,0,0c-0.7,0.2-1.4,0.3-2.1,0.5c-2,1-3.6,2.7-5.7,3.6c-0.9-2.4-2.4-4.6-2.9-7.2c0-0.2-0.5-0.4-0.7-0.5
				c0.1-0.9-0.7-1.6-0.8-2.4C88.2,112.1,90.6,110.6,93,109.2z"/>
			<path class="st294" d="M127.8,111.4c0.4-0.9,1-1.6,1.8-2.2c2.4,1.3,5,2.2,6.9,4.2c-1,2.3-2,4.6-3.5,6.6c-0.4,0.6-0.5,1.3-0.8,1.9
				c-0.1-1-1.2-1.3-1.5-2c-0.5-1.2-1-1-1.6-0.2c-0.4-0.1-0.7-0.3-0.9-0.7l-2.2-1.4c-1.4-0.6-1.8-1.4-0.6-2.8
				C126.4,113.8,127,112.5,127.8,111.4z"/>
			<path class="st293" d="M112.3,105.9c0.4,0.1,0.7,0.2,0.8,0.7c-1.2,0-2.5,0-3.7,0C110.3,106.2,111.3,106.1,112.3,105.9z"/>
			<path class="st295" d="M74.8,141.6c0.1-0.1,0.3-0.2,0.4-0.3C75.1,141.5,75,141.5,74.8,141.6z"/>
			<path class="st296" d="M136.6,113.4c-1.9-2-4.5-2.9-6.9-4.2c0.9-1.4,1.9-2.9,2.8-4.3c0.4-0.5,0.8-1.1,0.9-1.7c0,0,0,0,0,0
				c0.5,0,0.6-0.3,0.7-0.8c2.8-3.4,5-7.2,7.6-10.7c1.7-0.7,2.4,1,3.7,1.4c0.4,0.1,0.8,0.3,1.3,0.4c0,0,0.2,0,0.2,0
				c-0.2,0.6-0.3,1.1-0.5,1.7c0,0,0,0,0,0c-0.8,1.1-1.4,2.3-1.9,3.6c-2.3,4.5-4.7,8.9-7,13.4c-0.2,0.3-0.1,0.7-0.1,1
				C137,113.2,136.8,113.3,136.6,113.4z"/>
			<path class="st297" d="M136.9,82.1c0.1,0.8-0.4,1.3-0.9,1.8c-3,3.1-6.6,5.3-10.3,7.5c-4.7,2.8-9.5,5.5-14.7,7.5
				c-3.4,1.3-7,2-10.3,0.7c-2.9-1.1-4.7,0.2-6.8,1.6c-1.2,0.8-2.5,1.7-4,1.8c-2.2-3.8-4.4-7.7-6.7-11.5c-0.1-1.6,1.3-1.4,2.2-1.8
				c2.1,0.8,4.1,0.5,5.1-1.5c0.8-1.7,1.8-1.5,3.2-1.3c3,0.4,4-0.6,4-3.6c0-0.6-0.3-1.4,0.4-1.8c2.2-1.3,2.2-3.4,2-5.5
				c0-0.5-0.4-0.9-0.1-1.4c1.8-2.5,1.9-4.9-1-7.2c3.2,0.3,5.5-0.6,8-2c4.3-2.3,8.7-4.6,13.3-6.2c2.4-0.1,4.8-0.4,7.2,0.1
				c-0.1,0.2-0.2,0.4,0,0.6c1.9,2.4,1.8,3.5-0.5,5.6c-0.4,0.3-1,0.5-1,1.2c-0.3,0.1-0.5,0.1-0.8,0.2c0,0,0,0.1,0.1,0.1
				c0.3,0.1,0.5,0,0.7-0.3c1.9-0.5,3.4-0.7,4.8,1.3c2.3,3.3-0.1,4.9-2.2,6.7c0.7,0.3,1,0.1,1.4,0c1-0.3,1.9-1.4,2.9,0
				c1.5,2.1,1.5,3.5,0.5,5c-1.1,1.5-2.9,2.3-3.8,3.9c-0.2,0-0.3,0.1-0.5,0.1c0,0,0.1,0.1,0.1,0.1c0.1-0.1,0.2-0.2,0.4-0.3
				c2.1-0.7,3.8-2.2,5.9-2.9C136.3,80.9,136.8,81.4,136.9,82.1z M128,75.2c-0.1,0-0.2,0-0.3,0c0,0,0.1,0.1,0.1,0.1
				C127.9,75.2,128,75.2,128,75.2z"/>
			<path class="st298" d="M85.3,89.7c-0.9,0.4-2.3,0.2-2.2,1.8c-0.4-0.6-0.8-1.2-1.2-1.8l0.2,0c0.8-0.1,0.7-0.8,0.6-1.3
				c-0.1-0.9,0.2-1.8,0.7-2.5c0.8-1.1,0.7-2.4,0.9-3.7c0.4-2.8,1-5.4,0-8.3c-0.5-1.4,1.3-2.5,2.5-3.1c0.9-0.5,1-1,1-1.8
				c-0.1-1.8-0.1-3.4,1.5-4.7c1.1-0.9,2.5-1.4,3.7-1.4c1.3,0,2.2-0.3,3.1-0.9c2.6-1.6,5-3.4,7.3-5.3c1.2-0.9,2.7-1.9,4-1
				c1.1,0.7,2.3,1.1,3.3,1.9c0.7,1.7,2.7,1.8,3.9,3c-1.5,0.8-3,1.3-4.5,1.3c-2.2,0-4.3-0.2-5.6,2.2c-0.1,0.2-0.5,0.3-0.8,0.4
				c-2.6,1.4-5.4,1.7-8.4,0.7c0.2,0.9,0.7,1.2,1.2,1.6c1.1,0.9,1.7,1.9,2.1,3.2c0.3,1,0.1,2-0.5,2.7c-0.6,0.8-1.4,0-2.1-0.1
				c-1.3-0.3-2.5-1-3.9-1.1c0.1,0.2,0.1,0.4,0.2,0.4c1.3,0.5,2.5,1,3.8,1.5c2.1,0.8,2.8,2.1,2.2,4c-0.6,1.9-2.2,2.7-4.3,2.3
				c-0.9-0.2-1.7-0.8-3.1-0.1c1.3,0.3,2.1,0.7,3,0.8c1.9,0.2,1.9,1.5,1.8,2.9c-0.1,1.5-1,2-2.4,2.1c-1.8,0.1-3.5-0.6-5.4-0.6
				c1.5,1.4,1.5,2.5-0.2,3.7C87.3,89,86.4,89.6,85.3,89.7z"/>
			<path class="st293" d="M85.3,89.7c1-0.2,1.9-0.7,2.8-1.3c1.6-1.1,1.7-2.3,0.2-3.7c1.9,0.1,3.6,0.7,5.4,0.6
				c1.4-0.1,2.3-0.6,2.4-2.1c0.1-1.4,0.1-2.7-1.8-2.9c-0.9-0.1-1.8-0.4-3-0.8c1.4-0.7,2.2,0,3.1,0.1c2,0.4,3.6-0.4,4.3-2.3
				c0.6-1.9-0.1-3.2-2.2-4c-1.3-0.5-2.6-1-3.8-1.5c-0.1,0-0.1-0.2-0.2-0.4c1.4,0.1,2.6,0.8,3.9,1.1c0.7,0.2,1.5,1,2.1,0.1
				c0.6-0.7,0.8-1.7,0.5-2.7c-0.4-1.3-1.1-2.4-2.1-3.2c-0.5-0.4-1-0.7-1.2-1.6c3,1,5.7,0.7,8.4-0.7c0.3-0.1,0.7-0.2,0.8-0.4
				c1.2-2.4,3.4-2.2,5.6-2.2c1.5,0,3-0.6,4.5-1.3c-1.3-1.2-3.2-1.3-3.9-3c0.4-0.1,0.5-0.4,0.8-0.6c0.8-0.9,1.6-2,3.2-1
				c1.8,1.1,4,1.6,5.5,3.2c-4.6,1.6-9,3.9-13.3,6.2c-2.5,1.3-4.8,2.3-8,2c2.9,2.3,2.8,4.7,1,7.2c-0.3,0.5,0,0.9,0.1,1.4
				c0.2,2.1,0.2,4.2-2,5.5c-0.8,0.4-0.4,1.2-0.4,1.8c0,3.1-1,4.1-4,3.6c-1.4-0.2-2.4-0.3-3.2,1.3C89.4,90.2,87.5,90.6,85.3,89.7z"/>
			<path class="st298" d="M141.6,91.6c-2.6,3.5-4.8,7.3-7.6,10.7c-0.5,0-0.7,0.3-0.7,0.8c0,0,0,0,0,0c-1.5-0.6-2.5-1.8-3.7-2.7
				c-0.7-0.5-0.1-1.1,0.2-1.6c1-1.8,1.9-3.7,2.6-5.6c0.2-0.5,0.9-1.2,0-1.7c1.4-1.1,2.6-2.4,3.7-3.7
				C137.3,89.9,139.2,91.1,141.6,91.6z"/>
			<path class="st292" d="M126.1,66.7c0-0.7,0.6-0.8,1-1.2c2.3-2.1,2.4-3.2,0.5-5.6c-0.2-0.2-0.2-0.4,0-0.6c2.3,0.7,2.3,2.6,2.4,4.4
				c0.1,1.2,0.6,1.9,1.6,2.5c2.2,1.4,2.8,3.2,2.2,5.7c-0.2,0.6-0.3,1.2,0.1,1.7c1.9,2.1,2.6,4.4,1.7,7.2c-2.1,0.6-3.9,2.1-5.9,2.9
				l0,0c1-1.6,2.7-2.4,3.8-3.9c1.1-1.4,1-2.9-0.5-5c-1-1.5-2-0.4-2.9,0c-0.4,0.1-0.8,0.3-1.4,0c2.1-1.8,4.5-3.4,2.2-6.7
				C129.5,66,127.9,66.2,126.1,66.7L126.1,66.7z"/>
			<path class="st299" d="M77,94.7c-0.4-0.6-0.7-1.2-1.1-1.7c-0.1-0.4-0.2-0.8-0.2-1.3c1.9-0.3,3.4-1.6,5-2.5
				c0.9-0.5,1.3-0.5,1.5,0.5c0,0-0.2,0-0.2,0c-1.1,0.1-1.4,0.8-1.4,1.9c0,0.4,0.5,1.1-0.6,1.1C78.6,92.7,77.8,93.7,77,94.7z"/>
			<path class="st291" d="M75.7,91.7c0.1,0.4,0.2,0.8,0.2,1.3c-0.4,0-0.9,0-0.9-0.3c0-1.9-1.3-1.1-2.2-1.1
				C73.8,90.5,74.8,90,75.7,91.7z"/>
			<path class="st288" d="M144.3,98.7c0.5-1.3,1.1-2.5,1.9-3.6C146.1,96.6,146.9,98.6,144.3,98.7z"/>
			<path class="st288" d="M146.2,95.1c0.2-0.6,0.3-1.1,0.5-1.7C147.1,94.1,147.4,94.8,146.2,95.1z"/>
			<path class="st296" d="M77,94.7c0.7-1.1,1.5-2.1,3-2c1,0,0.6-0.7,0.6-1.1c0-1.1,0.3-1.7,1.4-1.9c0.4,0.6,0.8,1.2,1.2,1.8
				c2.2,3.8,4.4,7.7,6.7,11.5c1.2,2,2.2,4.1,3.2,6.2c-2.4,1.5-4.9,2.9-7.3,4.4c-0.2-0.3-0.5-0.7-0.7-1c-0.1-0.1-0.3-0.3-0.4-0.4
				c0.1-0.9-0.4-1.7-0.8-2.5C81.6,104.7,79.3,99.7,77,94.7z"/>
			<path class="st291" d="M85,112.5c0.2,0.3,0.5,0.7,0.7,1c0.1,0.9,0.9,1.5,0.8,2.4c-0.8-0.7-1.2-1.6-1.8-2.4
				C84.4,113,84.7,112.8,85,112.5z"/>
			<path class="st293" d="M133.3,103.1c0-0.5,0.2-0.7,0.7-0.8C134,102.8,133.8,103.1,133.3,103.1z"/>
			<path class="st292" d="M126.1,66.7c-0.2,0.3-0.4,0.4-0.7,0.3c0,0-0.1-0.1-0.1-0.1C125.6,66.8,125.8,66.7,126.1,66.7
				C126.1,66.7,126.1,66.7,126.1,66.7z"/>
			<path class="st292" d="M128,75.2c0,0-0.1,0.1-0.1,0.1c0,0-0.1-0.1-0.1-0.1C127.8,75.1,127.9,75.2,128,75.2z"/>
			<path class="st292" d="M129.7,83.6c-0.1,0.1-0.2,0.2-0.4,0.3c0,0-0.1-0.1-0.1-0.1C129.4,83.7,129.5,83.7,129.7,83.6
				C129.7,83.6,129.7,83.6,129.7,83.6z"/>
		</g>
		<polygon class="st294" points="96.5,114.6 99.2,120.2 91.1,126 89.4,121.9 		"/>
		<path class="st294" d="M126.1,113.8l7.5,5.4l-5.4,11.3l-6.9-4.9c-1-0.7-1.3-2.1-0.6-3.1L126.1,113.8z"/>
		<path class="st288" d="M129.7,127.6l4-8.5l9.5,10.8l-3.1,3.5c0,0-3.5,0.2-3.7,0c-0.2-0.2-7.1-4.1-7.1-4.1L129.7,127.6z"/>
		<path class="st289" d="M147.3,92.6l28.4,16.6l-3.9,1.4c0,0-16.3-7.8-16.5-7.8C155.2,102.7,147.3,92.6,147.3,92.6z"/>
	</g>
	<g>
		<path class="st61" d="M143,33.9c-1.9-0.5-2.2-0.8-2.7-2.7c-0.1-0.4-0.9-0.4-1,0c-0.5,1.9-0.8,2.2-2.7,2.7
			c-0.2,0.1-0.4,0.3-0.4,0.5c0,0.2,0.2,0.4,0.4,0.5c1.9,0.5,2.2,0.8,2.7,2.7c0.1,0.2,0.3,0.4,0.5,0.4s0.4-0.2,0.5-0.4
			c0.5-1.9,0.8-2.2,2.7-2.7c0.2-0.1,0.4-0.3,0.4-0.5C143.4,34.2,143.2,34,143,33.9z M139.8,35.8c-0.3-0.7-0.7-1.1-1.4-1.4
			c0.7-0.3,1.1-0.7,1.4-1.4c0.3,0.7,0.7,1.1,1.4,1.4C140.6,34.7,140.2,35.1,139.8,35.8z"/>
		<path class="st61" d="M164.1,32c-2.6-0.6-3.1-1.1-3.7-3.7c-0.1-0.2-0.3-0.4-0.5-0.4s-0.4,0.2-0.5,0.4c-0.6,2.6-1.1,3.1-3.7,3.7
			c-0.2,0.1-0.4,0.3-0.4,0.5s0.2,0.4,0.4,0.5c2.6,0.6,3.1,1.1,3.7,3.7c0.1,0.2,0.3,0.4,0.5,0.4s0.4-0.2,0.5-0.4
			c0.6-2.6,1.1-3.1,3.7-3.7c0.2-0.1,0.4-0.3,0.4-0.5C164.4,32.2,164.3,32,164.1,32z M159.9,34.8c-0.5-1.2-1.1-1.9-2.3-2.3
			c1.2-0.5,1.9-1.1,2.3-2.3c0.5,1.2,1.1,1.9,2.3,2.3C161,32.9,160.3,33.6,159.9,34.8z"/>
		<path class="st61" d="M157.2,43.9c-3.6-0.9-4.3-1.5-5.2-5.2c-0.1-0.2-0.3-0.4-0.5-0.4c-0.2,0-0.4,0.2-0.5,0.4
			c-0.9,3.6-1.5,4.3-5.2,5.2c-0.2,0.1-0.4,0.3-0.4,0.5c0,0.2,0.2,0.4,0.4,0.5c3.6,0.9,4.3,1.5,5.2,5.2c0.1,0.2,0.3,0.4,0.5,0.4
			c0.2,0,0.4-0.2,0.5-0.4c0.9-3.6,1.5-4.3,5.2-5.2c0.2-0.1,0.4-0.3,0.4-0.5C157.6,44.2,157.4,44,157.2,43.9z M151.5,48.1
			c-0.7-2.1-1.6-3-3.7-3.7c2.1-0.7,3-1.6,3.7-3.7c0.7,2.1,1.6,3,3.7,3.7C153.1,45.1,152.2,46,151.5,48.1z"/>
	</g>
	<g>
		<path class="st61" d="M100.7,33.9c-1.9-0.5-2.2-0.8-2.7-2.7c-0.1-0.4-0.9-0.4-1,0c-0.5,1.9-0.8,2.2-2.7,2.7
			c-0.2,0.1-0.4,0.3-0.4,0.5c0,0.2,0.2,0.4,0.4,0.5c1.9,0.5,2.2,0.8,2.7,2.7c0.1,0.2,0.3,0.4,0.5,0.4c0.2,0,0.4-0.2,0.5-0.4
			c0.5-1.9,0.8-2.2,2.7-2.7c0.2-0.1,0.4-0.3,0.4-0.5C101,34.1,100.9,33.9,100.7,33.9z M97.5,35.8c-0.3-0.7-0.7-1.1-1.4-1.4
			c0.7-0.3,1.1-0.7,1.4-1.4c0.3,0.7,0.7,1.1,1.4,1.4C98.2,34.7,97.8,35.1,97.5,35.8z"/>
		<path class="st61" d="M127,39.5c-2.6-0.6-3.1-1.1-3.7-3.7c-0.1-0.2-0.3-0.4-0.5-0.4c-0.2,0-0.4,0.2-0.5,0.4
			c-0.6,2.6-1.1,3.1-3.7,3.7c-0.2,0.1-0.4,0.3-0.4,0.5s0.2,0.4,0.4,0.5c2.6,0.6,3.1,1.1,3.7,3.7c0.1,0.2,0.3,0.4,0.5,0.4
			c0.2,0,0.4-0.2,0.5-0.4c0.6-2.6,1.1-3.1,3.7-3.7c0.2-0.1,0.4-0.3,0.4-0.5C127.4,39.7,127.3,39.5,127,39.5z M122.8,42.3
			c-0.5-1.2-1.1-1.9-2.3-2.3c1.2-0.5,1.9-1.1,2.3-2.3c0.5,1.2,1.1,1.9,2.3,2.3C123.9,40.4,123.3,41.1,122.8,42.3z"/>
		<path class="st61" d="M118,27.4c-3.6-0.9-4.3-1.5-5.2-5.2c-0.1-0.2-0.3-0.4-0.5-0.4c-0.2,0-0.4,0.2-0.5,0.4
			c-0.9,3.6-1.5,4.3-5.2,5.2c-0.2,0.1-0.4,0.3-0.4,0.5s0.2,0.4,0.4,0.5c3.6,0.9,4.3,1.5,5.2,5.2c0.1,0.2,0.3,0.4,0.5,0.4
			c0.2,0,0.4-0.2,0.5-0.4c0.9-3.6,1.5-4.3,5.2-5.2c0.2-0.1,0.4-0.3,0.4-0.5S118.2,27.5,118,27.4z M112.3,31.6
			c-0.7-2.1-1.6-3-3.7-3.7c2.1-0.7,3-1.6,3.7-3.7c0.7,2.1,1.6,3,3.7,3.7C113.9,28.6,113,29.5,112.3,31.6z"/>
	</g>
	<g>
		<path class="st61" d="M56.4,33.2c-1.9-0.5-2.2-0.8-2.7-2.7c-0.1-0.4-0.9-0.4-1,0c-0.5,1.9-0.8,2.2-2.7,2.7
			c-0.2,0.1-0.4,0.3-0.4,0.5c0,0.2,0.2,0.4,0.4,0.5c1.9,0.5,2.2,0.8,2.7,2.7c0.1,0.2,0.3,0.4,0.5,0.4s0.4-0.2,0.5-0.4
			c0.5-1.9,0.8-2.2,2.7-2.7c0.2-0.1,0.4-0.3,0.4-0.5C56.8,33.4,56.6,33.2,56.4,33.2z M53.2,35.1c-0.3-0.7-0.7-1.1-1.4-1.4
			c0.7-0.3,1.1-0.7,1.4-1.4c0.3,0.7,0.7,1.1,1.4,1.4C54,34,53.5,34.4,53.2,35.1z"/>
		<path class="st61" d="M82.8,38.7c-2.6-0.6-3.1-1.1-3.7-3.7c-0.1-0.2-0.3-0.4-0.5-0.4c-0.2,0-0.4,0.2-0.5,0.4
			c-0.6,2.6-1.1,3.1-3.7,3.7C74.2,38.8,74,39,74,39.2s0.2,0.4,0.4,0.5c2.6,0.6,3.1,1.1,3.7,3.7c0.1,0.2,0.3,0.4,0.5,0.4
			c0.2,0,0.4-0.2,0.5-0.4c0.6-2.6,1.1-3.1,3.7-3.7c0.2-0.1,0.4-0.3,0.4-0.5C83.2,39,83,38.8,82.8,38.7z M78.6,41.6
			c-0.5-1.2-1.1-1.9-2.3-2.3c1.2-0.5,1.9-1.1,2.3-2.3c0.5,1.2,1.1,1.9,2.3,2.3C79.7,39.7,79.1,40.3,78.6,41.6z"/>
		<path class="st61" d="M73.7,26.7c-3.6-0.9-4.3-1.5-5.2-5.2c-0.1-0.2-0.3-0.4-0.5-0.4c-0.2,0-0.4,0.2-0.5,0.4
			c-0.9,3.6-1.5,4.3-5.2,5.2c-0.2,0.1-0.4,0.3-0.4,0.5s0.2,0.4,0.4,0.5c3.6,0.9,4.3,1.5,5.2,5.2c0.1,0.2,0.3,0.4,0.5,0.4
			c0.2,0,0.4-0.2,0.5-0.4c0.9-3.6,1.5-4.3,5.2-5.2c0.2-0.1,0.4-0.3,0.4-0.5S73.9,26.7,73.7,26.7z M68.1,30.8c-0.7-2.1-1.6-3-3.7-3.7
			c2.1-0.7,3-1.6,3.7-3.7c0.7,2.1,1.6,3,3.7,3.7C69.7,27.9,68.8,28.8,68.1,30.8z"/>
	</g>
	<g>
		<path class="st61" d="M93.7,19.7C91.8,19.3,91.5,19,91,17c-0.1-0.4-0.9-0.4-1,0c-0.5,1.9-0.8,2.2-2.7,2.7C87.1,19.8,87,20,87,20.2
			c0,0.2,0.2,0.4,0.4,0.5c1.9,0.5,2.2,0.8,2.7,2.7c0.1,0.2,0.3,0.4,0.5,0.4c0.2,0,0.4-0.2,0.5-0.4c0.5-1.9,0.8-2.2,2.7-2.7
			c0.2-0.1,0.4-0.3,0.4-0.5C94.1,20,94,19.8,93.7,19.7z M90.5,21.7c-0.3-0.7-0.7-1.1-1.4-1.4c0.7-0.3,1.1-0.7,1.4-1.4
			c0.3,0.7,0.7,1.1,1.4,1.4C91.3,20.5,90.9,21,90.5,21.7z"/>
		<path class="st61" d="M128.7,16.8c-2.6-0.6-3.1-1.1-3.7-3.7c-0.1-0.2-0.3-0.4-0.5-0.4s-0.4,0.2-0.5,0.4c-0.6,2.6-1.1,3.1-3.7,3.7
			c-0.2,0.1-0.4,0.3-0.4,0.5c0,0.2,0.2,0.4,0.4,0.5c2.6,0.6,3.1,1.1,3.7,3.7c0.1,0.2,0.3,0.4,0.5,0.4s0.4-0.2,0.5-0.4
			c0.6-2.6,1.1-3.1,3.7-3.7c0.2-0.1,0.4-0.3,0.4-0.5S128.9,16.9,128.7,16.8z M124.5,19.6c-0.5-1.2-1.1-1.9-2.3-2.3
			c1.2-0.5,1.9-1.1,2.3-2.3c0.5,1.2,1.1,1.9,2.3,2.3C125.6,17.8,125,18.4,124.5,19.6z"/>
		<path class="st61" d="M112.7,9.8c-3.6-0.9-4.3-1.5-5.2-5.2c-0.1-0.2-0.3-0.4-0.5-0.4s-0.4,0.2-0.5,0.4c-0.9,3.6-1.5,4.3-5.2,5.2
			c-0.2,0.1-0.4,0.3-0.4,0.5s0.2,0.4,0.4,0.5c3.6,0.9,4.3,1.5,5.2,5.2c0.1,0.2,0.3,0.4,0.5,0.4s0.4-0.2,0.5-0.4
			c0.9-3.6,1.5-4.3,5.2-5.2c0.2-0.1,0.4-0.3,0.4-0.5S112.9,9.9,112.7,9.8z M107.1,14c-0.7-2.1-1.6-3-3.7-3.7c2.1-0.7,3-1.6,3.7-3.7
			c0.7,2.1,1.6,3,3.7,3.7C108.7,11,107.8,11.9,107.1,14z"/>
	</g>
</g>
</svg>
