<?xml version="1.0" encoding="utf-8"?>
<!-- Generator: Adobe Illustrator 25.1.0, SVG Export Plug-In . SVG Version: 6.00 Build 0)  -->
<svg version="1.1" id="Calque_1" xmlns="http://www.w3.org/2000/svg" xmlns:xlink="http://www.w3.org/1999/xlink" x="0px" y="0px"
	 viewBox="0 0 105.2 117.7" style="enable-background:new 0 0 105.2 117.7;" xml:space="preserve">
<style type="text/css">
	.st0{fill:none;stroke:#A3A29A;stroke-width:0.5;stroke-miterlimit:10;}
	.st1{fill:none;stroke:#00A359;stroke-width:4;stroke-miterlimit:10;}
	.st2{fill:none;stroke:#00A359;stroke-width:2.5;stroke-linecap:round;stroke-linejoin:round;stroke-miterlimit:10;}
	.st3{fill:#002C3F;}
	.st4{fill:none;stroke:#00A359;stroke-width:2;stroke-linecap:round;stroke-linejoin:round;stroke-miterlimit:10;}
	.st5{fill:#00A359;}
	.st6{fill-rule:evenodd;clip-rule:evenodd;fill:#002C3F;}
	.st7{fill-rule:evenodd;clip-rule:evenodd;fill:#00A359;}
	.st8{fill:#00A359;stroke:#FFFFFF;stroke-miterlimit:10;}
	.st9{fill:#002C3F;stroke:#FFFFFF;stroke-width:2;stroke-miterlimit:10;}
	.st10{fill:none;stroke:#002C3F;stroke-width:3;stroke-linecap:round;stroke-linejoin:round;stroke-miterlimit:10;}
	.st11{fill:none;stroke:#00A359;stroke-width:3;stroke-linecap:round;stroke-linejoin:round;stroke-miterlimit:10;}
	.st12{fill:#002C3F;stroke:#FFFFFF;stroke-miterlimit:10;}
	.st13{fill:#00A359;stroke:#FFFFFF;stroke-width:0.5;stroke-miterlimit:10;}
	.st14{fill:#FFFFFF;}
	.st15{fill:none;stroke:#00A359;stroke-width:2.5;stroke-miterlimit:10;}
	.st16{fill:none;}
	.st17{fill:none;stroke:#002C3F;stroke-width:1.8;stroke-miterlimit:10;}
</style>
<g>
	<path class="st3" d="M22,45.5h10.7l2.1-4.8c0,0,1.4-1.1,2.2,1.1L41.5,54l8.4-17.6c0,0,0.2-1.1,1.3-1.1c0,0,0.7-0.2,1.3,1.5l4.4,12
		l1-2.5c0,0,0.3-0.8,1.1-0.8l12.8-0.1c0,0,1,0.1,1.3,1.4c0,0,0,1.4-1.2,1.4l-12.1,0.2l-2.1,4.8c0,0,0,0.5-0.9,0.4
		c0,0-0.7,0.2-1.4-1.9l-4.3-11.9l-8.4,17.6c0,0-0.2,1.1-1.2,1.1c0,0-0.7,0.2-1.1-0.8L35.7,45l-1,2.5c0,0-0.3,0.9-1.6,0.8l-11.8-0.1
		c0,0-1.3,0.3-1.5-1.4c0,0,0.1-1.4,1.2-1.4H22z"/>
	<g>
		<path class="st5" d="M86.5,87.1c0.6-0.6,0.6-1.7,0-2.3L67.6,65.9c4.5-5,7.2-11.6,7.2-18.9c0-15.7-12.8-28.4-28.4-28.4
			S18,31.3,18,47s12.8,28.4,28.4,28.4c7.2,0,13.9-2.7,18.9-7.2l18.9,18.9c0.3,0.3,0.7,0.5,1.2,0.5C85.8,87.6,86.2,87.4,86.5,87.1z
			 M71.6,47c0,13.9-11.3,25.1-25.1,25.1S21.3,60.8,21.3,47s11.3-25.1,25.1-25.1C60.3,21.8,71.6,33.1,71.6,47z"/>
	</g>
</g>
</svg>
