<?xml version="1.0" encoding="utf-8"?>
<!-- Generator: Adobe Illustrator 25.2.1, SVG Export Plug-In . SVG Version: 6.00 Build 0)  -->
<svg version="1.1" xmlns="http://www.w3.org/2000/svg" xmlns:xlink="http://www.w3.org/1999/xlink" x="0px" y="0px"
	 viewBox="0 0 191.9 176.1" style="enable-background:new 0 0 191.9 176.1;" xml:space="preserve">
<style type="text/css">
	.st0{fill:url(#SVGID_1_);}
	.st1{fill:url(#SVGID_2_);}
	.st2{fill:url(#SVGID_3_);}
	.st3{fill:url(#SVGID_4_);}
	.st4{fill:url(#SVGID_5_);}
	.st5{fill:url(#SVGID_6_);}
	.st6{fill:url(#SVGID_7_);}
	.st7{fill:url(#SVGID_8_);}
	.st8{fill:url(#SVGID_9_);}
	.st9{fill:url(#SVGID_10_);}
	.st10{fill:url(#SVGID_11_);}
	.st11{fill:url(#SVGID_12_);}
	.st12{fill:url(#SVGID_13_);}
	.st13{fill:url(#SVGID_14_);}
	.st14{fill:url(#SVGID_15_);}
	.st15{fill:url(#SVGID_16_);}
	.st16{fill:url(#SVGID_17_);}
	.st17{fill:url(#SVGID_18_);}
	.st18{fill:url(#SVGID_19_);}
	.st19{fill:url(#SVGID_20_);}
	.st20{fill:url(#SVGID_21_);}
	.st21{fill:url(#SVGID_22_);}
	.st22{fill:url(#SVGID_23_);}
	.st23{fill:url(#SVGID_24_);}
	.st24{fill:url(#SVGID_25_);}
	.st25{fill:url(#SVGID_26_);}
	.st26{fill:url(#SVGID_27_);}
	.st27{fill:url(#SVGID_28_);}
	.st28{fill:url(#SVGID_29_);}
	.st29{fill:url(#SVGID_30_);}
	.st30{fill:url(#SVGID_31_);}
	.st31{fill:url(#SVGID_32_);}
	.st32{fill:#85D8B5;}
	.st33{fill:url(#SVGID_33_);}
	.st34{fill:#E8E8E8;}
	.st35{opacity:0.6;}
	.st36{fill-rule:evenodd;clip-rule:evenodd;fill:#00A258;}
	.st37{opacity:0.18;}
	.st38{opacity:0.15;}
	.st39{fill:#A3A29A;}
	.st40{fill:none;stroke:#00A359;stroke-width:4;stroke-miterlimit:10;}
	.st41{fill:none;stroke:#00A359;stroke-width:2.5;stroke-linecap:round;stroke-linejoin:round;stroke-miterlimit:10;}
	.st42{fill:#002C3F;}
	.st43{fill:none;stroke:#00A359;stroke-width:2;stroke-linecap:round;stroke-linejoin:round;stroke-miterlimit:10;}
	.st44{fill:#00A359;}
	.st45{fill-rule:evenodd;clip-rule:evenodd;fill:#002C3F;}
	.st46{fill-rule:evenodd;clip-rule:evenodd;fill:#00A359;}
	.st47{fill:none;}
	.st48{fill:#00A359;stroke:#FFFFFF;stroke-miterlimit:10;}
	.st49{fill:none;stroke:#002C3F;stroke-width:1.8;stroke-miterlimit:10;}
	.st50{fill:#FFFFFF;}
	.st51{fill:none;stroke:#00A359;stroke-width:3;stroke-linecap:round;stroke-linejoin:round;stroke-miterlimit:10;}
	.st52{fill:#00A359;stroke:#FFFFFF;stroke-width:0.5;stroke-miterlimit:10;}
	.st53{fill:url(#SVGID_34_);}
	.st54{fill:#F4F4F4;}
	.st55{fill:#FBFCFE;}
	.st56{fill:none;stroke:#FBFCFE;stroke-width:2;stroke-linecap:round;stroke-linejoin:round;stroke-miterlimit:10;}
	.st57{fill:#CCCCCC;}
	.st58{fill:url(#SVGID_35_);}
	.st59{opacity:0.3;fill:#6A7570;}
	.st60{fill:#D5EDE3;}
	.st61{fill:#00A258;}
	.st62{fill:none;stroke:#002C3F;stroke-width:0.75;stroke-linecap:round;stroke-linejoin:round;stroke-miterlimit:10;}
	.st63{fill:#082C3E;}
	.st64{fill:url(#SVGID_36_);}
	.st65{fill:#F6C5B9;}
	.st66{fill:#D3FBF6;}
	.st67{fill:#35B7EE;}
	.st68{fill:#E2BB59;}
	.st69{fill-rule:evenodd;clip-rule:evenodd;fill:url(#SVGID_37_);}
	.st70{opacity:0.7;fill-rule:evenodd;clip-rule:evenodd;fill:#D5EDE3;}
	.st71{fill-rule:evenodd;clip-rule:evenodd;fill:url(#SVGID_38_);}
	.st72{fill:#F5F7FD;}
	.st73{fill:#E6ECF7;}
	.st74{clip-path:url(#SVGID_40_);fill:#E6ECF7;}
	.st75{fill:#C9DBEC;}
	.st76{fill:#BECEEB;}
	.st77{fill:#F2F6FD;}
	.st78{clip-path:url(#SVGID_42_);fill:#DDE7F8;}
	.st79{opacity:0.38;fill:url(#SVGID_43_);}
	.st80{fill:#C5887B;}
	.st81{fill:#663300;}
	.st82{fill:url(#SVGID_44_);}
	.st83{fill:url(#SVGID_45_);}
	.st84{fill:url(#SVGID_46_);}
	.st85{fill:url(#SVGID_47_);}
	.st86{fill:url(#SVGID_48_);}
	.st87{fill:#9BF7D6;}
	.st88{fill:#828282;}
	.st89{fill:#E6ECF8;}
	.st90{fill:#E6ECF9;}
	.st91{fill-rule:evenodd;clip-rule:evenodd;fill:#828282;}
	.st92{fill-rule:evenodd;clip-rule:evenodd;fill:#E6ECF8;}
	.st93{fill:#46586B;}
	.st94{fill:url(#SVGID_49_);}
	.st95{clip-path:url(#SVGID_51_);fill:#E6ECF7;}
	.st96{fill:#956EE1;}
	.st97{fill:url(#SVGID_52_);}
	.st98{opacity:0.3;}
	.st99{fill:url(#SVGID_53_);}
	.st100{fill:none;stroke:#00A359;stroke-linecap:round;stroke-linejoin:round;stroke-miterlimit:10;}
	.st101{fill:#C0ABF4;}
	.st102{fill:#6A7570;}
	.st103{fill:#F0D3C7;}
	.st104{fill:#7C4939;}
	.st105{fill:#1B0E14;}
	.st106{fill:#B5AACC;}
	.st107{fill:#968AB3;}
	.st108{fill:#AF9F98;}
	.st109{fill:#BF7F64;}
	.st110{fill:#212D67;}
	.st111{fill:#F0937B;}
	.st112{fill:#54505D;}
	.st113{fill:#FDFFFF;}
	.st114{fill:#B39D98;}
	.st115{fill:#3A2E40;}
	.st116{fill-rule:evenodd;clip-rule:evenodd;fill:#FFFFFF;}
	.st117{fill-rule:evenodd;clip-rule:evenodd;fill:#006032;}
	.st118{fill:url(#SVGID_54_);}
	.st119{fill:url(#SVGID_55_);}
	.st120{fill:url(#SVGID_56_);}
	.st121{fill:#57CE90;}
	.st122{clip-path:url(#SVGID_58_);fill:#E6ECF7;}
	.st123{fill:url(#SVGID_59_);}
	.st124{fill:#46A578;}
	.st125{fill:#707C79;}
	.st126{fill:#AEBDB9;}
	.st127{fill:#07492A;}
	.st128{fill:url(#SVGID_60_);}
	.st129{fill:#0FDB7A;}
	.st130{fill:url(#SVGID_61_);}
	.st131{fill:url(#SVGID_62_);}
	.st132{fill:url(#SVGID_63_);}
	.st133{fill:url(#SVGID_64_);}
	.st134{fill:url(#SVGID_65_);}
	.st135{fill:#2B435C;}
	.st136{fill:#0E539B;}
	.st137{fill:#EDC5B7;}
	.st138{fill:#517CA5;}
	.st139{fill:#F1BCA7;}
	.st140{fill:#5FB6DC;}
	.st141{fill:#F2CFBD;}
	.st142{fill:#0EDCBF;}
	.st143{fill:#0B7060;}
	.st144{fill:#5F7D83;}
	.st145{fill:#D2F9F5;}
	.st146{fill:#0D9A84;}
	.st147{fill:#074339;}
	.st148{fill:#0DC0A6;}
	.st149{fill:#89F0E5;}
	.st150{fill:#E3E5E4;}
	.st151{fill:#385F66;}
	.st152{fill:#ECAAA9;}
	.st153{fill:#1C6065;}
	.st154{fill:#059B85;}
	.st155{fill:#4DEBDB;}
	.st156{fill:#FDFEFE;}
	.st157{fill:url(#SVGID_66_);}
	.st158{fill:url(#SVGID_67_);}
	.st159{fill:#8B8C8C;}
	.st160{fill:#00755D;}
	.st161{fill:#004537;}
	.st162{fill:url(#SVGID_68_);}
	.st163{fill:#003F36;}
	.st164{fill:#EEF9F6;}
	.st165{opacity:0.38;fill:url(#SVGID_69_);}
	.st166{fill:#008B77;}
	.st167{fill:#077A66;}
	.st168{fill-rule:evenodd;clip-rule:evenodd;fill:#05C2A8;}
	.st169{fill:url(#SVGID_70_);}
	.st170{fill:#FDFDFD;}
	.st171{fill:#DFE6F6;}
	.st172{fill:url(#SVGID_71_);}
	.st173{fill:#002C3F;stroke:#002C3F;stroke-width:0.75;stroke-miterlimit:10;}
	.st174{fill:#00A359;stroke:#00A359;stroke-miterlimit:10;}
	.st175{fill:#002C3F;stroke:#002C3F;stroke-width:0.5;stroke-miterlimit:10;}
	.st176{fill:#EAF2FA;}
	.st177{fill:#12176D;}
	.st178{fill:#4AA1FA;}
	.st179{fill:#F9B7CC;}
	.st180{fill:#B4E0FC;}
	.st181{fill:#113F86;}
	.st182{fill:#093075;}
	.st183{fill:#FB93A7;}
	.st184{fill:#FAB8CC;}
	.st185{fill:#FCDDE6;}
	.st186{fill:#FCEEF5;}
	.st187{fill:#EEF0F4;}
	.st188{fill:#171719;}
	.st189{fill:#F6C52A;}
	.st190{fill:#ECF1F7;}
	.st191{fill:#F8B91B;}
	.st192{fill:#EFE0D3;}
	.st193{fill:#3D325B;}
	.st194{fill:#FCF1E8;}
	.st195{fill:#513027;}
	.st196{opacity:0.4;}
	.st197{opacity:0.4;fill:none;stroke:#00A359;stroke-width:0.25;stroke-miterlimit:10;}
	.st198{fill:none;stroke:#00A359;stroke-width:0.25;stroke-miterlimit:10;}
	.st199{fill:url(#SVGID_72_);}
	.st200{fill:url(#SVGID_73_);}
	.st201{fill:url(#SVGID_74_);}
	.st202{fill:url(#SVGID_75_);}
	.st203{fill:url(#SVGID_76_);}
	.st204{fill:url(#SVGID_77_);}
	.st205{fill:url(#SVGID_78_);}
	.st206{fill:url(#SVGID_79_);}
	.st207{fill:url(#SVGID_80_);}
	.st208{fill:#10166D;}
	.st209{fill:#603209;}
	.st210{fill:#5AB3FA;}
	.st211{fill:#95A3D4;}
	.st212{fill:#0DD375;}
	.st213{fill:#13176D;}
	.st214{fill:#253392;}
	.st215{fill:#EBF2FA;}
	.st216{fill:#026033;}
	.st217{fill:#AD8679;}
	.st218{fill:#FAC5DC;}
	.st219{fill:#B3B7BC;}
	.st220{fill:#FFFFFF;stroke:#BAC0BF;stroke-width:0.5;stroke-miterlimit:10;}
	.st221{fill:#7F8182;}
	.st222{fill:#012D26;}
	.st223{fill:#024C3A;}
	.st224{fill:#02543F;}
	.st225{fill:#045E44;}
	.st226{fill:#05C2A8;}
	.st227{fill:#F9F8F7;}
	.st228{fill:#55A5CA;}
	.st229{fill:#0F2B4C;}
	.st230{fill:#191B22;}
	.st231{fill:#131316;}
	.st232{fill:#EEA98B;}
	.st233{fill:#0A1F3D;}
	.st234{fill:#F4D37D;}
	.st235{fill:#E0977B;}
	.st236{fill:#3F1B0B;}
	.st237{fill:#953928;}
	.st238{fill:#2B3359;}
	.st239{fill:#E9D6D0;}
	.st240{fill:#1D2128;}
	.st241{fill:#0BACBB;}
	.st242{fill:#084A98;}
	.st243{fill:#603524;}
	.st244{fill:#038C4B;}
	.st245{fill:url(#SVGID_81_);}
	.st246{fill:url(#SVGID_82_);}
	.st247{fill:#03723D;}
	.st248{fill:none;stroke:#85D8B5;stroke-width:0.5;stroke-miterlimit:10;}
	.st249{fill:url(#SVGID_83_);}
	.st250{fill:#098446;}
	.st251{fill:none;stroke:#85D8B5;stroke-width:2;stroke-miterlimit:10;}
	.st252{fill:#1BAA63;}
	.st253{fill:url(#SVGID_84_);}
	.st254{fill:url(#SVGID_85_);}
	.st255{fill:url(#SVGID_86_);}
	.st256{fill:url(#SVGID_87_);}
	.st257{fill:url(#SVGID_88_);}
	.st258{fill:url(#SVGID_89_);}
	.st259{fill:url(#SVGID_90_);}
	.st260{fill:url(#SVGID_91_);}
	.st261{fill:url(#SVGID_92_);}
	.st262{fill:url(#SVGID_93_);}
	.st263{fill:url(#SVGID_94_);}
	.st264{fill:url(#SVGID_95_);}
	.st265{fill:url(#SVGID_96_);}
	.st266{fill:url(#SVGID_97_);}
	.st267{fill:url(#SVGID_98_);}
	.st268{fill:url(#SVGID_99_);}
	.st269{fill:none;stroke:#00A359;stroke-width:0.75;stroke-miterlimit:10;}
	.st270{fill:url(#SVGID_100_);}
	.st271{fill:url(#SVGID_101_);}
	.st272{fill:url(#SVGID_102_);}
	.st273{fill:url(#SVGID_103_);}
	.st274{fill:url(#SVGID_104_);}
	.st275{fill:#00A359;stroke:#FFFFFF;stroke-width:1.5;stroke-miterlimit:10;}
	.st276{fill:url(#SVGID_105_);}
	.st277{fill:#20B4CF;}
	.st278{fill:#1BA0BC;}
	.st279{fill:#DB1628;}
	.st280{fill:#C91424;}
	.st281{fill:#3DCCE8;}
	.st282{fill:#36B7D4;}
	.st283{fill:#D69567;}
	.st284{fill:#F9CBA4;}
	.st285{fill:#CF8954;}
	.st286{fill:#EAAC78;}
	.st287{fill:#DFF1F6;}
	.st288{fill:#1386A0;}
	.st289{fill:#2099B9;}
	.st290{fill:#D7403F;}
	.st291{fill:#C12B2B;}
	.st292{fill:#844C27;}
	.st293{fill:#D7996B;}
	.st294{fill:#D7D3CF;}
	.st295{fill:#FDC103;}
	.st296{fill:#FAF9F6;}
	.st297{fill:#A6683D;}
	.st298{fill:#EBAD77;}
	.st299{fill:#FAF8ED;}
	.st300{fill:#EBEBEB;}
	.st301{fill:#E0E0E0;}
	.st302{fill:#2B3288;}
	.st303{fill:#9C9C9E;}
	.st304{fill:#FCD16B;}
	.st305{fill:#CEBDA2;}
	.st306{fill:#454B95;}
	.st307{fill:#D67B88;}
	.st308{fill:#F9C63A;}
	.st309{fill:#33398B;}
	.st310{fill:#EC939D;}
	.st311{fill:#0F1549;}
	.st312{fill:#D21F42;}
	.st313{fill:#A9258E;}
	.st314{fill:#50CAB0;}
	.st315{fill:#FDFDB5;}
	.st316{fill:#FCE2E0;}
	.st317{fill:#FA4863;}
	.st318{fill:#FCC21A;}
	.st319{fill:#077B94;}
	.st320{fill:#06CEC4;}
	.st321{fill:#F1E2E7;}
	.st322{fill:#046A81;}
	.st323{fill:#111229;}
	.st324{fill:#F9C5B7;}
	.st325{fill:#22224B;}
	.st326{fill:#07B9B0;}
	.st327{fill:#E23E56;}
	.st328{fill:#B1BDC5;}
	.st329{fill:#E59D29;}
	.st330{fill:#724527;}
	.st331{fill:#3B2D65;}
	.st332{fill:#2F4079;}
	.st333{fill:#2F4076;}
	.st334{fill:#3A2D66;}
	.st335{fill:#557BCE;}
	.st336{fill:#48224A;}
	.st337{fill:#F5DBD3;}
	.st338{fill:#7A5152;}
	.st339{fill:#F59B7E;}
	.st340{fill:#F7987A;}
	.st341{fill:#F9EBE0;}
	.st342{fill:#708CCB;}
	.st343{fill:#946262;}
	.st344{fill:#607BB8;}
	.st345{fill:#E0F1FB;}
	.st346{fill:#895A49;}
	.st347{fill:none;stroke:#32003D;stroke-width:0.75;stroke-linecap:round;stroke-linejoin:round;stroke-miterlimit:10;}
	.st348{fill:#FCC99B;}
	.st349{fill:#C4CEDD;}
	.st350{fill:#9BA8BA;}
	.st351{fill:#FF5C97;}
	.st352{fill:#FFDF29;}
	.st353{fill:#F9DBAA;}
	.st354{fill:#1A1E1C;}
	.st355{fill:#FFB65B;}
	.st356{clip-path:url(#SVGID_107_);fill:#514FB8;}
	.st357{fill:#F4C084;}
	.st358{fill:#663E1B;}
	.st359{fill:#442610;}
	.st360{fill:#110A04;}
	.st361{fill:#464C5B;}
	.st362{fill:#4D469F;}
	.st363{clip-path:url(#SVGID_109_);fill:#9B7FB5;}
	.st364{fill:#723A01;}
	.st365{fill:#D8D8D8;}
	.st366{fill:#E8AE7E;}
	.st367{fill:#6560B1;}
	.st368{clip-path:url(#SVGID_111_);fill:#9BA8BA;}
	.st369{clip-path:url(#SVGID_113_);fill:#FABB2D;}
	.st370{clip-path:url(#SVGID_115_);}
	.st371{clip-path:url(#SVGID_117_);fill:#DD9900;}
	.st372{fill:#8BD6F5;}
	.st373{fill:#D6EF31;}
	.st374{clip-path:url(#SVGID_119_);fill:#FFFFFF;}
	.st375{fill:#FEFDFD;}
	.st376{fill:#F6B29C;}
	.st377{fill:#DE8D77;}
	.st378{fill:#D3AB9F;}
	.st379{clip-path:url(#SVGID_121_);fill:#2099B9;}
	.st380{opacity:0.38;fill:url(#SVGID_122_);}
	.st381{fill:none;stroke:url(#SVGID_123_);stroke-width:0.5;stroke-miterlimit:10;}
	.st382{fill:url(#SVGID_124_);}
	.st383{fill:none;stroke:url(#SVGID_125_);stroke-width:0.5;stroke-miterlimit:10;}
	.st384{fill:url(#SVGID_126_);}
	.st385{fill:none;stroke:url(#SVGID_127_);stroke-width:0.5;stroke-miterlimit:10;}
	.st386{fill:url(#SVGID_128_);}
	.st387{fill:none;stroke:url(#SVGID_129_);stroke-width:0.5;stroke-miterlimit:10;}
	.st388{fill:url(#SVGID_130_);}
	.st389{opacity:0.81;fill:url(#SVGID_131_);}
	.st390{opacity:0.81;fill:url(#SVGID_132_);}
	.st391{fill:url(#SVGID_133_);}
	.st392{fill:url(#SVGID_134_);}
	.st393{fill:url(#SVGID_135_);}
	.st394{fill:url(#SVGID_136_);}
	.st395{fill:url(#SVGID_137_);}
	.st396{opacity:0.5;fill:#9BF7D6;}
	.st397{fill:url(#SVGID_138_);}
	.st398{fill:#3D2D29;}
	.st399{fill:#FBDF50;}
	.st400{fill:#EAB98E;}
	.st401{fill:#95794A;}
	.st402{fill:#F6D5B6;}
	.st403{fill:#C0B237;}
	.st404{fill:#E7C639;}
	.st405{fill:#CCA735;}
	.st406{fill:#8E8217;}
	.st407{fill:#C6A524;}
	.st408{fill:#F5D83E;}
	.st409{fill:#DAAB7F;}
	.st410{fill:#927848;}
	.st411{fill:#D5AD8A;}
</style>
<g id="Calque_2">
</g>
<g id="Calque_1">
	<g id="Calque_3">
	</g>
	<path class="st34" d="M30.9,57.1c-0.2-2.6,0-5.2,0.8-7.7c1.9-5.9,6.7-15.5,19.1-18.3c8.1-1.8,17-1.4,24.3-0.2
		c7.4,1.1,14.5,3.3,21.2,6.5c8.1,3.7,24.7,9.6,41.6,4.8c13.1-3.7,25-8,36.3,6.3c11.3,14.3,12.5,48.8-4.5,66.9
		c-8.5,9.1-20,15.6-29.5,19.9c-8.9,4-18.6,6-28.3,5.9c-12.1-0.1-30.6,1.1-44.8,11.2c-13.3,9.4-29.4,7.7-36.9,5.7
		c-2.5-0.7-4.9-1.8-7-3.4c-5.7-4.4-16.9-14.5-15.3-25.7c1.8-13.1,13.6-29.4,16.4-33.1c0.3-0.3,0.5-0.7,0.8-1
		C26.4,93.1,33.3,83.7,30.9,57.1z"/>
	<path class="st170" d="M126.8,118.8c0,0,21.3,1.3,39.3-4.7l-9.3,19.8l-4.9,0c0,0-14.1,7.2-42,8.2
		C109.8,142,122.7,126.9,126.8,118.8z"/>
	<path class="st170" d="M89.1,89.5l3.2-0.6l4.3,7l1.8,4.5l1.4,0.6l1.4,15.3c0,0-0.8,9.5-0.8,9.8s0.5,6.4,0.5,6.4l-1,2l-6.3-0.5
		l-2.1-0.1l-2.9-37L89.1,89.5z"/>
	<g class="st196">
		<line class="st197" x1="180.6" y1="23" x2="180.6" y2="87.9"/>
		<g class="st196">
			<line class="st198" x1="24.6" y1="23" x2="24.6" y2="87.9"/>
			<line class="st198" x1="55.3" y1="23" x2="55.3" y2="87.9"/>
			<line class="st198" x1="88.1" y1="23" x2="88.1" y2="87.9"/>
			<line class="st198" x1="118.8" y1="23" x2="118.8" y2="87.9"/>
			<line class="st198" x1="149.9" y1="23" x2="149.9" y2="87.9"/>
			<line class="st198" x1="20.4" y1="33.8" x2="184.8" y2="33.8"/>
			<line class="st198" x1="20.4" y1="23" x2="184.8" y2="23"/>
			<line class="st198" x1="20.4" y1="51.6" x2="184.8" y2="51.6"/>
			<line class="st198" x1="20.4" y1="42.6" x2="184.8" y2="42.6"/>
			<line class="st198" x1="20.4" y1="69.6" x2="184.8" y2="69.6"/>
			<line class="st198" x1="20.4" y1="60.6" x2="184.8" y2="60.6"/>
			<line class="st198" x1="20.4" y1="87.7" x2="184.8" y2="87.7"/>
			<line class="st198" x1="20.4" y1="78.7" x2="184.8" y2="78.7"/>
		</g>
	</g>
	<linearGradient id="SVGID_1_" gradientUnits="userSpaceOnUse" x1="85.0655" y1="42.5985" x2="88.6492" y2="42.5985">
		<stop  offset="0" style="stop-color:#00A093"/>
		<stop  offset="1" style="stop-color:#00A359"/>
	</linearGradient>
	<ellipse class="st0" cx="86.9" cy="42.6" rx="1.8" ry="1.8"/>
	<linearGradient id="SVGID_2_" gradientUnits="userSpaceOnUse" x1="53.5298" y1="69.0184" x2="57.0988" y2="69.0184">
		<stop  offset="0" style="stop-color:#00A093"/>
		<stop  offset="1" style="stop-color:#00A359"/>
	</linearGradient>
	<ellipse class="st1" cx="55.3" cy="69" rx="1.8" ry="1.8"/>
	<linearGradient id="SVGID_3_" gradientUnits="userSpaceOnUse" x1="117.0856" y1="77.9233" x2="120.5781" y2="77.9233">
		<stop  offset="0" style="stop-color:#00A093"/>
		<stop  offset="1" style="stop-color:#00A359"/>
	</linearGradient>
	<ellipse class="st2" cx="118.8" cy="77.9" rx="1.7" ry="1.8"/>
	<linearGradient id="SVGID_4_" gradientUnits="userSpaceOnUse" x1="148.2406" y1="61.4901" x2="151.5599" y2="61.4901">
		<stop  offset="0" style="stop-color:#00A093"/>
		<stop  offset="1" style="stop-color:#00A359"/>
	</linearGradient>
	<ellipse class="st3" cx="149.9" cy="61.5" rx="1.7" ry="1.8"/>
	<linearGradient id="SVGID_5_" gradientUnits="userSpaceOnUse" x1="54.9934" y1="56.1721" x2="86.2727" y2="56.1721">
		<stop  offset="0" style="stop-color:#00A093"/>
		<stop  offset="1" style="stop-color:#00A359"/>
	</linearGradient>
	<polygon class="st4" points="55.6,69.4 55,68.6 85.6,42.9 86.3,43.7 	"/>
	<linearGradient id="SVGID_6_" gradientUnits="userSpaceOnUse" x1="24.4602" y1="73.1838" x2="55.4456" y2="73.1838">
		<stop  offset="0" style="stop-color:#00A093"/>
		<stop  offset="1" style="stop-color:#00A359"/>
	</linearGradient>
	<polygon class="st5" points="24.7,77.8 24.5,76.9 55.2,68.5 55.4,69.5 	"/>
	<linearGradient id="SVGID_7_" gradientUnits="userSpaceOnUse" x1="86.4866" y1="60.2609" x2="119.2034" y2="60.2609">
		<stop  offset="0" style="stop-color:#00A093"/>
		<stop  offset="1" style="stop-color:#00A359"/>
	</linearGradient>
	<polygon class="st6" points="118.5,78.3 86.5,42.9 87.2,42.3 119.2,77.6 	"/>
	<linearGradient id="SVGID_8_" gradientUnits="userSpaceOnUse" x1="118.5989" y1="69.7067" x2="150.134" y2="69.7067">
		<stop  offset="0" style="stop-color:#00A093"/>
		<stop  offset="1" style="stop-color:#00A359"/>
	</linearGradient>
	<polygon class="st7" points="119.1,78.4 118.6,77.5 149.7,61 150.1,61.9 	"/>
	<linearGradient id="SVGID_9_" gradientUnits="userSpaceOnUse" x1="149.6682" y1="69.7067" x2="181.4602" y2="69.7067">
		<stop  offset="0" style="stop-color:#00A093"/>
		<stop  offset="1" style="stop-color:#00A359"/>
	</linearGradient>
	<polygon class="st8" points="181,78.4 149.7,61.9 150.1,61 181.5,77.5 	"/>
	<path class="st42" d="M181.3,33.6l-0.5-0.9l-29.7,17.6c-0.3-0.3-0.7-0.5-1.2-0.5c-0.9,0-1.7,0.8-1.7,1.8c0,0.1,0,0.2,0,0.3
		l-28.1,16c-0.3-0.4-0.8-0.7-1.4-0.7c-0.7,0-1.3,0.4-1.6,1l-28.5-8l0,0c0-1-0.8-1.8-1.9-1.8c-1,0-1.9,0.8-1.9,1.8
		c0,0.2,0,0.3,0.1,0.4l-28.1,16c-0.3-0.3-0.7-0.5-1.2-0.5c-0.9,0-1.7,0.8-1.7,1.8s0.8,1.8,1.7,1.8s1.7-0.8,1.7-1.8
		c0-0.1,0-0.3,0-0.4l28.2-16c0.3,0.3,0.8,0.5,1.3,0.5c0.7,0,1.2-0.3,1.6-0.8l28.7,8c0.1,0.9,0.8,1.6,1.7,1.6c1,0,1.7-0.8,1.7-1.8
		c0-0.1,0-0.1,0-0.2l28.2-16c0.3,0.3,0.7,0.5,1.2,0.5c0.9,0,1.7-0.8,1.7-1.8c0-0.1,0-0.3,0-0.4L181.3,33.6z"/>
	<g>
		<path class="st208" d="M22.6,134.2c0.4,0.3,0.7,0.7,0.7,1.1c-0.4,1.9,1.4,3.1,1.5,4.9c0,0.4,0.3,1,0.8,1.2
			c0.1,0.2,0.1,0.3,0.2,0.5c-0.3,1.6,1,1.2,2,1.5c3,0.7,5.9,0.7,8.9,1.7c0.6,0.2,2,0.3,1.9,0.4c0.2,0,0.4,0.1,0.6,0.1
			c1.2,0.7,2.4,1.6,3.9,1.2c0.5-0.1,1.2-0.2,1.6,0.2c1.2,1.1,2.6,0.7,3.9,0.4c0.2,0,0.4,0,0.6,0.1c1.8,1,3.6,1.9,5.6,1.9
			c0.9,0,1.7,1,2.4,0.6c1.5-0.8,2.8-0.2,4.2,0c2.8,0.4,5.5,1.2,8.3,1.3c0.1,0,0.2-0.1,0.3-0.1c0.1,0.1,0.2,0.1,0.3,0.2
			c0.2,0.3,0.4,0.3,0.6,0.1c0,0,0-0.1,0-0.1c0.1,0,0.2,0,0.3,0c0,0,0,0,0,0c0.1,0.1,0.2,0.2,0.3,0.3c0.5,1.2,1,1.2,1.9,0.2
			c0.2,0,0.4,0,0.6,0c1.2,0.8,2.1,0.1,3.1-0.5c0.2-0.1,0.3-0.2,0.5-0.2c0.9-0.1,1.7-0.5,2.4-1c0.1-0.1,0.2-0.1,0.4-0.2
			c0.1,0.1,0.2,0.1,0.3-0.1l0,0c0.3,0.1,0.5,0,0.6-0.3c0.1,0,0.2-0.1,0.2-0.1c0.2,0.1,0.3,0,0.4-0.2c4.5-1.9,9-3.7,13.4-5.8
			c1-0.3,2-0.7,3-1c0.3,0.4,0.8,0.6,1,0.2c0.3-0.7,0.9-0.3,1.3-0.5c0.4-0.1,1.2,0.5,1.3-0.3c0.1-0.7,0.9-1.5-0.1-2.2
			c0,0-0.1,0-0.1,0c0-0.1,0.1-0.3,0.1-0.4c0-0.3,1.3-0.3,0.2-0.7c-0.6-0.3-1.2-0.1-1.8,0.2c-0.4,0-0.8-0.1-1.2-0.1
			c-0.1-0.3-0.1-0.8-0.4-0.7c-1.5,0.5-3-0.6-4.5,0.2c-0.2,0-0.4,0-0.6,0c0-0.3,0-0.5-0.1-0.8c3.8,0,7.7,0,11.5,0c0-0.2,0-0.4,0-0.6
			c-4.9,0-9.7-0.3-14.6,0.3c-0.3-0.3-0.5-0.4-1,0c0.4,0,0.7,0,1,0c0,0.1,0,0.2,0,0.3c-0.5,0-1.1,0.1-1.5-0.1
			c-1.9-0.9-3.9-0.5-5.8-0.3c-0.2,0-0.4-0.1-0.6-0.1c0-0.6-0.5-0.6-0.9-0.7c-0.9-0.3-1.9,0.4-2.7-0.2c1-0.4,1.9-0.9,2.8-1.7
			c1,0,1.9,0,2.9,0c1.9,0,3.9,0,5.8,0c0.3,0,0.7,0,1-0.1c2.5,0,5.1,0,7.6,0c2.8,0,5.7,0,8.5,0c0.4,0,0.8,0,1.2,0.1
			c2.9,0,5.7,0.1,8.6,0.1c-0.4,0.6-0.9,1.3-1.3,1.9c-0.2,0.1-0.4,0.2-0.4,0.5c-0.1,0-0.2,0.1-0.2,0.2c-1.3,1.4-2.7,2.7-4,4.1
			c-0.2,0.2-0.5,0.4-0.4,0.7c0.2,0.5,0.6,0.2,0.9,0.2c3.4-0.3,6.9-0.6,10.3-1c9.5-1.2,18.8-3,27.9-6.2c0.9-0.3,1.7-0.8,2.7-0.5
			c0.5,0.2,1,0.5,1.5,0.7c1.9,0.6,3.8,0.8,5.5-0.6c0.3,0,0.6,0,0.9-0.1c0.4,0,0.9,0,1.3,0l0,0l12.5,29.3c-57.2,0-114.4,0-171.6,0
			l17.2-29.1L22.6,134.2"/>
		<path class="st209" d="M116.7,62.1c0.6,3.1-0.3,5.5-3.3,6.8c-0.6,0.3-0.6,0.8-0.7,1.2c-0.3,1.1-0.6,2.3-1.7,2.8c0-0.3,0-0.6,0-0.9
			c-0.1-2.6-0.1-2.6-2.5-2c-0.4,0.1-0.8,0.2-1.2,0.2c-3.4,0.5-6.8,0.4-10.1-0.2c-1-0.2-1.6-0.2-1.7,1.2c-0.1,1.6-0.6,3.2-1.4,4.7
			c-1.5-2-1.7-2.1-4.4-1.8c-0.3,0-0.4-0.2-0.6-0.4c-0.2-1-0.4-2.1-0.5-3.1c-0.4-3.7,0.4-7.1,2.8-9.9c0,0,0-0.1,0-0.1c0,0,0,0,0,0
			c0.1-0.1,0.2-0.1,0.3-0.2c0.2,0.1,0.3,0,0.4-0.2l-0.1,0c0,0,0.1,0,0.1,0c0.4,0,0.6-0.4,0.8-0.7c4.7-2.1,9.5-2.1,14.3-0.4
			c0.4,0.1,0.7,0.2,1.1,0C112.2,57.4,114.6,58.2,116.7,62.1z"/>
		<path class="st137" d="M161.7,123.3l0.1,2.3c0.6,1.6,0.8,3.2,0.1,4.8c0,0,0,0,0,0c-0.3,0.6-0.5,1.2-1,1.7c-0.4,0.4-0.8,1-1.2,1.4
			c0,0.1,0,0.2,0,0.3c-1.7,1.5-3.6,1.3-5.5,0.6c-0.5-0.2-1-0.5-1.5-0.7c0.1-0.2,0.5-0.2,0.3-0.4c-1.5-1.8-1.4-3.1,0.7-4
			c1.2-0.6,2.4-1.2,3.6-1.4C159.9,127.4,160.9,125.5,161.7,123.3"/>
		<path class="st211" d="M20.3,102c0.2,0.1,0.4,0.2,0.6,0.3c-2.7,0.4-5.5,0.2-8.2,0.3c0.8-0.8,2,0.2,2.8-0.7
			C17.1,101.9,18.7,102,20.3,102z"/>
		<path class="st176" d="M92,60.3c-0.1,0.2-0.2,0.3-0.4,0.2C91.7,60.4,91.8,60.3,92,60.3z"/>
		<path class="st176" d="M91.3,60.7C91.3,60.7,91.3,60.7,91.3,60.7c-0.1-0.1-0.1-0.1-0.1-0.2C91.3,60.6,91.3,60.6,91.3,60.7z"/>
		<path class="st187" d="M39.2,145.4c-0.2,0-0.4-0.1-0.6-0.1c-3.5-0.9-7.2-1.4-10.7-2c-1-0.2-1.7-0.5-2-1.5
			c-0.1-0.2-0.1-0.3-0.2-0.5c-0.2-0.8-0.4-1.6-0.6-2.4c0.3-0.2,0.5-0.8,0.9-0.7c2.6,0.6,5.1,0.1,7.7-0.1c3-0.2,6-0.7,8.8-1.7
			c3.7-1.3,7.2-3.1,10.4-5.5c3-2.3,5.3-5.1,7.4-8.1c1.5-2.1,2.4-4.4,3.6-6.7c1,2.9,1.9,5.9,2.9,8.8c0.9,2.9,1.7,5.9,2.6,8.8
			c0.2,0.5,0.5,1,1.1,1.3c0,0.1,0,0.2,0,0.3l0,0c-0.4,0-0.6,0.1-0.5,0.5c1,3.3,1.9,6.5,3,9.7c0.2,0.6,0.5,0.3,0.5-0.2
			c0.3-0.1,0.6-1,1,0c0.6,1.2,0.8,2.4,0.2,3.6c-0.3-0.9-0.7-1.8-1-2.7c-0.1,0-0.3,0.1-0.4,0.1c0.3,1.2,0.6,2.3,1,3.5
			c0.2,0.6,0.4,1.1-0.4,1.5c-0.2,0-0.4,0-0.6,0l0.1,0l0-0.1c-0.6-0.7-1.5-0.4-2.2-0.4c0,0,0,0,0,0c-0.1-0.2-0.2-0.3-0.3,0
			c0,0,0,0.1,0,0.1c-0.2,0-0.4-0.1-0.6-0.1c-0.1-0.1-0.2-0.1-0.3-0.2c-0.1,0-0.2-0.1-0.4-0.1c-1.5-0.3-3-0.5-4.5-0.8
			c-5.3-0.9-10.6-1.9-15.9-2.8c-0.2,0-0.4,0-0.6-0.1C45.5,146.3,42.4,145.8,39.2,145.4z"/>
		<path class="st44" d="M110.2,90c1.8,0.4,3.7,0.9,5.5,1.3c1.4,1.3,3.1,1.2,4.8,1.2c1.1,0.2,2.3,0.5,3.4,0.7c0.6,0.1,1,0.5,1.3,1.1
			c2.5,4.9,5,9.8,7.4,14.7c0.5,1,1.3,1.8,2,2.6c2.1,2.1,4.2,4.3,6.2,6.4c-0.5,0.8-1.3,0.6-2.1,0.6c-2.2,0.1-4.3-0.1-6.4,0.5
			c-1,0-2,0.1-3.1,0.1c-0.7,0-1.4-0.1-2.1-0.1c1.1-0.5,2.2-0.1,3.3-0.2c0.3,0,0.7,0.1,0.8-0.2c0.2-0.3-0.2-0.5-0.4-0.8
			c-2.3-3-4.9-5.9-6.5-9.3c-0.1-0.3-0.4-0.5-0.7-0.5c-0.4,0-0.4,0.4-0.4,0.6c-0.4,2.3-0.8,4.5-1.2,6.8c-0.3,1.4-0.5,2.8-0.8,4.2
			c-0.6,3.6-1.7,7.1-2,10.8c0,0,0,0,0,0c-0.2,0-0.2,0.2-0.3,0.3c0,0.3,0,0.6,0,1c-0.2,0.3-0.4,0.6-0.6,0.9c-0.5,0.3-0.6,1.1-1.2,1.2
			c-2.9,0-5.7-0.1-8.6-0.1c0.7-2,0.9-4.1,1.2-6.2c1-5.8,2-11.5,3-17.3c0.8-4.6,1.6-9.3,2.4-13.9c0.2-1.1-0.1-1.3-1.2-1.1
			c-0.7,0.2-1.5,0.5-2.4,0.2c0.4-0.2,0.5-0.3,0.7-0.4c1.7-1.1,1.7-1.1,0.2-2.5C111.8,91.9,110.6,91.3,110.2,90z"/>
		<path class="st44" d="M70.6,135.2c-0.6-0.3-0.9-0.8-1.1-1.3c-0.9-2.9-1.8-5.8-2.6-8.8c0.4-0.3,0.3-0.7,0.4-1.2
			c1.1-2.8,2.3-5.5,3.4-8.3c1.4-3.7,1.8-7.7,2.7-11.5c0.5-2.3,0.9-4.6,1.4-6.8c0.1-0.6,0.3-1.1,1-1.4c3.8-1.5,7.4-3.5,11.3-4.9
			c0.1,0.5-0.2,0.9-0.5,1.2c-0.5,0.6-1.6,1.1-1.7,1.7c-0.1,0.8,1.3,0.9,1.7,1.8c-0.6-0.1-1.1-0.1-1.7-0.2c-1.7-0.2-1.8-0.2-1.5,1.6
			c0.9,5.7,1.9,11.4,2.9,17.1c0.9,5.5,1.9,11,3,16.6c0.2,1.1,0,2.4,1.1,3.2c-1.9,0-3.9,0-5.8,0c0-0.9-0.4-1.6-0.8-2.4
			c0.1-0.5,0.2-1,0.3-1.5c0.1-1.3,0.2-2.6-1.1-3.5c-0.9-0.5-1.5-1.3-1.7-2.3c-0.2-0.8-0.6-1.6-0.8-2.4c-0.1-0.4-0.3-0.8-0.8-0.3
			c0-0.4,0-0.9,0-1.3c-0.2-2.5-1.6-4.5-2.3-6.8c-0.1-0.4-0.1-1.1-0.7-1c-0.6,0-0.6,0.7-0.6,1.1c-0.8,3.7-1.9,7.3-3,10.9
			c-0.3,1-1.2,2.6,0.8,3.2c-1.4,1.5-2.5,3.2-2.2,5.4C71.4,133.8,73.2,135.5,70.6,135.2z"/>
		<path class="st170" d="M117.3,134c0.7-0.2,0.8-0.9,1.2-1.2c1.1,0.8,1.7,0,2.2-0.9c0.3-0.5,0.7-1,1-1.5c0.8-1.2,2.2-2.1,2.6-3.6
			c0.2-0.9,1-1.6,0.4-2.6c0.2-0.4,0.4-0.7,0.2-1.2l0,0c0.5,0.1,0.6-0.3,0.6-0.6c0,0,0,0,0,0c0.1,0,0.2,0,0.3,0
			c1.1-0.6,2.4-0.5,3.7-0.8c-0.6-0.6-1.3-0.2-1.6-0.5c-0.1-1.3,1.4-0.7,1.6-1.7c1,0,2-0.1,3.1-0.1c4.7,0.3,9.3-0.3,13.9-0.7
			c1.6-0.1,3.4-0.2,5-0.8c0.1,0,0.2-0.1,0.4-0.1c0.3,0,0.5-0.1,0.8-0.1c0.4,0.2,0.8,1,1.2,0c0,0,0-0.1,0-0.1c0.2,0,0.4,0,0.6,0
			c1.6,0,3.3,0,4.9,0c1.3,0.1,1.1-0.5,0.6-1.2c0.2,0,0.3,0,0.5-0.1c0.5,0,1.1-0.1,1.6,0.1c1,0.3,1.7-0.9,2.7-0.3
			c0,0.1-0.1,0.2-0.1,0.3c-0.1,0.1-0.2,0.2-0.4,0.4c0,0.1,0,0.2-0.1,0.2c-0.4,0-0.6,0.2-0.6,0.6c-2.7,0.7-4.7,2.6-6.9,4.1
			c-3.6,2.5-7,5.2-10.8,7.3c-3,1.7-6.2,3.1-9.4,4.4c-3.5,1.4-7.1,2.3-10.7,3.1c-2.9,0.6-5.7,1.2-8.6,1.5c-1,0.1-1.7-0.1-1.7-1.3
			c0-0.1,0-0.2,0.2-0.2c0.3,0,0.5-0.2,0.4-0.5C116.4,135.3,116.8,134.6,117.3,134z M127,122.6c0.6,0.6,1.1,0.4,2,0.2
			C128.2,122.3,127.7,122.3,127,122.6z"/>
		<path class="st170" d="M107.5,88.9c0,0.2,0,0.4,0,0.6c0,14.8,0,29.5,0,44.3c-2.8,0-5.7,0-8.5,0c0.6-6.3,0.2-12.5,0.3-18.8
			c0.1-4.8,0.1-9.7-0.3-14.5c3-1.5,4.7-4.1,5.5-7.3c0.5-0.6,0.6-1.4,0.6-2.1C106.1,90.6,106.6,89.5,107.5,88.9z"/>
		<path class="st187" d="M115.4,136.6c0,1.2,0.7,1.4,1.7,1.3c2.9-0.3,5.8-0.9,8.6-1.5c3.6-0.8,7.2-1.7,10.7-3.1
			c3.2-1.3,6.4-2.7,9.4-4.4c3.8-2.1,7.3-4.8,10.8-7.3c2.2-1.5,4.2-3.4,6.9-4.1c0,0.3-0.1,0.6,0.2,0.9c-0.1,0.5-0.4,0.8-0.6,1.2
			c-0.6,1.2-1.6,2.3-1.5,3.8c-0.8,2.2-1.8,4.1-4.5,4.6c-1.3,0.2-2.5,0.9-3.6,1.4c-2,1-2.2,2.2-0.7,4c0.2,0.2-0.2,0.3-0.3,0.4
			c-1-0.3-1.8,0.2-2.7,0.5c-9,3.2-18.4,5-27.9,6.2c-3.4,0.4-6.9,0.7-10.3,1c-0.3,0-0.7,0.4-0.9-0.2c-0.1-0.4,0.2-0.5,0.4-0.7
			C112.7,139.3,114,138,115.4,136.6z"/>
		<path class="st170" d="M74.8,149.2c0.7-1.2,0.4-2.4-0.2-3.6c-0.5-1-0.7-0.1-1,0c-1-3.4-2-6.7-3-10.1c0,0,0,0,0,0
			c1.5,0.1,3,0.2,4.5,0.2c1,0.1,2,0.6,3.1,0c1.3,0.8,2.8,0.6,4.3,0.7c0.2,0,0.4,0.1,0.6,0.1c3.4,0.6,6.9,1,10.4,1.3
			c0.2,0,0.4,0,0.6,0c1.3,0.2,2.7,0.4,4,0.6c0.6,0.5,1.4,0.1,2.1,0.5c-1.4,1-3.2,1.2-4.6,2.3l0,0c-0.8,0-1.4,0.4-1.9,0.8
			c-1.4,0.3-2.7,0.8-3.9,1.7l0,0c-0.3,0-0.6-0.1-0.7,0.3c-0.1,0.2,0.2,0.3,0.4,0.3c0.4,0,0.9,0.1,1-0.5c0.6-0.2,1.2-0.5,1.8-0.7
			c0.1,0.9-0.8,1.2-1.3,1.5c-1.7,0.8-3.4,1.6-5.4,1.3c0.3-0.1,0.6-0.2,0.9-0.4c0.2-0.1,0.2-0.2,0-0.3c-0.6,0-1.2-0.1-1.6,0.6l0,0
			c-1.4,0.2-2.6,0.8-3.7,1.5l0,0c-2,0.5-3.9,1.2-5.5,2.4l0,0C75.4,149.7,74.9,149.8,74.8,149.2z M88.5,144.6
			c-0.1-0.3-0.3-0.5-0.5-0.5c-0.4,0.1-0.9,0.1-1,0.5c-0.1,0.3,0.3,0.5,0.4,0.4C87.7,144.7,88.3,145,88.5,144.6z"/>
		<path class="st212" d="M90.3,133.9c-1.1-0.8-0.9-2.1-1.1-3.2c-1-5.5-2-11-3-16.6c-1-5.7-1.9-11.4-2.9-17.1
			c-0.3-1.8-0.2-1.8,1.5-1.6c0.5,0.1,1.1,0.1,1.7,0.2c-0.4-0.9-1.8-1-1.7-1.8c0.1-0.6,1.1-1.1,1.7-1.7c0.3-0.3,0.6-0.7,0.5-1.2
			c0.2-0.2,0.4-0.5,0.7-0.6c1-0.5,2.1-1.4,3.1-1c0.7,0.3,0.2,1.7,0.3,2.6c0.1,1.3,0,2.5,0,3.8c0,12.7,0.5,25.3,0.3,38
			C91,133.8,90.7,133.9,90.3,133.9z"/>
		<path class="st212" d="M107.5,133.8c0-14.8,0-29.5,0-44.3c0.9-0.1,1.9,0,2.7,0.5c0.4,1.3,1.6,1.8,2.4,2.7c1.5,1.4,1.5,1.4-0.2,2.5
			c-0.2,0.1-0.3,0.2-0.7,0.4c1,0.2,1.7,0,2.4-0.2c1.1-0.3,1.4,0,1.2,1.1c-0.8,4.6-1.6,9.2-2.4,13.9c-1,5.8-2,11.5-3,17.3
			c-0.4,2.1-0.5,4.2-1.2,6.2C108.3,133.8,107.9,133.8,107.5,133.8z"/>
		<path class="st137" d="M78.2,135.8c-1,0.6-2.1,0.1-3.1,0c-0.1-0.3-0.3-0.6-0.6-0.5c-1.2,0.3-1.8-0.5-2.3-1.4
			c-0.2-0.3-0.4-0.5-0.7-0.8c-0.3-2.2,0.7-3.9,2.2-5.4c0.9-0.5,1.6-1.3,2.7-1.5c0.6,0.4,1.2,0,1.7-0.3c1.4-0.6,2.6-0.7,3.7,0.4
			c0.3,0.3,0.7,0.4,1.1,0.4c1.3,0.9,1.2,2.1,1.1,3.5c-0.1,0.5-0.2,1-0.3,1.5c-0.5,1-1.9,1.1-2.1,2.4c-0.8,0.7-1.7,1.3-2.8,1.7
			C78.6,135.6,78.4,135.7,78.2,135.8z"/>
		<path class="st176" d="M85.5,145.9c2,0.3,3.7-0.6,5.4-1.3c0.5-0.2,1.4-0.5,1.3-1.5c0.1-0.2,0.4-0.3,0.6-0.3c0,0.6,0.1,1.1,0.8,0.7
			c0.5-0.3,1-0.4,1.5-0.5c0,0,0.1,0.1,0.1,0.1c-4.4,2.1-8.9,3.9-13.4,5.8c-0.2-0.1-0.3,0-0.4,0.2c-0.1,0.1-0.2,0.1-0.2,0.1
			c-0.3-0.1-0.5,0-0.6,0.3c0,0,0,0,0,0c-0.1,0-0.2,0.1-0.3,0.1c-0.1,0.1-0.2,0.1-0.4,0.2c-0.9,0.2-1.7,0.4-2.4,1
			c-0.2,0.1-0.3,0.2-0.5,0.2c-0.6-0.3-1.2,0.7-1.8,0c-0.4-0.6,0.3-0.8,0.5-1.2l0,0c1.9-0.7,3.9-1.1,5.5-2.4c0,0,0,0,0,0
			c1.4-0.1,2.6-0.7,3.7-1.5c0,0,0,0,0,0C85.1,145.8,85.3,145.9,85.5,145.9z"/>
		<path class="st208" d="M49.2,147.2c5.3,0.9,10.6,1.9,15.9,2.8c1.5,0.3,3,0.5,4.5,0.8c0,0.1,0,0.2,0.1,0.2
			c-2.8-0.1-5.5-0.8-8.3-1.3c-1.4-0.2-2.7-0.9-4.2,0c-0.7,0.4-1.5-0.6-2.4-0.6C52.8,149,51,148.1,49.2,147.2z"/>
		<path class="st176" d="M98.3,142.1c-1,0.3-2,0.7-3,1c0,0-0.1-0.1-0.1-0.1c0.1-0.7-0.7-0.4-0.8-0.8c0.3-0.5,1-0.3,1.2-0.9
			c0,0,0,0,0,0c2-0.3,3.8-1.2,5.5-2.2c0.1,0,0.2,0,0.3,0.1c0.1,0.1,0.1,0.2,0.2,0.4c0,0,0.1,0,0.1,0c0.1,0.8-0.2,1.3-1,1.5
			C99.9,141.3,99,141.5,98.3,142.1z"/>
		<path class="st213" d="M90.4,137c0-0.1,0-0.2,0-0.3l0,0c4.9-0.5,9.7-0.2,14.6-0.3c0,0.2,0,0.4,0,0.6c-3.8,0-7.7,0-11.5,0
			C92.4,137,91.4,137,90.4,137z"/>
		<path class="st211" d="M25.8,141.8c0.3,1,1.1,1.3,2,1.5c3.6,0.6,8.3,1.1,11.9,2c-0.6-0.1-2,0.1-2.5-0.1c-3-0.9-6.5-1-9.5-1.6
			C26.6,143.3,25.5,143.3,25.8,141.8z"/>
		<path class="st208" d="M90.4,137c1,0,2,0,3,0c0,0.3,0,0.5,0.1,0.8c-3.5-0.3-6.9-0.7-10.4-1.3c2-0.2,3.9-0.6,5.8,0.3
			C89.3,137.1,89.9,137,90.4,137z"/>
		<path class="st208" d="M39.2,145.4c3.2,0.5,6.4,0.9,9.5,1.7c-1.4,0.2-2.7,0.7-3.9-0.4c-0.4-0.4-1.1-0.3-1.6-0.2
			C41.5,146.9,40.4,146,39.2,145.4z"/>
		<path class="st211" d="M75.8,149.8c-0.2,0.4-0.9,0.6-0.5,1.2c0.5,0.8,1.2-0.2,1.8,0c-0.9,0.6-1.9,1.3-3.1,0.5
			c0.7-0.3,0.6-0.9,0.4-1.5c-0.4-1.1-0.6-2.3-1-3.5c0.1,0,0.3-0.1,0.4-0.1c0.3,0.9,0.7,1.8,1,2.7C74.9,149.8,75.4,149.7,75.8,149.8z
			"/>
		<path class="st208" d="M22.6,134.2C22.6,134.1,22.6,134.2,22.6,134.2c0.2,0,0.5,0,0.7,0c0.2,0.6,0.4,1,0.6,1.6
			c0.2,0.9,0.4,1.7,0.9,2.4c0,0,0.1,0.1,0.1,0.1c-0.2,0.2-0.1,0.4,0.1,0.6l0,0.1c0.2,0.8,0.4,1.6,0.6,2.4c-0.6-0.2-0.8-0.7-0.8-1.1
			c-0.2-1.7-1.9-2.9-1.5-4.9C23.4,134.9,23.1,134.4,22.6,134.2z"/>
		<path class="st187" d="M81.6,133.9c0.2-1.2,1.6-1.4,2.1-2.4c0.3,0.8,0.8,1.5,0.8,2.4C83.5,133.9,82.6,133.9,81.6,133.9z"/>
		<path class="st208" d="M98.3,142.1c0.7-0.6,1.6-0.8,2.4-1.1c0.8-0.3,1.1-0.8,1-1.5c1,0.6,0.2,1.5,0.1,2.2
			c-0.1,0.8-0.8,0.1-1.3,0.3c-0.4,0.1-1-0.2-1.3,0.5C99.1,142.7,98.6,142.5,98.3,142.1z"/>
		<path class="st211" d="M101.1,139c-1.7,1-3.5,1.9-5.5,2.2c1.3-1.1,3.1-1.3,4.6-2.3c-0.7-0.3-1.5,0.1-2.1-0.5
			c0.3,0,0.6-0.1,0.9-0.1c0.4,0,0.8,0.1,1.2,0.1C100.5,138.7,100.9,138.6,101.1,139z"/>
		<path class="st208" d="M99,138.4c-0.3,0-0.6,0.1-0.9,0.1c-1.3-0.2-2.7-0.4-4-0.6c1.5-0.8,3,0.4,4.5-0.2
			C98.8,137.6,98.9,138.1,99,138.4z"/>
		<path class="st208" d="M78.2,135.8c0.2-0.1,0.4-0.2,0.6-0.2c0.9,0.6,1.8,0,2.7,0.2c0.5,0.1,0.9,0.1,0.9,0.7
			C81.1,136.4,79.6,136.6,78.2,135.8z"/>
		<path class="st208" d="M73.4,151.6c-0.9,1-1.4,0.9-1.9-0.2c0.6,0,1.3,0.1,1.9,0.1L73.4,151.6L73.4,151.6z"/>
		<path class="st208" d="M101.1,139c-0.2-0.4-0.6-0.4-0.9-0.5c0.6-0.4,1.1-0.5,1.8-0.2c1.2,0.5-0.2,0.7-0.2,1
			c-0.1,0-0.2-0.3-0.3-0.2C101.3,139.1,101.2,139,101.1,139z"/>
		<path class="st211" d="M77.5,150.8c0.7-0.6,1.6-0.9,2.4-1C79.3,150.3,78.5,150.7,77.5,150.8z"/>
		<path class="st211" d="M73.4,151.4c-0.6,0-1.3-0.1-1.9-0.1c-0.1-0.1-0.2-0.2-0.3-0.3C71.9,151,72.8,150.8,73.4,151.4z"/>
		<path class="st208" d="M90.4,136.7c-0.3,0-0.6,0-1,0C89.9,136.2,90.1,136.4,90.4,136.7C90.4,136.7,90.4,136.7,90.4,136.7z"/>
		<path class="st187" d="M115.9,135.9c0,0.3-0.1,0.5-0.4,0.5C115.6,136.1,115.7,136,115.9,135.9z"/>
		<path class="st211" d="M80.7,149.5c0.1-0.3,0.4-0.3,0.6-0.3C81.2,149.5,80.9,149.5,80.7,149.5z"/>
		<path class="st214" d="M70.3,151c0.2,0,0.4,0.1,0.6,0.1C70.7,151.3,70.5,151.3,70.3,151z"/>
		<path class="st211" d="M81.5,149.1c0.1-0.2,0.2-0.2,0.4-0.2C81.8,149.1,81.7,149.1,81.5,149.1z"/>
		<path class="st211" d="M80.3,149.6c0.1,0,0.2-0.1,0.3-0.1C80.6,149.6,80.5,149.7,80.3,149.6z"/>
		<path class="st211" d="M69.7,151c0-0.1,0-0.2-0.1-0.2c0.1,0,0.2,0.1,0.4,0.1C69.9,150.9,69.8,150.9,69.7,151z"/>
		<path class="st211" d="M70.9,151c0.1-0.2,0.2-0.2,0.3,0C71.1,151,71,151,70.9,151z"/>
		<path class="st170" d="M24.9,138.6c0,0,0.1-0.4,0-0.4l-0.9-2.4c-0.2-0.6-0.5-1.2-0.7-1.8c-1-3.8-2.3-7.4-3.8-11
			c-0.5-1.6-0.9-3.3-1.6-4.8c-0.6-1.2-0.4-2.8-1.7-3.7c0.1-1.3-0.5-2.5-0.9-3.6c-0.3-1-0.4-2-1.1-2.8l0,0c0-0.8-0.1-1.7-0.9-2.2
			c0.3-0.7,0.1-1.2-0.6-1.5c0-0.3,0-0.5,0-0.8c0.1-0.3-0.6-0.7,0-1c2.7-0.1,5.5,0.2,8.2-0.3c4.5-0.1,9.1-0.1,13.6-0.2
			c0.3,0,0.7-0.1,1-0.2c7.7-0.1,15.4-0.3,23.1-0.4c0.3,0,0.8-0.3,1,0.3c0.7,0.3-0.5,1.4,0.6,1.6c-0.1,0.7,0.1,1.3,0.3,1.9
			c0.8,1.7,1.2,3.6,1.8,5.4c-0.1,0.6,0.8,0.4,0.5,1.1c-0.2,0.4-0.2,1.3,0.2,1.3c0.3,1,0.6,2.1,0.9,3.1c-1.1,2.3-2.1,4.6-3.6,6.7
			c-2.2,3-4.5,5.8-7.4,8.1c-3.2,2.4-6.7,4.2-10.4,5.5c-2.8,1-5.8,1.5-8.8,1.7c-2.6,0.2-5.1,0.7-7.7,0.1c-0.5-0.1-0.6,0.4-0.9,0.7
			c0,0,0-0.1,0-0.1C25.1,138.7,24.9,138.8,24.9,138.6z"/>
		<path class="st137" d="M104.4,93.1c-0.7,3.3-2.5,5.8-5.5,7.3c-3.4-0.3-7.3-5.7-7.3-9.2c0-3.2,0-6.5,0-9.7c0-0.9-0.1-1.4-1.2-1.5
			c-2.2-0.2-3.3-2.9-2-4.8c0.3-0.4,0.5-0.9,0.6-1.4c0.2,0.2,0.3,0.4,0.6,0.4c2.7-0.3,2.9-0.2,4.4,1.8c0.8-1.5,1.3-3.1,1.4-4.7
			c0.1-1.4,0.7-1.4,1.7-1.2c3.3,0.7,6.7,0.8,10.1,0.2c0.4-0.1,0.8-0.1,1.2-0.2c2.4-0.6,2.4-0.6,2.5,2c0,0.3,0,0.6,0,0.9
			c0.1,3.3-0.3,6.6-1,9.8c-0.4,1.7-1.1,3.3-2,4.8c-0.2,0.4-0.5,0.8-0.4,1.2c-0.9,0.6-1.4,1.7-2.4,2.2c-5.8,0.4-9.6-2.4-12.2-7.8
			C93.5,87.9,98.3,93.1,104.4,93.1z"/>
		<path class="st211" d="M59.7,101.9c-0.2-0.7-0.6-0.3-1-0.3c-7.7,0.1-15.4,0.3-23.1,0.4c-0.5,0-0.9,0-1.4,0
			c0.1-0.1,0.1-0.2,0.2-0.3c1-0.1,2,0.2,3.2-0.2c0,0,5.3-0.1,8.1-0.3c4.5-0.3,9.1,0,13.6-0.3c0.4,0,0.7,0.2,0.8,0.5
			C60.2,101.8,60,101.9,59.7,101.9z"/>
		<path class="st211" d="M64,116.3c-0.3-1-0.6-2.1-0.9-3.1c0-0.2-0.2-0.6,0.1-0.7c0.5-0.2,0.4,0.3,0.5,0.5c1,3.1,2,6.3,2.9,9.4
			c0.2,0.5,0.2,1.1,0.7,1.5c0,0.4,0.1,0.9-0.4,1.2C65.9,122.2,64.9,119.2,64,116.3z"/>
		<path class="st211" d="M62.4,110.8c-0.5-1.8-1-3.7-1.8-5.4c-0.3-0.6-0.5-1.2-0.3-1.9c0.2-0.1,0.5-0.2,0.6,0.2
			c0.6,2.2,1.3,4.4,1.9,6.5C62.9,110.6,62.7,110.8,62.4,110.8z"/>
		<path class="st211" d="M151.4,117.8c-1.6,0.6-3.4,0.7-5,0.8c-4.6,0.4-9.3,1-13.9,0.7c2.1-0.6,4.3-0.5,6.4-0.5
			c0.7,0,1.5,0.1,2.1-0.6c1.8,0.6,3.7-0.1,5.5-0.2c1.2,0,2.4-0.3,3.6-0.4C150.5,117.5,151.1,117.3,151.4,117.8z"/>
		<path class="st44" d="M120.6,92.5c-1.7,0-3.4,0.1-4.8-1.2C117.4,91.6,119,91.9,120.6,92.5z"/>
		<path class="st215" d="M153.8,117.5c-0.4,1-0.8,0.2-1.2,0C153,117.6,153.4,117.6,153.8,117.5z"/>
		<path class="st211" d="M70.6,135.5c1,3.4,2,6.7,3,10.1c-0.1,0.5-0.4,0.8-0.5,0.2c-1-3.2-2-6.5-3-9.7
			C70,135.6,70.2,135.4,70.6,135.5z"/>
		<path class="st211" d="M71.5,133c0.2,0.3,0.5,0.5,0.7,0.8c0.5,0.9,1.1,1.6,2.3,1.4c0.3-0.1,0.6,0.2,0.6,0.5
			c-1.5-0.1-3-0.2-4.5-0.2c0-0.1,0-0.2,0-0.3C73.2,135.5,71.4,133.8,71.5,133z"/>
		<path class="st216" d="M122.1,115.6c0.4-2.3,0.8-4.5,1.2-6.8c0.1-0.3,0-0.7,0.4-0.6c0.3,0,0.6,0.2,0.7,0.5
			c1.7,3.5,4.2,6.3,6.5,9.3c0.2,0.2,0.5,0.4,0.4,0.8c-0.2,0.3-0.5,0.2-0.8,0.2c-1.1,0.1-2.2-0.2-3.3,0.2c-0.1,0.1-0.2,0.3-0.3,0.4
			c-0.2,0.1-0.4,0.2-0.7,0.4c-0.4-0.4-0.7-0.9-1.1-1.2C124.1,117.8,123.6,116.2,122.1,115.6z"/>
		<path class="st187" d="M124.7,124.2c0.6,1-0.2,1.8-0.4,2.6c-0.4,1.5-1.7,2.4-2.6,3.6c-0.3,0.5-0.7,0.9-1,1.5
			c-0.4,0.9-1,1.6-2.2,0.9c0.2-0.3,0.4-0.6,0.6-0.9c0.2-0.1,0.4-0.2,0.6-0.4c0.1,0.2,0,0.5,0.4,0.5c0,0,0.1-0.1,0.1-0.1
			c0-0.3-0.3-0.3-0.5-0.4c0-0.7,1-1,0.9-1.8c0,0,0,0,0,0c0.4-0.2,0.6-0.5,0.6-0.9c0,0,0,0,0,0c0.8-0.6,1.5-1.3,1.5-2.4c0,0,0,0,0,0
			c0.5,0.1,0.6-0.3,0.6-0.6c0,0,0,0,0,0C124,125.4,124.1,124.6,124.7,124.2z"/>
		<path class="st187" d="M127,119.6c0.1-0.1,0.2-0.3,0.3-0.4c0.7,0,1.4,0.1,2.1,0.1c-0.1,0.9-1.6,0.4-1.6,1.7c0.2,0.4,1-0.1,1.6,0.5
			c-1.3,0.3-2.6,0.1-3.7,0.8c0-0.3,0-0.6,0-0.9c0,0,0,0,0,0C126.7,121.2,126.7,120.3,127,119.6z"/>
		<path class="st211" d="M120.6,129.7c0,0.8-0.9,1.1-0.9,1.8l0,0c-0.2,0.1-0.4,0.2-0.6,0.4c0-0.3,0-0.6,0-1c0.1-0.1,0.2-0.2,0.3-0.3
			c0,0,0,0,0,0C119.9,130.5,119.9,129.6,120.6,129.7z"/>
		<path class="st176" d="M119.4,130.6c-0.1,0.1-0.2,0.2-0.3,0.3C119.1,130.7,119.2,130.6,119.4,130.6z"/>
		<path class="st216" d="M76.4,126.1c-1.1,0.2-1.8,1-2.7,1.5c-2.1-0.6-1.1-2.2-0.8-3.2c1-3.6,2.2-7.2,3-10.9c0.1-0.4,0.1-1,0.6-1.1
			c0.6-0.1,0.6,0.6,0.7,1c0.7,2.3,2.1,4.4,2.3,6.8c0,0.4,0,0.9,0,1.3c-0.5,1.3-1.1,2.6-1.6,3.9c-0.1,0.1-0.3,0.2-0.4,0.3
			C77.1,125.7,76.7,125.8,76.4,126.1z"/>
		<path class="st176" d="M76.4,126.1c0.3-0.3,0.7-0.4,1.1-0.3c0.1-0.1,0.3-0.2,0.4-0.3c0.5-1.3,1.1-2.6,1.6-3.9
			c0.5-0.5,0.7-0.1,0.8,0.3c0.3,0.8,0.6,1.6,0.8,2.4c0.3,1,0.8,1.8,1.7,2.3c-0.4,0-0.8,0-1.1-0.4c-1.1-1.2-2.3-1-3.7-0.4
			C77.6,126,77,126.4,76.4,126.1z"/>
		<path class="st215" d="M154.4,117.5c1.8-0.4,3.7-0.8,5.5-1.2c0.5,0.8,0.6,1.3-0.6,1.2C157.7,117.4,156,117.5,154.4,117.5z"/>
		<path class="st215" d="M164.5,114.7c1.7,0.1,0.3,0.8,0.2,1.3c-1-0.6-1.7,0.5-2.7,0.3c-0.5-0.1-1.1-0.1-1.6-0.1
			c1.2-0.7,2.7-0.5,3.8-1.4C164.3,114.8,164.4,114.8,164.5,114.7z"/>
		<path class="st211" d="M124.7,124.2c-0.5,0.4-0.7,1.2-1.3,1.6c0.1-1.2,0.8-2,1.5-2.7C125,123.4,124.8,123.8,124.7,124.2z"/>
		<path class="st187" d="M127,122.6c0.6-0.3,1.1-0.3,2,0.2C128.1,123,127.6,123.2,127,122.6z"/>
		<path class="st215" d="M164.2,117.5c-0.2,0.3-0.3,0.6-0.5,0.9c-0.3-0.2-0.2-0.6-0.2-0.9c0-0.4,0.2-0.6,0.6-0.6
			C164.2,117.1,164.2,117.3,164.2,117.5z"/>
		<path class="st211" d="M124.9,123c0-0.4,0.1-0.7,0.6-0.6C125.4,122.7,125.3,123.1,124.9,123z"/>
		<path class="st211" d="M125.8,121.5c0,0.3,0,0.6,0,0.9c-0.1,0-0.2,0-0.3,0C125.4,122,125.4,121.7,125.8,121.5z"/>
		<path class="st215" d="M164.6,116.3c-0.1,0.1-0.2,0.2-0.4,0.4C164.3,116.5,164.5,116.4,164.6,116.3z"/>
		<path class="st217" d="M104.4,93.1c-6.1,0-11-5.2-11.6-10c2.5,5.5,6.4,8.2,12.2,7.8C105,91.8,104.9,92.5,104.4,93.1z"/>
		<path class="st211" d="M81.3,147.3c-1.6,1.3-3.6,1.8-5.5,2.4C77.4,148.5,79.3,147.8,81.3,147.3z"/>
		<path class="st211" d="M92.9,142.8c-0.3,0-0.5,0.1-0.6,0.3c-0.6,0.2-1.2,0.5-1.8,0.7c-0.2,0-0.4-0.1-0.6-0.1
			c1.1-0.9,2.5-1.3,3.9-1.7c0.1,0.1,0.1,0.1,0.2,0.2c0,0.1-0.1,0.2-0.1,0.2C93.5,142.6,93.2,142.7,92.9,142.8z"/>
		<path class="st211" d="M84.9,145.8c-1.1,0.8-2.3,1.4-3.7,1.5C82.4,146.6,83.6,146,84.9,145.8z"/>
		<path class="st176" d="M88.5,144.6c-0.2,0.4-0.8,0.1-1.1,0.4c-0.1,0.1-0.6-0.1-0.4-0.4c0.2-0.4,0.7-0.4,1-0.5
			C88.2,144.1,88.4,144.3,88.5,144.6z"/>
		<path class="st211" d="M95.6,141.2c-0.2,0.6-0.9,0.4-1.2,0.9c-0.1,0-0.2,0-0.3,0.1c-0.1,0-0.2,0-0.2,0c-0.1-0.1-0.1-0.1-0.2-0.2
			C94.2,141.6,94.8,141.2,95.6,141.2z"/>
		<path class="st211" d="M85.5,145.9c-0.2,0-0.4,0-0.6-0.1c0.3-0.7,0.9-0.6,1.6-0.6c0,0.1,0,0.2,0,0.3
			C86.2,145.6,85.9,145.8,85.5,145.9z"/>
		<path class="st176" d="M89.8,143.7c0.2,0,0.4,0.1,0.6,0.1c-0.1,0.6-0.6,0.5-1,0.5C89.6,144.1,89.7,143.9,89.8,143.7L89.8,143.7z"
			/>
		<path class="st211" d="M89.8,143.7c-0.1,0.2-0.2,0.4-0.4,0.6c-0.2,0-0.4-0.1-0.4-0.3C89.2,143.6,89.5,143.7,89.8,143.7z"/>
		<path class="st176" d="M86.5,145.5c0-0.1,0-0.2,0-0.3C86.7,145.3,86.7,145.4,86.5,145.5z"/>
		<path class="st170" d="M94.1,142.3c0.1,0,0.2,0,0.3-0.1c0.2,0.4,0.9,0.2,0.8,0.8c-0.5,0-1,0.2-1.5,0.5c-0.7,0.4-0.8-0.1-0.8-0.7
			c0.3-0.1,0.6-0.2,0.9-0.4C93.9,142.4,94,142.3,94.1,142.3z"/>
		<path class="st187" d="M25,138.3c0,0.2,0.1,0.4,0.1,0.6C24.9,138.7,24.8,138.5,25,138.3z"/>
		<path class="st211" d="M127,119.6c-0.2,0.7-0.3,1.6-1.2,1.8c0.2-0.5,0.4-1,0.5-1.5C126.5,119.9,126.8,119.7,127,119.6z"/>
		<path class="st211" d="M122.7,126.3c0,1.1-0.8,1.8-1.5,2.4C121.4,127.8,122,127,122.7,126.3z"/>
		<path class="st211" d="M121.2,128.8c0,0.5-0.2,0.7-0.6,0.9C120.5,129.2,120.7,128.9,121.2,128.8z"/>
		<path class="st211" d="M123.3,125.7c0,0.4-0.1,0.7-0.6,0.6C122.7,126,122.9,125.7,123.3,125.7z"/>
		<path class="st170" d="M119.7,131.5c0.2,0.1,0.5,0,0.5,0.4c0,0-0.1,0.1-0.1,0.1C119.7,132,119.7,131.7,119.7,131.5
			C119.6,131.5,119.7,131.5,119.7,131.5z"/>
		<path class="st218" d="M77.9,125.5c-0.1,0.1-0.3,0.2-0.4,0.3C77.7,125.6,77.8,125.5,77.9,125.5z"/>
		<path class="st176" d="M94.1,142.3c-0.1,0.1-0.2,0.1-0.3,0.2c0-0.1,0-0.2,0.1-0.2C93.9,142.2,94,142.2,94.1,142.3z"/>
	</g>
	<polygon class="st211" points="12.7,102.6 14.3,101.9 59.3,100.9 58.7,101.6 	"/>
	<polygon class="st211" points="59.4,101.5 74.5,150.7 74.9,149.5 60.1,101.5 	"/>
	<polygon class="st211" points="12.7,102.6 26.4,142.6 25.8,142.6 12.5,103.1 	"/>
	<polygon class="st211" points="26.4,142.6 74.5,150.7 74.9,151.9 26.5,143.2 	"/>
	<polygon class="st211" points="74.8,149.9 100.2,139 101.1,139 74.8,150.4 	"/>
	<polygon class="st211" points="100.4,139 70.6,135.5 70.6,135.2 73.4,135.5 100.2,138.5 	"/>
	<polygon class="st211" points="75.1,151.3 101.1,140.1 101.1,141 75.4,151.9 	"/>
	<path class="st211" d="M100.6,140.3c0,0,1.2-0.5,0-1l-0.4-0.8c0,0,2.9,0.2,0.9,2.4"/>
	
		<ellipse transform="matrix(0.9885 -0.1514 0.1514 0.9885 -18.2427 7.4364)" class="st219" cx="39.7" cy="123.5" rx="3.3" ry="4.1"/>
</g>
</svg>
