<?xml version="1.0" encoding="utf-8"?>
<!-- Generator: Adobe Illustrator 25.1.0, SVG Export Plug-In . SVG Version: 6.00 Build 0)  -->
<svg version="1.1" id="Calque_1" xmlns="http://www.w3.org/2000/svg" xmlns:xlink="http://www.w3.org/1999/xlink" x="0px" y="0px"
	 viewBox="0 0 124.3 153.8" style="enable-background:new 0 0 124.3 153.8;" xml:space="preserve">
<style type="text/css">
	.st0{fill:none;stroke:#A3A29A;stroke-width:0.5;stroke-miterlimit:10;}
	.st1{fill:none;stroke:#00A359;stroke-width:4;stroke-miterlimit:10;}
	.st2{fill:none;stroke:#00A359;stroke-width:2.5;stroke-linecap:round;stroke-linejoin:round;stroke-miterlimit:10;}
	.st3{fill:#002C3F;}
	.st4{fill:none;stroke:#00A359;stroke-width:2;stroke-linecap:round;stroke-linejoin:round;stroke-miterlimit:10;}
	.st5{fill:#00A359;}
	.st6{fill-rule:evenodd;clip-rule:evenodd;fill:#002C3F;}
	.st7{fill-rule:evenodd;clip-rule:evenodd;fill:#00A359;}
	.st8{fill:#00A359;stroke:#FFFFFF;stroke-miterlimit:10;}
	.st9{fill:#002C3F;stroke:#FFFFFF;stroke-width:2;stroke-miterlimit:10;}
	.st10{fill:none;stroke:#002C3F;stroke-width:3;stroke-linecap:round;stroke-linejoin:round;stroke-miterlimit:10;}
	.st11{fill:none;stroke:#00A359;stroke-width:3;stroke-linecap:round;stroke-linejoin:round;stroke-miterlimit:10;}
	.st12{fill:#002C3F;stroke:#FFFFFF;stroke-miterlimit:10;}
	.st13{fill:#00A359;stroke:#FFFFFF;stroke-width:0.5;stroke-miterlimit:10;}
	.st14{fill:#FFFFFF;}
	.st15{fill:none;stroke:#00A359;stroke-width:2.5;stroke-miterlimit:10;}
	.st16{fill:none;}
	.st17{fill:none;stroke:#002C3F;stroke-width:1.8;stroke-miterlimit:10;}
</style>
<line class="st11" x1="73.3" y1="103.6" x2="96.7" y2="126.9"/>
<line class="st11" x1="96.7" y1="103.6" x2="73.3" y2="126.9"/>
<polyline class="st11" points="33,31.6 43.5,45.1 60.6,23.1 "/>
<path class="st10" d="M93.1,56.3H35.2c-11.9,0-21.6-9.7-21.6-21.6l0,0c0-11.9,9.7-21.6,21.6-21.6h57.7c12,0,21.7,9.7,21.7,21.6l0,0
	C114.7,46.6,104.9,56.3,93.1,56.3z"/>
<circle class="st10" cx="91.9" cy="35.2" r="14.4"/>
<path class="st10" d="M93.1,136.8H35.2c-11.9,0-21.6-9.7-21.6-21.6l0,0c0-11.9,9.7-21.6,21.6-21.6h57.7c12,0,21.7,9.7,21.7,21.6l0,0
	C114.7,127.1,104.9,136.8,93.1,136.8z"/>
<circle class="st10" cx="40" cy="115.7" r="14.4"/>
</svg>
