<?xml version="1.0" encoding="utf-8"?>
<!-- Generator: Adobe Illustrator 25.1.0, SVG Export Plug-In . SVG Version: 6.00 Build 0)  -->
<svg version="1.1" id="Calque_1" xmlns="http://www.w3.org/2000/svg" xmlns:xlink="http://www.w3.org/1999/xlink" x="0px" y="0px"
	 viewBox="0 0 124.3 126.1" style="enable-background:new 0 0 124.3 126.1;" xml:space="preserve">
<style type="text/css">
	.st0{fill:none;stroke:#A3A29A;stroke-width:0.5;stroke-miterlimit:10;}
	.st1{fill:none;stroke:#00A359;stroke-width:4;stroke-miterlimit:10;}
	.st2{fill:none;stroke:#00A359;stroke-width:2.5;stroke-linecap:round;stroke-linejoin:round;stroke-miterlimit:10;}
	.st3{fill:#002C3F;}
	.st4{fill:none;stroke:#00A359;stroke-width:2;stroke-linecap:round;stroke-linejoin:round;stroke-miterlimit:10;}
	.st5{fill:#00A359;}
	.st6{fill-rule:evenodd;clip-rule:evenodd;fill:#002C3F;}
	.st7{fill-rule:evenodd;clip-rule:evenodd;fill:#00A359;}
	.st8{fill:#00A359;stroke:#FFFFFF;stroke-miterlimit:10;}
	.st9{fill:#002C3F;stroke:#FFFFFF;stroke-width:2;stroke-miterlimit:10;}
	.st10{fill:none;stroke:#002C3F;stroke-width:3;stroke-linecap:round;stroke-linejoin:round;stroke-miterlimit:10;}
	.st11{fill:none;stroke:#00A359;stroke-width:3;stroke-linecap:round;stroke-linejoin:round;stroke-miterlimit:10;}
	.st12{fill:#002C3F;stroke:#FFFFFF;stroke-miterlimit:10;}
	.st13{fill:#00A359;stroke:#FFFFFF;stroke-width:0.5;stroke-miterlimit:10;}
	.st14{fill:#FFFFFF;}
	.st15{fill:none;stroke:#00A359;stroke-width:2.5;stroke-miterlimit:10;}
	.st16{fill:none;}
	.st17{fill:none;stroke:#002C3F;stroke-width:1.8;stroke-miterlimit:10;}
</style>
<g>
	<g>
		<path class="st5" d="M31.4,38.5c-3.7,0-6.7,3-6.7,6.7v5.4v7.2v24c0,3.7,3,6.7,6.7,6.7h55c3.7,0,6.7-3,6.7-6.7v-24v-7.2v-5.4
			c0-3.7-3-6.7-6.7-6.7L31.4,38.5z M31.4,41h55c2.4,0,4.3,1.9,4.3,4.2v4.2H27.1v-4.2C27.1,42.9,29,41,31.4,41z M27.1,51.9h63.5v4.7
			H27.1V51.9z M27.1,59h63.5v22.8c0,2.4-1.9,4.2-4.3,4.2h-55c-2.4,0-4.3-1.9-4.3-4.2V59z"/>
	</g>
	<g>
		<path class="st3" d="M82.1,68.6c-1.3-1.3-3.1-2-4.9-2c-1.5,0-2.9,0.5-4.1,1.3c-1.2-0.9-2.6-1.3-4.1-1.3c-1.8,0-3.6,0.7-4.9,2
			c-1.3,1.3-2,3.1-2,4.9c0,1.8,0.7,3.6,2,4.9s3.1,2,4.9,2c1.5,0,2.9-0.5,4.1-1.3c1.2,0.9,2.6,1.3,4.1,1.3c1.8,0,3.6-0.7,4.9-2
			c1.3-1.3,2-3.1,2-4.9S83.4,69.9,82.1,68.6z M70.3,74.5c0,0,0,0.1,0,0.1c0.1,0.6,0.3,1.2,0.5,1.8c0,0,0,0.1,0,0.1
			c0.1,0.3,0.3,0.6,0.5,0.8C70.7,77.8,69.9,78,69,78c-1.2,0-2.3-0.5-3.2-1.3c-0.8-0.8-1.3-2-1.3-3.2c0-1.2,0.5-2.3,1.3-3.2
			c0.8-0.8,2-1.3,3.2-1.3c0.8,0,1.7,0.2,2.4,0.7c-0.2,0.3-0.3,0.5-0.5,0.8c0,0,0,0.1,0,0.1c-0.3,0.6-0.4,1.2-0.5,1.8
			c0,0,0,0.1,0,0.1c0,0.3-0.1,0.6-0.1,1C70.2,73.9,70.3,74.2,70.3,74.5z M80.4,76.7c-0.8,0.8-2,1.3-3.2,1.3c-1.2,0-2.3-0.5-3.2-1.3
			c0,0,0,0,0,0c0,0,0,0,0,0c-0.8-0.8-1.3-2-1.3-3.2c0-1.2,0.5-2.3,1.3-3.2c0,0,0,0,0,0c0.8-0.8,2-1.3,3.2-1.3c1.2,0,2.3,0.5,3.2,1.3
			c0.8,0.8,1.3,2,1.3,3.2C81.7,74.7,81.2,75.9,80.4,76.7z"/>
	</g>
	<path class="st3" d="M34.9,68.4c-0.7,0-1.2,0.5-1.2,1.2c0,0.7,0.5,1.2,1.2,1.2c0,0,0,0,0.1,0h15.4c0.7,0,1.2-0.5,1.2-1.2
		c0-0.7-0.5-1.2-1.2-1.2c0,0,0,0-0.1,0H34.9z"/>
	<path class="st3" d="M34.8,75c-0.7,0-1.2,0.6-1.1,1.3c0,0.7,0.6,1.2,1.2,1.1h6.6c0.7,0,1.2-0.5,1.2-1.2c0-0.7-0.5-1.2-1.2-1.2
		c0,0,0,0-0.1,0h-6.6C34.9,75,34.8,75,34.8,75z"/>
</g>
</svg>
