<?xml version="1.0" encoding="utf-8"?>
<!-- Generator: Adobe Illustrator 25.2.1, SVG Export Plug-In . SVG Version: 6.00 Build 0)  -->
<svg version="1.1" xmlns="http://www.w3.org/2000/svg" xmlns:xlink="http://www.w3.org/1999/xlink" x="0px" y="0px"
	 viewBox="0 0 181.8 175.5" style="enable-background:new 0 0 181.8 175.5;" xml:space="preserve">
<style type="text/css">
	.st0{fill:url(#SVGID_1_);}
	.st1{fill:url(#SVGID_2_);}
	.st2{fill:url(#SVGID_3_);}
	.st3{fill:url(#SVGID_4_);}
	.st4{fill:url(#SVGID_5_);}
	.st5{fill:url(#SVGID_6_);}
	.st6{fill:url(#SVGID_7_);}
	.st7{fill:url(#SVGID_8_);}
	.st8{fill:url(#SVGID_9_);}
	.st9{fill:url(#SVGID_10_);}
	.st10{fill:url(#SVGID_11_);}
	.st11{fill:url(#SVGID_12_);}
	.st12{fill:url(#SVGID_13_);}
	.st13{fill:url(#SVGID_14_);}
	.st14{fill:url(#SVGID_15_);}
	.st15{fill:url(#SVGID_16_);}
	.st16{fill:url(#SVGID_17_);}
	.st17{fill:url(#SVGID_18_);}
	.st18{fill:url(#SVGID_19_);}
	.st19{fill:url(#SVGID_20_);}
	.st20{fill:url(#SVGID_21_);}
	.st21{fill:url(#SVGID_22_);}
	.st22{fill:url(#SVGID_23_);}
	.st23{fill:url(#SVGID_24_);}
	.st24{fill:url(#SVGID_25_);}
	.st25{fill:url(#SVGID_26_);}
	.st26{fill:url(#SVGID_27_);}
	.st27{fill:url(#SVGID_28_);}
	.st28{fill:url(#SVGID_29_);}
	.st29{fill:url(#SVGID_30_);}
	.st30{fill:url(#SVGID_31_);}
	.st31{fill:url(#SVGID_32_);}
	.st32{fill:#85D8B5;}
	.st33{fill:url(#SVGID_33_);}
	.st34{fill:#E8E8E8;}
	.st35{opacity:0.6;}
	.st36{fill-rule:evenodd;clip-rule:evenodd;fill:#00A258;}
	.st37{opacity:0.18;}
	.st38{opacity:0.15;}
	.st39{fill:#A3A29A;}
	.st40{fill:none;stroke:#00A359;stroke-width:4;stroke-miterlimit:10;}
	.st41{fill:none;stroke:#00A359;stroke-width:2.5;stroke-linecap:round;stroke-linejoin:round;stroke-miterlimit:10;}
	.st42{fill:#002C3F;}
	.st43{fill:none;stroke:#00A359;stroke-width:2;stroke-linecap:round;stroke-linejoin:round;stroke-miterlimit:10;}
	.st44{fill:#00A359;}
	.st45{fill-rule:evenodd;clip-rule:evenodd;fill:#002C3F;}
	.st46{fill-rule:evenodd;clip-rule:evenodd;fill:#00A359;}
	.st47{fill:none;}
	.st48{fill:#00A359;stroke:#FFFFFF;stroke-miterlimit:10;}
	.st49{fill:none;stroke:#002C3F;stroke-width:1.8;stroke-miterlimit:10;}
	.st50{fill:#FFFFFF;}
	.st51{fill:none;stroke:#00A359;stroke-width:3;stroke-linecap:round;stroke-linejoin:round;stroke-miterlimit:10;}
	.st52{fill:#00A359;stroke:#FFFFFF;stroke-width:0.5;stroke-miterlimit:10;}
	.st53{fill:url(#SVGID_34_);}
	.st54{fill:#F4F4F4;}
	.st55{fill:#FBFCFE;}
	.st56{fill:none;stroke:#FBFCFE;stroke-width:2;stroke-linecap:round;stroke-linejoin:round;stroke-miterlimit:10;}
	.st57{fill:#CCCCCC;}
	.st58{fill:url(#SVGID_35_);}
	.st59{opacity:0.3;fill:#6A7570;}
	.st60{fill:#D5EDE3;}
	.st61{fill:#00A258;}
	.st62{fill:none;stroke:#002C3F;stroke-width:0.75;stroke-linecap:round;stroke-linejoin:round;stroke-miterlimit:10;}
	.st63{fill:#082C3E;}
	.st64{fill:url(#SVGID_36_);}
	.st65{fill:#F6C5B9;}
	.st66{fill:#D3FBF6;}
	.st67{fill:#35B7EE;}
	.st68{fill:#E2BB59;}
	.st69{fill-rule:evenodd;clip-rule:evenodd;fill:url(#SVGID_37_);}
	.st70{opacity:0.7;fill-rule:evenodd;clip-rule:evenodd;fill:#D5EDE3;}
	.st71{fill-rule:evenodd;clip-rule:evenodd;fill:url(#SVGID_38_);}
	.st72{fill:#F5F7FD;}
	.st73{fill:#E6ECF7;}
	.st74{clip-path:url(#SVGID_40_);fill:#E6ECF7;}
	.st75{fill:#C9DBEC;}
	.st76{fill:#BECEEB;}
	.st77{fill:#F2F6FD;}
	.st78{clip-path:url(#SVGID_42_);fill:#DDE7F8;}
	.st79{opacity:0.38;fill:url(#SVGID_43_);}
	.st80{fill:#C5887B;}
	.st81{fill:#663300;}
	.st82{fill:url(#SVGID_44_);}
	.st83{fill:url(#SVGID_45_);}
	.st84{fill:url(#SVGID_46_);}
	.st85{fill:url(#SVGID_47_);}
	.st86{fill:url(#SVGID_48_);}
	.st87{fill:#9BF7D6;}
	.st88{fill:#828282;}
	.st89{fill:#E6ECF8;}
	.st90{fill:#E6ECF9;}
	.st91{fill-rule:evenodd;clip-rule:evenodd;fill:#828282;}
	.st92{fill-rule:evenodd;clip-rule:evenodd;fill:#E6ECF8;}
	.st93{fill:#46586B;}
	.st94{fill:url(#SVGID_49_);}
	.st95{clip-path:url(#SVGID_51_);fill:#E6ECF7;}
	.st96{fill:#956EE1;}
	.st97{fill:url(#SVGID_52_);}
	.st98{opacity:0.3;}
	.st99{fill:url(#SVGID_53_);}
	.st100{fill:none;stroke:#00A359;stroke-linecap:round;stroke-linejoin:round;stroke-miterlimit:10;}
	.st101{fill:#C0ABF4;}
	.st102{fill:#6A7570;}
	.st103{fill:#F0D3C7;}
	.st104{fill:#7C4939;}
	.st105{fill:#1B0E14;}
	.st106{fill:#B5AACC;}
	.st107{fill:#968AB3;}
	.st108{fill:#AF9F98;}
	.st109{fill:#BF7F64;}
	.st110{fill:#212D67;}
	.st111{fill:#F0937B;}
	.st112{fill:#54505D;}
	.st113{fill:#FDFFFF;}
	.st114{fill:#B39D98;}
	.st115{fill:#3A2E40;}
	.st116{fill-rule:evenodd;clip-rule:evenodd;fill:#FFFFFF;}
	.st117{fill-rule:evenodd;clip-rule:evenodd;fill:#006032;}
	.st118{fill:url(#SVGID_54_);}
	.st119{fill:url(#SVGID_55_);}
	.st120{fill:url(#SVGID_56_);}
	.st121{fill:#57CE90;}
	.st122{clip-path:url(#SVGID_58_);fill:#E6ECF7;}
	.st123{fill:url(#SVGID_59_);}
	.st124{fill:#46A578;}
	.st125{fill:#707C79;}
	.st126{fill:#AEBDB9;}
	.st127{fill:#07492A;}
	.st128{fill:url(#SVGID_60_);}
	.st129{fill:#0FDB7A;}
	.st130{fill:url(#SVGID_61_);}
	.st131{fill:url(#SVGID_62_);}
	.st132{fill:url(#SVGID_63_);}
	.st133{fill:url(#SVGID_64_);}
	.st134{fill:url(#SVGID_65_);}
	.st135{fill:#2B435C;}
	.st136{fill:#0E539B;}
	.st137{fill:#EDC5B7;}
	.st138{fill:#517CA5;}
	.st139{fill:#F1BCA7;}
	.st140{fill:#5FB6DC;}
	.st141{fill:#F2CFBD;}
	.st142{fill:#0EDCBF;}
	.st143{fill:#0B7060;}
	.st144{fill:#5F7D83;}
	.st145{fill:#D2F9F5;}
	.st146{fill:#0D9A84;}
	.st147{fill:#074339;}
	.st148{fill:#0DC0A6;}
	.st149{fill:#89F0E5;}
	.st150{fill:#E3E5E4;}
	.st151{fill:#385F66;}
	.st152{fill:#ECAAA9;}
	.st153{fill:#1C6065;}
	.st154{fill:#059B85;}
	.st155{fill:#4DEBDB;}
	.st156{fill:#FDFEFE;}
	.st157{fill:url(#SVGID_66_);}
	.st158{fill:url(#SVGID_67_);}
	.st159{fill:#8B8C8C;}
	.st160{fill:#00755D;}
	.st161{fill:#004537;}
	.st162{fill:url(#SVGID_68_);}
	.st163{fill:#003F36;}
	.st164{fill:#EEF9F6;}
	.st165{opacity:0.38;fill:url(#SVGID_69_);}
	.st166{fill:#008B77;}
	.st167{fill:#077A66;}
	.st168{fill-rule:evenodd;clip-rule:evenodd;fill:#05C2A8;}
	.st169{fill:url(#SVGID_70_);}
	.st170{fill:#FDFDFD;}
	.st171{fill:#DFE6F6;}
	.st172{fill:url(#SVGID_71_);}
	.st173{fill:#002C3F;stroke:#002C3F;stroke-width:0.75;stroke-miterlimit:10;}
	.st174{fill:#00A359;stroke:#00A359;stroke-miterlimit:10;}
	.st175{fill:#002C3F;stroke:#002C3F;stroke-width:0.5;stroke-miterlimit:10;}
	.st176{fill:#EAF2FA;}
	.st177{fill:#12176D;}
	.st178{fill:#4AA1FA;}
	.st179{fill:#F9B7CC;}
	.st180{fill:#B4E0FC;}
	.st181{fill:#113F86;}
	.st182{fill:#093075;}
	.st183{fill:#FB93A7;}
	.st184{fill:#FAB8CC;}
	.st185{fill:#FCDDE6;}
	.st186{fill:#FCEEF5;}
	.st187{fill:#EEF0F4;}
	.st188{fill:#171719;}
	.st189{fill:#F6C52A;}
	.st190{fill:#ECF1F7;}
	.st191{fill:#F8B91B;}
	.st192{fill:#EFE0D3;}
	.st193{fill:#3D325B;}
	.st194{fill:#FCF1E8;}
	.st195{fill:#513027;}
	.st196{opacity:0.4;}
	.st197{opacity:0.4;fill:none;stroke:#00A359;stroke-width:0.25;stroke-miterlimit:10;}
	.st198{fill:none;stroke:#00A359;stroke-width:0.25;stroke-miterlimit:10;}
	.st199{opacity:0.69;}
	.st200{fill:url(#SVGID_72_);}
	.st201{fill:url(#SVGID_73_);}
	.st202{fill:url(#SVGID_74_);}
	.st203{fill:url(#SVGID_75_);}
	.st204{fill:url(#SVGID_76_);}
	.st205{fill:url(#SVGID_77_);}
	.st206{fill:url(#SVGID_78_);}
	.st207{fill:url(#SVGID_79_);}
	.st208{fill:url(#SVGID_80_);}
	.st209{fill:#10166D;}
	.st210{fill:#603209;}
	.st211{fill:#5AB3FA;}
	.st212{fill:#95A3D4;}
	.st213{fill:#0DD375;}
	.st214{fill:#13176D;}
	.st215{fill:#253392;}
	.st216{fill:#EBF2FA;}
	.st217{fill:#026033;}
	.st218{fill:#AD8679;}
	.st219{fill:#FAC5DC;}
	.st220{fill:#B3B7BC;}
	.st221{fill:#FFFFFF;stroke:#BAC0BF;stroke-width:0.5;stroke-miterlimit:10;}
	.st222{opacity:0.5;}
	.st223{fill:#7F8182;}
	.st224{fill:#012D26;}
	.st225{fill:#024C3A;}
	.st226{fill:#02543F;}
	.st227{fill:#045E44;}
	.st228{fill:#05C2A8;}
	.st229{fill:#F9F8F7;}
	.st230{fill:#55A5CA;}
	.st231{fill:#0F2B4C;}
	.st232{fill:#191B22;}
	.st233{fill:#131316;}
	.st234{fill:#EEA98B;}
	.st235{fill:#0A1F3D;}
	.st236{fill:#F4D37D;}
	.st237{fill:#E0977B;}
	.st238{fill:#3F1B0B;}
	.st239{fill:#953928;}
	.st240{fill:#2B3359;}
	.st241{fill:#E9D6D0;}
	.st242{fill:#1D2128;}
	.st243{fill:#0BACBB;}
	.st244{fill:#084A98;}
	.st245{fill:#603524;}
	.st246{fill:#038C4B;}
	.st247{fill:url(#SVGID_81_);}
	.st248{fill:url(#SVGID_82_);}
	.st249{fill:#03723D;}
	.st250{fill:none;stroke:#85D8B5;stroke-width:0.5;stroke-miterlimit:10;}
	.st251{fill:url(#SVGID_83_);}
	.st252{fill:#098446;}
	.st253{fill:none;stroke:#85D8B5;stroke-width:2;stroke-miterlimit:10;}
	.st254{fill:#1BAA63;}
	.st255{fill:url(#SVGID_84_);}
	.st256{fill:url(#SVGID_85_);}
	.st257{fill:url(#SVGID_86_);}
	.st258{fill:url(#SVGID_87_);}
	.st259{fill:url(#SVGID_88_);}
	.st260{fill:url(#SVGID_89_);}
	.st261{fill:url(#SVGID_90_);}
	.st262{fill:url(#SVGID_91_);}
	.st263{fill:url(#SVGID_92_);}
	.st264{fill:url(#SVGID_93_);}
	.st265{fill:url(#SVGID_94_);}
	.st266{fill:url(#SVGID_95_);}
	.st267{fill:url(#SVGID_96_);}
	.st268{fill:url(#SVGID_97_);}
	.st269{fill:url(#SVGID_98_);}
	.st270{fill:url(#SVGID_99_);}
	.st271{fill:none;stroke:#00A359;stroke-width:0.75;stroke-miterlimit:10;}
	.st272{fill:url(#SVGID_100_);}
	.st273{fill:url(#SVGID_101_);}
	.st274{fill:url(#SVGID_102_);}
	.st275{fill:url(#SVGID_103_);}
	.st276{fill:url(#SVGID_104_);}
	.st277{fill:#00A359;stroke:#FFFFFF;stroke-width:1.5;stroke-miterlimit:10;}
	.st278{fill:url(#SVGID_105_);}
	.st279{fill:#20B4CF;}
	.st280{fill:#1BA0BC;}
	.st281{fill:#DB1628;}
	.st282{fill:#C91424;}
	.st283{fill:#3DCCE8;}
	.st284{fill:#36B7D4;}
	.st285{fill:#D69567;}
	.st286{fill:#F9CBA4;}
	.st287{fill:#CF8954;}
	.st288{fill:#EAAC78;}
	.st289{fill:#DFF1F6;}
	.st290{fill:#1386A0;}
	.st291{fill:#2099B9;}
	.st292{fill:#D7403F;}
	.st293{fill:#C12B2B;}
	.st294{fill:#844C27;}
	.st295{fill:#D7996B;}
	.st296{fill:#D7D3CF;}
	.st297{fill:#FDC103;}
	.st298{fill:#FAF9F6;}
	.st299{fill:#A6683D;}
	.st300{fill:#EBAD77;}
	.st301{fill:#FAF8ED;}
	.st302{fill:#EBEBEB;}
	.st303{fill:#E0E0E0;}
	.st304{fill:#2B3288;}
	.st305{fill:#9C9C9E;}
	.st306{fill:#FCD16B;}
	.st307{fill:#CEBDA2;}
	.st308{fill:#454B95;}
	.st309{fill:#D67B88;}
	.st310{fill:#F9C63A;}
	.st311{fill:#33398B;}
	.st312{fill:#EC939D;}
	.st313{fill:#0F1549;}
	.st314{fill:#D21F42;}
	.st315{fill:#A9258E;}
	.st316{fill:#50CAB0;}
	.st317{fill:#FDFDB5;}
	.st318{fill:#FCE2E0;}
	.st319{fill:#FA4863;}
	.st320{fill:#FCC21A;}
	.st321{fill:#077B94;}
	.st322{fill:#06CEC4;}
	.st323{fill:#F1E2E7;}
	.st324{fill:#046A81;}
	.st325{fill:#111229;}
	.st326{fill:#F9C5B7;}
	.st327{fill:#22224B;}
	.st328{fill:#07B9B0;}
	.st329{fill:#E23E56;}
	.st330{fill:#B1BDC5;}
	.st331{fill:#E59D29;}
	.st332{fill:#724527;}
	.st333{fill:#3B2D65;}
	.st334{fill:#2F4079;}
	.st335{fill:#2F4076;}
	.st336{fill:#3A2D66;}
	.st337{fill:#557BCE;}
	.st338{fill:#48224A;}
	.st339{fill:#F5DBD3;}
	.st340{fill:#7A5152;}
	.st341{fill:#F59B7E;}
	.st342{fill:#F7987A;}
	.st343{fill:#F9EBE0;}
	.st344{fill:#708CCB;}
	.st345{fill:#946262;}
	.st346{fill:#607BB8;}
	.st347{fill:#E0F1FB;}
	.st348{fill:#895A49;}
	.st349{fill:none;stroke:#32003D;stroke-width:0.75;stroke-linecap:round;stroke-linejoin:round;stroke-miterlimit:10;}
	.st350{fill:#FCC99B;}
	.st351{fill:#C4CEDD;}
	.st352{fill:#9BA8BA;}
	.st353{fill:#FF5C97;}
	.st354{fill:#FFDF29;}
	.st355{fill:#F9DBAA;}
	.st356{fill:#1A1E1C;}
	.st357{fill:#FFB65B;}
	.st358{clip-path:url(#SVGID_107_);fill:#514FB8;}
	.st359{fill:#F4C084;}
	.st360{fill:#663E1B;}
	.st361{fill:#442610;}
	.st362{fill:#110A04;}
	.st363{fill:#464C5B;}
	.st364{fill:#4D469F;}
	.st365{clip-path:url(#SVGID_109_);fill:#9B7FB5;}
	.st366{fill:#723A01;}
	.st367{fill:#D8D8D8;}
	.st368{fill:#E8AE7E;}
	.st369{fill:#6560B1;}
	.st370{clip-path:url(#SVGID_111_);fill:#9BA8BA;}
	.st371{clip-path:url(#SVGID_113_);fill:#FABB2D;}
	.st372{clip-path:url(#SVGID_115_);}
	.st373{clip-path:url(#SVGID_117_);fill:#DD9900;}
	.st374{fill:#8BD6F5;}
	.st375{fill:#D6EF31;}
	.st376{clip-path:url(#SVGID_119_);fill:#FFFFFF;}
	.st377{fill:#FEFDFD;}
	.st378{fill:#F6B29C;}
	.st379{fill:#DE8D77;}
	.st380{fill:#D3AB9F;}
	.st381{clip-path:url(#SVGID_121_);fill:#2099B9;}
	.st382{opacity:0.38;fill:url(#SVGID_122_);}
	.st383{fill:none;stroke:url(#SVGID_123_);stroke-width:0.5;stroke-miterlimit:10;}
	.st384{fill:url(#SVGID_124_);}
	.st385{fill:none;stroke:url(#SVGID_125_);stroke-width:0.5;stroke-miterlimit:10;}
	.st386{fill:url(#SVGID_126_);}
	.st387{fill:none;stroke:url(#SVGID_127_);stroke-width:0.5;stroke-miterlimit:10;}
	.st388{fill:url(#SVGID_128_);}
	.st389{fill:none;stroke:url(#SVGID_129_);stroke-width:0.5;stroke-miterlimit:10;}
	.st390{fill:url(#SVGID_130_);}
	.st391{opacity:0.81;fill:url(#SVGID_131_);}
	.st392{opacity:0.81;fill:url(#SVGID_132_);}
	.st393{fill:url(#SVGID_133_);}
	.st394{fill:url(#SVGID_134_);}
	.st395{fill:url(#SVGID_135_);}
	.st396{fill:url(#SVGID_136_);}
	.st397{fill:url(#SVGID_137_);}
	.st398{opacity:0.5;fill:#9BF7D6;}
	.st399{fill:url(#SVGID_138_);}
	.st400{fill:#3D2D29;}
	.st401{fill:#FBDF50;}
	.st402{fill:#EAB98E;}
	.st403{fill:#95794A;}
	.st404{fill:#F6D5B6;}
	.st405{fill:#C0B237;}
	.st406{fill:#E7C639;}
	.st407{fill:#CCA735;}
	.st408{fill:#8E8217;}
	.st409{fill:#C6A524;}
	.st410{fill:#F5D83E;}
	.st411{fill:#DAAB7F;}
	.st412{fill:#927848;}
	.st413{fill:#D5AD8A;}
</style>
<g id="Calque_2">
</g>
<g id="Calque_1">
	<path class="st34" d="M134.9,129.4c14-9.1,28.1-30.4,12.1-62.7s-25-35-40-37.6s-26,8.5-32.7,23.2S49.9,62.4,49.9,62.4
		s-27.8-11.8-35,17.9s10.5,49.9,18.7,52.7C56.9,140.8,106.2,147.9,134.9,129.4z"/>
	<g class="st35">
		<path class="st36" d="M45.8,56.5l-1.7-0.3c-0.9-0.2-1.5-1.6-0.9-2.4l0.9-1.4c0.1-0.3,0.1-0.6-0.1-0.9l-1.9-1.8
			c-0.2-0.2-0.6-0.3-0.8-0.1L40,50.7c-0.9,0.6-2.1,0-2.4-1L37.2,48c-0.1-0.3-0.3-0.5-0.6-0.5H34c-0.3,0-0.6,0.2-0.6,0.5l-0.3,1.7
			c-0.2,1-1.6,1.6-2.4,1l-1.4-0.9c-0.3-0.2-0.6-0.1-0.9,0.1l-1.8,1.8c-0.2,0.2-0.3,0.6-0.1,0.9l0.9,1.4c0.6,0.8,0,2.1-1,2.4
			l-1.7,0.3c-0.3,0.1-0.5,0.4-0.5,0.6v2.6c0,0.4,0.2,0.6,0.5,0.6l1.7,0.4c1,0.2,1.6,1.5,1,2.4l-0.9,1.4c-0.2,0.2-0.1,0.6,0.1,0.8
			l1.8,1.9c0.2,0.2,0.6,0.2,0.9,0.1l1.4-0.9c0.8-0.6,2.1,0,2.4,0.9l0.3,1.7c0.1,0.4,0.4,0.6,0.6,0.6h2.6c0.4,0,0.6-0.2,0.6-0.6
			l0.4-1.7c0.2-0.9,1.5-1.5,2.4-0.9l1.4,0.9c0.2,0.1,0.6,0.1,0.8-0.1l1.9-1.9c0.2-0.2,0.2-0.6,0.1-0.8l-0.9-1.4
			c-0.6-0.9,0-2.1,0.9-2.4l1.7-0.4c0.4-0.1,0.6-0.3,0.6-0.6v-2.6C46.4,56.9,46.2,56.6,45.8,56.5z M35.3,53.1c3,0,5.4,2.4,5.4,5.3
			s-2.4,5.4-5.4,5.4c-3,0-5.3-2.4-5.3-5.4S32.3,53.1,35.3,53.1z"/>
	</g>
	<g class="st35">
		<path class="st36" d="M136.7,19.4l-1.4-0.2c-0.8-0.2-1.2-1.3-0.8-1.9l0.8-1.2c0.1-0.2,0.1-0.5-0.1-0.7l-1.5-1.5
			c-0.2-0.2-0.5-0.2-0.6-0.1l-1.2,0.8c-0.7,0.5-1.8,0-1.9-0.8l-0.3-1.4c-0.1-0.2-0.2-0.4-0.5-0.4H127c-0.2,0-0.5,0.2-0.5,0.4
			l-0.2,1.4c-0.2,0.8-1.3,1.3-1.9,0.8l-1.2-0.8c-0.2-0.2-0.5-0.1-0.7,0.1l-1.5,1.5c-0.2,0.2-0.2,0.5-0.1,0.7l0.8,1.2
			c0.5,0.6,0,1.8-0.8,1.9l-1.4,0.2c-0.2,0.1-0.4,0.3-0.4,0.5v2.1c0,0.3,0.2,0.5,0.4,0.5l1.4,0.3c0.8,0.2,1.3,1.2,0.8,1.9l-0.8,1.2
			c-0.2,0.2-0.1,0.5,0.1,0.6l1.5,1.5c0.2,0.2,0.5,0.2,0.7,0.1l1.2-0.8c0.6-0.5,1.8,0,1.9,0.8l0.2,1.4c0.1,0.3,0.3,0.5,0.5,0.5h2.1
			c0.3,0,0.5-0.2,0.5-0.5l0.3-1.4c0.2-0.8,1.2-1.2,1.9-0.8l1.2,0.8c0.2,0.1,0.5,0.1,0.6-0.1l1.5-1.5c0.2-0.2,0.2-0.5,0.1-0.6
			l-0.8-1.2c-0.5-0.7,0-1.8,0.8-1.9l1.4-0.3c0.3-0.1,0.5-0.2,0.5-0.5v-2.1C137.2,19.7,137,19.5,136.7,19.4z M128.1,16.6
			c2.5,0,4.5,1.9,4.5,4.4s-2,4.5-4.5,4.5c-2.5,0-4.4-2-4.4-4.5S125.6,16.6,128.1,16.6z"/>
	</g>
	<g class="st37">
		<path class="st36" d="M172.6,94.3l-3.8-0.6c-2-0.5-3.3-3.5-2-5.2l2-3.1c0.3-0.6,0.3-1.4-0.2-1.9l-4.1-3.9
			c-0.5-0.5-1.3-0.6-1.7-0.2l-3.1,2c-1.9,1.3-4.7,0-5.2-2.2l-0.8-3.8c-0.2-0.6-0.6-1.1-1.4-1.1h-5.7c-0.6,0-1.3,0.5-1.4,1.1
			l-0.6,3.8c-0.5,2.2-3.5,3.5-5.2,2.2l-3.1-2c-0.6-0.5-1.4-0.3-1.9,0.2l-3.9,3.9c-0.5,0.5-0.6,1.3-0.2,1.9l2,3.1
			c1.3,1.7,0,4.7-2.2,5.2l-3.8,0.6c-0.6,0.2-1.1,0.8-1.1,1.4v5.7c0,0.8,0.5,1.3,1.1,1.4l3.8,0.8c2.2,0.5,3.5,3.3,2.2,5.2l-2,3.1
			c-0.5,0.5-0.3,1.3,0.2,1.7l3.9,4.1c0.5,0.5,1.3,0.5,1.9,0.2l3.1-2c1.7-1.3,4.7,0,5.2,2l0.6,3.8c0.2,0.8,0.8,1.3,1.4,1.3h5.7
			c0.8,0,1.3-0.5,1.4-1.3l0.8-3.8c0.5-2,3.3-3.3,5.2-2l3.1,2c0.5,0.3,1.3,0.3,1.7-0.2l4.1-4.1c0.5-0.5,0.5-1.3,0.2-1.7l-2-3.1
			c-1.3-1.9,0-4.7,2-5.2l3.8-0.8c0.8-0.2,1.3-0.6,1.3-1.4v-5.7C173.9,95,173.4,94.4,172.6,94.3z M149.6,86.7
			c6.6,0,11.9,5.2,11.9,11.8s-5.3,11.9-11.9,11.9s-11.8-5.3-11.8-11.9S143,86.7,149.6,86.7z"/>
	</g>
	<g class="st38">
		<path class="st36" d="M97.8,26.6l-3.1-0.5C93,25.7,92,23.3,93,21.9l1.7-2.6c0.3-0.5,0.3-1.1-0.1-1.5l-3.3-3.2
			c-0.4-0.4-1-0.5-1.4-0.1l-2.6,1.7c-1.5,1-3.8,0-4.2-1.8l-0.6-3.1c-0.1-0.5-0.5-0.9-1.1-0.9h-4.6c-0.5,0-1,0.4-1.1,0.9L75,14.4
			c-0.4,1.8-2.8,2.8-4.2,1.8l-2.6-1.7c-0.5-0.4-1.1-0.3-1.5,0.1l-3.2,3.2c-0.4,0.4-0.5,1-0.1,1.5l1.7,2.6c1,1.4,0,3.8-1.8,4.2
			l-3.1,0.5c-0.5,0.1-0.9,0.6-0.9,1.1v4.6c0,0.6,0.4,1,0.9,1.1l3.1,0.6c1.8,0.4,2.8,2.7,1.8,4.2l-1.7,2.6c-0.4,0.4-0.3,1,0.1,1.4
			l3.2,3.3c0.4,0.4,1,0.4,1.5,0.1l2.6-1.7c1.4-1,3.8,0,4.2,1.7l0.5,3.1c0.1,0.6,0.6,1,1.1,1h4.6c0.6,0,1-0.4,1.1-1l0.6-3.1
			c0.4-1.7,2.7-2.7,4.2-1.7l2.6,1.7c0.4,0.3,1,0.3,1.4-0.1l3.3-3.3c0.4-0.4,0.4-1,0.1-1.4L93,38.4c-1-1.5,0-3.8,1.7-4.2l3.1-0.6
			c0.6-0.1,1-0.5,1-1.1v-4.6C98.8,27.3,98.4,26.7,97.8,26.6z M79,20.5c5.4,0,9.7,4.2,9.7,9.6s-4.3,9.7-9.7,9.7
			c-5.4,0-9.6-4.3-9.6-9.7S73.6,20.5,79,20.5z"/>
	</g>
	<g class="st35">
		<path class="st36" d="M24,75l-1.1-0.2c-0.6-0.1-0.9-1-0.6-1.5l0.6-0.9c0.1-0.2,0.1-0.4,0-0.5l-1.1-1.1c-0.1-0.1-0.4-0.2-0.5,0
			l-0.9,0.6c-0.5,0.4-1.3,0-1.5-0.6l-0.2-1.1c0-0.2-0.2-0.3-0.4-0.3h-1.6c-0.2,0-0.4,0.1-0.4,0.3l-0.2,1.1c-0.1,0.6-1,1-1.5,0.6
			l-0.9-0.6c-0.2-0.1-0.4-0.1-0.5,0l-1.1,1.1c-0.1,0.1-0.2,0.4,0,0.5l0.6,0.9c0.4,0.5,0,1.3-0.6,1.5L11,75c-0.2,0-0.3,0.2-0.3,0.4
			V77c0,0.2,0.1,0.4,0.3,0.4l1.1,0.2c0.6,0.1,1,0.9,0.6,1.5l-0.6,0.9c-0.1,0.1-0.1,0.4,0,0.5l1.1,1.1c0.1,0.1,0.4,0.1,0.5,0l0.9-0.6
			c0.5-0.4,1.3,0,1.5,0.6l0.2,1.1c0,0.2,0.2,0.4,0.4,0.4h1.6c0.2,0,0.4-0.1,0.4-0.4l0.2-1.1c0.1-0.6,0.9-0.9,1.5-0.6l0.9,0.6
			c0.1,0.1,0.4,0.1,0.5,0l1.1-1.1c0.1-0.1,0.1-0.4,0-0.5L22.3,79c-0.4-0.5,0-1.3,0.6-1.5l1.1-0.2c0.2,0,0.4-0.2,0.4-0.4v-1.6
			C24.3,75.2,24.2,75,24,75z M17.5,72.9c1.9,0,3.4,1.5,3.4,3.3c0,1.9-1.5,3.4-3.4,3.4s-3.3-1.5-3.3-3.4
			C14.2,74.3,15.6,72.9,17.5,72.9z"/>
	</g>
	<g class="st35">
		<path class="st36" d="M144,35.7l-0.8-0.1c-0.4-0.1-0.7-0.7-0.4-1.1l0.4-0.6c0.1-0.1,0.1-0.3,0-0.4l-0.8-0.8
			c-0.1-0.1-0.3-0.1-0.4,0l-0.6,0.4c-0.4,0.3-1,0-1.1-0.5l-0.2-0.8c0-0.1-0.1-0.2-0.3-0.2h-1.2c-0.1,0-0.3,0.1-0.3,0.2l-0.1,0.8
			c-0.1,0.5-0.7,0.7-1.1,0.5l-0.6-0.4c-0.1-0.1-0.3-0.1-0.4,0l-0.8,0.8c-0.1,0.1-0.1,0.3,0,0.4l0.4,0.6c0.3,0.4,0,1-0.5,1.1
			l-0.8,0.1c-0.1,0-0.2,0.2-0.2,0.3v1.2c0,0.2,0.1,0.3,0.2,0.3l0.8,0.2c0.5,0.1,0.7,0.7,0.5,1.1l-0.4,0.6c-0.1,0.1-0.1,0.3,0,0.4
			l0.8,0.8c0.1,0.1,0.3,0.1,0.4,0l0.6-0.4c0.4-0.3,1,0,1.1,0.4l0.1,0.8c0,0.2,0.2,0.3,0.3,0.3h1.2c0.2,0,0.3-0.1,0.3-0.3l0.2-0.8
			c0.1-0.4,0.7-0.7,1.1-0.4l0.6,0.4c0.1,0.1,0.3,0.1,0.4,0l0.8-0.8c0.1-0.1,0.1-0.3,0-0.4l-0.4-0.6c-0.3-0.4,0-1,0.4-1.1l0.8-0.2
			c0.2,0,0.3-0.1,0.3-0.3V36C144.3,35.9,144.2,35.7,144,35.7z M139.3,34.1c1.4,0,2.4,1.1,2.4,2.4c0,1.4-1.1,2.4-2.4,2.4
			c-1.4,0-2.4-1.1-2.4-2.4C136.9,35.2,137.9,34.1,139.3,34.1z"/>
	</g>
	<g>
		<path class="st61" d="M71.2,37.5c0.3,0,0.7-0.1,1-0.3c0.9-0.5,1.3-1.7,0.7-2.7l-3.6-6.2c-0.5-0.9-1.7-1.3-2.7-0.7
			c-0.9,0.5-1.3,1.7-0.7,2.7l3.6,6.2C69.8,37.2,70.5,37.5,71.2,37.5z"/>
		<linearGradient id="SVGID_1_" gradientUnits="userSpaceOnUse" x1="129.3536" y1="120.9559" x2="53.1726" y2="57.1657">
			<stop  offset="0" style="stop-color:#00A093"/>
			<stop  offset="1" style="stop-color:#00A359"/>
		</linearGradient>
		<path class="st0" d="M92,100.2V84.9c0-3.1,0.4-6.1,1.2-9l0.3-0.9C91.1,75.8,89,76,88.8,76c-0.1,0-0.1,0-0.2,0
			c-0.2,0-2.3-0.1-4.7-1.1l0.3,0.9c0.8,2.9,1.2,6,1.2,9v15.3H92z"/>
		<path class="st61" d="M59.3,46.7l-6.2-3.6c-0.9-0.5-2.1-0.2-2.7,0.7c-0.5,0.9-0.2,2.1,0.7,2.7l6.2,3.6c0.3,0.2,0.6,0.3,1,0.3
			c0.7,0,1.3-0.4,1.7-1C60.6,48.5,60.2,47.3,59.3,46.7z"/>
		<linearGradient id="SVGID_2_" gradientUnits="userSpaceOnUse" x1="118.7698" y1="133.5956" x2="42.5887" y2="69.8054">
			<stop  offset="0" style="stop-color:#00A093"/>
			<stop  offset="1" style="stop-color:#00A359"/>
		</linearGradient>
		<path class="st1" d="M105,108c0-1.1-0.9-2-2-2h-2.6v-2H77v2h-2.6c-1.1,0-2,0.9-2,2c0,1.1,0.9,2,2,2h2.8c0.9,5.5,5.7,9.8,11.5,9.8
			c5.8,0,10.6-4.2,11.5-9.8h2.8C104.1,110,105,109.1,105,108z"/>
		<path class="st61" d="M120.1,50.1l6.2-3.6c0.9-0.5,1.3-1.7,0.7-2.7c-0.5-0.9-1.7-1.3-2.7-0.7l-6.2,3.6c-0.9,0.5-1.3,1.7-0.7,2.7
			c0.4,0.6,1,1,1.7,1C119.4,50.4,119.7,50.3,120.1,50.1z"/>
		<path class="st61" d="M90.7,30.9v-7.2c0-1.1-0.9-2-2-2c-1.1,0-2,0.9-2,2v7.2c0,1.1,0.9,2,2,2C89.8,32.8,90.7,32,90.7,30.9z"/>
		<path class="st61" d="M106.2,37.5c0.7,0,1.3-0.4,1.7-1l3.6-6.2c0.5-0.9,0.2-2.1-0.7-2.7c-0.9-0.5-2.1-0.2-2.7,0.7l-3.6,6.2
			c-0.5,0.9-0.2,2.1,0.7,2.7C105.6,37.5,105.9,37.5,106.2,37.5z"/>
		<linearGradient id="SVGID_3_" gradientUnits="userSpaceOnUse" x1="137.9426" y1="110.6985" x2="61.7616" y2="46.9083">
			<stop  offset="0" style="stop-color:#00A093"/>
			<stop  offset="1" style="stop-color:#00A359"/>
		</linearGradient>
		<path class="st2" d="M68.6,87.3c3.6,3.4,5.6,6.1,5.6,10.9c0,1.1,0.9,2,2,2h5.3V84.9c0-2.7-0.4-5.4-1.1-8l-1.8-6.5
			c-0.3-0.9,0.2-1.9,1.1-2.3c0.9-0.4,1.9-0.1,2.5,0.8c1.4,2.3,5.1,3.1,6.5,3.2c1.4-0.1,5.1-0.8,6.5-3.2c0.5-0.9,1.5-1.2,2.5-0.8
			c0.9,0.4,1.4,1.4,1.1,2.3L97,76.9c-0.7,2.6-1.1,5.3-1.1,8v15.3h5.3c1.1,0,2-0.9,2-2c0-4.7,1.9-7.4,5.7-11
			c5.9-5.6,9.1-13.2,9.1-21.3c0-8.4-3.6-16.3-9.8-21.9c-6.3-5.6-14.5-8.2-22.9-7.3C72,38.3,61.1,49,59.6,62.4
			C58.5,71.8,61.8,80.9,68.6,87.3z"/>
	</g>
	<g>
		<path class="st135" d="M135.8,104.4c-0.4,5.6,0.2,11.2,1.3,16.7c1,6.5,3.1,12.6,5.2,18.8c-1.2,0.2-2.5-0.3-3.6,0.5
			c-3.3-5.7-5.8-11.9-7.6-18.3c-1-4.3-1.9-8.7-2.9-13c-1.4,4.9-2.3,9.8-2,14.8c-0.2,5.9-0.1,11.8,0.1,17.8c0,0.4-0.1,0.9-0.1,1.3
			c0,0.3,0,0.6-0.1,0.9c-0.1,0.3,0.1,0.8-0.5,1c-0.2,0-0.3,0-0.5,0l0,0c0.8-1.5,0.6-2.4-1.3-2.2c-0.7,0.1-1.3-0.2-1.6-0.8
			c-0.1-0.2-0.1-0.4-0.2-0.6c-1-5.1-1.1-10.3-1.7-15.5c0-7.7-0.1-15.4,0.4-23.1c0.8,0,1.6-0.1,2.4,0.1
			C127.4,103.8,131.6,103.9,135.8,104.4z"/>
		<path class="st136" d="M138.7,140.4c1.1-0.8,2.4-0.3,3.6-0.5c1.3,1.3,1,2.4-0.5,3.2c-1.5,0.7-2.9,1.8-4.7,1.8
			c-0.7,0-1.6,0.4-1.4-0.9C136.2,142.4,138,142,138.7,140.4z"/>
		<path class="st136" d="M135.8,104.4c-4.2-0.5-8.4-0.6-12.5-1.7c-0.8-0.2-1.6-0.1-2.4-0.1c-0.8-1.1-0.4-2.3-0.3-3.4
			c0.1-3.1,0.9-6.1,0.7-9.2c0.2,0,0.5-0.1,0.6,0c3.9,2.9,7.4,1.2,10.7-1.1c0.9-0.6,2.1-1.3,0.7-2.5c-1-0.9-1.4-3-3.6-1.4
			c-2.5,1.9-4.9,1.8-7.4-0.1c0.8-3.6,0.8-3.6-2.7-4.4c-0.1,0-0.1,0-0.2,0c0-1.8,0.5-3.5,0.9-5.2c3,0.7,5.9,0.4,8.8-0.9
			c0.4,3.3,1.8,4.3,4.1,2.9c0.8-0.5,0.9-1.5,1.4-2.2c3.6,1.6,5.5,4.5,5.1,8.4c-0.3,2.9-0.8,5.7-1.4,8.5c-0.7,3.6-1.5,7.2-2,10.9
			C136.3,103.4,136.4,104.1,135.8,104.4z"/>
		<path class="st137" d="M134.7,75c-0.5,0.7-0.6,1.6-1.4,2.2c-2.3,1.4-3.7,0.4-4.1-2.9c0-1.2-0.9-1.7-1.7-2
			c-2.4-1.2-2.3-3.7-1.5-5.3c0.9-1.9,1.2-4,2.5-5.7c1.6,1.2,3.5,1.6,5.4,1.5c1.3,0,1.8,0.1,1.4,1.7c-0.3,1.4-0.9,3.7,2.2,2.8
			c0.2-0.1,0.5,0.3,0.7,0.4c-0.3,2.2-2.4,3.2-3.1,5.2C134.9,73.6,134.5,74.2,134.7,75z"/>
		<path class="st137" d="M120.4,75.2c-0.4,1.7-1,3.4-0.9,5.2c-0.9,0-1.9,0.2-1.1,1.3c1,1.4,2.2,2.7,4,3.1c2.4,1.8,4.9,2,7.4,0.1
			c2.1-1.6,2.6,0.6,3.6,1.4c1.4,1.2,0.2,1.9-0.7,2.5c-3.4,2.3-6.8,4-10.7,1.1c-0.1-0.1-0.4,0-0.6,0c-1.7-1.5-2.5-3.8-4.4-5.1
			c-0.7-2.2-2.4-3.5-3.9-5.1c-0.6-0.7-0.7-1.5-0.5-2.3c0.3-1.4,1.4-1.8,2.6-0.9c0.4,0.3,0.8,1.1,1.4,0.9c0.7-0.3-0.4-1.4-0.3-2.1
			c0.1-0.5,0.9-1.2,0.9-1.7c0.8,0.3,2.1-0.2,2.4,1.4c-1.9,0.3-2.4,1.8-1.1,4.1c0.6-1.3,0.6-3.4,0.2-4.9
			C118.9,74.3,120.1,75.2,120.4,75.2z"/>
		<path class="st105" d="M127.9,60c-0.5-1.4,0-2.5,1.2-3.1c1.2-0.7,2.2-0.1,2.9,0.8c1.5,1.8,4,1.3,5.6,2.7c-0.6,0.5-0.1,2-1.1,1.8
			C133.7,61.7,130.5,61.9,127.9,60z"/>
		<path class="st105" d="M127.9,60c2.6,1.9,5.8,1.6,8.7,2.2c1,0.2,0.5-1.3,1.1-1.8c1.6,0.8,1.2,2.3,1.1,3.6c0,1.2-0.2,2.5-0.7,3.6
			c-0.2-0.2-0.5-0.5-0.7-0.4c-3.1,0.9-2.5-1.4-2.2-2.8c0.3-1.6-0.1-1.7-1.4-1.7c-1.9,0.1-3.8-0.4-5.4-1.5
			C128.3,60.9,128.1,60.5,127.9,60z"/>
		<path class="st136" d="M125.3,144.8c-0.3,0-0.5,0.1-0.8,0.1c-1.9-0.4-4.1,0.4-5.9-1c1.1-1,3-0.5,3.7-2.1c0.4,0.6,0.9,0.8,1.6,0.8
			C125.9,142.4,126,143.4,125.3,144.8z"/>
		<path class="st138" d="M125.7,144.9c-0.2,0.2-0.4,0.2-0.5,0C125.4,144.9,125.6,144.9,125.7,144.9z"/>
		<path class="st139" d="M119.4,75.2c0.4,1.5-0.5,2.8-1.1,4C117,77,117.5,75.4,119.4,75.2C119.4,75.2,119.4,75.2,119.4,75.2z"/>
	</g>
	<g>
		<path class="st138" d="M32.7,162.2c1.3,1.2,3.2,1.4,4.8,2.2c0.7,0.3,0.5,1.5-0.3,1.5c-0.9,0-1.8-0.1-2.7,0c-1.5,0-3-0.1-4.5-0.1
			c0-0.1-0.1-0.1-0.1-0.1c0.2-0.9,0.4-1.7,0.5-2.6C31.3,162.6,31.6,162.5,32.7,162.2z"/>
		<path class="st140" d="M43.8,161.8c1.3,1.2,3.2,1.4,4.8,2.2c0.7,0.3,0.5,1.5-0.3,1.5c-0.9,0-1.8-0.1-2.7,0c-1.5,0-3-0.1-4.5-0.1
			c0-0.1-0.1-0.1-0.1-0.1c0.2-0.9,0.4-1.7,0.5-2.6C42.5,162.2,42.8,162.1,43.8,161.8z"/>
		<path class="st136" d="M45.1,162.6c0,0,3.8-14.7,4.7-36.1c0-0.1-0.2-1.5-0.2-1.6c-1.5-1-2.8,0.4-4.2,0.4c-2.4,0-4.8,0-7.1,0
			c-1.4,0-2.7-1.6-3.9-0.8c0,3.5,0.2,8.6-0.1,12.1c0,0.4,0,0.9,0,1.3c-0.1,0.4-0.2,1-0.2,1.4c0,0.8-0.1,1.4-0.3,2.2
			c-0.8,3.6-0.9,7.4-1.4,11.1c0,0.8-0.1,1.3-0.4,2.3c-0.7,2.5-1.4,5.5-1.8,8.1c1.7-0.4,1.9-0.3,3.8-0.2c1.1-3,1.9-5.4,3-8.4
			c0.2-0.7,1.6-5.1,1.8-6.1c1.8-7.9,2.1-9.6,2.9-16.6c0.5,2.9,0.8,4.3,1.1,7.6c0.1,0.9-0.2,2.1-0.3,3c-0.3,3.3-0.3,6.7-0.9,10
			c-0.1,0.3-0.1,0.6-0.1,0.9c0,0.4,0,0.8,0,1.2c-0.2,2.4-0.3,5.9-0.5,8.3C42.1,162.9,45.1,162.6,45.1,162.6"/>
		<path class="st67" d="M49.6,124.8c-1.5,0.1-2.8,0.4-4.2,0.4c-2.4,0-4.8,0-7.1,0c-1.4,0-2.7,0.2-4.2,0.6c0,0-0.1-2.2-0.1-3.1
			c0.1-7.2-1.4-13.1-1.1-20.3c0.2-3.9,2.1-6.4,5.8-7.5c0.2,0.1,0.5,0.1,0.6,0.3c2.3,3.4,4.5,3.5,6.3,0.1c0.8,0.4,1.2,1,1.9,1.7
			c1.3,1.4,2,3.2,2,5.1c0,0.9,0,1.8,0,2.7c0,1.1,0.4,1.6,1.3,1.9c-2.8,1.5-4.9,0.4-6.8-1.6c-1-1.1-1.8-0.9-2.4,0.2
			c-0.5,1.1-2.9,1.9-0.7,3.6c2.6,2,5.5,3.3,8.9,2.9c-0.8,3.4-0.2,6.8-0.4,10.1C49.6,122.9,49.6,123.8,49.6,124.8z"/>
		<path class="st141" d="M45.8,95.3c-1.8,3.3-4.3,3.4-6.6-0.1C39,95.1,39,95,38.8,94.9c0.2-1.1,0.4-2.1,0.5-3.2
			c0-0.9,0.6-2.1-0.9-2.5c0.1-0.5,0.1-0.8-0.5-0.9l0,0c0.1-0.8-0.3-1.7,0.6-2.2c0.6-0.3,1.1-0.2,1.6,0.3c0.3,0.3,0.4,0.9,1,0.6
			c0.5-0.2,0.3-0.8,0.3-1.2c0.1-1.1-0.7-2.7,1.3-3c2,0,3.9,0,5.9,0.1c0,1.3,0,2.5,0.1,3.8c0.2,3.1,0.4,6.2-3.6,7.3
			c-0.3,0.1-1,0.6,0,1.1C45.2,95.1,45.8,95.3,45.8,95.3z"/>
		<path class="st68" d="M49.4,81l-0.7,1.1c-0.2,0.1,0.1-0.3-0.1-0.3c-1.5-1.6-3.4-0.9-5-0.5c-1.5,0.4-3.6,0.6-3.2,3.4
			c0.2,1-1,0.8-1.8,0.2c-1.4-1.1-0.6-2.6-0.8-4c1.5-3.8,6.8-4,10.8-2C49.4,79.5,49.7,80.3,49.4,81z"/>
		<path class="st68" d="M37.9,81.1c0.2,1.3-0.5,2.9,0.8,4c0.7,0.6,1.9,0.8,1.8-0.2c-0.4-2.8,1.7-3,3.2-3.4c1.6-0.4,3.5-1.1,5.1,0.6
			l0,0.2c-2,0.2-4.1-0.6-6,0.7c-2,0.4-1.1,1.9-1.3,3c-0.1,0.4,0.2,1-0.3,1.2c-0.6,0.3-0.7-0.3-1-0.6c-0.4-0.5-1-0.6-1.6-0.3
			c-1,0.5-0.6,1.4-0.6,2.2c-1.8-0.7-0.9-2.5-1.2-3.6C36.5,83.8,36.9,82.1,37.9,81.1z"/>
		<path class="st141" d="M37.9,88.3c0.6,0.1,0.6,0.4,0.5,0.9C38,89,37.9,88.8,37.9,88.3z"/>
		<path class="st141" d="M50.1,111.8c-3.4,0.4-6.3-0.9-8.9-2.9c-2.2-1.7,0.2-2.5,0.7-3.6c0.6-1.2,1.3-1.4,2.4-0.2
			c1.8,2,4,3.2,6.8,1.6c3.3-0.6,6.1-2,7.9-4.9c0.5-0.7,4.5-1.2,5.2-0.7c0.5,0.4,0.6,0.9,0.3,1.6c-0.5,1.1-1.4,1.8-2.4,2.2
			c-2.2,0.7-3.9,2.1-5.6,3.5C54.4,109.8,52.4,111.1,50.1,111.8z"/>
		<path class="st141" d="M48.8,82.2c0,0.3-0.1,0.5-0.1,0.8c-2,0-3.9,0-5.9-0.1C44.7,81.6,46.8,82.3,48.8,82.2z"/>
	</g>
	<g id="Calque_3">
	</g>
</g>
</svg>
