<?xml version="1.0" encoding="utf-8"?>
<!-- Generator: Adobe Illustrator 25.2.0, SVG Export Plug-In . SVG Version: 6.00 Build 0)  -->
<svg version="1.1" xmlns="http://www.w3.org/2000/svg" xmlns:xlink="http://www.w3.org/1999/xlink" x="0px" y="0px"
	 viewBox="0 0 713.7 169.7" style="enable-background:new 0 0 713.7 169.7;" xml:space="preserve">
<style type="text/css">
	.st0{display:none;}
	.st1{fill:#E8E8E8;}
	.st2{opacity:0.6;}
	.st3{fill-rule:evenodd;clip-rule:evenodd;fill:#00A258;}
	.st4{opacity:0.18;}
	.st5{opacity:0.15;}
	.st6{fill:url(#SVGID_1_);}
	.st7{fill:url(#SVGID_2_);}
	.st8{fill:#00A359;}
	.st9{fill:#F4F4F4;}
	.st10{fill:url(#SVGID_3_);}
	.st11{fill:#FBFCFE;}
	.st12{fill:none;stroke:#FBFCFE;stroke-width:2;stroke-linecap:round;stroke-linejoin:round;stroke-miterlimit:10;}
	.st13{fill:none;stroke:#002C3F;stroke-width:1.5;stroke-linecap:round;stroke-linejoin:round;stroke-miterlimit:10;}
	.st14{fill:#D5EDE3;}
	.st15{fill:#CCCCCC;}
	.st16{fill:none;stroke:#002C3F;stroke-linecap:round;stroke-linejoin:round;stroke-miterlimit:10;}
	.st17{fill:url(#SVGID_4_);}
	.st18{fill:url(#SVGID_5_);}
	.st19{fill:#002C3F;}
	.st20{fill:#F2B69D;}
	.st21{fill:#2D2332;}
	.st22{fill:#C69787;}
	.st23{fill:url(#SVGID_6_);}
	.st24{fill:#12603B;}
	.st25{fill:#068749;}
	.st26{fill:#044928;}
	.st27{fill:url(#SVGID_7_);}
	.st28{fill:url(#SVGID_8_);}
	.st29{fill:#F9ECB7;}
	.st30{fill:#FCE47E;}
	.st31{fill:url(#SVGID_9_);}
	.st32{fill:url(#SVGID_10_);}
	.st33{fill:url(#SVGID_11_);}
	.st34{fill:url(#SVGID_12_);}
	.st35{fill:none;stroke:#00A359;stroke-width:2;stroke-miterlimit:10;}
	.st36{fill:none;stroke:#002C3F;stroke-width:2;stroke-linecap:round;stroke-linejoin:round;stroke-miterlimit:10;}
	.st37{fill:#A3A29A;}
	.st38{fill:none;stroke:#00A359;stroke-width:4;stroke-miterlimit:10;}
	.st39{fill:none;stroke:#00A359;stroke-width:2.5;stroke-linecap:round;stroke-linejoin:round;stroke-miterlimit:10;}
	.st40{fill:none;stroke:#00A359;stroke-width:2;stroke-linecap:round;stroke-linejoin:round;stroke-miterlimit:10;}
	.st41{fill-rule:evenodd;clip-rule:evenodd;fill:#002C3F;}
	.st42{fill-rule:evenodd;clip-rule:evenodd;fill:#00A359;}
	.st43{fill:none;}
	.st44{fill:#00A359;stroke:#FFFFFF;stroke-miterlimit:10;}
	.st45{fill:none;stroke:#002C3F;stroke-width:1.8;stroke-miterlimit:10;}
	.st46{fill:#FFFFFF;}
	.st47{fill:none;stroke:#00A359;stroke-width:3;stroke-linecap:round;stroke-linejoin:round;stroke-miterlimit:10;}
	.st48{fill:#00A359;stroke:#FFFFFF;stroke-width:0.5;stroke-miterlimit:10;}
	.st49{fill:url(#SVGID_13_);}
	.st50{fill:url(#SVGID_14_);}
	.st51{opacity:0.3;fill:#6A7570;}
	.st52{fill:#00A258;}
	.st53{fill:none;stroke:#002C3F;stroke-width:0.75;stroke-linecap:round;stroke-linejoin:round;stroke-miterlimit:10;}
	.st54{fill:#082C3E;}
	.st55{fill:url(#SVGID_15_);}
	.st56{fill:#F6C5B9;}
	.st57{fill:#D3FBF6;}
	.st58{fill:#35B7EE;}
	.st59{fill:#E2BB59;}
	.st60{fill-rule:evenodd;clip-rule:evenodd;fill:url(#SVGID_16_);}
	.st61{opacity:0.7;fill-rule:evenodd;clip-rule:evenodd;fill:#D5EDE3;}
	.st62{fill-rule:evenodd;clip-rule:evenodd;fill:url(#SVGID_17_);}
	.st63{fill:#212D67;}
	.st64{fill:#956EE1;}
	.st65{fill:#9F7CE3;}
	.st66{fill:#F7C2C3;}
	.st67{fill:#C5B2F1;}
	.st68{fill:#F5F7FD;}
	.st69{fill:#E6ECF7;}
	.st70{clip-path:url(#SVGID_19_);fill:#E6ECF7;}
	.st71{fill:#C9DBEC;}
	.st72{fill:#BECEEB;}
	.st73{fill:#F2F6FD;}
	.st74{clip-path:url(#SVGID_21_);fill:#DDE7F8;}
	.st75{opacity:0.38;fill:url(#SVGID_22_);}
	.st76{fill:#C5887B;}
	.st77{fill:#663300;}
	.st78{fill:url(#SVGID_23_);}
	.st79{fill:#85D8B5;}
	.st80{fill:url(#SVGID_24_);}
	.st81{fill:url(#SVGID_25_);}
	.st82{fill:url(#SVGID_26_);}
	.st83{fill:url(#SVGID_27_);}
	.st84{fill:#9BF7D6;}
	.st85{fill:#828282;}
	.st86{fill:#E6ECF8;}
	.st87{fill:#E6ECF9;}
	.st88{fill-rule:evenodd;clip-rule:evenodd;fill:#828282;}
	.st89{fill-rule:evenodd;clip-rule:evenodd;fill:#E6ECF8;}
	.st90{fill:#46586B;}
	.st91{fill:url(#SVGID_28_);}
	.st92{clip-path:url(#SVGID_30_);fill:#E6ECF7;}
	.st93{fill:url(#SVGID_31_);}
	.st94{opacity:0.3;}
	.st95{fill:url(#SVGID_32_);}
	.st96{fill:none;stroke:#00A359;stroke-linecap:round;stroke-linejoin:round;stroke-miterlimit:10;}
	.st97{fill:#C0ABF4;}
	.st98{fill:#6A7570;}
	.st99{fill:#F0D3C7;}
	.st100{fill:#7C4939;}
	.st101{fill:#1B0E14;}
	.st102{fill:#B5AACC;}
	.st103{fill:#968AB3;}
	.st104{fill:#AF9F98;}
	.st105{fill:#BF7F64;}
	.st106{fill:#F0937B;}
	.st107{fill:#54505D;}
	.st108{fill:#FDFFFF;}
	.st109{fill:#B39D98;}
	.st110{fill:#3A2E40;}
	.st111{fill-rule:evenodd;clip-rule:evenodd;fill:#FFFFFF;}
	.st112{fill-rule:evenodd;clip-rule:evenodd;fill:#006032;}
	.st113{fill:url(#SVGID_33_);}
	.st114{fill:url(#SVGID_34_);}
	.st115{fill:url(#SVGID_35_);}
	.st116{fill:#57CE90;}
	.st117{clip-path:url(#SVGID_37_);fill:#E6ECF7;}
	.st118{fill:url(#SVGID_38_);}
	.st119{fill:#46A578;}
	.st120{fill:#707C79;}
	.st121{fill:#AEBDB9;}
	.st122{fill:#07492A;}
	.st123{fill:url(#SVGID_39_);}
	.st124{fill:#0FDB7A;}
	.st125{fill:url(#SVGID_40_);}
	.st126{fill:url(#SVGID_41_);}
	.st127{fill:url(#SVGID_42_);}
	.st128{fill:url(#SVGID_43_);}
	.st129{fill:url(#SVGID_44_);}
	.st130{fill:#2B435C;}
	.st131{fill:#0E539B;}
	.st132{fill:#EDC5B7;}
	.st133{fill:#517CA5;}
	.st134{fill:#F1BCA7;}
	.st135{fill:#5FB6DC;}
	.st136{fill:#F2CFBD;}
	.st137{fill:#0EDCBF;}
	.st138{fill:#0B7060;}
	.st139{fill:#5F7D83;}
	.st140{fill:#D2F9F5;}
	.st141{fill:#0D9A84;}
	.st142{fill:#074339;}
	.st143{fill:#0DC0A6;}
	.st144{fill:#89F0E5;}
	.st145{fill:#E3E5E4;}
	.st146{fill:#385F66;}
	.st147{fill:#ECAAA9;}
	.st148{fill:#1C6065;}
	.st149{fill:#059B85;}
	.st150{fill:#4DEBDB;}
	.st151{fill:#FDFEFE;}
	.st152{fill:url(#SVGID_45_);}
	.st153{fill:url(#SVGID_46_);}
	.st154{fill:#8B8C8C;}
	.st155{fill:#00755D;}
	.st156{fill:#004537;}
	.st157{fill:url(#SVGID_47_);}
	.st158{fill:#003F36;}
	.st159{fill:#EEF9F6;}
	.st160{opacity:0.38;fill:url(#SVGID_48_);}
	.st161{fill:#008B77;}
	.st162{fill:#077A66;}
	.st163{fill-rule:evenodd;clip-rule:evenodd;fill:#05C2A8;}
	.st164{fill:url(#SVGID_49_);}
	.st165{fill:#FDFDFD;}
	.st166{fill:#DFE6F6;}
	.st167{fill:url(#SVGID_50_);}
	.st168{fill:#002C3F;stroke:#002C3F;stroke-width:0.75;stroke-miterlimit:10;}
	.st169{fill:#00A359;stroke:#00A359;stroke-miterlimit:10;}
	.st170{fill:#002C3F;stroke:#002C3F;stroke-width:0.5;stroke-miterlimit:10;}
	.st171{fill:#EAF2FA;}
	.st172{fill:#12176D;}
	.st173{fill:#4AA1FA;}
	.st174{fill:#F9B7CC;}
	.st175{fill:#B4E0FC;}
	.st176{fill:#113F86;}
	.st177{fill:#093075;}
	.st178{fill:#FB93A7;}
	.st179{fill:#FAB8CC;}
	.st180{fill:#FCDDE6;}
	.st181{fill:#FCEEF5;}
	.st182{fill:#EEF0F4;}
	.st183{fill:#171719;}
	.st184{fill:#F6C52A;}
	.st185{fill:#ECF1F7;}
	.st186{fill:#F8B91B;}
	.st187{fill:#EFE0D3;}
	.st188{fill:#3D325B;}
	.st189{fill:#FCF1E8;}
	.st190{fill:#513027;}
	.st191{opacity:0.4;}
	.st192{opacity:0.4;fill:none;stroke:#00A359;stroke-width:0.25;stroke-miterlimit:10;}
	.st193{fill:none;stroke:#00A359;stroke-width:0.25;stroke-miterlimit:10;}
	.st194{opacity:0.69;}
	.st195{fill:url(#SVGID_51_);}
	.st196{fill:url(#SVGID_52_);}
	.st197{fill:url(#SVGID_53_);}
	.st198{fill:url(#SVGID_54_);}
	.st199{fill:url(#SVGID_55_);}
	.st200{fill:url(#SVGID_56_);}
	.st201{fill:url(#SVGID_57_);}
	.st202{fill:url(#SVGID_58_);}
	.st203{fill:url(#SVGID_59_);}
	.st204{fill:#10166D;}
	.st205{fill:#603209;}
	.st206{fill:#5AB3FA;}
	.st207{fill:#95A3D4;}
	.st208{fill:#0DD375;}
	.st209{fill:#13176D;}
	.st210{fill:#253392;}
	.st211{fill:#EBF2FA;}
	.st212{fill:#026033;}
	.st213{fill:#AD8679;}
	.st214{fill:#FAC5DC;}
	.st215{fill:#B3B7BC;}
	.st216{fill:#FFFFFF;stroke:#BAC0BF;stroke-width:0.5;stroke-miterlimit:10;}
	.st217{opacity:0.5;}
	.st218{fill:#7F8182;}
	.st219{fill:#012D26;}
	.st220{fill:#024C3A;}
	.st221{fill:#02543F;}
	.st222{fill:#045E44;}
	.st223{fill:#05C2A8;}
	.st224{fill:#F9F8F7;}
	.st225{fill:#55A5CA;}
	.st226{fill:#0F2B4C;}
	.st227{fill:#191B22;}
	.st228{fill:#131316;}
	.st229{fill:#EEA98B;}
	.st230{fill:#0A1F3D;}
	.st231{fill:#F4D37D;}
	.st232{fill:#E0977B;}
	.st233{fill:#3F1B0B;}
	.st234{fill:#953928;}
	.st235{fill:#2B3359;}
	.st236{fill:#E9D6D0;}
	.st237{fill:#1D2128;}
	.st238{fill:#0BACBB;}
	.st239{fill:#084A98;}
	.st240{fill:#603524;}
	.st241{fill:#F9DBAA;}
	.st242{fill:#1A1E1C;}
	.st243{fill:#FFB65B;}
	.st244{clip-path:url(#SVGID_61_);fill:#514FB8;}
	.st245{fill:#F4C084;}
	.st246{fill:#663E1B;}
	.st247{fill:#442610;}
	.st248{fill:#110A04;}
	.st249{fill:#464C5B;}
	.st250{fill:#4D469F;}
	.st251{fill:#FCC99B;}
	.st252{fill:#723A01;}
	.st253{clip-path:url(#SVGID_63_);fill:#9B7FB5;}
	.st254{fill:#E2E6F0;}
	.st255{fill:#E8AE7E;}
	.st256{fill:#C4CEDD;}
	.st257{fill:#6560B1;}
	.st258{fill:#9BA8BA;}
	.st259{fill:#FFFEF5;}
	.st260{fill:#2F352D;}
	.st261{clip-path:url(#SVGID_65_);fill:#9BA8BA;}
	.st262{clip-path:url(#SVGID_67_);fill:#FABB2D;}
	.st263{clip-path:url(#SVGID_69_);}
	.st264{clip-path:url(#SVGID_71_);fill:#DD9900;}
	.st265{fill:#038C4B;}
	.st266{fill:url(#SVGID_72_);}
	.st267{fill:url(#SVGID_73_);}
	.st268{fill:#03723D;}
	.st269{fill:none;stroke:#85D8B5;stroke-width:0.5;stroke-miterlimit:10;}
	.st270{fill:url(#SVGID_74_);}
	.st271{fill:#098446;}
	.st272{fill:none;stroke:#85D8B5;stroke-width:2;stroke-miterlimit:10;}
	.st273{fill:#1BAA63;}
	.st274{fill:url(#SVGID_75_);}
	.st275{fill:url(#SVGID_76_);}
	.st276{fill:url(#SVGID_77_);}
	.st277{fill:url(#SVGID_78_);}
	.st278{fill:url(#SVGID_79_);}
	.st279{fill:url(#SVGID_80_);}
	.st280{fill:url(#SVGID_81_);}
	.st281{fill:url(#SVGID_82_);}
	.st282{fill:url(#SVGID_83_);}
	.st283{fill:url(#SVGID_84_);}
	.st284{fill:url(#SVGID_85_);}
	.st285{fill:url(#SVGID_86_);}
	.st286{fill:url(#SVGID_87_);}
	.st287{fill:url(#SVGID_88_);}
	.st288{fill:url(#SVGID_89_);}
	.st289{fill:url(#SVGID_90_);}
	.st290{fill:none;stroke:#00A359;stroke-width:0.75;stroke-miterlimit:10;}
	.st291{fill:url(#SVGID_91_);}
	.st292{fill:url(#SVGID_92_);}
	.st293{fill:url(#SVGID_93_);}
	.st294{fill:url(#SVGID_94_);}
	.st295{fill:url(#SVGID_95_);}
	.st296{fill:#00A359;stroke:#FFFFFF;stroke-width:1.5;stroke-miterlimit:10;}
	.st297{fill:url(#SVGID_96_);}
	.st298{fill:#20B4CF;}
	.st299{fill:#1BA0BC;}
	.st300{fill:#DB1628;}
	.st301{fill:#C91424;}
	.st302{fill:#3DCCE8;}
	.st303{fill:#36B7D4;}
	.st304{fill:#D69567;}
	.st305{fill:#F9CBA4;}
	.st306{fill:#CF8954;}
	.st307{fill:#EAAC78;}
	.st308{fill:#DFF1F6;}
	.st309{fill:#1386A0;}
	.st310{fill:#2099B9;}
	.st311{fill:#D7403F;}
	.st312{fill:#C12B2B;}
	.st313{fill:#844C27;}
	.st314{fill:#D7996B;}
	.st315{fill:#D7D3CF;}
	.st316{fill:#FDC103;}
	.st317{fill:#FAF9F6;}
	.st318{fill:#A6683D;}
	.st319{fill:#EBAD77;}
	.st320{fill:#FAF8ED;}
	.st321{fill:#EBEBEB;}
	.st322{fill:#E0E0E0;}
	.st323{fill:#2B3288;}
	.st324{fill:#9C9C9E;}
	.st325{fill:#FCD16B;}
	.st326{fill:#CEBDA2;}
	.st327{fill:#454B95;}
	.st328{fill:#D67B88;}
	.st329{fill:#F9C63A;}
	.st330{fill:#33398B;}
	.st331{fill:#EC939D;}
	.st332{fill:#0F1549;}
	.st333{fill:#D21F42;}
	.st334{fill:#A9258E;}
	.st335{fill:#50CAB0;}
	.st336{fill:#FDFDB5;}
	.st337{fill:#FCE2E0;}
	.st338{fill:#FA4863;}
	.st339{fill:#FCC21A;}
	.st340{fill:#077B94;}
	.st341{fill:#06CEC4;}
	.st342{fill:#F1E2E7;}
	.st343{fill:#046A81;}
	.st344{fill:#111229;}
	.st345{fill:#F9C5B7;}
	.st346{fill:#22224B;}
	.st347{fill:#07B9B0;}
	.st348{fill:#E23E56;}
	.st349{fill:#B1BDC5;}
	.st350{fill:#E59D29;}
	.st351{fill:#724527;}
	.st352{fill:#3B2D65;}
	.st353{fill:#2F4079;}
	.st354{fill:#2F4076;}
	.st355{fill:#3A2D66;}
	.st356{fill:#557BCE;}
	.st357{fill:#48224A;}
	.st358{fill:#F5DBD3;}
	.st359{fill:#7A5152;}
	.st360{fill:#F59B7E;}
	.st361{fill:#F7987A;}
	.st362{fill:#F9EBE0;}
	.st363{fill:#708CCB;}
	.st364{fill:#946262;}
	.st365{fill:#607BB8;}
	.st366{fill:#1D2F35;}
	.st367{fill:#F9BD9C;}
	.st368{fill:#383F40;}
	.st369{fill:#BC3540;}
	.st370{fill:#E5616D;}
	.st371{fill:#BA7F61;}
	.st372{opacity:0.8;}
	.st373{fill:url(#SVGID_97_);}
	.st374{fill:url(#SVGID_98_);}
	.st375{fill:url(#SVGID_99_);}
	.st376{fill:url(#SVGID_100_);}
	.st377{fill:url(#SVGID_101_);}
	.st378{fill:url(#SVGID_102_);}
	.st379{fill:url(#SVGID_103_);}
	.st380{fill:url(#SVGID_104_);}
	.st381{fill:url(#SVGID_105_);}
	.st382{fill:url(#SVGID_106_);}
	.st383{fill:url(#SVGID_107_);}
	.st384{fill:url(#SVGID_108_);}
	.st385{fill:url(#SVGID_109_);}
	.st386{fill:url(#SVGID_110_);}
	.st387{fill:url(#SVGID_111_);}
	.st388{fill:url(#SVGID_112_);}
	.st389{fill:url(#SVGID_113_);}
	.st390{fill:url(#SVGID_114_);}
	.st391{fill:url(#SVGID_115_);}
	.st392{fill:url(#SVGID_116_);}
	.st393{fill:url(#SVGID_117_);}
	.st394{fill:url(#SVGID_118_);}
	.st395{fill:url(#SVGID_119_);}
	.st396{fill:url(#SVGID_120_);}
	.st397{fill:url(#SVGID_121_);}
	.st398{fill:url(#SVGID_122_);}
	.st399{fill:url(#SVGID_123_);}
	.st400{fill:url(#SVGID_124_);}
	.st401{fill:url(#SVGID_125_);}
	.st402{fill:url(#SVGID_126_);}
	.st403{fill:url(#SVGID_127_);}
	.st404{fill:url(#SVGID_128_);}
	.st405{fill:url(#SVGID_129_);}
	.st406{fill:url(#SVGID_130_);}
	.st407{fill:url(#SVGID_131_);}
	.st408{fill:url(#SVGID_132_);}
	.st409{fill:url(#SVGID_133_);}
	.st410{fill:url(#SVGID_134_);}
	.st411{fill:url(#SVGID_135_);}
	.st412{fill:url(#SVGID_136_);}
	.st413{fill:url(#SVGID_137_);}
	.st414{fill:url(#SVGID_138_);}
	.st415{fill:url(#SVGID_139_);}
	.st416{fill:url(#SVGID_140_);}
	.st417{fill:url(#SVGID_141_);}
	.st418{fill:url(#SVGID_142_);}
	.st419{fill:url(#SVGID_143_);}
	.st420{fill:url(#SVGID_144_);}
	.st421{fill:url(#SVGID_145_);}
	.st422{fill:url(#SVGID_146_);}
	.st423{fill:url(#SVGID_147_);}
	.st424{fill:url(#SVGID_148_);}
	.st425{fill:url(#SVGID_149_);}
	.st426{fill:url(#SVGID_150_);}
	.st427{fill:url(#SVGID_151_);}
	.st428{fill:url(#SVGID_152_);}
	.st429{fill:url(#SVGID_153_);}
	.st430{fill:url(#SVGID_154_);}
	.st431{fill:url(#SVGID_155_);}
	.st432{fill:url(#SVGID_156_);}
	.st433{fill:url(#SVGID_157_);}
	.st434{fill:url(#SVGID_158_);}
	.st435{fill:url(#SVGID_159_);}
	.st436{fill:url(#SVGID_160_);}
	.st437{fill:url(#SVGID_161_);}
	.st438{fill:url(#SVGID_162_);}
	.st439{fill:url(#SVGID_163_);}
	.st440{fill:url(#SVGID_164_);}
	.st441{fill:url(#SVGID_165_);}
	.st442{fill:url(#SVGID_166_);}
	.st443{fill:url(#SVGID_167_);}
	.st444{fill:url(#SVGID_168_);}
	.st445{fill:url(#SVGID_169_);}
	.st446{fill:url(#SVGID_170_);}
	.st447{fill:url(#SVGID_171_);}
	.st448{fill:url(#SVGID_172_);}
	.st449{fill:url(#SVGID_173_);}
	.st450{fill:url(#SVGID_174_);}
	.st451{fill:url(#SVGID_175_);}
	.st452{fill:url(#SVGID_176_);}
	.st453{fill:url(#SVGID_177_);}
	.st454{fill:url(#SVGID_178_);}
	.st455{fill:url(#SVGID_179_);}
	.st456{fill:url(#SVGID_180_);}
	.st457{fill:url(#SVGID_181_);}
	.st458{fill:url(#SVGID_182_);}
	.st459{fill:url(#SVGID_183_);}
	.st460{fill:url(#SVGID_184_);}
	.st461{fill:url(#SVGID_185_);}
	.st462{fill:url(#SVGID_186_);}
	.st463{fill:url(#SVGID_187_);}
	.st464{fill:url(#SVGID_188_);}
	.st465{fill:url(#SVGID_189_);}
	.st466{fill:url(#SVGID_190_);}
	.st467{fill:url(#SVGID_191_);}
	.st468{fill:url(#SVGID_192_);}
	.st469{fill:url(#SVGID_193_);}
	.st470{fill:url(#SVGID_194_);}
	.st471{fill:url(#SVGID_195_);}
	.st472{fill:url(#SVGID_196_);}
	.st473{fill:url(#SVGID_197_);}
	.st474{fill:url(#SVGID_198_);}
	.st475{fill:url(#SVGID_199_);}
	.st476{fill:url(#SVGID_200_);}
	.st477{fill:url(#SVGID_201_);}
	.st478{fill:url(#SVGID_202_);}
	.st479{fill:url(#SVGID_203_);}
	.st480{fill:url(#SVGID_204_);}
	.st481{fill:url(#SVGID_205_);}
	.st482{fill:url(#SVGID_206_);}
	.st483{fill:url(#SVGID_207_);}
	.st484{fill:url(#SVGID_208_);}
	.st485{fill:url(#SVGID_209_);}
	.st486{fill:url(#SVGID_210_);}
	.st487{fill:url(#SVGID_211_);}
	.st488{fill:url(#SVGID_212_);}
	.st489{fill:url(#SVGID_213_);}
	.st490{fill:url(#SVGID_214_);}
	.st491{fill:url(#SVGID_215_);}
	.st492{fill:url(#SVGID_216_);}
	.st493{fill:url(#SVGID_217_);}
	.st494{fill:url(#SVGID_218_);}
	.st495{fill:url(#SVGID_219_);}
	.st496{fill:url(#SVGID_220_);}
	.st497{fill:url(#SVGID_221_);}
	.st498{fill:url(#SVGID_222_);}
	.st499{fill:url(#SVGID_223_);}
	.st500{fill:url(#SVGID_224_);}
	.st501{fill:url(#SVGID_225_);}
	.st502{fill:url(#SVGID_226_);}
	.st503{fill:url(#SVGID_227_);}
	.st504{fill:url(#SVGID_228_);}
	.st505{fill:url(#SVGID_229_);}
	.st506{fill:url(#SVGID_230_);}
	.st507{fill:url(#SVGID_231_);}
	.st508{fill:url(#SVGID_232_);}
	.st509{fill:url(#SVGID_233_);}
	.st510{fill:url(#SVGID_234_);}
	.st511{fill:url(#SVGID_235_);}
	.st512{fill:url(#SVGID_236_);}
	.st513{fill:url(#SVGID_237_);}
	.st514{fill:url(#SVGID_238_);}
	.st515{fill:url(#SVGID_239_);}
	.st516{fill:url(#SVGID_240_);}
	.st517{fill:url(#SVGID_241_);}
	.st518{fill:url(#SVGID_242_);}
	.st519{fill:url(#SVGID_243_);}
	.st520{fill:url(#SVGID_244_);}
	.st521{fill:url(#SVGID_245_);}
	.st522{fill:url(#SVGID_246_);}
	.st523{fill:url(#SVGID_247_);}
	.st524{fill:url(#SVGID_248_);}
	.st525{fill:url(#SVGID_249_);}
	.st526{fill:url(#SVGID_250_);}
	.st527{fill:url(#SVGID_251_);}
	.st528{fill:url(#SVGID_252_);}
	.st529{fill:url(#SVGID_253_);}
	.st530{fill:url(#SVGID_254_);}
	.st531{fill:url(#SVGID_255_);}
	.st532{fill:url(#SVGID_256_);}
	.st533{fill:url(#SVGID_257_);}
	.st534{fill:url(#SVGID_258_);}
	.st535{fill:url(#SVGID_259_);}
	.st536{fill:url(#SVGID_260_);}
	.st537{fill:url(#SVGID_261_);}
	.st538{fill:url(#SVGID_262_);}
	.st539{fill:url(#SVGID_263_);}
	.st540{fill:url(#SVGID_264_);}
	.st541{fill:url(#SVGID_265_);}
	.st542{fill:url(#SVGID_266_);}
	.st543{fill:url(#SVGID_267_);}
	.st544{fill:url(#SVGID_268_);}
	.st545{fill:url(#SVGID_269_);}
	.st546{fill:url(#SVGID_270_);}
	.st547{fill:url(#SVGID_271_);}
	.st548{fill:url(#SVGID_272_);}
	.st549{fill:url(#SVGID_273_);}
	.st550{fill:url(#SVGID_274_);}
	.st551{fill:url(#SVGID_275_);}
	.st552{fill:url(#SVGID_276_);}
	.st553{fill:url(#SVGID_277_);}
	.st554{fill:url(#SVGID_278_);}
	.st555{fill:url(#SVGID_279_);}
	.st556{fill:url(#SVGID_280_);}
	.st557{fill:url(#SVGID_281_);}
	.st558{fill:url(#SVGID_282_);}
	.st559{fill:url(#SVGID_283_);}
	.st560{fill:url(#SVGID_284_);}
	.st561{fill:url(#SVGID_285_);}
	.st562{fill:url(#SVGID_286_);}
	.st563{fill:url(#SVGID_287_);}
	.st564{fill:url(#SVGID_288_);}
	.st565{fill:url(#SVGID_289_);}
	.st566{fill:url(#SVGID_290_);}
	.st567{fill:url(#SVGID_291_);}
	.st568{fill:url(#SVGID_292_);}
	.st569{fill:url(#SVGID_293_);}
	.st570{fill:url(#SVGID_294_);}
	.st571{fill:url(#SVGID_295_);}
	.st572{fill:url(#SVGID_296_);}
	.st573{fill:url(#SVGID_297_);}
	.st574{fill:url(#SVGID_298_);}
	.st575{fill:url(#SVGID_299_);}
	.st576{fill:url(#SVGID_300_);}
	.st577{fill:url(#SVGID_301_);}
	.st578{fill:url(#SVGID_302_);}
	.st579{fill:url(#SVGID_303_);}
	.st580{fill:url(#SVGID_304_);}
	.st581{fill:url(#SVGID_305_);}
	.st582{fill:url(#SVGID_306_);}
	.st583{fill:url(#SVGID_307_);}
	.st584{fill:url(#SVGID_308_);}
	.st585{fill:url(#SVGID_309_);}
	.st586{fill:url(#SVGID_310_);}
	.st587{fill:url(#SVGID_311_);}
	.st588{fill:url(#SVGID_312_);}
	.st589{fill:url(#SVGID_313_);}
	.st590{fill:url(#SVGID_314_);}
	.st591{fill:url(#SVGID_315_);}
	.st592{fill:url(#SVGID_316_);}
	.st593{fill:url(#SVGID_317_);}
	.st594{fill:url(#SVGID_318_);}
	.st595{fill:url(#SVGID_319_);}
	.st596{fill:url(#SVGID_320_);}
	.st597{fill:url(#SVGID_321_);}
	.st598{fill:url(#SVGID_322_);}
	.st599{fill:url(#SVGID_323_);}
	.st600{fill:url(#SVGID_324_);}
	.st601{fill:url(#SVGID_325_);}
	.st602{fill:url(#SVGID_326_);}
	.st603{fill:url(#SVGID_327_);}
	.st604{fill:url(#SVGID_328_);}
	.st605{fill:url(#SVGID_329_);}
	.st606{fill:url(#SVGID_330_);}
	.st607{fill:url(#SVGID_331_);}
	.st608{fill:url(#SVGID_332_);}
	.st609{fill:url(#SVGID_333_);}
	.st610{fill:url(#SVGID_334_);}
	.st611{fill:url(#SVGID_335_);}
	.st612{fill:url(#SVGID_336_);}
	.st613{fill:url(#SVGID_337_);}
	.st614{fill:url(#SVGID_338_);}
	.st615{fill:url(#SVGID_339_);}
	.st616{fill:url(#SVGID_340_);}
	.st617{fill:url(#SVGID_341_);}
	.st618{fill:url(#SVGID_342_);}
	.st619{fill:url(#SVGID_343_);}
	.st620{fill:url(#SVGID_344_);}
	.st621{fill:url(#SVGID_345_);}
	.st622{fill:url(#SVGID_346_);}
	.st623{fill:url(#SVGID_347_);}
	.st624{fill:url(#SVGID_348_);}
	.st625{fill:url(#SVGID_349_);}
	.st626{fill:url(#SVGID_350_);}
	.st627{fill:url(#SVGID_351_);}
	.st628{fill:url(#SVGID_352_);}
	.st629{fill:url(#SVGID_353_);}
	.st630{fill:url(#SVGID_354_);}
	.st631{fill:url(#SVGID_355_);}
	.st632{fill:url(#SVGID_356_);}
	.st633{fill:url(#SVGID_357_);}
	.st634{fill:url(#SVGID_358_);}
	.st635{fill:url(#SVGID_359_);}
	.st636{fill:url(#SVGID_360_);}
	.st637{fill:url(#SVGID_361_);}
	.st638{fill:url(#SVGID_362_);}
	.st639{fill:url(#SVGID_363_);}
	.st640{fill:url(#SVGID_364_);}
	.st641{fill:url(#SVGID_365_);}
	.st642{fill:url(#SVGID_366_);}
	.st643{fill:url(#SVGID_367_);}
	.st644{fill:url(#SVGID_368_);}
	.st645{fill:url(#SVGID_369_);}
	.st646{fill:url(#SVGID_370_);}
	.st647{fill:url(#SVGID_371_);}
	.st648{fill:url(#SVGID_372_);}
	.st649{fill:url(#SVGID_373_);}
	.st650{fill:url(#SVGID_374_);}
	.st651{fill:url(#SVGID_375_);}
	.st652{fill:url(#SVGID_376_);}
	.st653{fill:url(#SVGID_377_);}
	.st654{fill:url(#SVGID_378_);}
	.st655{fill:url(#SVGID_379_);}
	.st656{fill:url(#SVGID_380_);}
	.st657{fill:url(#SVGID_381_);}
	.st658{fill:url(#SVGID_382_);}
	.st659{fill:url(#SVGID_383_);}
	.st660{fill:url(#SVGID_384_);}
	.st661{fill:url(#SVGID_385_);}
	.st662{fill:url(#SVGID_386_);}
	.st663{fill:url(#SVGID_387_);}
	.st664{fill:url(#SVGID_388_);}
	.st665{fill:url(#SVGID_389_);}
	.st666{fill:url(#SVGID_390_);}
	.st667{fill:url(#SVGID_391_);}
	.st668{fill:url(#SVGID_392_);}
	.st669{fill:url(#SVGID_393_);}
	.st670{fill:url(#SVGID_394_);}
	.st671{fill:url(#SVGID_395_);}
	.st672{fill:url(#SVGID_396_);}
	.st673{fill:url(#SVGID_397_);}
	.st674{fill:url(#SVGID_398_);}
	.st675{fill:url(#SVGID_399_);}
	.st676{fill:url(#SVGID_400_);}
	.st677{fill:url(#SVGID_401_);}
	.st678{fill:url(#SVGID_402_);}
	.st679{fill:url(#SVGID_403_);}
	.st680{fill:url(#SVGID_404_);}
	.st681{fill:url(#SVGID_405_);}
	.st682{fill:url(#SVGID_406_);}
	.st683{fill:url(#SVGID_407_);}
	.st684{fill:url(#SVGID_408_);}
	.st685{fill:url(#SVGID_409_);}
	.st686{fill:url(#SVGID_410_);}
	.st687{fill:url(#SVGID_411_);}
	.st688{fill:url(#SVGID_412_);}
	.st689{fill:url(#SVGID_413_);}
	.st690{fill:url(#SVGID_414_);}
	.st691{fill:url(#SVGID_415_);}
	.st692{fill:url(#SVGID_416_);}
	.st693{fill:url(#SVGID_417_);}
	.st694{fill:url(#SVGID_418_);}
	.st695{fill:url(#SVGID_419_);}
	.st696{fill:url(#SVGID_420_);}
	.st697{fill:url(#SVGID_421_);}
	.st698{fill:url(#SVGID_422_);}
	.st699{fill:url(#SVGID_423_);}
	.st700{fill:url(#SVGID_424_);}
	.st701{fill:url(#SVGID_425_);}
	.st702{fill:url(#SVGID_426_);}
	.st703{fill:url(#SVGID_427_);}
	.st704{fill:url(#SVGID_428_);}
	.st705{fill:url(#SVGID_429_);}
	.st706{fill:url(#SVGID_430_);}
	.st707{fill:url(#SVGID_431_);}
	.st708{fill:url(#SVGID_432_);}
	.st709{fill:url(#SVGID_433_);}
	.st710{fill:url(#SVGID_434_);}
	.st711{fill:url(#SVGID_435_);}
	.st712{fill:url(#SVGID_436_);}
	.st713{fill:url(#SVGID_437_);}
	.st714{fill:url(#SVGID_438_);}
	.st715{fill:url(#SVGID_439_);}
	.st716{fill:url(#SVGID_440_);}
	.st717{fill:url(#SVGID_441_);}
	.st718{fill:url(#SVGID_442_);}
	.st719{fill:url(#SVGID_443_);}
	.st720{fill:url(#SVGID_444_);}
	.st721{fill:#E0F1FB;}
	.st722{fill:#895A49;}
	.st723{fill:none;stroke:#32003D;stroke-width:0.75;stroke-linecap:round;stroke-linejoin:round;stroke-miterlimit:10;}
</style>
<g id="Calque_2" class="st0">
</g>
<g id="Calque_1">
	<g id="Calque_3">
	</g>
	<g>
		<path class="st296" d="M474,87.1c1.3-3.7-2.1-5.5-8.4-15.7c-0.1-0.2-0.1-0.5,0-0.8c0.3-0.9,1.7-2.7,0.9-5.2
			c-0.1-0.2-1.6-5-2.3-6.7c-6.2-14.9-19.3-24-34.2-24c-11.3,0-21.4,5.1-28,13.1c-4.9-2.9-8.5-10.4-17.9-10.4h-3.6
			c-1-3.7-4.3-6.5-8.4-6.5c-4.8,0-8.7,3.9-8.7,8.7c0,4.8,3.9,8.7,8.7,8.7h0c4,0,7.4-2.8,8.4-6.5h3.6c7,0,9.4,5.6,15.2,9.5
			c-1.5,2.4-2.8,4.9-3.7,7.6c-1.4-0.8-3-1.6-5.3-2.1c-0.7-3.4-3.4-6.3-7.9-6.3c-4.5,0-8.2,3.7-8.2,8.2s3.7,8.2,8.2,8.2
			c4.1,0,6.7-2.5,7.7-5.5c1.8,0.5,3,1.2,4.3,2.1c-0.9,4.7-0.8,8.4-0.1,12.6h-14.9c-1-3.4-4.1-6-7.8-6c-4.5,0-8.2,3.7-8.2,8.2
			c0,4.5,3.7,8.2,8.2,8.2c3.7,0,6.9-2.5,7.8-6h16c0.5,1.6,1.1,3.1,1.8,4.6h0c0.7,1.5,1.7,3.3,2.9,4.9c-5,1.5-5.3,3.9-10,5.1
			c-1-3-3.5-5.5-7.7-5.5c-4.5,0-8.2,3.7-8.2,8.2c0,4.5,3.7,8.2,8.2,8.2c4.5,0,7.2-3,7.9-6.4c6.5-1.4,7.1-4.4,11.9-5.6
			c1.7,3.4,2.9,6.4,3.8,9.1c-3.8,0.3-7,1.4-10.1,4.5c-0.6,0.5-1.1,1.1-1.8,1.8c-7.1,7.6-10.8,4.6-13.7,5.3c-1-3.7-4.3-6.5-8.4-6.5
			c-4.8,0-8.7,3.9-8.7,8.7s3.9,8.7,8.7,8.7c4,0,7.4-2.8,8.4-6.5h3.6c12.8,0,11.9-11.1,23.3-11.7c1.5,6.1,1.2,9.9,1,11.4
			c-0.6,1.5,0.5,3,2.1,3c0,0,0,0,0,0h33.8c1,0,1.9-0.7,2.1-1.7l1.8-7.2c5.4,1.2,14.2,2.2,17.4-2.4c2-2.8,1.4-6.7,1.1-8.2
			c-0.7-3.6,2.8-1.5,1.2-8.3c-0.9-3.9-0.3-3.8,1.4-4C471.1,89.9,473.2,89.6,474,87.1z M376.4,117C376.4,117,376.4,117,376.4,117
			c0,2.4-1.9,4.3-4.2,4.3c-2.3,0-4.3-1.9-4.3-4.3c0-2.3,1.9-4.3,4.3-4.3C374.5,112.7,376.4,114.6,376.4,117
			C376.4,117,376.4,117,376.4,117z M386.2,97.8c0,1.7-1,3.7-3.7,3.7c-2.1,0-3.7-1.7-3.7-3.7c0-2.1,1.7-3.7,3.7-3.7
			C385.3,94.1,386.2,96.1,386.2,97.8z M375.4,78.3C375.4,78.3,375.4,78.3,375.4,78.3c0,2.1-1.7,3.7-3.7,3.7c-2.1,0-3.7-1.7-3.7-3.7
			c0-2.1,1.7-3.7,3.7-3.7C373.7,74.5,375.4,76.2,375.4,78.3L375.4,78.3z M382.5,62.4c-2.1,0-3.7-1.7-3.7-3.7c0-2.1,1.7-3.7,3.7-3.7
			C387.5,54.9,387.5,62.4,382.5,62.4z M376.4,39.5C376.4,39.5,376.4,39.5,376.4,39.5c0,2.4-1.9,4.3-4.3,4.3c-2.3,0-4.3-1.9-4.3-4.3
			s1.9-4.3,4.3-4.3C374.5,35.3,376.4,37.2,376.4,39.5C376.4,39.5,376.4,39.5,376.4,39.5z M469.9,85.5c-0.2,0.1-1.9,0.4-2.3,0.5
			c-6.9,1.9-3.5,8.9-3.5,11c-2,2.3-2.2,3.6-1.6,6.4c0.5,2.6,0.4,5.4-2.3,5.8c-4.6,0.7-5.8,0.8-13-0.9c-1.2-0.3-2.4,0.4-2.7,1.6
			l-1.9,7.6H413c0.1-2.2-0.1-5.6-1-10c0.5,0,1,0,1.5,0c2.9,0.1,6.1,0.2,9.9,0c1,3.4,4.1,5.9,7.8,5.9c4.5,0,8.2-3.7,8.2-8.2
			c0-4.5-3.7-8.2-8.2-8.2c-3.8,0-6.9,2.6-7.9,6c-3.7,0.1-6.9,0.1-9.8,0c-1,0-1.9-0.1-2.8-0.1c-0.9-2.8-2.1-6-3.8-9.5c1,0,2.8,0,3,0
			c1,3.4,4.1,6,7.8,6c4.5,0,8.2-3.7,8.2-8.2s-3.7-8.2-8.2-8.2c-3.7,0-6.9,2.5-7.8,6c-1.8,0-3.5,0-5.2,0.1c-1.8-3.4-2.9-4-4.6-8.7
			h26.3c1,3.4,4.1,6,7.8,6c4.5,0,8.2-3.7,8.2-8.2c0-4.5-3.7-8.2-8.2-8.2c-3.7,0-6.9,2.5-7.8,6h-27.5c-0.8-3.9-0.8-6.9-0.3-10.1
			c4.4,2.1,8.3,1.2,11.4,1.4c1,3.4,4.1,6,7.8,6c4.5,0,8.2-3.7,8.2-8.2s-3.7-8.2-8.2-8.2c-3.7,0-6.8,2.5-7.8,5.9
			c-3.6-0.2-6.7,0.7-10.5-1.5c0.9-3,2.2-5.9,4-8.4c3.5,0.7,8.2,0.3,19.9,0.4c1,3.4,4.1,6,7.8,6c4.5,0,8.2-3.7,8.2-8.2
			s-3.7-8.2-8.2-8.2c-3.7,0-6.8,2.5-7.8,5.9c-7.7-0.1-14,0.1-16.6-0.1c5.8-6.1,14-9.9,23.2-9.9c13.1,0,24.6,8.1,30.1,21.2
			c0.3,0.7,2.4,6.4,2.1,7c-0.1,0.6-2.2,3.3-0.4,6.4L469.9,85.5z M427.5,51.3C427.5,51.2,427.5,51.2,427.5,51.3
			c0-2.1,1.7-3.8,3.7-3.8c2.1,0,3.7,1.7,3.7,3.7c0,2.1-1.7,3.7-3.7,3.7C429.2,55,427.5,53.3,427.5,51.3
			C427.5,51.3,427.5,51.3,427.5,51.3z M414.1,65.1L414.1,65.1c0-2.1,1.7-3.7,3.7-3.7c2.1,0,3.7,1.7,3.7,3.7c0,2.1-1.7,3.7-3.7,3.7
			C415.8,68.9,414.1,67.2,414.1,65.1C414.1,65.1,414.1,65.1,414.1,65.1C414.1,65.1,414.1,65.1,414.1,65.1z M430.6,78.3
			C430.6,78.2,430.6,78.2,430.6,78.3c0-2.1,1.7-3.7,3.7-3.7c2.1,0,3.7,1.7,3.7,3.7c0,2.1-1.7,3.7-3.7,3.7
			C432.3,82,430.6,80.3,430.6,78.3C430.6,78.3,430.6,78.3,430.6,78.3z M417.9,87.6c2.1,0,3.7,1.7,3.7,3.7c0,2.1-1.7,3.7-3.7,3.7
			c-2.1,0-3.7-1.7-3.7-3.7C414.1,89.3,415.8,87.6,417.9,87.6z M431.2,101.6c2.1,0,3.7,1.7,3.7,3.7c0,2.1-1.7,3.7-3.7,3.7
			c-2.1,0-3.7-1.7-3.7-3.7C427.5,103.2,429.2,101.6,431.2,101.6z"/>
	</g>
	<g>
		<path class="st19" d="M569.3,65.8V72h-40.9v-6.2H569.3z M569.3,84.5v6.3h-40.9v-6.3H569.3z"/>
	</g>
	<g>
		<path class="st19" d="M293.4,65.9L281.3,78l12.1,12.1l-4.5,4.5l-12.1-12.1L264,95.3l-4.6-4.6l12.8-12.8l-12.2-12.2l4.5-4.5
			l12.2,12.2l12.1-12.1L293.4,65.9z"/>
	</g>
	<g>
		<path class="st8" d="M665.1,43.5c-18.3,0-33.3,14.9-33.3,33.3c0,18.3,14.9,33.3,33.3,33.3s33.3-14.9,33.3-33.3
			S683.4,43.5,665.1,43.5z"/>
		<g>
			<path class="st46" d="M649,75.6c-0.5,0-1,0.2-1.4,0.6c-0.4,0.4-0.6,0.9-0.6,1.4c0,0.5,0.2,1.1,0.6,1.4l11.8,11.8
				c0.8,0.8,2.1,0.8,3,0l21.4-21.4c0.8-0.8,0.8-2.1,0-2.9c-0.8-0.8-2-0.8-2.9,0l-20,20l-10.4-10.4C650,75.8,649.5,75.6,649,75.6z"/>
		</g>
	</g>
	<g>
		<path class="st19" d="M173.8,70h-33.4c-2.4,0-4.4,2-4.4,4.4v63.2c0,2.4,2,4.4,4.4,4.4h33.4c2.4,0,4.4-2,4.4-4.4V74.4
			C178.1,72,176.2,70,173.8,70z M176.4,137.6c0,1.4-1.2,2.6-2.6,2.6h-33.4c-1.4,0-2.6-1.2-2.6-2.6V74.4c0-1.4,1.2-2.6,2.6-2.6h33.4
			c1.4,0,2.6,1.2,2.6,2.6L176.4,137.6L176.4,137.6z"/>
		<path class="st19" d="M172,76.2h-30c-1.4,0-2.6,1.2-2.6,2.6v48.1c0,1.4,1.2,2.6,2.6,2.6h30c1.4,0,2.6-1.2,2.6-2.6V78.8
			C174.7,77.3,173.5,76.2,172,76.2z M172.9,126.9c0,0.5-0.4,0.9-0.9,0.9h-29.9c-0.5,0-0.9-0.4-0.9-0.9V78.8c0-0.5,0.4-0.9,0.9-0.9
			h30c0.5,0,0.9,0.4,0.9,0.9L172.9,126.9L172.9,126.9z"/>
		<path class="st19" d="M152.7,74.8h8.7c0.5,0,0.9-0.4,0.9-0.9s-0.4-0.9-0.9-0.9h-8.7c-0.5,0-0.9,0.4-0.9,0.9S152.2,74.8,152.7,74.8
			z"/>
		<path class="st19" d="M157.5,131c-2.2,0-3.9,1.7-3.9,3.9s1.7,3.9,3.9,3.9s3.9-1.7,3.9-3.9C161.4,132.8,159.6,131,157.5,131z
			 M157.5,137.2c-1.2,0-2.2-1-2.2-2.2s1-2.2,2.2-2.2c1.2,0,2.2,1,2.2,2.2C159.6,136.2,158.7,137.2,157.5,137.2z"/>
	</g>
	<g>
		<path class="st8" d="M111.5,38.1H26.3c-3.8,0-6.9,3.1-6.9,6.9v61.3c0,3.8,3.1,6.9,6.9,6.9h28.2l-1.6,4.2h-6.3
			c-3.9,0-7.1,3.2-7.1,7.1v1.3c0,0.7,0.6,1.3,1.3,1.3h56.3c0.7,0,1.3-0.6,1.3-1.3v-1.3c0-3.9-3.2-7.1-7.1-7.1h-6.3l-1.6-4.2h28.2
			c3.8,0,6.9-3.1,6.9-6.9V45C118.4,41.2,115.3,38.1,111.5,38.1z M91.3,119.9c2.5,0,4.5,2,4.5,4.5H42c0-2.5,2-4.5,4.5-4.5H91.3z
			 M55.6,117.3l1.6-4.2h23.4l1.6,4.2H55.6z M115.8,106.2c0,2.4-1.9,4.3-4.3,4.3H26.3c-2.4,0-4.3-1.9-4.3-4.3v-8.8h93.9V106.2z
			 M115.8,94.9H22V45c0-2.4,1.9-4.3,4.3-4.3h85.3c2.4,0,4.3,1.9,4.3,4.3V94.9z"/>
		<path class="st8" d="M68.9,108.6c2.7,0,4.8-2.2,4.8-4.8c0-2.7-2.2-4.8-4.8-4.8s-4.8,2.2-4.8,4.8C64.1,106.4,66.2,108.6,68.9,108.6
			z M68.9,101.5c1.2,0,2.3,1,2.3,2.3c0,1.2-1,2.3-2.3,2.3s-2.3-1-2.3-2.3C66.6,102.5,67.6,101.5,68.9,101.5z"/>
	</g>
	<path class="st19" d="M71.3,78.9C65.7,80,60.2,77,58.1,71.8c-2-5-0.3-10.6,4-13.7l-0.4,2.8c-0.1,0.5,0.2,0.9,0.7,0.9
		c0,0,0.1,0,0.1,0c0.4,0,0.8-0.3,0.8-0.7l0.6-4.3c0-0.2,0-0.4-0.2-0.6c-0.1-0.2-0.3-0.3-0.5-0.3L59,55.2c-0.5-0.1-0.9,0.2-0.9,0.7
		c-0.1,0.5,0.2,0.9,0.7,0.9l1.8,0.3c-4.5,3.6-6.2,9.8-4,15.3c2,5.2,7,8.4,12.3,8.4c0.9,0,1.8-0.1,2.7-0.3c0.5-0.1,0.7-0.5,0.6-1
		C72.1,79,71.7,78.8,71.3,78.9z M79.4,78l-2-0.3c4.3-3.6,6-9.7,3.8-15.1c-2.4-6-8.7-9.4-15.1-8.1c-0.5,0.1-0.7,0.5-0.6,1
		c0.1,0.5,0.5,0.7,1,0.6c5.5-1.2,11.1,1.8,13.2,7.1c1.9,4.8,0.4,10.3-3.6,13.4l0.4-2.6c0.1-0.5-0.2-0.9-0.7-0.9
		c-0.5-0.1-0.9,0.2-0.9,0.7L74.2,78c0,0.2,0,0.4,0.2,0.6c0.1,0.2,0.3,0.3,0.5,0.3l4.3,0.6c0,0,0.1,0,0.1,0c0.4,0,0.8-0.3,0.8-0.7
		C80.2,78.4,79.9,78,79.4,78z"/>
	<path class="st8" d="M158.7,111c-4,0.8-7.9-1.3-9.4-5.1c-1.4-3.6-0.2-7.6,2.9-9.8l-0.3,2c0,0.3,0.2,0.6,0.5,0.7c0,0,0.1,0,0.1,0
		c0.3,0,0.5-0.2,0.6-0.5l0.5-3.1c0-0.2,0-0.3-0.1-0.4c-0.1-0.1-0.2-0.2-0.4-0.2l-3.1-0.5c-0.3,0-0.6,0.2-0.7,0.5
		c0,0.3,0.2,0.6,0.5,0.7l1.3,0.2c-3.2,2.6-4.5,7-2.9,10.9c1.5,3.7,5,6,8.8,6c0.6,0,1.3-0.1,2-0.2c0.3-0.1,0.5-0.4,0.5-0.7
		C159.4,111.2,159,111,158.7,111z M164.6,110.4l-1.4-0.2c3.1-2.6,4.3-6.9,2.7-10.8c-1.7-4.3-6.3-6.8-10.8-5.8
		c-0.3,0.1-0.5,0.4-0.5,0.7c0.1,0.3,0.4,0.5,0.7,0.5c4-0.8,7.9,1.3,9.4,5.1c1.4,3.5,0.3,7.4-2.6,9.6l0.3-1.9c0-0.3-0.2-0.6-0.5-0.7
		c-0.3,0-0.6,0.2-0.7,0.5l-0.5,3.1c0,0.2,0,0.3,0.1,0.4c0.1,0.1,0.2,0.2,0.4,0.2l3.1,0.5c0,0,0.1,0,0.1,0c0.3,0,0.5-0.2,0.6-0.5
		C165.1,110.7,164.9,110.4,164.6,110.4z"/>
</g>
</svg>
