<?xml version="1.0" encoding="utf-8"?>
<!-- Generator: Adobe Illustrator 25.1.0, SVG Export Plug-In . SVG Version: 6.00 Build 0)  -->
<svg version="1.1" id="Calque_1" xmlns="http://www.w3.org/2000/svg" xmlns:xlink="http://www.w3.org/1999/xlink" x="0px" y="0px"
	 viewBox="0 0 103.5 118.2" style="enable-background:new 0 0 103.5 118.2;" xml:space="preserve">
<style type="text/css">
	.st0{fill:none;stroke:#A3A29A;stroke-width:0.5;stroke-miterlimit:10;}
	.st1{fill:none;stroke:#00A359;stroke-width:4;stroke-miterlimit:10;}
	.st2{fill:none;stroke:#00A359;stroke-width:2.5;stroke-linecap:round;stroke-linejoin:round;stroke-miterlimit:10;}
	.st3{fill:#002C3F;}
	.st4{fill:none;stroke:#00A359;stroke-width:2;stroke-linecap:round;stroke-linejoin:round;stroke-miterlimit:10;}
	.st5{fill:#00A359;}
	.st6{fill-rule:evenodd;clip-rule:evenodd;fill:#002C3F;}
	.st7{fill-rule:evenodd;clip-rule:evenodd;fill:#00A359;}
	.st8{fill:#00A359;stroke:#FFFFFF;stroke-miterlimit:10;}
	.st9{fill:#002C3F;stroke:#FFFFFF;stroke-width:2;stroke-miterlimit:10;}
	.st10{fill:none;stroke:#002C3F;stroke-width:3;stroke-linecap:round;stroke-linejoin:round;stroke-miterlimit:10;}
	.st11{fill:none;stroke:#00A359;stroke-width:3;stroke-linecap:round;stroke-linejoin:round;stroke-miterlimit:10;}
	.st12{fill:#002C3F;stroke:#FFFFFF;stroke-miterlimit:10;}
	.st13{fill:#00A359;stroke:#FFFFFF;stroke-width:0.5;stroke-miterlimit:10;}
	.st14{fill:#FFFFFF;}
	.st15{fill:none;stroke:#00A359;stroke-width:2.5;stroke-miterlimit:10;}
	.st16{fill:none;}
	.st17{fill:none;stroke:#002C3F;stroke-width:1.8;stroke-miterlimit:10;}
</style>
<g>
	<g>
		<path class="st5" d="M74,37.2h-8.8v-2.4c0-0.6-0.4-1-1-1h-3.9V33c0-2.8-2.5-5.1-5.6-5.1h-8c-3.1,0-5.6,2.3-5.6,5.1v0.7h-3.8
			c-0.6,0-1,0.4-1,1v2.4h-8.7c-2.1,0-3.9,1.6-3.9,3.6v49.5c0,2,1.7,3.6,3.9,3.6H74c2.1,0,3.9-1.6,3.9-3.6V40.8
			C77.9,38.8,76.2,37.2,74,37.2z M43.2,33c0-1.7,1.6-3.1,3.6-3.1h8c2,0,3.6,1.4,3.6,3.1v0.7H43.2V33z M63.3,35.8v5.4H38.4
			c0-2,0-3.3,0-5.4C58.6,35.8,59.3,35.8,63.3,35.8z M75.9,90.3c0,0.9-0.9,1.6-1.9,1.6H27.6c-1,0-1.9-0.7-1.9-1.6V40.8
			c0-0.9,0.9-1.6,1.9-1.6h8.8v2.9c0,0.6,0.4,1,1,1h26.9c0.6,0,1-0.4,1-1v-2.9h8.8c1,0,1.9,0.7,1.9,1.6L75.9,90.3L75.9,90.3z"/>
	</g>
	<g>
		<path class="st3" d="M34.2,46.7c-2.3,0-4.2,1.9-4.2,4.2c0,2.3,1.9,4.2,4.2,4.2s4.2-1.9,4.2-4.2C38.4,48.6,36.5,46.7,34.2,46.7z
			 M34.2,53.2c-1.2,0-2.2-1-2.2-2.2s1-2.2,2.2-2.2c1.2,0,2.2,1,2.2,2.2S35.4,53.2,34.2,53.2z"/>
	</g>
	<g>
		<path class="st3" d="M34.2,58c-2.3,0-4.2,1.9-4.2,4.2c0,2.3,1.9,4.2,4.2,4.2s4.2-1.9,4.2-4.2C38.4,59.9,36.5,58,34.2,58z
			 M34.2,64.5c-1.2,0-2.2-1-2.2-2.2s1-2.2,2.2-2.2c1.2,0,2.2,1,2.2,2.2S35.4,64.5,34.2,64.5z"/>
	</g>
	<g>
		<path class="st3" d="M34.2,69.3c-2.3,0-4.2,1.9-4.2,4.2c0,2.3,1.9,4.2,4.2,4.2s4.2-1.9,4.2-4.2C38.4,71.2,36.5,69.3,34.2,69.3z
			 M34.2,75.8c-1.2,0-2.2-1-2.2-2.2c0-1.2,1-2.2,2.2-2.2c1.2,0,2.2,1,2.2,2.2C36.4,74.8,35.4,75.8,34.2,75.8z"/>
	</g>
	<g>
		<path class="st3" d="M34.2,80.6c-2.3,0-4.2,1.9-4.2,4.2c0,2.3,1.9,4.2,4.2,4.2s4.2-1.9,4.2-4.2C38.4,82.5,36.5,80.6,34.2,80.6z
			 M34.2,87.1c-1.2,0-2.2-1-2.2-2.2c0-1.2,1-2.2,2.2-2.2c1.2,0,2.2,1,2.2,2.2C36.4,86.1,35.4,87.1,34.2,87.1z"/>
	</g>
	<g>
		<path class="st3" d="M71.1,51.6H41.4c-0.6,0-1,0.4-1,1c0,0.6,0.4,1,1,1h29.7c0.6,0,1-0.4,1-1C72.1,52,71.6,51.6,71.1,51.6z"/>
	</g>
	<g>
		<path class="st3" d="M71.1,62.6H41.4c-0.6,0-1,0.4-1,1s0.4,1,1,1h29.7c0.6,0,1-0.4,1-1C72.1,63.1,71.6,62.6,71.1,62.6z"/>
	</g>
	<g>
		<path class="st3" d="M71.1,73.7H41.4c-0.6,0-1,0.4-1,1s0.4,1,1,1h29.7c0.6,0,1-0.4,1-1S71.6,73.7,71.1,73.7z"/>
	</g>
	<g>
		<path class="st3" d="M71.1,84.7H41.4c-0.6,0-1,0.4-1,1s0.4,1,1,1h29.7c0.6,0,1-0.4,1-1S71.6,84.7,71.1,84.7z"/>
	</g>
</g>
</svg>
