<?xml version="1.0" encoding="utf-8"?>
<!-- Generator: Adobe Illustrator 25.1.0, SVG Export Plug-In . SVG Version: 6.00 Build 0)  -->
<svg version="1.1" id="Calque_1" xmlns="http://www.w3.org/2000/svg" xmlns:xlink="http://www.w3.org/1999/xlink" x="0px" y="0px"
	 viewBox="0 0 117.1 121.5" style="enable-background:new 0 0 117.1 121.5;" xml:space="preserve">
<style type="text/css">
	.st0{fill:none;stroke:#A3A29A;stroke-width:0.5;stroke-miterlimit:10;}
	.st1{fill:none;stroke:#00A359;stroke-width:4;stroke-miterlimit:10;}
	.st2{fill:none;stroke:#00A359;stroke-width:2.5;stroke-linecap:round;stroke-linejoin:round;stroke-miterlimit:10;}
	.st3{fill:#002C3F;}
	.st4{fill:none;stroke:#00A359;stroke-width:2;stroke-linecap:round;stroke-linejoin:round;stroke-miterlimit:10;}
	.st5{fill:#00A359;}
	.st6{fill-rule:evenodd;clip-rule:evenodd;fill:#002C3F;}
	.st7{fill-rule:evenodd;clip-rule:evenodd;fill:#00A359;}
	.st8{fill:#00A359;stroke:#FFFFFF;stroke-miterlimit:10;}
	.st9{fill:#002C3F;stroke:#FFFFFF;stroke-width:2;stroke-miterlimit:10;}
	.st10{fill:none;stroke:#002C3F;stroke-width:3;stroke-linecap:round;stroke-linejoin:round;stroke-miterlimit:10;}
	.st11{fill:none;stroke:#00A359;stroke-width:3;stroke-linecap:round;stroke-linejoin:round;stroke-miterlimit:10;}
	.st12{fill:#002C3F;stroke:#FFFFFF;stroke-miterlimit:10;}
	.st13{fill:#00A359;stroke:#FFFFFF;stroke-width:0.5;stroke-miterlimit:10;}
	.st14{fill:#FFFFFF;}
	.st15{fill:none;stroke:#00A359;stroke-width:2.5;stroke-miterlimit:10;}
	.st16{fill:none;}
	.st17{fill:none;stroke:#002C3F;stroke-width:1.8;stroke-miterlimit:10;}
</style>
<g transform="translate(0,-952.36218)">
	<path class="st5" d="M23.8,972.8c-0.9,0-1.6,0.7-1.6,1.6v62.2c0,0.9,0.7,1.6,1.6,1.6h65.3c0.9,0,1.6-0.7,1.6-1.6
		c0-0.9-0.7-1.6-1.6-1.6H25.3v-60.6C25.3,973.5,24.6,972.8,23.8,972.8z"/>
</g>
<path class="st3" d="M70.4,35.2c-1,0-1.6,0.9-1.6,1.6c0,0.8,0.8,1.5,1.6,1.5H79L56.4,59.5c-2.8-2.4-5.7-4.7-8.1-6.8
	c-0.3-0.3-0.8-0.5-1.3-0.5c-0.4,0-0.7,0.2-0.9,0.4l-15.6,14c-0.6,0.5-0.6,1.6-0.1,2.2c0.5,0.6,1.6,0.6,2.2,0.1l14.5-13.1l8.2,6.8
	c0.6,0.6,1.6,0.6,2.2,0l23.8-22.4v8.8c0,0.8,0.7,1.6,1.6,1.6c0.8,0,1.6-0.8,1.6-1.6V36.7c0-0.8-0.7-1.6-1.6-1.6H70.4z"/>
</svg>
