<?xml version="1.0" encoding="utf-8"?>
<!-- Generator: Adobe Illustrator 25.1.0, SVG Export Plug-In . SVG Version: 6.00 Build 0)  -->
<svg version="1.1" id="Calque_1" xmlns="http://www.w3.org/2000/svg" xmlns:xlink="http://www.w3.org/1999/xlink" x="0px" y="0px"
	 viewBox="0 0 102.4 116.1" style="enable-background:new 0 0 102.4 116.1;" xml:space="preserve">
<style type="text/css">
	.st0{fill:none;stroke:#A3A29A;stroke-width:0.5;stroke-miterlimit:10;}
	.st1{fill:none;stroke:#00A359;stroke-width:4;stroke-miterlimit:10;}
	.st2{fill:none;stroke:#00A359;stroke-width:2.5;stroke-linecap:round;stroke-linejoin:round;stroke-miterlimit:10;}
	.st3{fill:#002C3F;}
	.st4{fill:none;stroke:#00A359;stroke-width:2;stroke-linecap:round;stroke-linejoin:round;stroke-miterlimit:10;}
	.st5{fill:#00A359;}
	.st6{fill-rule:evenodd;clip-rule:evenodd;fill:#002C3F;}
	.st7{fill-rule:evenodd;clip-rule:evenodd;fill:#00A359;}
	.st8{fill:#00A359;stroke:#FFFFFF;stroke-miterlimit:10;}
	.st9{fill:#002C3F;stroke:#FFFFFF;stroke-width:2;stroke-miterlimit:10;}
	.st10{fill:none;stroke:#002C3F;stroke-width:3;stroke-linecap:round;stroke-linejoin:round;stroke-miterlimit:10;}
	.st11{fill:none;stroke:#00A359;stroke-width:3;stroke-linecap:round;stroke-linejoin:round;stroke-miterlimit:10;}
	.st12{fill:#002C3F;stroke:#FFFFFF;stroke-miterlimit:10;}
	.st13{fill:#00A359;stroke:#FFFFFF;stroke-width:0.5;stroke-miterlimit:10;}
	.st14{fill:#FFFFFF;}
	.st15{fill:none;stroke:#00A359;stroke-width:2.5;stroke-miterlimit:10;}
	.st16{fill:none;}
	.st17{fill:none;stroke:#002C3F;stroke-width:1.8;stroke-miterlimit:10;}
</style>
<g>
	<g>
		<path class="st6" d="M75.3,55.9c-0.5,0-1.1-0.2-1.4-0.6L71,52.5c-0.8-0.8-0.8-2.1,0-2.9l0.6-0.6c0.1-0.1,0.2-0.3,0.2-0.4
			c0-0.1,0-0.2-0.2-0.4l-3-3c-0.4,0.2-0.8,0.2-1.2,0.2c-2.2,0-4.1-2.3-4.5-2.7l-5.2-5.2c-0.5-0.5-0.7-1.2-0.7-2
			c0.4-4.5-7.1-9.7-11.5-12l-0.8-0.4l0.4-1.8l1,0c12.7,0.3,17.6,5.9,17.8,6.1l7.3,7.3c2.6,2.6,2.8,4.5,2.4,5.6l3.1,3.1
			c0.1,0.1,0.3,0.2,0.4,0.2c0.1,0,0.2,0,0.4-0.2l0.6-0.6c0.8-0.8,2.1-0.8,2.9,0l2.8,2.8c0.8,0.8,0.8,2.1,0,2.9l-6.9,6.9
			C76.3,55.7,75.8,55.9,75.3,55.9L75.3,55.9z M72.8,51.1l2.4,2.4l6.5-6.5l-2.4-2.4L78.9,45c-1.1,1.1-2.9,1.1-4,0l-3.3-3.3
			c-0.6-0.6-0.7-1.4-0.4-2.2c0.2-0.5-0.1-1.6-1.8-3.3L62.1,29c-0.1-0.1-3.3-3.8-11.5-5c3.9,2.7,9,7.1,8.6,11.8c0,0.1,0,0.1,0,0.1
			l5.3,5.3c0.8,1,2.3,2.3,3.1,1.9c0.9-0.4,1.9-0.2,2.5,0.4l3.1,3.1c0.5,0.5,0.8,1.2,0.8,2c0,0.8-0.3,1.5-0.8,2L72.8,51.1L72.8,51.1z
			"/>
		<path class="st6" d="M56.6,51L56.6,51c-0.5,0-1-0.2-1.4-0.6L51.7,47c-0.4-0.4-0.6-0.9-0.6-1.4c0-0.5,0.2-1,0.6-1.4l8-7.7l6.6,6.6
			l-8.4,7.5C57.5,50.9,57,51,56.6,51L56.6,51z M53.6,45.6l3,3l6.4-5.7l-3.2-3.2L53.6,45.6L53.6,45.6z"/>
		<path class="st6" d="M24.8,82.5c-1.2,0-2.4-0.5-3.3-1.4c-0.9-0.9-1.4-2-1.4-3.3c0-1.2,0.5-2.4,1.4-3.3l18.6-18.9
			c0.7-0.7,2-0.7,2.7,0l3.6,3.6c0.7,0.7,0.7,1.9,0,2.7L28.1,81.1C27.2,82,26.1,82.5,24.8,82.5L24.8,82.5z M41.5,57.6L23.2,76.2
			c-0.4,0.4-0.7,1-0.7,1.6c0,0.6,0.2,1.2,0.7,1.6c0.9,0.9,2.4,0.9,3.3,0l18.1-18.9L41.5,57.6L41.5,57.6z"/>
		<path class="st7" d="M73.5,88.3c-2.7,0-4.3-1.8-4.6-2.3l-6.3-6.3c-0.6-0.6-0.4-1.4-0.3-1.8c0.2-0.6,0.4-1.4-1.3-3l-5.3-5.3
			c-0.3,0.1-1,0.2-1.8,0.2c-1.1,0-2.1-0.2-2.9-0.5c-0.6-0.2-1-0.8-1.2-1.4c-0.1-0.7,0.1-1.3,0.5-1.8l11.6-11.6
			c0.4-0.4,0.9-0.6,1.4-0.6c0.8,0,1.5,0.5,1.8,1.2c0.7,1.6,0.5,3.7,0.3,4.8l5.3,5.2c0.9,0.9,1.7,1.4,2.4,1.4c0.2,0,0.4-0.1,0.7-0.1
			c0.2-0.1,0.5-0.1,0.7-0.1c0.5,0,0.9,0.2,1.1,0.4l6.3,6.3c0.4,0.3,2.1,1.8,2.3,4.1c0.2,2.1-0.8,4.3-3,6.5l-1.6,1.6
			C77.5,87.2,75.5,88.3,73.5,88.3L73.5,88.3z M64.5,78.3l6.2,6.2c0,0,1.1,1.4,2.8,1.4c1.4,0,2.8-0.8,4.4-2.4l1.6-1.6
			c1.7-1.7,2.5-3.3,2.4-4.7c-0.1-1.6-1.4-2.5-1.4-2.5l-0.1-0.1l-6.1-6.1c-0.3,0.1-0.7,0.2-1.2,0.2c-1.3,0-2.6-0.7-4-2.1l-5.3-5.3
			c-0.5-0.5-0.7-1.2-0.6-1.8c0.1-0.6,0.2-2,0-3.1L52.3,67.2c0.9,0.2,2.4,0.1,3.1,0c0.7-0.1,1.4,0.1,1.8,0.6l5.3,5.3
			C65.1,75.7,64.7,77.4,64.5,78.3L64.5,78.3z"/>
		<path class="st7" d="M54.6,63.7l-24-24.2l-9.1-4.6c-0.5-0.2-0.9-0.6-1.2-1.1l-3.4-6.1c-0.5-0.9-0.3-2.1,0.4-2.8l3.6-3.6
			c0.7-0.7,1.9-0.9,2.8-0.4l6.1,3.4c0.5,0.3,0.9,0.7,1.1,1.2l4.6,9.1l24.2,24L58,60.2L33.6,36l-4.9-9.7l-6.2-3.4l-3.7,3.6l3.4,6.2
			l0.2,0.1l9.5,4.8l24.2,24.4L54.6,63.7"/>
	</g>
</g>
</svg>
