<?xml version="1.0" encoding="utf-8"?>
<!-- Generator: Adobe Illustrator 25.1.0, SVG Export Plug-In . SVG Version: 6.00 Build 0)  -->
<svg version="1.1" id="Calque_1" xmlns="http://www.w3.org/2000/svg" xmlns:xlink="http://www.w3.org/1999/xlink" x="0px" y="0px"
	 viewBox="0 0 124.3 126.1" style="enable-background:new 0 0 124.3 126.1;" xml:space="preserve">
<style type="text/css">
	.st0{fill:none;stroke:#A3A29A;stroke-width:0.5;stroke-miterlimit:10;}
	.st1{fill:none;stroke:#00A359;stroke-width:4;stroke-miterlimit:10;}
	.st2{fill:none;stroke:#00A359;stroke-width:2.5;stroke-linecap:round;stroke-linejoin:round;stroke-miterlimit:10;}
	.st3{fill:#002C3F;}
	.st4{fill:none;stroke:#00A359;stroke-width:2;stroke-linecap:round;stroke-linejoin:round;stroke-miterlimit:10;}
	.st5{fill:#00A359;}
	.st6{fill-rule:evenodd;clip-rule:evenodd;fill:#002C3F;}
	.st7{fill-rule:evenodd;clip-rule:evenodd;fill:#00A359;}
	.st8{fill:#00A359;stroke:#FFFFFF;stroke-miterlimit:10;}
	.st9{fill:#002C3F;stroke:#FFFFFF;stroke-width:2;stroke-miterlimit:10;}
	.st10{fill:none;stroke:#002C3F;stroke-width:3;stroke-linecap:round;stroke-linejoin:round;stroke-miterlimit:10;}
	.st11{fill:none;stroke:#00A359;stroke-width:3;stroke-linecap:round;stroke-linejoin:round;stroke-miterlimit:10;}
	.st12{fill:#002C3F;stroke:#FFFFFF;stroke-miterlimit:10;}
	.st13{fill:#00A359;stroke:#FFFFFF;stroke-width:0.5;stroke-miterlimit:10;}
	.st14{fill:#FFFFFF;}
	.st15{fill:none;stroke:#00A359;stroke-width:2.5;stroke-miterlimit:10;}
	.st16{fill:none;}
	.st17{fill:none;stroke:#002C3F;stroke-width:1.8;stroke-miterlimit:10;}
</style>
<g>
	<path class="st12" d="M93.1,82.2c0,2.9-2.4,5.4-5.3,5.4H45.3c-2.9,0-5.3-2.5-5.3-5.4V39.7c0-2.9,2.4-5.2,5.3-5.2h24.8V31H45.3
		c-4.9,0-8.8,3.9-8.8,8.8v42.4c0,4.9,4,8.9,8.8,8.9h42.4c4.9,0,8.8-4.1,8.8-8.9V57.5h-3.5L93.1,82.2L93.1,82.2z"/>
	<path class="st13" d="M97.1,30.4c-2.7-2.7-7.3-2.7-10,0L63.3,54.2c-0.2,0.2-0.4,0.5-0.5,0.8l-2.5,10c-0.1,0.6,0,1.2,0.5,1.7
		c0.3,0.3,0.8,0.5,1.2,0.5c0.1,0,0.3,0,0.4-0.1l10-2.5c0.3-0.1,0.6-0.2,0.8-0.5l23.7-23.7c1.3-1.3,2.1-3.1,2.1-5
		C99.1,33.5,98.4,31.8,97.1,30.4z M71.2,61.3L64.5,63l1.7-6.7l19.6-19.6l5,5L71.2,61.3z M94.6,37.9l-1.2,1.2l-5-5l1.2-1.2
		c1.3-1.3,3.7-1.3,5,0c0.7,0.7,1,1.6,1,2.5C95.6,36.4,95.2,37.3,94.6,37.9z"/>
</g>
</svg>
