<?xml version="1.0" encoding="utf-8"?>
<!-- Generator: Adobe Illustrator 25.1.0, SVG Export Plug-In . SVG Version: 6.00 Build 0)  -->
<svg version="1.1" id="Calque_1" xmlns="http://www.w3.org/2000/svg" xmlns:xlink="http://www.w3.org/1999/xlink" x="0px" y="0px"
	 viewBox="0 0 141.1 103.5" style="enable-background:new 0 0 141.1 103.5;" xml:space="preserve">
<style type="text/css">
	.st0{fill:none;stroke:#A3A29A;stroke-width:0.5;stroke-miterlimit:10;}
	.st1{fill:none;stroke:#00A359;stroke-width:4;stroke-miterlimit:10;}
	.st2{fill:none;stroke:#00A359;stroke-width:2.5;stroke-linecap:round;stroke-linejoin:round;stroke-miterlimit:10;}
	.st3{fill:#002C3F;}
	.st4{fill:none;stroke:#00A359;stroke-width:2;stroke-linecap:round;stroke-linejoin:round;stroke-miterlimit:10;}
	.st5{fill:#00A359;}
	.st6{fill-rule:evenodd;clip-rule:evenodd;fill:#002C3F;}
	.st7{fill-rule:evenodd;clip-rule:evenodd;fill:#00A359;}
	.st8{fill:#00A359;stroke:#FFFFFF;stroke-miterlimit:10;}
	.st9{fill:#002C3F;stroke:#FFFFFF;stroke-width:2;stroke-miterlimit:10;}
	.st10{fill:none;stroke:#002C3F;stroke-width:3;stroke-linecap:round;stroke-linejoin:round;stroke-miterlimit:10;}
	.st11{fill:none;stroke:#00A359;stroke-width:3;stroke-linecap:round;stroke-linejoin:round;stroke-miterlimit:10;}
	.st12{fill:#002C3F;stroke:#FFFFFF;stroke-miterlimit:10;}
	.st13{fill:#00A359;stroke:#FFFFFF;stroke-width:0.5;stroke-miterlimit:10;}
	.st14{fill:#FFFFFF;}
	.st15{fill:none;stroke:#00A359;stroke-width:2.5;stroke-miterlimit:10;}
	.st16{fill:none;}
	.st17{fill:none;stroke:#002C3F;stroke-width:1.8;stroke-miterlimit:10;}
</style>
<g>
	<path class="st2" d="M92.2,36.4c15.7,7.5,26.6,23.5,26.6,42.1"/>
	<path class="st2" d="M25.7,78.5c0-25.7,20.9-46.6,46.6-46.6c3.9,0,7.7,0.5,11.3,1.4"/>
	<path class="st3" d="M76.3,73.6C76.3,73.5,76.3,73.5,76.3,73.6l14.9-44.1c0.2-0.5-0.1-1-0.5-1.2c-0.5-0.2-1,0-1.3,0.4L66.2,68.9
		c0,0,0,0.1,0,0.1l0,0c-1.3,2.8,0,6.1,2.8,7.4C71.7,77.6,75,76.4,76.3,73.6L76.3,73.6z M69.7,74.5c-1.8-0.8-2.6-2.9-1.8-4.7
		l18.1-31.4L74.5,72.8C73.6,74.6,71.5,75.3,69.7,74.5z"/>
	<line class="st4" x1="72.3" y1="31.9" x2="72.3" y2="39.2"/>
	<line class="st4" x1="72.3" y1="31.9" x2="72.3" y2="39.2"/>
	<line class="st4" x1="43.5" y1="42.2" x2="48.7" y2="47.4"/>
	<line class="st4" x1="27.2" y1="68.3" x2="34.4" y2="69.7"/>
	<line class="st4" x1="33" y1="54.1" x2="39.8" y2="56.7"/>
	<line class="st4" x1="57.2" y1="34.5" x2="59.9" y2="41"/>
	<line class="st4" x1="110.7" y1="53" x2="104.1" y2="56.3"/>
	<line class="st4" x1="100" y1="41.3" x2="94.8" y2="46.5"/>
	<line class="st4" x1="117.3" y1="68.5" x2="110.1" y2="69.6"/>
</g>
</svg>
