<?xml version="1.0" encoding="utf-8"?>
<!-- Generator: Adobe Illustrator 25.2.1, SVG Export Plug-In . SVG Version: 6.00 Build 0)  -->
<svg version="1.1" xmlns="http://www.w3.org/2000/svg" xmlns:xlink="http://www.w3.org/1999/xlink" x="0px" y="0px"
	 viewBox="0 0 196.4 176.1" style="enable-background:new 0 0 196.4 176.1;" xml:space="preserve">
<style type="text/css">
	.st0{fill:url(#SVGID_1_);}
	.st1{fill:url(#SVGID_2_);}
	.st2{fill:url(#SVGID_3_);}
	.st3{fill:url(#SVGID_4_);}
	.st4{fill:url(#SVGID_5_);}
	.st5{fill:url(#SVGID_6_);}
	.st6{fill:url(#SVGID_7_);}
	.st7{fill:url(#SVGID_8_);}
	.st8{fill:url(#SVGID_9_);}
	.st9{fill:url(#SVGID_10_);}
	.st10{fill:url(#SVGID_11_);}
	.st11{fill:url(#SVGID_12_);}
	.st12{fill:url(#SVGID_13_);}
	.st13{fill:url(#SVGID_14_);}
	.st14{fill:url(#SVGID_15_);}
	.st15{fill:url(#SVGID_16_);}
	.st16{fill:url(#SVGID_17_);}
	.st17{fill:url(#SVGID_18_);}
	.st18{fill:url(#SVGID_19_);}
	.st19{fill:url(#SVGID_20_);}
	.st20{fill:url(#SVGID_21_);}
	.st21{fill:url(#SVGID_22_);}
	.st22{fill:url(#SVGID_23_);}
	.st23{fill:url(#SVGID_24_);}
	.st24{fill:url(#SVGID_25_);}
	.st25{fill:url(#SVGID_26_);}
	.st26{fill:url(#SVGID_27_);}
	.st27{fill:url(#SVGID_28_);}
	.st28{fill:url(#SVGID_29_);}
	.st29{fill:url(#SVGID_30_);}
	.st30{fill:url(#SVGID_31_);}
	.st31{fill:url(#SVGID_32_);}
	.st32{fill:#85D8B5;}
	.st33{fill:url(#SVGID_33_);}
	.st34{fill:#E8E8E8;}
	.st35{opacity:0.6;}
	.st36{fill-rule:evenodd;clip-rule:evenodd;fill:#00A258;}
	.st37{opacity:0.18;}
	.st38{opacity:0.15;}
	.st39{fill:#A3A29A;}
	.st40{fill:none;stroke:#00A359;stroke-width:4;stroke-miterlimit:10;}
	.st41{fill:none;stroke:#00A359;stroke-width:2.5;stroke-linecap:round;stroke-linejoin:round;stroke-miterlimit:10;}
	.st42{fill:#002C3F;}
	.st43{fill:none;stroke:#00A359;stroke-width:2;stroke-linecap:round;stroke-linejoin:round;stroke-miterlimit:10;}
	.st44{fill:#00A359;}
	.st45{fill-rule:evenodd;clip-rule:evenodd;fill:#002C3F;}
	.st46{fill-rule:evenodd;clip-rule:evenodd;fill:#00A359;}
	.st47{fill:none;}
	.st48{fill:#00A359;stroke:#FFFFFF;stroke-miterlimit:10;}
	.st49{fill:none;stroke:#002C3F;stroke-width:1.8;stroke-miterlimit:10;}
	.st50{fill:#FFFFFF;}
	.st51{fill:none;stroke:#00A359;stroke-width:3;stroke-linecap:round;stroke-linejoin:round;stroke-miterlimit:10;}
	.st52{fill:#00A359;stroke:#FFFFFF;stroke-width:0.5;stroke-miterlimit:10;}
	.st53{fill:url(#SVGID_34_);}
	.st54{fill:#F4F4F4;}
	.st55{fill:#FBFCFE;}
	.st56{fill:none;stroke:#FBFCFE;stroke-width:2;stroke-linecap:round;stroke-linejoin:round;stroke-miterlimit:10;}
	.st57{fill:#CCCCCC;}
	.st58{fill:url(#SVGID_35_);}
	.st59{opacity:0.3;fill:#6A7570;}
	.st60{fill:#D5EDE3;}
	.st61{fill:#00A258;}
	.st62{fill:none;stroke:#002C3F;stroke-width:0.75;stroke-linecap:round;stroke-linejoin:round;stroke-miterlimit:10;}
	.st63{fill:#082C3E;}
	.st64{fill:url(#SVGID_36_);}
	.st65{fill:#F6C5B9;}
	.st66{fill:#D3FBF6;}
	.st67{fill:#35B7EE;}
	.st68{fill:#E2BB59;}
	.st69{fill-rule:evenodd;clip-rule:evenodd;fill:url(#SVGID_37_);}
	.st70{opacity:0.7;fill-rule:evenodd;clip-rule:evenodd;fill:#D5EDE3;}
	.st71{fill-rule:evenodd;clip-rule:evenodd;fill:url(#SVGID_38_);}
	.st72{fill:#F5F7FD;}
	.st73{fill:#E6ECF7;}
	.st74{clip-path:url(#SVGID_40_);fill:#E6ECF7;}
	.st75{fill:#C9DBEC;}
	.st76{fill:#BECEEB;}
	.st77{fill:#F2F6FD;}
	.st78{clip-path:url(#SVGID_42_);fill:#DDE7F8;}
	.st79{opacity:0.38;fill:url(#SVGID_43_);}
	.st80{fill:#C5887B;}
	.st81{fill:#663300;}
	.st82{fill:url(#SVGID_44_);}
	.st83{fill:url(#SVGID_45_);}
	.st84{fill:url(#SVGID_46_);}
	.st85{fill:url(#SVGID_47_);}
	.st86{fill:url(#SVGID_48_);}
	.st87{fill:#9BF7D6;}
	.st88{fill:#828282;}
	.st89{fill:#E6ECF8;}
	.st90{fill:#E6ECF9;}
	.st91{fill-rule:evenodd;clip-rule:evenodd;fill:#828282;}
	.st92{fill-rule:evenodd;clip-rule:evenodd;fill:#E6ECF8;}
	.st93{fill:#46586B;}
	.st94{fill:url(#SVGID_49_);}
	.st95{clip-path:url(#SVGID_51_);fill:#E6ECF7;}
	.st96{fill:#956EE1;}
	.st97{fill:url(#SVGID_52_);}
	.st98{opacity:0.3;}
	.st99{fill:url(#SVGID_53_);}
	.st100{fill:none;stroke:#00A359;stroke-linecap:round;stroke-linejoin:round;stroke-miterlimit:10;}
	.st101{fill:#C0ABF4;}
	.st102{fill:#6A7570;}
	.st103{fill:#F0D3C7;}
	.st104{fill:#7C4939;}
	.st105{fill:#1B0E14;}
	.st106{fill:#B5AACC;}
	.st107{fill:#968AB3;}
	.st108{fill:#AF9F98;}
	.st109{fill:#BF7F64;}
	.st110{fill:#212D67;}
	.st111{fill:#F0937B;}
	.st112{fill:#54505D;}
	.st113{fill:#FDFFFF;}
	.st114{fill:#B39D98;}
	.st115{fill:#3A2E40;}
	.st116{fill-rule:evenodd;clip-rule:evenodd;fill:#FFFFFF;}
	.st117{fill-rule:evenodd;clip-rule:evenodd;fill:#006032;}
	.st118{fill:url(#SVGID_54_);}
	.st119{fill:url(#SVGID_55_);}
	.st120{fill:url(#SVGID_56_);}
	.st121{fill:#57CE90;}
	.st122{clip-path:url(#SVGID_58_);fill:#E6ECF7;}
	.st123{fill:url(#SVGID_59_);}
	.st124{fill:#46A578;}
	.st125{fill:#707C79;}
	.st126{fill:#AEBDB9;}
	.st127{fill:#07492A;}
	.st128{fill:url(#SVGID_60_);}
	.st129{fill:#0FDB7A;}
	.st130{fill:url(#SVGID_61_);}
	.st131{fill:url(#SVGID_62_);}
	.st132{fill:url(#SVGID_63_);}
	.st133{fill:url(#SVGID_64_);}
	.st134{fill:url(#SVGID_65_);}
	.st135{fill:#2B435C;}
	.st136{fill:#0E539B;}
	.st137{fill:#EDC5B7;}
	.st138{fill:#517CA5;}
	.st139{fill:#F1BCA7;}
	.st140{fill:#5FB6DC;}
	.st141{fill:#F2CFBD;}
	.st142{fill:#0EDCBF;}
	.st143{fill:#0B7060;}
	.st144{fill:#5F7D83;}
	.st145{fill:#D2F9F5;}
	.st146{fill:#0D9A84;}
	.st147{fill:#074339;}
	.st148{fill:#0DC0A6;}
	.st149{fill:#89F0E5;}
	.st150{fill:#E3E5E4;}
	.st151{fill:#385F66;}
	.st152{fill:#ECAAA9;}
	.st153{fill:#1C6065;}
	.st154{fill:#059B85;}
	.st155{fill:#4DEBDB;}
	.st156{fill:#FDFEFE;}
	.st157{fill:url(#SVGID_66_);}
	.st158{fill:url(#SVGID_67_);}
	.st159{fill:#8B8C8C;}
	.st160{fill:#00755D;}
	.st161{fill:#004537;}
	.st162{fill:url(#SVGID_68_);}
	.st163{fill:#003F36;}
	.st164{fill:#EEF9F6;}
	.st165{opacity:0.38;fill:url(#SVGID_69_);}
	.st166{fill:#008B77;}
	.st167{fill:#077A66;}
	.st168{fill-rule:evenodd;clip-rule:evenodd;fill:#05C2A8;}
	.st169{fill:url(#SVGID_70_);}
	.st170{fill:#FDFDFD;}
	.st171{fill:#DFE6F6;}
	.st172{fill:url(#SVGID_71_);}
	.st173{fill:#002C3F;stroke:#002C3F;stroke-width:0.75;stroke-miterlimit:10;}
	.st174{fill:#00A359;stroke:#00A359;stroke-miterlimit:10;}
	.st175{fill:#002C3F;stroke:#002C3F;stroke-width:0.5;stroke-miterlimit:10;}
	.st176{fill:#EAF2FA;}
	.st177{fill:#12176D;}
	.st178{fill:#4AA1FA;}
	.st179{fill:#F9B7CC;}
	.st180{fill:#B4E0FC;}
	.st181{fill:#113F86;}
	.st182{fill:#093075;}
	.st183{fill:#FB93A7;}
	.st184{fill:#FAB8CC;}
	.st185{fill:#FCDDE6;}
	.st186{fill:#FCEEF5;}
	.st187{fill:#EEF0F4;}
	.st188{fill:#171719;}
	.st189{fill:#F6C52A;}
	.st190{fill:#ECF1F7;}
	.st191{fill:#F8B91B;}
	.st192{fill:#EFE0D3;}
	.st193{fill:#3D325B;}
	.st194{fill:#FCF1E8;}
	.st195{fill:#513027;}
	.st196{opacity:0.4;}
	.st197{opacity:0.4;fill:none;stroke:#00A359;stroke-width:0.25;stroke-miterlimit:10;}
	.st198{fill:none;stroke:#00A359;stroke-width:0.25;stroke-miterlimit:10;}
	.st199{fill:url(#SVGID_72_);}
	.st200{fill:url(#SVGID_73_);}
	.st201{fill:url(#SVGID_74_);}
	.st202{fill:url(#SVGID_75_);}
	.st203{fill:url(#SVGID_76_);}
	.st204{fill:url(#SVGID_77_);}
	.st205{fill:url(#SVGID_78_);}
	.st206{fill:url(#SVGID_79_);}
	.st207{fill:url(#SVGID_80_);}
	.st208{fill:#10166D;}
	.st209{fill:#603209;}
	.st210{fill:#5AB3FA;}
	.st211{fill:#95A3D4;}
	.st212{fill:#0DD375;}
	.st213{fill:#13176D;}
	.st214{fill:#253392;}
	.st215{fill:#EBF2FA;}
	.st216{fill:#026033;}
	.st217{fill:#AD8679;}
	.st218{fill:#FAC5DC;}
	.st219{fill:#B3B7BC;}
	.st220{fill:#FFFFFF;stroke:#BAC0BF;stroke-width:0.5;stroke-miterlimit:10;}
	.st221{fill:#7F8182;}
	.st222{fill:#012D26;}
	.st223{fill:#024C3A;}
	.st224{fill:#02543F;}
	.st225{fill:#045E44;}
	.st226{fill:#05C2A8;}
	.st227{fill:#F9F8F7;}
	.st228{fill:#55A5CA;}
	.st229{fill:#0F2B4C;}
	.st230{fill:#191B22;}
	.st231{fill:#131316;}
	.st232{fill:#EEA98B;}
	.st233{fill:#0A1F3D;}
	.st234{fill:#F4D37D;}
	.st235{fill:#E0977B;}
	.st236{fill:#3F1B0B;}
	.st237{fill:#953928;}
	.st238{fill:#2B3359;}
	.st239{fill:#E9D6D0;}
	.st240{fill:#1D2128;}
	.st241{fill:#0BACBB;}
	.st242{fill:#084A98;}
	.st243{fill:#603524;}
	.st244{fill:#038C4B;}
	.st245{fill:url(#SVGID_81_);}
	.st246{fill:url(#SVGID_82_);}
	.st247{fill:#03723D;}
	.st248{fill:none;stroke:#85D8B5;stroke-width:0.5;stroke-miterlimit:10;}
	.st249{fill:url(#SVGID_83_);}
	.st250{fill:#098446;}
	.st251{fill:none;stroke:#85D8B5;stroke-width:2;stroke-miterlimit:10;}
	.st252{fill:#1BAA63;}
	.st253{fill:url(#SVGID_84_);}
	.st254{fill:url(#SVGID_85_);}
	.st255{fill:url(#SVGID_86_);}
	.st256{fill:url(#SVGID_87_);}
	.st257{fill:url(#SVGID_88_);}
	.st258{fill:url(#SVGID_89_);}
	.st259{fill:url(#SVGID_90_);}
	.st260{fill:url(#SVGID_91_);}
	.st261{fill:url(#SVGID_92_);}
	.st262{fill:url(#SVGID_93_);}
	.st263{fill:url(#SVGID_94_);}
	.st264{fill:url(#SVGID_95_);}
	.st265{fill:url(#SVGID_96_);}
	.st266{fill:url(#SVGID_97_);}
	.st267{fill:url(#SVGID_98_);}
	.st268{fill:url(#SVGID_99_);}
	.st269{fill:none;stroke:#00A359;stroke-width:0.75;stroke-miterlimit:10;}
	.st270{fill:url(#SVGID_100_);}
	.st271{fill:url(#SVGID_101_);}
	.st272{fill:url(#SVGID_102_);}
	.st273{fill:url(#SVGID_103_);}
	.st274{fill:url(#SVGID_104_);}
	.st275{fill:#00A359;stroke:#FFFFFF;stroke-width:1.5;stroke-miterlimit:10;}
	.st276{fill:url(#SVGID_105_);}
	.st277{fill:#20B4CF;}
	.st278{fill:#1BA0BC;}
	.st279{fill:#DB1628;}
	.st280{fill:#C91424;}
	.st281{fill:#3DCCE8;}
	.st282{fill:#36B7D4;}
	.st283{fill:#D69567;}
	.st284{fill:#F9CBA4;}
	.st285{fill:#CF8954;}
	.st286{fill:#EAAC78;}
	.st287{fill:#DFF1F6;}
	.st288{fill:#1386A0;}
	.st289{fill:#2099B9;}
	.st290{fill:#D7403F;}
	.st291{fill:#C12B2B;}
	.st292{fill:#844C27;}
	.st293{fill:#D7996B;}
	.st294{fill:#D7D3CF;}
	.st295{fill:#FDC103;}
	.st296{fill:#FAF9F6;}
	.st297{fill:#A6683D;}
	.st298{fill:#EBAD77;}
	.st299{fill:#FAF8ED;}
	.st300{fill:#EBEBEB;}
	.st301{fill:#E0E0E0;}
	.st302{fill:#2B3288;}
	.st303{fill:#9C9C9E;}
	.st304{fill:#FCD16B;}
	.st305{fill:#CEBDA2;}
	.st306{fill:#454B95;}
	.st307{fill:#D67B88;}
	.st308{fill:#F9C63A;}
	.st309{fill:#33398B;}
	.st310{fill:#EC939D;}
	.st311{fill:#0F1549;}
	.st312{fill:#D21F42;}
	.st313{fill:#A9258E;}
	.st314{fill:#50CAB0;}
	.st315{fill:#FDFDB5;}
	.st316{fill:#FCE2E0;}
	.st317{fill:#FA4863;}
	.st318{fill:#FCC21A;}
	.st319{fill:#077B94;}
	.st320{fill:#06CEC4;}
	.st321{fill:#F1E2E7;}
	.st322{fill:#046A81;}
	.st323{fill:#111229;}
	.st324{fill:#F9C5B7;}
	.st325{fill:#22224B;}
	.st326{fill:#07B9B0;}
	.st327{fill:#E23E56;}
	.st328{fill:#B1BDC5;}
	.st329{fill:#E59D29;}
	.st330{fill:#724527;}
	.st331{fill:#3B2D65;}
	.st332{fill:#2F4079;}
	.st333{fill:#2F4076;}
	.st334{fill:#3A2D66;}
	.st335{fill:#557BCE;}
	.st336{fill:#48224A;}
	.st337{fill:#F5DBD3;}
	.st338{fill:#7A5152;}
	.st339{fill:#F59B7E;}
	.st340{fill:#F7987A;}
	.st341{fill:#F9EBE0;}
	.st342{fill:#708CCB;}
	.st343{fill:#946262;}
	.st344{fill:#607BB8;}
	.st345{fill:#E0F1FB;}
	.st346{fill:#895A49;}
	.st347{fill:none;stroke:#32003D;stroke-width:0.75;stroke-linecap:round;stroke-linejoin:round;stroke-miterlimit:10;}
	.st348{fill:#FCC99B;}
	.st349{fill:#C4CEDD;}
	.st350{fill:#9BA8BA;}
	.st351{fill:#FF5C97;}
	.st352{fill:#FFDF29;}
	.st353{fill:#F9DBAA;}
	.st354{fill:#1A1E1C;}
	.st355{fill:#FFB65B;}
	.st356{clip-path:url(#SVGID_107_);fill:#514FB8;}
	.st357{fill:#F4C084;}
	.st358{fill:#663E1B;}
	.st359{fill:#442610;}
	.st360{fill:#110A04;}
	.st361{fill:#464C5B;}
	.st362{fill:#4D469F;}
	.st363{clip-path:url(#SVGID_109_);fill:#9B7FB5;}
	.st364{fill:#723A01;}
	.st365{fill:#D8D8D8;}
	.st366{fill:#E8AE7E;}
	.st367{fill:#6560B1;}
	.st368{clip-path:url(#SVGID_111_);fill:#9BA8BA;}
	.st369{clip-path:url(#SVGID_113_);fill:#FABB2D;}
	.st370{clip-path:url(#SVGID_115_);}
	.st371{clip-path:url(#SVGID_117_);fill:#DD9900;}
	.st372{fill:#8BD6F5;}
	.st373{fill:#D6EF31;}
	.st374{clip-path:url(#SVGID_119_);fill:#FFFFFF;}
	.st375{fill:#FEFDFD;}
	.st376{fill:#F6B29C;}
	.st377{fill:#DE8D77;}
	.st378{fill:#D3AB9F;}
	.st379{clip-path:url(#SVGID_121_);fill:#2099B9;}
	.st380{opacity:0.38;fill:url(#SVGID_122_);}
	.st381{fill:none;stroke:url(#SVGID_123_);stroke-width:0.5;stroke-miterlimit:10;}
	.st382{fill:url(#SVGID_124_);}
	.st383{fill:none;stroke:url(#SVGID_125_);stroke-width:0.5;stroke-miterlimit:10;}
	.st384{fill:url(#SVGID_126_);}
	.st385{fill:none;stroke:url(#SVGID_127_);stroke-width:0.5;stroke-miterlimit:10;}
	.st386{fill:url(#SVGID_128_);}
	.st387{fill:none;stroke:url(#SVGID_129_);stroke-width:0.5;stroke-miterlimit:10;}
	.st388{fill:url(#SVGID_130_);}
	.st389{opacity:0.81;fill:url(#SVGID_131_);}
	.st390{opacity:0.81;fill:url(#SVGID_132_);}
	.st391{fill:url(#SVGID_133_);}
	.st392{fill:url(#SVGID_134_);}
	.st393{fill:url(#SVGID_135_);}
	.st394{fill:url(#SVGID_136_);}
	.st395{fill:url(#SVGID_137_);}
	.st396{opacity:0.5;fill:#9BF7D6;}
	.st397{fill:url(#SVGID_138_);}
	.st398{fill:#3D2D29;}
	.st399{fill:#FBDF50;}
	.st400{fill:#EAB98E;}
	.st401{fill:#95794A;}
	.st402{fill:#F6D5B6;}
	.st403{fill:#C0B237;}
	.st404{fill:#E7C639;}
	.st405{fill:#CCA735;}
	.st406{fill:#8E8217;}
	.st407{fill:#C6A524;}
	.st408{fill:#F5D83E;}
	.st409{fill:#DAAB7F;}
	.st410{fill:#927848;}
	.st411{fill:#D5AD8A;}
</style>
<g id="Calque_2">
</g>
<g id="Calque_1">
	<g id="Calque_3">
	</g>
	<g>
		<path class="st348" d="M19.1,140.4l-4.3-1.5c0,0-2.6,5.5,3.2,5.7h1.3L19.1,140.4z"/>
		<path class="st349" d="M168,157.5H23.2c-6.1-2.8-8.3-4.7-8.3-4.7H168V157.5z"/>
		<path class="st350" d="M148.1,157.5h10l0.6,8.1c-4.6,1.5-9.5,2.4-9.5,2.4L148.1,157.5z"/>
		<g>
			<g>
				<path class="st34" d="M25.5,158.4c-10.4-3.7-20.8-11.3-20.8-27c0-6.7,2-13.3,5.6-19.1c2.5-4.1,6.2-12.2,9.3-27.5
					c5.2-25.6,15.8-33.3,26.6-34.3c8.8-0.8,11.8,2.4,25.3-24.6s48.8-21.5,48.8-21.5s42.2,4.8,46.7,46.4c0.9,8.5,0,17.5,17.3,29.3
					s2.1,63.7,2.1,63.7s-5.8,17.8-36.4,23.9c-13.2,2.6-26.8,0.9-39.2-4.3c-11.2-4.7-30.6-9.5-56.7-3.6
					C44.6,162,34.7,161.7,25.5,158.4z"/>
			</g>
			<rect x="83.6" y="31.5" class="st50" width="96.4" height="80.3"/>
			
				<rect x="164.3" y="89.7" transform="matrix(-1 -1.804227e-13 1.804227e-13 -1 338.7463 191.2476)" class="st59" width="10.1" height="11.8"/>
			
				<rect x="164.3" y="89.7" transform="matrix(-1 -4.489177e-11 4.489177e-11 -1 338.7463 190.6457)" class="st351" width="10.1" height="11.2"/>
			
				<rect x="115.8" y="86.3" transform="matrix(-0.9833 0.1819 -0.1819 -0.9833 256.3478 160.5003)" class="st59" width="10.1" height="11.5"/>
			
				<rect x="115.3" y="86" transform="matrix(-0.9936 0.1126 -0.1126 -0.9936 250.2929 169.0748)" class="st352" width="10.1" height="11.2"/>
			<path class="st353" d="M94,79.7c0,0-0.6,11.3,3.5,12.5c0,0,1,0.4,1.7,0.6l-2.8,4.7l4.4,2.9l4-0.3l4.2-2.4c0,0,1.6-1.2,1.6-1.4
				c0-0.2,0-3.1,0-3.1V92c0,0-1.9-2.4-1-4.7l2.3-4.2v-4.7l-3.9-1.7c0,0-6.7-2.4-6.9-2.4c-0.3,0.1-5.6,1.9-5.6,1.9L94,79.7z"/>
			<path class="st354" d="M90,72.5c0,0,2.3,0.8,6.7-3.1c0,0,5.8-4.7,11-1.9c0,0,1.3,2.1,2.1,0.6c0,0,0.7-1,0.9,0.7v0.7
				c0,0,0.7,0.9,1.9-0.5c0,0,0.4,0.7,0,1.6c0,0,3.5,1.9,1.8,7.8c-0.7,2.3-2.1,7.4-3.8,8.9l-1.1,0.9l0-2.6c0,0,1.2-0.4,1.9-2.3
				c0,0,0.6-2-0.8-2.4c0,0-1.3-0.2-1.3,1.9v1.5h-1c0,0-0.1-5.4-1.7-5.7c-0.9-0.2-2.5-0.6-3.5,0.5c0,0,0.9-2.4-0.9-1.8
				c-2.6,0.9-6.2,3.8-10.8,2.6c-1.4-0.4-2.9-0.4-4.2-4.2c0,0,2.7,0.7,5-0.5c0.6-0.3,1.9-0.9,1.9-0.9S90.1,74.6,90,72.5z"/>
			<path class="st355" d="M99.2,92.9c0,0,4.1,0.9,7.7-2.2c0,0-2,3.9-8.6,4L99.2,92.9z"/>
			<path class="st353" d="M69.3,112.1c0,0-0.8-2.2-3.7-2.1c-3,0.1-3.8,0.8-5.7,1c-0.7,0.1-3-0.4-3.1-1.5c-0.1-0.6-0.3-1.6-0.7-1.6
				c-0.7,0-1.7,1.3,0.6,4.4c0.9,1.2,2.4,3,7.9,3c1.4,0,3.8,0.1,5.5,1.7l0.6-3.1L69.3,112.1z"/>
			<g>
				<defs>
					<path id="SVGID_106_" d="M25.5,158.4c-10.4-3.7-20.8-11.3-20.8-27c0-6.7,2-13.3,5.6-19.1c2.5-4.1,6.2-12.2,9.3-27.5
						c5.2-25.6,15.8-33.3,26.6-34.3c8.8-0.8,11.8,2.4,25.3-24.6s48.8-21.5,48.8-21.5s42.2,4.8,46.7,46.4c0.9,8.5,0,17.5,17.3,29.3
						s2.1,63.7,2.1,63.7s-5.8,17.8-36.4,23.9c-13.2,2.6-26.8,0.9-39.2-4.3c-11.2-4.7-30.6-9.5-56.7-3.6
						C44.6,162,34.7,161.7,25.5,158.4z"/>
				</defs>
				<clipPath id="SVGID_1_">
					<use xlink:href="#SVGID_106_"  style="overflow:visible;"/>
				</clipPath>
				<path style="clip-path:url(#SVGID_1_);fill:#514FB8;" d="M90.4,141.1c0,0-3.9,21.4-2.6,35.5l3.3,31.1c0,0,4.5,1.2,8.4,0v-25.6
					c0,0,0.4-6.9,2.3-9.5c0,0,4.8,30.7,7.2,36.3h10c0,0-2-22.8-4.1-29.5L118,152c0.2-1.5,0.2-3.1,0-4.6l-0.8-5.6l-7.3-1.5h-11
					L90.4,141.1z"/>
			</g>
			<g>
				<path class="st44" d="M131.2,112.8c-2.1-4.2-6.8-11.8-10-15.9c-1.8-2.3-3-4.3-10.6-5c0,0,0.6,6.7-7.1,7.6
					c-1.1,0.1-2.3,0-3.2-0.6c-1.5-0.8-3-2.5-1.1-6.2c0,0-7.3,0.7-10.4,11.8c0,0-2.9,8.6-5.9,11c-1.7,1.4-2.6,3.5-8.8-1.6l-4.7-3.4
					c-0.4-0.3-0.9-0.1-1,0.3l-1.3,4.8c-0.2,0.6,0.1,1.3,0.6,1.6l12.2,9.2c0,0,3.7,2.5,7.2-1.4l4.4-4.7l-1,20.7
					c0,0,14.3,4.6,26.8,0.7v-8.4l13.9-12.1C131.2,121.3,134.2,118.9,131.2,112.8z M117.6,122.3v-10.3c0,0,0.5,0.3,0.6,0.4
					c1.1,1.1,2.9,2.5,4.5,4.3C122.8,116.6,118.4,120.6,117.6,122.3z"/>
			</g>
			<path class="st216" d="M113.5,108c0,0,0.8,7.8-5.7,16.1c-2.1,2.7-4.3,5.2-11.7,7c0,0,7.6,1.4,21.4-11.2v-7.9L113.5,108z"/>
			<rect x="83.6" y="31.5" class="st44" width="96.4" height="9.2"/>
			<path class="st357" d="M112.5,131.3c0,0-5.6-0.2-6.3,2.3c-0.4,1.2-1.1,4,3.2,4.1c1.5,0,4.3,0.9,5.7-2l1-2.1l-2.6-3.1L112.5,131.3
				z"/>
			<path class="st358" d="M159.2,106.5c0,0-1,10.9,0.2,13.1c1.2,2.2,5.5,0.6,5.5,0.6s2.5,2.8,2,7.8l2.2,1l4.4-3.3
				c0,0,2.9-2.1,2.9-2.2c0-0.2,0.7-2.6,0.7-2.6s-4.6-1.6-4.1-3.7l2.9-4.3c0,0,0.1-1.7-0.2-2.8c-0.3-1-2.2-4.4-2.4-4.6
				s-4.6-3.5-4.6-3.5l-4.7,0.6l-4.4,1.7L159.2,106.5z"/>
			<path class="st359" d="M164.9,120.2c0,0,4,0.5,5.6-0.9l-4.3,3C166.1,122.3,165.7,120.9,164.9,120.2z"/>
			<path class="st360" d="M157.6,100.6c-1.1,0.3-2.8,2.2-0.8,4.7s6.5,1,8.4,0c0.9-0.5,3.7-2.4,4,0.1c0.3,2.6,0.4,2.7,1.9,3.8
				c0,0,0.8,0.1,0.5,2.7c-0.1,0.6-0.2,2.4-0.2,2.4h0.7c0,0,0-3.8,1.9-3.2c1.9,0.6,0.6,2.9,0.6,2.9s-0.3,0.6-1.8,1.3
				c-0.7,0.3-1.3,1-1.4,1.8c-0.1,0.6,0,1.1,0.8,1.1c1.2,0,2.6-1.4,3.2-2.2c0.2-0.2,0.3-0.5,0.4-0.9c0.1-0.6,0.5-1.7,2-2.1
				c2.1-0.5,1-3.2,1-3.2s-0.5-1.4,0.9-2c0.7-0.3,0.9-1,0.9-1.7c0-0.6-0.3-1.1-0.8-1.3c-0.3-0.1-0.6-0.5-0.5-1.2
				c0-0.5,0.1-0.9,0.2-1.3c0.1-0.9-0.6-1.7-1.5-1.7c-0.6,0-1.3-0.1-1.1-0.8c0,0,0.6-2.8-1.3-3.1c0,0-2.4,0.6-2.3-0.8
				c0-0.4,0.2-1.4-1.1-1.4c-1.3,0-1.3,0.7-2.2,1.4c-0.4,0.3-1.3,0.6-1.8-0.6c-0.2-0.4-1.1-0.9-1.8,0.3c0,0-0.7,0.6-1.3-0.1
				c-0.5-0.6-2.3-1.9-3,0.6c-0.1,0.4,0,1.7-1.2,1.2c-1.2-0.4-2.3-0.3-2.5,0.8S159.1,100.2,157.6,100.6z"/>
			<path class="st358" d="M148.1,144.9c0,0-8.3,0.9-10.4-1l-2.4-1.8c0,0-0.5-1.3-3.7,1.8l-2.2,1.4c0,0-0.5,0.9,1.3,0l2.1-0.9l-2,1.8
				c0,0,0.2,1.2,2.1,0l-0.6,1.1c0,0,0.7,0.8,2.3-0.8s2.5,1.6,2.5,1.6s0.3,1.4,4,1.2l8.9-0.4L148.1,144.9z"/>
			<path class="st361" d="M121.5,149.5c-0.1-0.5-7-18.4-7-18.4l2.1-0.6l6.8,18.2v1.4h25.8v2.6h-27.9L121.5,149.5z"/>
			<path class="st348" d="M19.6,140.3l-3.7-1.2c-0.8,2.1-0.7,6.2,2.1,7.3l2.2,0.8L19.6,140.3z"/>
			<path class="st362" d="M18.4,121h36.3c0,0,5.6,0.1,5.6,6.3L60,139.4l-30.4,0.4l-13.5-1.4v-14.6C16.1,123.8,15.7,121,18.4,121z"/>
			<path class="st348" d="M56.5,139.3l3.7-1.2c0.8,2.1,0.7,6.2-2.1,7.3l-2.2,0.8L56.5,139.3z"/>
			<path class="st348" d="M29.2,107.5l1,8.9c0,0,1.9,0.8,1.9,1.4c0,1.6-2.1,2.1-2.1,2.1l2.4,6.3l11.1-2.2V120l0.4-3l1.6-5.9
				c0,0,0.2-5.4-0.5-5.8c-0.7-0.4-8.7-5.2-8.7-5.2l-5.2-2l-1.2,4.8L29.2,107.5z"/>
			<g>
				<defs>
					<path id="SVGID_108_" d="M25.5,158.4c-10.4-3.7-20.8-11.3-20.8-27c0-6.7,2-13.3,5.6-19.1c2.5-4.1,6.2-12.2,9.3-27.5
						c5.2-25.6,15.8-33.3,26.6-34.3c8.8-0.8,11.8,2.4,25.3-24.6s48.8-21.5,48.8-21.5s42.2,4.8,46.7,46.4c0.9,8.5,0,17.5,17.3,29.3
						s2.1,63.7,2.1,63.7s-5.8,17.8-36.4,23.9c-13.2,2.6-26.8,0.9-39.2-4.3c-11.2-4.7-30.6-9.5-56.7-3.6
						C44.6,162,34.7,161.7,25.5,158.4z"/>
				</defs>
				<clipPath id="SVGID_2_">
					<use xlink:href="#SVGID_108_"  style="overflow:visible;"/>
				</clipPath>
				<path style="clip-path:url(#SVGID_2_);fill:#9B7FB5;" d="M30.8,119.6c0,0-11.1-0.1-13.4,9.9l-2.8,9.3c0,0,3.1,2.2,6.7,1.6
					s1.3,18,1.3,18s1.9,5.4,11.6,4.6c0,0,16,0.7,17.3-3.5l1.9-17.7l2.9-2.6l3.7-1.2c0,0-3.1-7.8-3.6-8.4c-0.7-1-2-6.3-5.7-8.2
					c-1.6-0.8-2.5-0.7-4.6-1.4c-0.5-0.2-4.5-1.4-4.5-1.4s0.6,5.1-5,5.2C37,123.9,31.1,124.9,30.8,119.6z"/>
			</g>
			<path class="st364" d="M31.9,118.3c0,0-6.7,1.2-6.7-5.3c0,0-0.9-20.3,12.2-21.1s11.2,22.1,11.2,22.1s-0.2,6.3-6.5,5
				c0,0-1.8-1.2-0.1-2.5c0,0,1.5-0.8,2.2-4.4c0-0.2,0-0.4,0-0.6l-0.1-4.6c0,0-7.9,0.7-12-5.3c0,0-3.2,6.5-0.1,15.4
				C32.2,117.6,32.4,118.2,31.9,118.3z"/>
			<polygon class="st365" points="19.8,152.8 18.4,131.4 57.2,131.4 55.6,152.8 			"/>
			<path class="st366" d="M34.1,118.1c0,0,2.5,0.9,5.6,0C39.7,118.1,36,120.9,34.1,118.1z"/>
			<path class="st367" d="M76.4,143.6h8.7v6.2c0,0-0.2,3-4.4,3c0,0-4.4,0.1-4.4-2.7V143.6z"/>
			<g>
				<path class="st367" d="M88.9,147.5c0.2-3.9-3.8-3.1-3.8-3.1l-0.9,4.8l0.5,1.5C89.3,150.7,88.9,147.5,88.9,147.5z M88.1,147.4
					c0,0-0.1,2.5-3,2.4v-4.6C85.2,145.2,88.3,144.3,88.1,147.4z"/>
			</g>
			<path class="st156" d="M81.1,142.7c-0.1-0.7-0.4-1.3-0.8-1.9c-1-1.3-0.6-2.5,0-3.7c0.5-0.9,1.4-1.7,1.3-2.9
				c0.7,1.1,0.1,2.1-0.4,3c-0.7,1.2-0.9,2.3-0.2,3.6C81.3,141.4,81.5,142,81.1,142.7z"/>
			<circle class="st350" cx="37.4" cy="143.1" r="3"/>
			<g>
				<defs>
					<path id="SVGID_110_" d="M25.5,158.4c-10.4-3.7-20.8-11.3-20.8-27c0-6.7,2-13.3,5.6-19.1c2.5-4.1,6.2-12.2,9.3-27.5
						c5.2-25.6,15.8-33.3,26.6-34.3c8.8-0.8,11.8,2.4,25.3-24.6s48.8-21.5,48.8-21.5s42.2,4.8,46.7,46.4c0.9,8.5,0,17.5,17.3,29.3
						s2.1,63.7,2.1,63.7s-5.8,17.8-36.4,23.9c-13.2,2.6-26.8,0.9-39.2-4.3c-11.2-4.7-30.6-9.5-56.7-3.6
						C44.6,162,34.7,161.7,25.5,158.4z"/>
				</defs>
				<clipPath id="SVGID_3_">
					<use xlink:href="#SVGID_110_"  style="overflow:visible;"/>
				</clipPath>
				<polygon style="clip-path:url(#SVGID_3_);fill:#9BA8BA;" points="120.6,157.5 109,157.5 103.3,229.7 108.3,229.7 				"/>
			</g>
			<g>
				<defs>
					<path id="SVGID_112_" d="M25.5,158.4c-10.4-3.7-20.8-11.3-20.8-27c0-6.7,2-13.3,5.6-19.1c2.5-4.1,6.2-12.2,9.3-27.5
						c5.2-25.6,15.8-33.3,26.6-34.3c8.8-0.8,11.8,2.4,25.3-24.6s48.8-21.5,48.8-21.5s42.2,4.8,46.7,46.4c0.9,8.5,0,17.5,17.3,29.3
						s2.1,63.7,2.1,63.7s-5.8,17.8-36.4,23.9c-13.2,2.6-26.8,0.9-39.2-4.3c-11.2-4.7-30.6-9.5-56.7-3.6
						C44.6,162,34.7,161.7,25.5,158.4z"/>
				</defs>
				<clipPath id="SVGID_4_">
					<use xlink:href="#SVGID_112_"  style="overflow:visible;"/>
				</clipPath>
				<path style="clip-path:url(#SVGID_4_);fill:#FABB2D;" d="M165.4,127.3c0,0,4.9-0.1,11.2-7c0,0,11,6,11.2,20.8
					c0,0-1.6,9.9,0,14.8c0,0,3.3,6.9,1,8.4c-2.3,1.6-4.8,3.2-10.2,3.3c0,0-6.1,0.8-10.8-2.8c0,0-0.7-0.5-0.3-3.6
					c0,0,1.6-7.8,0.9-10.8l-0.1-0.8c0,0-8.7,2.9-18,0.7l-2.5-0.8v-6.1c0,0,5.6-0.8,8.3-0.3c0.9,0.2,5.2,0.1,6.1-2.2
					C162.3,141.1,164.2,129.1,165.4,127.3z"/>
			</g>
			<g>
				<defs>
					<path id="SVGID_114_" d="M25.5,158.4c-10.4-3.7-20.8-11.3-20.8-27c0-6.7,2-13.3,5.6-19.1c2.5-4.1,6.2-12.2,9.3-27.5
						c5.2-25.6,15.8-33.3,26.6-34.3c8.8-0.8,11.8,2.4,25.3-24.6s48.8-21.5,48.8-21.5s42.2,4.8,46.7,46.4c0.9,8.5,0,17.5,17.3,29.3
						s2.1,63.7,2.1,63.7s-5.8,17.8-36.4,23.9c-13.2,2.6-26.8,0.9-39.2-4.3c-11.2-4.7-30.6-9.5-56.7-3.6
						C44.6,162,34.7,161.7,25.5,158.4z"/>
				</defs>
				<clipPath id="SVGID_5_">
					<use xlink:href="#SVGID_114_"  style="overflow:visible;"/>
				</clipPath>
				<g style="clip-path:url(#SVGID_5_);">
					<defs>
						<path id="SVGID_116_" d="M165.4,127.1c0,0,4.9-0.1,11.2-7c0,0,11,6,11.2,20.8c0,0-1.6,9.9,0,14.8c0,0,3.3,6.9,1,8.4
							c-2.3,1.6-4.8,3.2-10.2,3.3c0,0-6.1,0.8-10.8-2.8c0,0-0.7-0.5-0.3-3.6c0,0,1.6-7.8,0.9-10.8l-0.1-0.8c0,0-8.7,2.9-18,0.7
							l-2.5-0.8v-6.1c0,0,4.5,0,8.3-0.3c0.9-0.1,5.2,0.1,6.1-2.2C162.3,141,164.2,129,165.4,127.1z"/>
					</defs>
					<clipPath id="SVGID_6_">
						<use xlink:href="#SVGID_116_"  style="overflow:visible;"/>
					</clipPath>
					<path style="clip-path:url(#SVGID_6_);fill:#DD9900;" d="M179.1,134.2c0,0-2.6,12.7-5.5,14.1c-1.5,0.7-2.8,1.3-5.2,1.3
						l-1.2,15.7l8.1,4l11.2-2.2l2.2-2.9l1.4-1.4c0,0-15.5-0.7-15.1-7.2c0.2-2.5,0-4.3,2.5-9.8C178.9,143.2,179.4,139.5,179.1,134.2z
						"/>
				</g>
			</g>
		</g>
		
			<rect x="92.5" y="47.4" transform="matrix(0.9975 7.011414e-02 -7.011414e-02 0.9975 3.9683 -6.7052)" class="st59" width="10.1" height="11.5"/>
		<rect x="92.8" y="47.1" class="st372" width="10.1" height="11.2"/>
		
			<rect x="133.5" y="68.7" transform="matrix(0.9975 7.011414e-02 -7.011414e-02 0.9975 5.562 -9.5311)" class="st59" width="10.1" height="11.5"/>
		<rect x="133.9" y="68.4" class="st372" width="10.1" height="11.2"/>
		
			<rect x="109.7" y="52.6" transform="matrix(-0.9975 7.011414e-02 -7.011414e-02 -0.9975 233.2653 108.5014)" class="st59" width="10.1" height="11.5"/>
		
			<rect x="109.3" y="52.3" transform="matrix(-1 -4.489177e-11 4.489177e-11 -1 228.6776 115.7839)" class="st373" width="10.1" height="11.2"/>
		
			<rect x="163.2" y="60.9" transform="matrix(-0.9975 7.011414e-02 -7.011414e-02 -0.9975 340.6585 121.3221)" class="st59" width="10.1" height="11.5"/>
		
			<rect x="162.8" y="60.6" transform="matrix(-1 -4.489177e-11 4.489177e-11 -1 335.6208 132.374)" class="st351" width="10.1" height="11.2"/>
		
			<rect x="141.9" y="49.9" transform="matrix(-0.9833 0.1819 -0.1819 -0.9833 301.6248 83.5163)" class="st59" width="10.1" height="11.5"/>
		
			<rect x="141.5" y="49.6" transform="matrix(-0.9936 0.1126 -0.1126 -0.9936 298.3674 93.5304)" class="st352" width="10.1" height="11.2"/>
		
			<rect x="145.4" y="84.4" transform="matrix(0.9833 0.1819 -0.1819 0.9833 18.9062 -25.8715)" class="st59" width="10.1" height="11.5"/>
		
			<rect x="145.9" y="84.1" transform="matrix(0.9936 0.1126 -0.1126 0.9936 11.0553 -16.4142)" class="st373" width="10.1" height="11.2"/>
		
			<rect x="125.3" y="45.8" transform="matrix(-1 -1.804227e-13 1.804227e-13 -1 260.6436 103.3329)" class="st59" width="10.1" height="11.8"/>
		
			<rect x="125.3" y="45.7" transform="matrix(-1 -4.489177e-11 4.489177e-11 -1 260.6436 102.731)" class="st351" width="10.1" height="11.2"/>
		<g>
			<defs>
				<path id="SVGID_118_" d="M25.5,158.4c-10.4-3.7-20.8-11.3-20.8-27c0-6.7,2-13.3,5.6-19.1c2.5-4.1,6.2-12.2,9.3-27.5
					c5.2-25.6,15.8-33.3,26.6-34.3c8.8-0.8,11.8,2.4,25.3-24.6s48.8-21.5,48.8-21.5s42.2,4.8,46.7,46.4c0.9,8.5,0,17.5,17.3,29.3
					s2.1,63.7,2.1,63.7s-5.4,18.4-36.1,24.5c-13.2,2.6-26.5,1.2-37.7-3.5c-9.2-3.9-35.4-10.5-58.5-5
					C43.9,162.3,34.7,161.7,25.5,158.4z"/>
			</defs>
			<clipPath id="SVGID_7_">
				<use xlink:href="#SVGID_118_"  style="overflow:visible;"/>
			</clipPath>
			<polygon style="clip-path:url(#SVGID_7_);fill:#FFFFFF;" points="14.9,152.8 162.9,152.8 162.9,169 114.5,176.3 63.6,164.6 
				36.9,164.6 18.4,162 			"/>
		</g>
	</g>
</g>
</svg>
