<?xml version="1.0" encoding="utf-8"?>
<!-- Generator: Adobe Illustrator 25.2.0, SVG Export Plug-In . SVG Version: 6.00 Build 0)  -->
<svg version="1.1" xmlns="http://www.w3.org/2000/svg" xmlns:xlink="http://www.w3.org/1999/xlink" x="0px" y="0px"
	 viewBox="0 0 214.5 210.2" style="enable-background:new 0 0 214.5 210.2;" xml:space="preserve">
<style type="text/css">
	.st0{display:none;}
	.st1{fill:#E8E8E8;}
	.st2{opacity:0.6;}
	.st3{fill-rule:evenodd;clip-rule:evenodd;fill:#00A258;}
	.st4{opacity:0.18;}
	.st5{opacity:0.15;}
	.st6{fill:url(#SVGID_1_);}
	.st7{fill:url(#SVGID_2_);}
	.st8{fill:#00A359;}
	.st9{fill:#F4F4F4;}
	.st10{fill:url(#SVGID_3_);}
	.st11{fill:#FBFCFE;}
	.st12{fill:none;stroke:#FBFCFE;stroke-width:2;stroke-linecap:round;stroke-linejoin:round;stroke-miterlimit:10;}
	.st13{fill:none;stroke:#002C3F;stroke-width:1.5;stroke-linecap:round;stroke-linejoin:round;stroke-miterlimit:10;}
	.st14{fill:#D5EDE3;}
	.st15{fill:#CCCCCC;}
	.st16{fill:none;stroke:#002C3F;stroke-linecap:round;stroke-linejoin:round;stroke-miterlimit:10;}
	.st17{fill:url(#SVGID_4_);}
	.st18{fill:url(#SVGID_5_);}
	.st19{fill:#002C3F;}
	.st20{fill:#F2B69D;}
	.st21{fill:#2D2332;}
	.st22{fill:#C69787;}
	.st23{fill:url(#SVGID_6_);}
	.st24{fill:#12603B;}
	.st25{fill:#068749;}
	.st26{fill:#044928;}
	.st27{fill:url(#SVGID_7_);}
	.st28{fill:url(#SVGID_8_);}
	.st29{fill:#F9ECB7;}
	.st30{fill:#FCE47E;}
	.st31{fill:url(#SVGID_9_);}
	.st32{fill:url(#SVGID_10_);}
	.st33{fill:url(#SVGID_11_);}
	.st34{fill:url(#SVGID_12_);}
	.st35{fill:none;stroke:#00A359;stroke-width:2;stroke-miterlimit:10;}
	.st36{fill:none;stroke:#002C3F;stroke-width:2;stroke-linecap:round;stroke-linejoin:round;stroke-miterlimit:10;}
	.st37{fill:#A3A29A;}
	.st38{fill:none;stroke:#00A359;stroke-width:4;stroke-miterlimit:10;}
	.st39{fill:none;stroke:#00A359;stroke-width:2.5;stroke-linecap:round;stroke-linejoin:round;stroke-miterlimit:10;}
	.st40{fill:none;stroke:#00A359;stroke-width:2;stroke-linecap:round;stroke-linejoin:round;stroke-miterlimit:10;}
	.st41{fill-rule:evenodd;clip-rule:evenodd;fill:#002C3F;}
	.st42{fill-rule:evenodd;clip-rule:evenodd;fill:#00A359;}
	.st43{fill:none;}
	.st44{fill:#00A359;stroke:#FFFFFF;stroke-miterlimit:10;}
	.st45{fill:none;stroke:#002C3F;stroke-width:1.8;stroke-miterlimit:10;}
	.st46{fill:#FFFFFF;}
	.st47{fill:none;stroke:#00A359;stroke-width:3;stroke-linecap:round;stroke-linejoin:round;stroke-miterlimit:10;}
	.st48{fill:#00A359;stroke:#FFFFFF;stroke-width:0.5;stroke-miterlimit:10;}
	.st49{fill:url(#SVGID_13_);}
	.st50{fill:url(#SVGID_14_);}
	.st51{opacity:0.3;fill:#6A7570;}
	.st52{fill:#00A258;}
	.st53{fill:none;stroke:#002C3F;stroke-width:0.75;stroke-linecap:round;stroke-linejoin:round;stroke-miterlimit:10;}
	.st54{fill:#082C3E;}
	.st55{fill:url(#SVGID_15_);}
	.st56{fill:#F6C5B9;}
	.st57{fill:#D3FBF6;}
	.st58{fill:#35B7EE;}
	.st59{fill:#E2BB59;}
	.st60{fill-rule:evenodd;clip-rule:evenodd;fill:url(#SVGID_16_);}
	.st61{opacity:0.7;fill-rule:evenodd;clip-rule:evenodd;fill:#D5EDE3;}
	.st62{fill-rule:evenodd;clip-rule:evenodd;fill:url(#SVGID_17_);}
	.st63{fill:#212D67;}
	.st64{fill:#956EE1;}
	.st65{fill:#9F7CE3;}
	.st66{fill:#F7C2C3;}
	.st67{fill:#C5B2F1;}
	.st68{fill:#F5F7FD;}
	.st69{fill:#E6ECF7;}
	.st70{clip-path:url(#SVGID_19_);fill:#E6ECF7;}
	.st71{fill:#C9DBEC;}
	.st72{fill:#BECEEB;}
	.st73{fill:#F2F6FD;}
	.st74{clip-path:url(#SVGID_21_);fill:#DDE7F8;}
	.st75{opacity:0.38;fill:url(#SVGID_22_);}
	.st76{fill:#C5887B;}
	.st77{fill:#663300;}
	.st78{fill:url(#SVGID_23_);}
	.st79{fill:#85D8B5;}
	.st80{fill:url(#SVGID_24_);}
	.st81{fill:url(#SVGID_25_);}
	.st82{fill:url(#SVGID_26_);}
	.st83{fill:url(#SVGID_27_);}
	.st84{fill:#9BF7D6;}
	.st85{fill:#828282;}
	.st86{fill:#E6ECF8;}
	.st87{fill:#E6ECF9;}
	.st88{fill-rule:evenodd;clip-rule:evenodd;fill:#828282;}
	.st89{fill-rule:evenodd;clip-rule:evenodd;fill:#E6ECF8;}
	.st90{fill:#46586B;}
	.st91{fill:url(#SVGID_28_);}
	.st92{clip-path:url(#SVGID_30_);fill:#E6ECF7;}
	.st93{fill:url(#SVGID_31_);}
	.st94{opacity:0.3;}
	.st95{fill:url(#SVGID_32_);}
	.st96{fill:none;stroke:#00A359;stroke-linecap:round;stroke-linejoin:round;stroke-miterlimit:10;}
	.st97{fill:#C0ABF4;}
	.st98{fill:#6A7570;}
	.st99{fill:#F0D3C7;}
	.st100{fill:#7C4939;}
	.st101{fill:#1B0E14;}
	.st102{fill:#B5AACC;}
	.st103{fill:#968AB3;}
	.st104{fill:#AF9F98;}
	.st105{fill:#BF7F64;}
	.st106{fill:#F0937B;}
	.st107{fill:#54505D;}
	.st108{fill:#FDFFFF;}
	.st109{fill:#B39D98;}
	.st110{fill:#3A2E40;}
	.st111{fill-rule:evenodd;clip-rule:evenodd;fill:#FFFFFF;}
	.st112{fill-rule:evenodd;clip-rule:evenodd;fill:#006032;}
	.st113{fill:url(#SVGID_33_);}
	.st114{fill:url(#SVGID_34_);}
	.st115{fill:url(#SVGID_35_);}
	.st116{fill:#57CE90;}
	.st117{clip-path:url(#SVGID_37_);fill:#E6ECF7;}
	.st118{fill:url(#SVGID_38_);}
	.st119{fill:#46A578;}
	.st120{fill:#707C79;}
	.st121{fill:#AEBDB9;}
	.st122{fill:#07492A;}
	.st123{fill:url(#SVGID_39_);}
	.st124{fill:#0FDB7A;}
	.st125{fill:url(#SVGID_40_);}
	.st126{fill:url(#SVGID_41_);}
	.st127{fill:url(#SVGID_42_);}
	.st128{fill:url(#SVGID_43_);}
	.st129{fill:url(#SVGID_44_);}
	.st130{fill:#2B435C;}
	.st131{fill:#0E539B;}
	.st132{fill:#EDC5B7;}
	.st133{fill:#517CA5;}
	.st134{fill:#F1BCA7;}
	.st135{fill:#5FB6DC;}
	.st136{fill:#F2CFBD;}
	.st137{fill:#0EDCBF;}
	.st138{fill:#0B7060;}
	.st139{fill:#5F7D83;}
	.st140{fill:#D2F9F5;}
	.st141{fill:#0D9A84;}
	.st142{fill:#074339;}
	.st143{fill:#0DC0A6;}
	.st144{fill:#89F0E5;}
	.st145{fill:#E3E5E4;}
	.st146{fill:#385F66;}
	.st147{fill:#ECAAA9;}
	.st148{fill:#1C6065;}
	.st149{fill:#059B85;}
	.st150{fill:#4DEBDB;}
	.st151{fill:#FDFEFE;}
	.st152{fill:url(#SVGID_45_);}
	.st153{fill:url(#SVGID_46_);}
	.st154{fill:#8B8C8C;}
	.st155{fill:#00755D;}
	.st156{fill:#004537;}
	.st157{fill:url(#SVGID_47_);}
	.st158{fill:#003F36;}
	.st159{fill:#EEF9F6;}
	.st160{opacity:0.38;fill:url(#SVGID_48_);}
	.st161{fill:#008B77;}
	.st162{fill:#077A66;}
	.st163{fill-rule:evenodd;clip-rule:evenodd;fill:#05C2A8;}
	.st164{fill:url(#SVGID_49_);}
	.st165{fill:#FDFDFD;}
	.st166{fill:#DFE6F6;}
	.st167{fill:url(#SVGID_50_);}
	.st168{fill:#002C3F;stroke:#002C3F;stroke-width:0.75;stroke-miterlimit:10;}
	.st169{fill:#00A359;stroke:#00A359;stroke-miterlimit:10;}
	.st170{fill:#002C3F;stroke:#002C3F;stroke-width:0.5;stroke-miterlimit:10;}
	.st171{fill:#EAF2FA;}
	.st172{fill:#12176D;}
	.st173{fill:#4AA1FA;}
	.st174{fill:#F9B7CC;}
	.st175{fill:#B4E0FC;}
	.st176{fill:#113F86;}
	.st177{fill:#093075;}
	.st178{fill:#FB93A7;}
	.st179{fill:#FAB8CC;}
	.st180{fill:#FCDDE6;}
	.st181{fill:#FCEEF5;}
	.st182{fill:#EEF0F4;}
	.st183{fill:#171719;}
	.st184{fill:#F6C52A;}
	.st185{fill:#ECF1F7;}
	.st186{fill:#F8B91B;}
	.st187{fill:#EFE0D3;}
	.st188{fill:#3D325B;}
	.st189{fill:#FCF1E8;}
	.st190{fill:#513027;}
	.st191{opacity:0.4;}
	.st192{opacity:0.4;fill:none;stroke:#00A359;stroke-width:0.25;stroke-miterlimit:10;}
	.st193{fill:none;stroke:#00A359;stroke-width:0.25;stroke-miterlimit:10;}
	.st194{opacity:0.69;}
	.st195{fill:url(#SVGID_51_);}
	.st196{fill:url(#SVGID_52_);}
	.st197{fill:url(#SVGID_53_);}
	.st198{fill:url(#SVGID_54_);}
	.st199{fill:url(#SVGID_55_);}
	.st200{fill:url(#SVGID_56_);}
	.st201{fill:url(#SVGID_57_);}
	.st202{fill:url(#SVGID_58_);}
	.st203{fill:url(#SVGID_59_);}
	.st204{fill:#10166D;}
	.st205{fill:#603209;}
	.st206{fill:#5AB3FA;}
	.st207{fill:#95A3D4;}
	.st208{fill:#0DD375;}
	.st209{fill:#13176D;}
	.st210{fill:#253392;}
	.st211{fill:#EBF2FA;}
	.st212{fill:#026033;}
	.st213{fill:#AD8679;}
	.st214{fill:#FAC5DC;}
	.st215{fill:#B3B7BC;}
	.st216{fill:#FFFFFF;stroke:#BAC0BF;stroke-width:0.5;stroke-miterlimit:10;}
	.st217{opacity:0.5;}
	.st218{fill:#7F8182;}
	.st219{fill:#012D26;}
	.st220{fill:#024C3A;}
	.st221{fill:#02543F;}
	.st222{fill:#045E44;}
	.st223{fill:#05C2A8;}
	.st224{fill:#F9F8F7;}
	.st225{fill:#55A5CA;}
	.st226{fill:#0F2B4C;}
	.st227{fill:#191B22;}
	.st228{fill:#131316;}
	.st229{fill:#EEA98B;}
	.st230{fill:#0A1F3D;}
	.st231{fill:#F4D37D;}
	.st232{fill:#E0977B;}
	.st233{fill:#3F1B0B;}
	.st234{fill:#953928;}
	.st235{fill:#2B3359;}
	.st236{fill:#E9D6D0;}
	.st237{fill:#1D2128;}
	.st238{fill:#0BACBB;}
	.st239{fill:#084A98;}
	.st240{fill:#603524;}
	.st241{fill:#F9DBAA;}
	.st242{fill:#1A1E1C;}
	.st243{fill:#FFB65B;}
	.st244{clip-path:url(#SVGID_61_);fill:#514FB8;}
	.st245{fill:#F4C084;}
	.st246{fill:#663E1B;}
	.st247{fill:#442610;}
	.st248{fill:#110A04;}
	.st249{fill:#464C5B;}
	.st250{fill:#4D469F;}
	.st251{fill:#FCC99B;}
	.st252{fill:#723A01;}
	.st253{clip-path:url(#SVGID_63_);fill:#9B7FB5;}
	.st254{fill:#E2E6F0;}
	.st255{fill:#E8AE7E;}
	.st256{fill:#C4CEDD;}
	.st257{fill:#6560B1;}
	.st258{fill:#9BA8BA;}
	.st259{fill:#FFFEF5;}
	.st260{fill:#2F352D;}
	.st261{clip-path:url(#SVGID_65_);fill:#9BA8BA;}
	.st262{clip-path:url(#SVGID_67_);fill:#FABB2D;}
	.st263{clip-path:url(#SVGID_69_);}
	.st264{clip-path:url(#SVGID_71_);fill:#DD9900;}
	.st265{fill:#038C4B;}
	.st266{fill:url(#SVGID_72_);}
	.st267{fill:url(#SVGID_73_);}
	.st268{fill:#03723D;}
	.st269{fill:none;stroke:#85D8B5;stroke-width:0.5;stroke-miterlimit:10;}
	.st270{fill:url(#SVGID_74_);}
	.st271{fill:#098446;}
	.st272{fill:none;stroke:#85D8B5;stroke-width:2;stroke-miterlimit:10;}
	.st273{fill:#1BAA63;}
	.st274{fill:url(#SVGID_75_);}
	.st275{fill:url(#SVGID_76_);}
	.st276{fill:url(#SVGID_77_);}
	.st277{fill:url(#SVGID_78_);}
	.st278{fill:url(#SVGID_79_);}
	.st279{fill:url(#SVGID_80_);}
	.st280{fill:url(#SVGID_81_);}
	.st281{fill:url(#SVGID_82_);}
	.st282{fill:url(#SVGID_83_);}
	.st283{fill:url(#SVGID_84_);}
	.st284{fill:url(#SVGID_85_);}
	.st285{fill:url(#SVGID_86_);}
	.st286{fill:url(#SVGID_87_);}
	.st287{fill:url(#SVGID_88_);}
	.st288{fill:url(#SVGID_89_);}
	.st289{fill:url(#SVGID_90_);}
	.st290{fill:none;stroke:#00A359;stroke-width:0.75;stroke-miterlimit:10;}
	.st291{fill:url(#SVGID_91_);}
	.st292{fill:url(#SVGID_92_);}
	.st293{fill:url(#SVGID_93_);}
	.st294{fill:url(#SVGID_94_);}
	.st295{fill:url(#SVGID_95_);}
	.st296{fill:#00A359;stroke:#FFFFFF;stroke-width:1.5;stroke-miterlimit:10;}
	.st297{fill:url(#SVGID_96_);}
	.st298{fill:#20B4CF;}
	.st299{fill:#1BA0BC;}
	.st300{fill:#DB1628;}
	.st301{fill:#C91424;}
	.st302{fill:#3DCCE8;}
	.st303{fill:#36B7D4;}
	.st304{fill:#D69567;}
	.st305{fill:#F9CBA4;}
	.st306{fill:#CF8954;}
	.st307{fill:#EAAC78;}
	.st308{fill:#DFF1F6;}
	.st309{fill:#1386A0;}
	.st310{fill:#2099B9;}
	.st311{fill:#D7403F;}
	.st312{fill:#C12B2B;}
	.st313{fill:#844C27;}
	.st314{fill:#D7996B;}
	.st315{fill:#D7D3CF;}
	.st316{fill:#FDC103;}
	.st317{fill:#FAF9F6;}
	.st318{fill:#A6683D;}
	.st319{fill:#EBAD77;}
	.st320{fill:#FAF8ED;}
	.st321{fill:#EBEBEB;}
	.st322{fill:#E0E0E0;}
	.st323{fill:#2B3288;}
	.st324{fill:#9C9C9E;}
	.st325{fill:#FCD16B;}
	.st326{fill:#CEBDA2;}
	.st327{fill:#454B95;}
	.st328{fill:#D67B88;}
	.st329{fill:#F9C63A;}
	.st330{fill:#33398B;}
	.st331{fill:#EC939D;}
	.st332{fill:#0F1549;}
	.st333{fill:#D21F42;}
	.st334{fill:#A9258E;}
	.st335{fill:#50CAB0;}
	.st336{fill:#FDFDB5;}
	.st337{fill:#FCE2E0;}
	.st338{fill:#FA4863;}
	.st339{fill:#FCC21A;}
	.st340{fill:#077B94;}
	.st341{fill:#06CEC4;}
	.st342{fill:#F1E2E7;}
	.st343{fill:#046A81;}
	.st344{fill:#111229;}
	.st345{fill:#F9C5B7;}
	.st346{fill:#22224B;}
	.st347{fill:#07B9B0;}
	.st348{fill:#E23E56;}
	.st349{fill:#B1BDC5;}
	.st350{fill:#E59D29;}
	.st351{fill:#724527;}
	.st352{fill:#3B2D65;}
	.st353{fill:#2F4079;}
	.st354{fill:#2F4076;}
	.st355{fill:#3A2D66;}
	.st356{fill:#557BCE;}
	.st357{fill:#48224A;}
	.st358{fill:#F5DBD3;}
	.st359{fill:#7A5152;}
	.st360{fill:#F59B7E;}
	.st361{fill:#F7987A;}
	.st362{fill:#F9EBE0;}
	.st363{fill:#708CCB;}
	.st364{fill:#946262;}
	.st365{fill:#607BB8;}
	.st366{fill:#1D2F35;}
	.st367{fill:#F9BD9C;}
	.st368{fill:#383F40;}
	.st369{fill:#BC3540;}
	.st370{fill:#E5616D;}
	.st371{fill:#BA7F61;}
	.st372{opacity:0.8;}
	.st373{fill:url(#SVGID_97_);}
	.st374{fill:url(#SVGID_98_);}
	.st375{fill:url(#SVGID_99_);}
	.st376{fill:url(#SVGID_100_);}
	.st377{fill:url(#SVGID_101_);}
	.st378{fill:url(#SVGID_102_);}
	.st379{fill:url(#SVGID_103_);}
	.st380{fill:url(#SVGID_104_);}
	.st381{fill:url(#SVGID_105_);}
	.st382{fill:url(#SVGID_106_);}
	.st383{fill:url(#SVGID_107_);}
	.st384{fill:url(#SVGID_108_);}
	.st385{fill:url(#SVGID_109_);}
	.st386{fill:url(#SVGID_110_);}
	.st387{fill:url(#SVGID_111_);}
	.st388{fill:url(#SVGID_112_);}
	.st389{fill:url(#SVGID_113_);}
	.st390{fill:url(#SVGID_114_);}
	.st391{fill:url(#SVGID_115_);}
	.st392{fill:url(#SVGID_116_);}
	.st393{fill:url(#SVGID_117_);}
	.st394{fill:url(#SVGID_118_);}
	.st395{fill:url(#SVGID_119_);}
	.st396{fill:url(#SVGID_120_);}
	.st397{fill:url(#SVGID_121_);}
	.st398{fill:url(#SVGID_122_);}
	.st399{fill:url(#SVGID_123_);}
	.st400{fill:url(#SVGID_124_);}
	.st401{fill:url(#SVGID_125_);}
	.st402{fill:url(#SVGID_126_);}
	.st403{fill:url(#SVGID_127_);}
	.st404{fill:url(#SVGID_128_);}
	.st405{fill:url(#SVGID_129_);}
	.st406{fill:url(#SVGID_130_);}
	.st407{fill:url(#SVGID_131_);}
	.st408{fill:url(#SVGID_132_);}
	.st409{fill:url(#SVGID_133_);}
	.st410{fill:url(#SVGID_134_);}
	.st411{fill:url(#SVGID_135_);}
	.st412{fill:url(#SVGID_136_);}
	.st413{fill:url(#SVGID_137_);}
	.st414{fill:url(#SVGID_138_);}
	.st415{fill:url(#SVGID_139_);}
	.st416{fill:url(#SVGID_140_);}
	.st417{fill:url(#SVGID_141_);}
	.st418{fill:url(#SVGID_142_);}
	.st419{fill:url(#SVGID_143_);}
	.st420{fill:url(#SVGID_144_);}
	.st421{fill:url(#SVGID_145_);}
	.st422{fill:url(#SVGID_146_);}
	.st423{fill:url(#SVGID_147_);}
	.st424{fill:url(#SVGID_148_);}
	.st425{fill:url(#SVGID_149_);}
	.st426{fill:url(#SVGID_150_);}
	.st427{fill:url(#SVGID_151_);}
	.st428{fill:url(#SVGID_152_);}
	.st429{fill:url(#SVGID_153_);}
	.st430{fill:url(#SVGID_154_);}
	.st431{fill:url(#SVGID_155_);}
	.st432{fill:url(#SVGID_156_);}
	.st433{fill:url(#SVGID_157_);}
	.st434{fill:url(#SVGID_158_);}
	.st435{fill:url(#SVGID_159_);}
	.st436{fill:url(#SVGID_160_);}
	.st437{fill:url(#SVGID_161_);}
	.st438{fill:url(#SVGID_162_);}
	.st439{fill:url(#SVGID_163_);}
	.st440{fill:url(#SVGID_164_);}
	.st441{fill:url(#SVGID_165_);}
	.st442{fill:url(#SVGID_166_);}
	.st443{fill:url(#SVGID_167_);}
	.st444{fill:url(#SVGID_168_);}
	.st445{fill:url(#SVGID_169_);}
	.st446{fill:url(#SVGID_170_);}
	.st447{fill:url(#SVGID_171_);}
	.st448{fill:url(#SVGID_172_);}
	.st449{fill:url(#SVGID_173_);}
	.st450{fill:url(#SVGID_174_);}
	.st451{fill:url(#SVGID_175_);}
	.st452{fill:url(#SVGID_176_);}
	.st453{fill:url(#SVGID_177_);}
	.st454{fill:url(#SVGID_178_);}
	.st455{fill:url(#SVGID_179_);}
	.st456{fill:url(#SVGID_180_);}
	.st457{fill:url(#SVGID_181_);}
	.st458{fill:url(#SVGID_182_);}
	.st459{fill:url(#SVGID_183_);}
	.st460{fill:url(#SVGID_184_);}
	.st461{fill:url(#SVGID_185_);}
	.st462{fill:url(#SVGID_186_);}
	.st463{fill:url(#SVGID_187_);}
	.st464{fill:url(#SVGID_188_);}
	.st465{fill:url(#SVGID_189_);}
	.st466{fill:url(#SVGID_190_);}
	.st467{fill:url(#SVGID_191_);}
	.st468{fill:url(#SVGID_192_);}
	.st469{fill:url(#SVGID_193_);}
	.st470{fill:url(#SVGID_194_);}
	.st471{fill:url(#SVGID_195_);}
	.st472{fill:url(#SVGID_196_);}
	.st473{fill:url(#SVGID_197_);}
	.st474{fill:url(#SVGID_198_);}
	.st475{fill:url(#SVGID_199_);}
	.st476{fill:url(#SVGID_200_);}
	.st477{fill:url(#SVGID_201_);}
	.st478{fill:url(#SVGID_202_);}
	.st479{fill:url(#SVGID_203_);}
	.st480{fill:url(#SVGID_204_);}
	.st481{fill:url(#SVGID_205_);}
	.st482{fill:url(#SVGID_206_);}
	.st483{fill:url(#SVGID_207_);}
	.st484{fill:url(#SVGID_208_);}
	.st485{fill:url(#SVGID_209_);}
	.st486{fill:url(#SVGID_210_);}
	.st487{fill:url(#SVGID_211_);}
	.st488{fill:url(#SVGID_212_);}
	.st489{fill:url(#SVGID_213_);}
	.st490{fill:url(#SVGID_214_);}
	.st491{fill:url(#SVGID_215_);}
	.st492{fill:url(#SVGID_216_);}
	.st493{fill:url(#SVGID_217_);}
	.st494{fill:url(#SVGID_218_);}
	.st495{fill:url(#SVGID_219_);}
	.st496{fill:url(#SVGID_220_);}
	.st497{fill:url(#SVGID_221_);}
	.st498{fill:url(#SVGID_222_);}
	.st499{fill:url(#SVGID_223_);}
	.st500{fill:url(#SVGID_224_);}
	.st501{fill:url(#SVGID_225_);}
	.st502{fill:url(#SVGID_226_);}
	.st503{fill:url(#SVGID_227_);}
	.st504{fill:url(#SVGID_228_);}
	.st505{fill:url(#SVGID_229_);}
	.st506{fill:url(#SVGID_230_);}
	.st507{fill:url(#SVGID_231_);}
	.st508{fill:url(#SVGID_232_);}
	.st509{fill:url(#SVGID_233_);}
	.st510{fill:url(#SVGID_234_);}
	.st511{fill:url(#SVGID_235_);}
	.st512{fill:url(#SVGID_236_);}
	.st513{fill:url(#SVGID_237_);}
	.st514{fill:url(#SVGID_238_);}
	.st515{fill:url(#SVGID_239_);}
	.st516{fill:url(#SVGID_240_);}
	.st517{fill:url(#SVGID_241_);}
	.st518{fill:url(#SVGID_242_);}
	.st519{fill:url(#SVGID_243_);}
	.st520{fill:url(#SVGID_244_);}
	.st521{fill:url(#SVGID_245_);}
	.st522{fill:url(#SVGID_246_);}
	.st523{fill:url(#SVGID_247_);}
	.st524{fill:url(#SVGID_248_);}
	.st525{fill:url(#SVGID_249_);}
	.st526{fill:url(#SVGID_250_);}
	.st527{fill:url(#SVGID_251_);}
	.st528{fill:url(#SVGID_252_);}
	.st529{fill:url(#SVGID_253_);}
	.st530{fill:url(#SVGID_254_);}
	.st531{fill:url(#SVGID_255_);}
	.st532{fill:url(#SVGID_256_);}
	.st533{fill:url(#SVGID_257_);}
	.st534{fill:url(#SVGID_258_);}
	.st535{fill:url(#SVGID_259_);}
	.st536{fill:url(#SVGID_260_);}
	.st537{fill:url(#SVGID_261_);}
	.st538{fill:url(#SVGID_262_);}
	.st539{fill:url(#SVGID_263_);}
	.st540{fill:url(#SVGID_264_);}
	.st541{fill:url(#SVGID_265_);}
	.st542{fill:url(#SVGID_266_);}
	.st543{fill:url(#SVGID_267_);}
	.st544{fill:url(#SVGID_268_);}
	.st545{fill:url(#SVGID_269_);}
	.st546{fill:url(#SVGID_270_);}
	.st547{fill:url(#SVGID_271_);}
	.st548{fill:url(#SVGID_272_);}
	.st549{fill:url(#SVGID_273_);}
	.st550{fill:url(#SVGID_274_);}
	.st551{fill:url(#SVGID_275_);}
	.st552{fill:url(#SVGID_276_);}
	.st553{fill:url(#SVGID_277_);}
	.st554{fill:url(#SVGID_278_);}
	.st555{fill:url(#SVGID_279_);}
	.st556{fill:url(#SVGID_280_);}
	.st557{fill:url(#SVGID_281_);}
	.st558{fill:url(#SVGID_282_);}
	.st559{fill:url(#SVGID_283_);}
	.st560{fill:url(#SVGID_284_);}
	.st561{fill:url(#SVGID_285_);}
	.st562{fill:url(#SVGID_286_);}
	.st563{fill:url(#SVGID_287_);}
	.st564{fill:url(#SVGID_288_);}
	.st565{fill:url(#SVGID_289_);}
	.st566{fill:url(#SVGID_290_);}
	.st567{fill:url(#SVGID_291_);}
	.st568{fill:url(#SVGID_292_);}
	.st569{fill:url(#SVGID_293_);}
	.st570{fill:url(#SVGID_294_);}
	.st571{fill:url(#SVGID_295_);}
	.st572{fill:url(#SVGID_296_);}
	.st573{fill:url(#SVGID_297_);}
	.st574{fill:url(#SVGID_298_);}
	.st575{fill:url(#SVGID_299_);}
	.st576{fill:url(#SVGID_300_);}
	.st577{fill:url(#SVGID_301_);}
	.st578{fill:url(#SVGID_302_);}
	.st579{fill:url(#SVGID_303_);}
	.st580{fill:url(#SVGID_304_);}
	.st581{fill:url(#SVGID_305_);}
	.st582{fill:url(#SVGID_306_);}
	.st583{fill:url(#SVGID_307_);}
	.st584{fill:url(#SVGID_308_);}
	.st585{fill:url(#SVGID_309_);}
	.st586{fill:url(#SVGID_310_);}
	.st587{fill:url(#SVGID_311_);}
	.st588{fill:url(#SVGID_312_);}
	.st589{fill:url(#SVGID_313_);}
	.st590{fill:url(#SVGID_314_);}
	.st591{fill:url(#SVGID_315_);}
	.st592{fill:url(#SVGID_316_);}
	.st593{fill:url(#SVGID_317_);}
	.st594{fill:url(#SVGID_318_);}
	.st595{fill:url(#SVGID_319_);}
	.st596{fill:url(#SVGID_320_);}
	.st597{fill:url(#SVGID_321_);}
	.st598{fill:url(#SVGID_322_);}
	.st599{fill:url(#SVGID_323_);}
	.st600{fill:url(#SVGID_324_);}
	.st601{fill:url(#SVGID_325_);}
	.st602{fill:url(#SVGID_326_);}
	.st603{fill:url(#SVGID_327_);}
	.st604{fill:url(#SVGID_328_);}
	.st605{fill:url(#SVGID_329_);}
	.st606{fill:url(#SVGID_330_);}
	.st607{fill:url(#SVGID_331_);}
	.st608{fill:url(#SVGID_332_);}
	.st609{fill:url(#SVGID_333_);}
	.st610{fill:url(#SVGID_334_);}
	.st611{fill:url(#SVGID_335_);}
	.st612{fill:url(#SVGID_336_);}
	.st613{fill:url(#SVGID_337_);}
	.st614{fill:url(#SVGID_338_);}
	.st615{fill:url(#SVGID_339_);}
	.st616{fill:url(#SVGID_340_);}
	.st617{fill:url(#SVGID_341_);}
	.st618{fill:url(#SVGID_342_);}
	.st619{fill:url(#SVGID_343_);}
	.st620{fill:url(#SVGID_344_);}
	.st621{fill:url(#SVGID_345_);}
	.st622{fill:url(#SVGID_346_);}
	.st623{fill:url(#SVGID_347_);}
	.st624{fill:url(#SVGID_348_);}
	.st625{fill:url(#SVGID_349_);}
	.st626{fill:url(#SVGID_350_);}
	.st627{fill:url(#SVGID_351_);}
	.st628{fill:url(#SVGID_352_);}
	.st629{fill:url(#SVGID_353_);}
	.st630{fill:url(#SVGID_354_);}
	.st631{fill:url(#SVGID_355_);}
	.st632{fill:url(#SVGID_356_);}
	.st633{fill:url(#SVGID_357_);}
	.st634{fill:url(#SVGID_358_);}
	.st635{fill:url(#SVGID_359_);}
	.st636{fill:url(#SVGID_360_);}
	.st637{fill:url(#SVGID_361_);}
	.st638{fill:url(#SVGID_362_);}
	.st639{fill:url(#SVGID_363_);}
	.st640{fill:url(#SVGID_364_);}
	.st641{fill:url(#SVGID_365_);}
	.st642{fill:url(#SVGID_366_);}
	.st643{fill:url(#SVGID_367_);}
	.st644{fill:url(#SVGID_368_);}
	.st645{fill:url(#SVGID_369_);}
	.st646{fill:url(#SVGID_370_);}
	.st647{fill:url(#SVGID_371_);}
	.st648{fill:url(#SVGID_372_);}
	.st649{fill:url(#SVGID_373_);}
	.st650{fill:url(#SVGID_374_);}
	.st651{fill:url(#SVGID_375_);}
	.st652{fill:url(#SVGID_376_);}
	.st653{fill:url(#SVGID_377_);}
	.st654{fill:url(#SVGID_378_);}
	.st655{fill:url(#SVGID_379_);}
	.st656{fill:url(#SVGID_380_);}
	.st657{fill:url(#SVGID_381_);}
	.st658{fill:url(#SVGID_382_);}
	.st659{fill:url(#SVGID_383_);}
	.st660{fill:url(#SVGID_384_);}
	.st661{fill:url(#SVGID_385_);}
	.st662{fill:url(#SVGID_386_);}
	.st663{fill:url(#SVGID_387_);}
	.st664{fill:url(#SVGID_388_);}
	.st665{fill:url(#SVGID_389_);}
	.st666{fill:url(#SVGID_390_);}
	.st667{fill:url(#SVGID_391_);}
	.st668{fill:url(#SVGID_392_);}
	.st669{fill:url(#SVGID_393_);}
	.st670{fill:url(#SVGID_394_);}
	.st671{fill:url(#SVGID_395_);}
	.st672{fill:url(#SVGID_396_);}
	.st673{fill:url(#SVGID_397_);}
	.st674{fill:url(#SVGID_398_);}
	.st675{fill:url(#SVGID_399_);}
	.st676{fill:url(#SVGID_400_);}
	.st677{fill:url(#SVGID_401_);}
	.st678{fill:url(#SVGID_402_);}
	.st679{fill:url(#SVGID_403_);}
	.st680{fill:url(#SVGID_404_);}
	.st681{fill:url(#SVGID_405_);}
	.st682{fill:url(#SVGID_406_);}
	.st683{fill:url(#SVGID_407_);}
	.st684{fill:url(#SVGID_408_);}
	.st685{fill:url(#SVGID_409_);}
	.st686{fill:url(#SVGID_410_);}
	.st687{fill:url(#SVGID_411_);}
	.st688{fill:url(#SVGID_412_);}
	.st689{fill:url(#SVGID_413_);}
	.st690{fill:url(#SVGID_414_);}
	.st691{fill:url(#SVGID_415_);}
	.st692{fill:url(#SVGID_416_);}
	.st693{fill:url(#SVGID_417_);}
	.st694{fill:url(#SVGID_418_);}
	.st695{fill:url(#SVGID_419_);}
	.st696{fill:url(#SVGID_420_);}
	.st697{fill:url(#SVGID_421_);}
	.st698{fill:url(#SVGID_422_);}
	.st699{fill:url(#SVGID_423_);}
	.st700{fill:url(#SVGID_424_);}
	.st701{fill:url(#SVGID_425_);}
	.st702{fill:url(#SVGID_426_);}
	.st703{fill:url(#SVGID_427_);}
	.st704{fill:url(#SVGID_428_);}
	.st705{fill:url(#SVGID_429_);}
	.st706{fill:url(#SVGID_430_);}
	.st707{fill:url(#SVGID_431_);}
	.st708{fill:url(#SVGID_432_);}
	.st709{fill:url(#SVGID_433_);}
	.st710{fill:url(#SVGID_434_);}
	.st711{fill:url(#SVGID_435_);}
	.st712{fill:url(#SVGID_436_);}
	.st713{fill:url(#SVGID_437_);}
	.st714{fill:url(#SVGID_438_);}
	.st715{fill:url(#SVGID_439_);}
	.st716{fill:url(#SVGID_440_);}
	.st717{fill:url(#SVGID_441_);}
	.st718{fill:url(#SVGID_442_);}
	.st719{fill:url(#SVGID_443_);}
	.st720{fill:url(#SVGID_444_);}
	.st721{fill:#E0F1FB;}
	.st722{fill:#895A49;}
	.st723{fill:none;stroke:#32003D;stroke-width:0.75;stroke-linecap:round;stroke-linejoin:round;stroke-miterlimit:10;}
</style>
<g id="Calque_2" class="st0">
</g>
<g id="Calque_1">
	<path class="st73" d="M99.1,101.1l84.1,50.8l-43,24.2c0,0-43.7,19.5-51.8-12.7c-1.5-6.2-0.9-7.7-24.7-5.9c0,0-13.8,2.2-16.4-12
		c-0.6-3.5-2.5-8.8-11.8-7.7L99.1,101.1z"/>
	<g>
		<defs>
			<path id="SVGID_20_" d="M99.1,101.1l84.1,50.8l-43,24.2c0,0-43.7,19.5-51.8-12.7c-1.5-6.2-0.9-7.7-24.7-5.9c0,0-13.8,2.2-16.4-12
				c-0.6-3.5-2.5-8.8-11.8-7.7L99.1,101.1z"/>
		</defs>
		<clipPath id="SVGID_1_">
			<use xlink:href="#SVGID_20_"  style="overflow:visible;"/>
		</clipPath>
		<path style="clip-path:url(#SVGID_1_);fill:#DDE7F8;" d="M88.9,146.7l-35.1,10.1l19.1,7.5c0,0,7.3,2.1,7.7,2.2
			c0.3,0.1,8.4-5.1,8.4-5.1l13.5-10.8l-1-2.2c0,0-10.8,6-19.5,5.3c0,0-0.7-1,1.6-1.5l11.5-5l-1.3-1.7L88.9,146.7z"/>
	</g>
	<linearGradient id="SVGID_2_" gradientUnits="userSpaceOnUse" x1="53.5" y1="67.5963" x2="81.653" y2="120.886">
		<stop  offset="0" style="stop-color:#00A093"/>
		<stop  offset="1" style="stop-color:#00A359"/>
	</linearGradient>
	<path style="opacity:0.38;fill:url(#SVGID_2_);" d="M75.6,122.6l-17.8-10.7c-0.8-0.5-1.3-1.3-1.3-2.2V69.9c0-2,2.2-3.3,4-2.2
		l17.8,10.7c0.8,0.5,1.3,1.3,1.3,2.2v39.7C79.6,122.4,77.3,123.6,75.6,122.6z"/>
	<path class="st76" d="M93.7,145.5c0,0-1.9,1.2-2.5,1.5c-0.6,0.3-0.4,0.8,0.2,0.8c0.6,0,3.5-0.6,3.5-0.6l0.2-1.4L93.7,145.5z"/>
	<path class="st76" d="M101.4,148.4c0,0-0.9,1.8-1,2.8s0.3,1,0.5,1c0.2,0,0.7-0.6,0.9-0.8s0.5-0.7,0.7-0.8c0.1-0.1,0.3-0.5,0.4-0.8
		c0.1-0.3,0.4-0.6,0.3-1.1c-0.1-0.4-0.2-1.1-0.2-1.1L101.4,148.4z"/>
	<path class="st19" d="M96,117.3c0,0-4,18.8-2.4,27.5l0.2,0.7l1.5,0.3c0,0-0.2-17.7,4.2-22.6c0,0,1-0.7,1,0.8c0,0,0.5,20.6,1,24.4
		c0,0,1.3,0.5,2.4,0l1.3-30l-3.3-0.8L96,117.3z"/>
	<path class="st56" d="M95.5,92c0,0-0.1,6.3,2.8,5.6l0-0.6l-0.2,2.8c0,0,1.3,1.8,1.7,1.6c0.4-0.2,2.2-0.7,2.2-0.7l0.6-1.2v-2.1
		c0,0-1.6-0.1-1.7-1.4l0.5-1.5c0,0,0.1-0.8-0.1-0.9s-1.8-1.3-1.8-1.3s-2.4-1.2-2.6-1.3c-0.2-0.1-0.6-0.1-0.6-0.1L95.5,92z"/>
	<path class="st77" d="M95.8,89.6c0.8-0.6,2.7-1.3,4.1-0.5c1,0.6,2.8,1.4,2.7,4c0,0.6-0.2,1.6-0.5,2.2c-0.3,0.6-1.1,0.6-1.1,0.6
		c-0.3-0.9,0.2-1.4,0.2-1.4s0.3-0.5,0.2-0.8c-0.1-0.3-0.2-0.4-0.6-0.4c-0.4,0.1-0.3,0.2-0.4,0.4s-0.2,0.2-0.4,0.2
		c-0.2,0-0.4-0.1-0.4-0.3s0.1-0.4,0-0.6c-0.1-0.2,0-0.3-0.3-0.5c-0.2-0.2-1.9-0.6-2.8,0c-0.4,0.3-1.2,0-1.4-1.1
		C94.9,91,95.2,90.1,95.8,89.6z"/>
	<path class="st56" d="M95.6,104.6l-0.4,4.2c0,0-6.8-2.5-7.3-3.5s-0.3-0.7-0.5-1.3s-0.6-1-0.9-1.2c-0.2-0.2-1-0.5-1-0.5
		s-0.5,0.4,0,1.4c0.5,1.1,0.3,1.2,0.8,1.9c0.5,0.7,0.4,0.5,1.2,1.1c0.8,0.6,7.2,3.9,7.2,3.9s1.5,0.7,2.6,0c1.2-0.7,0.6-4.5,0.6-4.5
		s-0.3-1.8-0.4-1.8C97.3,104.1,95.6,104.6,95.6,104.6z"/>
	<linearGradient id="SVGID_3_" gradientUnits="userSpaceOnUse" x1="106.3072" y1="118.0944" x2="93.6197" y2="94.5771">
		<stop  offset="1.135641e-02" style="stop-color:#D5EDE3"/>
		<stop  offset="0.118" style="stop-color:#C7E8DB"/>
		<stop  offset="0.3214" style="stop-color:#A1DBC6"/>
		<stop  offset="0.6005" style="stop-color:#63C5A5"/>
		<stop  offset="0.9412" style="stop-color:#0FA777"/>
		<stop  offset="1" style="stop-color:#00A26F"/>
	</linearGradient>
	<path class="st10" d="M97.3,97c-0.3,0-0.7,0.2-0.8,0.5c-0.5,0.8-1.4,2.5-1.2,5.5v1.8c0,0,0.2,0.3,1.5,0.2c0,0-0.3,10.2-0.9,12.4
		l1.1,0.6c0.1,0,0.2,0.1,0.2,0.1c0,0,1.3,0.4,1.7,0.6c0.4,0.1,0.8,0.2,1.3,0.3c0.5,0.1,0.7,0.1,1.8,0.1c0.8,0,2.6-0.3,3.8-1.1
		l-0.1-6.7l-0.1-4.2c0,0,1.8,0.1,2.7-0.5c0,0-0.6-5.3-2.3-7c-0.7-0.7-1.2-1.8-3.9-2.3c0,0,0.1,3.3-2.1,3.2c0,0-1.8-0.2-1.7-2.5
		c0-0.3,0-1,0-1h0.1L97.3,97z"/>
	<path class="st56" d="M105.7,107c0,0,0.9,2.1,0.6,2.6c-0.6,0.9-4,3.8-6.7,4.8c0,0,0,0.5-2.1,0.2c0,0-1.4,0.8-1.1,1.5
		c0,0,0.4,1,1.6,0.3c0,0,0.2-0.7,1.7-1.1c0,0,6.4-1.9,7.8-3.6c0,0,1.4-1,1-3.7c-0.1-0.4-0.3-1.6-0.3-1.6l-0.4,0.1
		c-0.5,0.1-0.8,0.2-1.8,0.3C105.8,107,105.7,107,105.7,107z"/>
	<path class="st79" d="M113.1,128.8l2.6-1.9c0.8-0.5,1.9-0.6,2.7-0.1l14.8,8.9c0.8,0.5,1.3,1.3,1.3,2.3v17.5c0,1-0.6,1.9-1.4,2.3
		l-2.7,1.4l-14.3-27.9L113.1,128.8z"/>
	<linearGradient id="SVGID_4_" gradientUnits="userSpaceOnUse" x1="112.9114" y1="143.7864" x2="131.2831" y2="143.7864">
		<stop  offset="0" style="stop-color:#00A093"/>
		<stop  offset="1" style="stop-color:#00A359"/>
	</linearGradient>
	<path class="st17" d="M129.7,159l-16.2-9.5c-0.3-0.2-0.6-0.5-0.6-0.9v-19.2c0-0.8,0.9-1.3,1.6-0.9l16.2,9.7
		c0.3,0.2,0.5,0.5,0.5,0.9v19C131.3,158.9,130.4,159.4,129.7,159z"/>
	<path class="st79" d="M74.7,45.2l2.6-1.9c0.8-0.5,1.9-0.6,2.7-0.1l14.8,8.9c0.8,0.5,1.3,1.3,1.3,2.3v17.5c0,1-0.6,1.9-1.4,2.3
		L92,75.6L77.6,47.8L74.7,45.2z"/>
	<linearGradient id="SVGID_5_" gradientUnits="userSpaceOnUse" x1="74.438" y1="60.2245" x2="92.8097" y2="60.2245">
		<stop  offset="0" style="stop-color:#00A093"/>
		<stop  offset="1" style="stop-color:#00A359"/>
	</linearGradient>
	<path class="st18" d="M91.2,75.5L75,66c-0.3-0.2-0.6-0.5-0.6-0.9V45.9c0-0.8,0.9-1.3,1.6-0.9l16.2,9.7c0.3,0.2,0.5,0.5,0.5,0.9v19
		C92.8,75.4,91.9,75.9,91.2,75.5z"/>
	<path class="st79" d="M27.8,73.5l2.6-1.9c0.8-0.5,1.9-0.6,2.7-0.1L48,80.4c0.8,0.5,1.3,1.3,1.3,2.3v17.5c0,1-0.6,1.9-1.4,2.3
		l-2.7,1.4L30.8,76L27.8,73.5z"/>
	<linearGradient id="SVGID_6_" gradientUnits="userSpaceOnUse" x1="27.5834" y1="88.4591" x2="45.9551" y2="88.4591">
		<stop  offset="0" style="stop-color:#00A093"/>
		<stop  offset="1" style="stop-color:#00A359"/>
	</linearGradient>
	<path class="st23" d="M44.3,103.7l-16.2-9.5c-0.3-0.2-0.6-0.5-0.6-0.9V74.1c0-0.8,0.9-1.3,1.6-0.9l16.2,9.7
		c0.3,0.2,0.5,0.5,0.5,0.9v19C46,103.6,45.1,104.1,44.3,103.7z"/>
	<g>
		<polygon class="st79" points="81,138.1 83.6,135.9 83.8,131.6 79.8,131.6 79.1,133.3 		"/>
		<path class="st79" d="M59.8,83.7l2.4-1.6c0.9-0.7,2.2-0.7,3.2-0.1l17.4,10.5c0.9,0.5,1.4,1.5,1.4,2.5l0.3,38.8
			c0,2.4-2.8,3.8-4.7,2.3l-9.7-7.6l-7.3-33.8L59.8,83.7z"/>
		<linearGradient id="SVGID_7_" gradientUnits="userSpaceOnUse" x1="56.1062" y1="83.1449" x2="84.2593" y2="136.4346">
			<stop  offset="0" style="stop-color:#00A093"/>
			<stop  offset="1" style="stop-color:#00A359"/>
		</linearGradient>
		<path class="st27" d="M78.2,138.1l-17.8-10.7c-0.8-0.5-1.3-1.3-1.3-2.2V85.5c0-2,2.2-3.3,4-2.2L80.9,94c0.8,0.5,1.3,1.3,1.3,2.2
			v39.7C82.2,137.9,79.9,139.2,78.2,138.1z"/>
		<path class="st84" d="M66.7,93.3l-3.2-2c-0.8-0.5-1.3-1.6-1.2-2.6v0c0.1-0.9,0.9-1.3,1.7-0.8l3.2,2c0.8,0.5,1.3,1.6,1.2,2.6l0,0
			C68.2,93.4,67.4,93.8,66.7,93.3z"/>
	</g>
	<path class="st69" d="M163.6,150c0,0-27,0.9-26.1,7.1s12.6-0.4,15.5-0.3c2.9,0.1,1,2,4,1.2s13.7-8,13.7-8H163.6z"/>
	<path class="st71" d="M160.8,139.9l2.8,10.1c0,0,2.9,2.1,7.2,0l2-10.4l-5.4,0.6c0,0-3.1,0.5-3.4,0.4c-0.3-0.1-0.5-0.8-1-0.9
		C162.7,139.4,160.8,139.9,160.8,139.9z"/>
	<path class="st72" d="M161.7,138.6c0,0-1.8,1-0.8,2.5c1.1,1.5,3.6,2.7,5.6,2.7c2,0.1,4.4-1.2,5.2-2c0.8-0.8,1.9-3,0.7-3.2h-5.6
		H161.7z"/>
	<path class="st8" d="M161.5,132.6c0.2,1.5-1.7,5.2,0,7.5c2.1,2.9,4.2,2.9,6.9,2.2c2.4-0.6,3.7-1.2,4.4-4.5c0.3-1.2,0.6-3.9-0.6-7.7
		c-1.2-3.7-4-5.4-2.4-7.3s4.8-3.9,3.8-8.8s-5.1-3.9-5.3-6.6c-0.2-2.4,0.5-4.1,2.3-7c1.9-2.9,1.8-7.3-1.4-8c-3.2-0.6-6.1,1.5-7.6,5.6
		c-1.5,4-4.4,8.4,1.2,13.8c1.8,1.7,2.6,5.3,0.2,6.4c-2.2,1.1-3.8,3.2-4.2,5.6C158.4,126.8,161.1,128.9,161.5,132.6z"/>
	<g transform="translate(0,-952.36218)">
		<path class="st85" d="M31.1,1030.8c-0.1-0.1-0.3,0-0.3,0.2v13.1c0,0.2,0.1,0.4,0.3,0.5l11.1,6.6c0.1,0.1,0.3,0,0.3-0.2
			c0-0.2-0.1-0.4-0.3-0.5l-10.8-6.4v-12.8C31.4,1031.1,31.3,1030.9,31.1,1030.8z"/>
	</g>
	<path class="st85" d="M39,86.3c-0.2-0.1-0.3,0-0.3,0.2c0,0.2,0.1,0.4,0.3,0.5l1.4,0.9L36.6,90c-0.5-0.8-1-1.6-1.4-2.2
		c-0.1-0.1-0.1-0.2-0.2-0.2c-0.1,0-0.1,0-0.2,0l-2.6,1.4c-0.1,0.1-0.1,0.3,0,0.5c0.1,0.2,0.3,0.3,0.4,0.2l2.5-1.3l1.4,2.3
		c0.1,0.2,0.3,0.3,0.4,0.2l4-2.3v1.9c0,0.2,0.1,0.4,0.3,0.5s0.3,0,0.3-0.2V88c0-0.2-0.1-0.4-0.3-0.5L39,86.3z"/>
	<g>
		<g transform="translate(0,-952.36218)">
			<path class="st86" d="M30.7,1031.1c-0.1-0.1-0.3,0-0.3,0.2v13.1c0,0.2,0.1,0.4,0.3,0.5l11.1,6.6c0.1,0.1,0.3,0,0.3-0.2
				c0-0.2-0.1-0.4-0.3-0.5l-10.8-6.4v-12.8C31,1031.4,30.9,1031.2,30.7,1031.1z"/>
		</g>
		<path class="st86" d="M38.6,86.5c-0.2-0.1-0.3,0-0.3,0.2c0,0.2,0.1,0.4,0.3,0.5l1.4,0.9l-3.8,2.2c-0.5-0.8-1-1.6-1.4-2.2
			c-0.1-0.1-0.1-0.2-0.2-0.2c-0.1,0-0.1,0-0.2,0l-2.6,1.4c-0.1,0.1-0.1,0.3,0,0.5c0.1,0.2,0.3,0.3,0.4,0.2l2.5-1.3l1.4,2.3
			c0.1,0.2,0.3,0.3,0.4,0.2l4-2.3v1.9c0,0.2,0.1,0.4,0.3,0.5c0.1,0.1,0.3,0,0.3-0.2v-2.6c0-0.2-0.1-0.4-0.3-0.5L38.6,86.5z"/>
	</g>
	<g>
		<path class="st85" d="M79.7,56.6l1.6,0.9l0.3-0.8c0,0,0.2-0.1,0.3,0.4l0.6,2.8l1.2-2.9c0,0,0-0.2,0.2-0.1c0,0,0.1,0,0.2,0.4
			l0.6,2.8l0.1-0.4c0,0,0-0.1,0.2-0.1l1.8,1.1c0,0,0.1,0.1,0.2,0.4c0,0,0,0.3-0.2,0.2l-1.7-1l-0.3,0.8c0,0,0,0.1-0.1,0
			c0,0-0.1,0-0.2-0.5L83.9,58l-1.2,2.9c0,0,0,0.2-0.2,0.1c0,0-0.1,0-0.2-0.3l-0.7-3l-0.1,0.4c0,0,0,0.2-0.2,0l-1.7-1
			c0,0-0.2,0-0.2-0.4c0,0,0-0.3,0.2-0.2L79.7,56.6z"/>
		<g>
			<path class="st85" d="M89,70.5c0.1-0.1,0.1-0.3,0-0.5l-2.7-5.4c0.6-0.6,1-1.8,1-3.2c0-3.2-1.8-6.8-4.1-8.2
				c-2.3-1.3-4.1,0.2-4.1,3.4c0,3.2,1.8,6.8,4.1,8.2c1,0.6,2,0.6,2.7,0.1l2.7,5.4c0,0.1,0.1,0.2,0.2,0.2C88.9,70.6,89,70.6,89,70.5z
				 M86.9,61.1c0,2.8-1.6,4.1-3.6,3s-3.6-4.4-3.6-7.2c0-2.8,1.6-4.1,3.6-3C85.3,55.1,86.9,58.3,86.9,61.1z"/>
		</g>
	</g>
	<g>
		<path class="st87" d="M79.4,57l1.6,0.9l0.3-0.8c0,0,0.2-0.1,0.3,0.4l0.6,2.8l1.2-2.9c0,0,0-0.2,0.2-0.1c0,0,0.1,0,0.2,0.4l0.6,2.8
			l0.1-0.4c0,0,0-0.1,0.2-0.1l1.8,1.1c0,0,0.1,0.1,0.2,0.4c0,0,0,0.3-0.2,0.2l-1.7-1l-0.3,0.8c0,0,0,0.1-0.1,0c0,0-0.1,0-0.2-0.5
			l-0.6-2.8l-1.2,2.9c0,0,0,0.2-0.2,0.1c0,0-0.1,0-0.2-0.3l-0.7-3l-0.1,0.4c0,0,0,0.2-0.2,0l-1.7-1c0,0-0.2,0-0.2-0.4
			c0,0,0-0.3,0.2-0.2L79.4,57z"/>
		<g>
			<path class="st87" d="M88.8,70.9c0.1-0.1,0.1-0.3,0-0.5L86,65c0.6-0.6,1-1.8,1-3.2c0-3.2-1.8-6.8-4.1-8.2
				c-2.3-1.3-4.1,0.2-4.1,3.4c0,3.2,1.8,6.8,4.1,8.2c1,0.6,2,0.6,2.7,0.1l2.7,5.4c0,0.1,0.1,0.2,0.2,0.2
				C88.7,70.9,88.7,70.9,88.8,70.9z M86.6,61.5c0,2.8-1.6,4.1-3.6,3c-2-1.2-3.6-4.4-3.6-7.2c0-2.8,1.6-4.1,3.6-3
				C85,55.4,86.6,58.7,86.6,61.5z"/>
		</g>
	</g>
	<g>
		<g>
			<path class="st88" d="M126.2,147.1c-0.1-0.1-0.2-0.2-0.3-0.3l-0.5-0.9c-0.1-0.3-0.1-0.5,0-0.6l0.1-0.1c0,0,0,0,0-0.1
				c0,0,0-0.1,0-0.1l-0.6-1c-0.1,0-0.1,0-0.2-0.1c-0.4-0.2-0.8-0.9-0.8-1.1l-1-1.6c-0.1-0.2-0.1-0.3-0.1-0.5
				c0.1-0.9-1.3-2.8-2.1-3.7l-0.1-0.2l0.1-0.3l0.2,0.1c2.3,1.5,3.2,3.2,3.3,3.2l1.3,2.3c0.5,0.8,0.5,1.2,0.4,1.4l0.6,1
				c0,0,0.1,0.1,0.1,0.1c0,0,0,0,0.1,0l0.1-0.1c0.1-0.1,0.4,0.1,0.5,0.3l0.5,0.9c0.1,0.3,0.1,0.5,0,0.6l-1.3,0.6
				C126.4,147.2,126.3,147.2,126.2,147.1L126.2,147.1z M125.8,145.9l0.5,0.8l1.2-0.6l-0.5-0.8l-0.1,0c-0.2,0.1-0.5-0.1-0.7-0.5
				l-0.6-1c-0.1-0.2-0.1-0.4-0.1-0.5c0-0.1,0-0.3-0.3-0.9l-1.4-2.3c0,0-0.6-1.1-2.1-2.3c0.7,1,1.7,2.4,1.6,3.4c0,0,0,0,0,0l1,1.7
				c0.1,0.3,0.4,0.7,0.6,0.7c0.2,0,0.3,0.2,0.5,0.4l0.6,1c0.1,0.2,0.2,0.3,0.2,0.5C126,145.7,126,145.8,125.8,145.9L125.8,145.9
				L125.8,145.9z"/>
			<path class="st88" d="M122.8,144L122.8,144c-0.1-0.1-0.2-0.2-0.3-0.3l-0.6-1.1c-0.1-0.1-0.1-0.2-0.1-0.4c0-0.1,0-0.2,0.1-0.2
				l1.5-0.6l1.2,2.1l-1.6,0.6C123,144.1,122.9,144.1,122.8,144L122.8,144z M122.2,142.6l0.6,0.9l1.2-0.4l-0.6-1L122.2,142.6
				L122.2,142.6z"/>
			<path class="st88" d="M117,146.7c-0.2-0.1-0.4-0.4-0.6-0.6c-0.2-0.3-0.2-0.6-0.2-0.8s0.1-0.4,0.2-0.5l3.4-1.7
				c0.1-0.1,0.4,0.1,0.5,0.3l0.7,1.1c0.1,0.2,0.1,0.5,0,0.5l-3.4,1.8C117.4,146.9,117.2,146.9,117,146.7L117,146.7z M120,143.6
				l-3.4,1.7c-0.1,0-0.1,0.1-0.1,0.3c0,0.1,0,0.3,0.1,0.4c0.2,0.3,0.4,0.4,0.6,0.4l3.3-1.8L120,143.6L120,143.6z"/>
			<path class="st88" d="M125.9,153.4c-0.5-0.3-0.8-0.9-0.8-1l-1.2-2c-0.1-0.2-0.1-0.3-0.1-0.4c0-0.1,0.1-0.2-0.2-0.8l-1-1.7
				c-0.1,0-0.2-0.1-0.3-0.2c-0.2-0.1-0.4-0.3-0.5-0.4c-0.1-0.1-0.2-0.3-0.2-0.4c0-0.1,0-0.3,0.1-0.3l2.1-1c0.1,0,0.2,0,0.3,0
				c0.1,0.1,0.3,0.3,0.3,0.5c0.1,0.4,0.1,0.8,0.1,1l1,1.7c0.2,0.3,0.3,0.5,0.4,0.5c0,0,0.1,0,0.1,0.1c0,0,0.1,0,0.1,0.1
				c0.1,0.1,0.2,0.1,0.2,0.2l1.2,2c0.1,0.1,0.4,0.6,0.4,1.1c0,0.4-0.2,0.8-0.6,1l-0.3,0.1C126.7,153.7,126.3,153.7,125.9,153.4
				L125.9,153.4z M124.3,150.4l1.1,2c0,0,0.2,0.4,0.5,0.6c0.2,0.2,0.5,0.2,0.8,0l0.3-0.1c0.3-0.1,0.5-0.4,0.4-0.7
				c0-0.3-0.3-0.7-0.3-0.7l0,0l-1.1-1.9c-0.1,0-0.1,0-0.2-0.1c-0.2-0.1-0.5-0.4-0.7-0.9l-1-1.7c-0.1-0.2-0.1-0.3-0.1-0.4
				c0-0.1,0-0.4,0-0.6l-2,1c0.2,0.1,0.4,0.3,0.6,0.4c0.1,0.1,0.2,0.2,0.3,0.3l1,1.7C124.4,149.9,124.3,150.3,124.3,150.4
				L124.3,150.4z"/>
			<path class="st88" d="M122.4,146.3l-4.4-7.6l-1.7-2c-0.1-0.1-0.2-0.2-0.2-0.4l-0.6-1.6c-0.1-0.2-0.1-0.5,0.1-0.5l0.7-0.3
				c0.1-0.1,0.3,0,0.5,0.2l1.1,1.4c0.1,0.1,0.2,0.2,0.2,0.4l0.9,2.4l4.5,7.6l-0.3,0.1l-4.5-7.7l-0.9-2.5l-1.1-1.4l-0.7,0.3l0.6,1.6
				l0,0l1.8,2.1l4.5,7.7L122.4,146.3"/>
		</g>
	</g>
	<g>
		<g>
			<path class="st89" d="M126,147.3c-0.1-0.1-0.2-0.2-0.3-0.3l-0.5-0.9c-0.1-0.3-0.1-0.5,0-0.6l0.1-0.1c0,0,0,0,0-0.1
				c0,0,0-0.1,0-0.1l-0.6-1c-0.1,0-0.1,0-0.2-0.1c-0.4-0.2-0.8-0.9-0.8-1.1l-1-1.6c-0.1-0.2-0.1-0.3-0.1-0.5
				c0.1-0.9-1.3-2.8-2.1-3.7l-0.1-0.2l0.1-0.3l0.2,0.1c2.3,1.5,3.2,3.2,3.3,3.2l1.3,2.3c0.5,0.8,0.5,1.2,0.4,1.4l0.6,1
				c0,0,0.1,0.1,0.1,0.1c0,0,0,0,0.1,0l0.1-0.1c0.1-0.1,0.4,0.1,0.5,0.3l0.5,0.9c0.1,0.3,0.1,0.5,0,0.6l-1.3,0.6
				C126.2,147.3,126.1,147.3,126,147.3L126,147.3z M125.5,146l0.5,0.8l1.2-0.6l-0.5-0.8l-0.1,0c-0.2,0.1-0.5-0.1-0.7-0.5l-0.6-1
				c-0.1-0.2-0.1-0.4-0.1-0.5c0-0.1,0-0.3-0.3-0.9l-1.4-2.3c0,0-0.6-1.1-2.1-2.3c0.7,1,1.7,2.4,1.6,3.4c0,0,0,0,0,0l1,1.7
				c0.1,0.3,0.4,0.7,0.6,0.7c0.2,0,0.3,0.2,0.5,0.4l0.6,1c0.1,0.2,0.2,0.3,0.2,0.5C125.8,145.8,125.7,145.9,125.5,146L125.5,146
				L125.5,146z"/>
			<path class="st89" d="M122.5,144.2L122.5,144.2c-0.1-0.1-0.2-0.2-0.3-0.3l-0.6-1.1c-0.1-0.1-0.1-0.2-0.1-0.4c0-0.1,0-0.2,0.1-0.2
				l1.5-0.6l1.2,2.1l-1.6,0.6C122.7,144.2,122.6,144.2,122.5,144.2L122.5,144.2z M122,142.7l0.6,0.9l1.2-0.4l-0.6-1L122,142.7
				L122,142.7z"/>
			<path class="st89" d="M116.7,146.9c-0.2-0.1-0.4-0.4-0.6-0.6c-0.2-0.3-0.2-0.6-0.2-0.8c0-0.2,0.1-0.4,0.2-0.5l3.4-1.7
				c0.1-0.1,0.4,0.1,0.5,0.3l0.7,1.1c0.1,0.2,0.1,0.5,0,0.5l-3.4,1.8C117.1,147.1,116.9,147,116.7,146.9L116.7,146.9z M119.8,143.8
				l-3.4,1.7c-0.1,0-0.1,0.1-0.1,0.3s0,0.3,0.1,0.4c0.2,0.3,0.4,0.4,0.6,0.4l3.3-1.8L119.8,143.8L119.8,143.8z"/>
			<path class="st89" d="M125.7,153.6c-0.5-0.3-0.8-0.9-0.8-1l-1.2-2c-0.1-0.2-0.1-0.3-0.1-0.4c0-0.1,0.1-0.2-0.2-0.8l-1-1.7
				c-0.1,0-0.2-0.1-0.3-0.2c-0.2-0.1-0.4-0.3-0.5-0.4c-0.1-0.1-0.2-0.3-0.2-0.4c0-0.1,0-0.3,0.1-0.3l2.1-1c0.1,0,0.2,0,0.3,0
				c0.1,0.1,0.3,0.3,0.3,0.5c0.1,0.4,0.1,0.8,0.1,1l1,1.7c0.2,0.3,0.3,0.5,0.4,0.5c0,0,0.1,0,0.1,0.1c0,0,0.1,0,0.1,0.1
				c0.1,0.1,0.2,0.1,0.2,0.2l1.2,2c0.1,0.1,0.4,0.6,0.4,1.1c0,0.4-0.2,0.8-0.6,1l-0.3,0.1C126.4,153.8,126,153.8,125.7,153.6
				L125.7,153.6z M124,150.6l1.1,2c0,0,0.2,0.4,0.5,0.6c0.2,0.2,0.5,0.2,0.8,0l0.3-0.1c0.3-0.1,0.5-0.4,0.4-0.7
				c0-0.3-0.3-0.7-0.3-0.7l0,0l-1.1-1.9c-0.1,0-0.1,0-0.2-0.1c-0.2-0.1-0.5-0.4-0.7-0.9l-1-1.7c-0.1-0.2-0.1-0.3-0.1-0.4
				c0-0.1,0-0.4,0-0.6l-2,1c0.2,0.1,0.4,0.3,0.6,0.4c0.1,0.1,0.2,0.2,0.3,0.3l1,1.7C124.1,150.1,124.1,150.4,124,150.6L124,150.6z"
				/>
			<path class="st89" d="M122.2,146.5l-4.4-7.6l-1.7-2c-0.1-0.1-0.2-0.2-0.2-0.4l-0.6-1.6c-0.1-0.2-0.1-0.5,0.1-0.5l0.7-0.3
				c0.1-0.1,0.3,0,0.5,0.2l1.1,1.4c0.1,0.1,0.2,0.2,0.2,0.4l0.9,2.4l4.5,7.6l-0.3,0.1l-4.5-7.7l-0.9-2.5l-1.1-1.4l-0.7,0.3l0.6,1.6
				l0,0l1.8,2.1l4.5,7.7L122.2,146.5"/>
		</g>
	</g>
	<path class="st56" d="M95.8,94.9c0,0,0.3,2.7,1.2,2.8c0.9,0.1,1.9-0.1,1.9-0.4c0-0.3-0.2-1.3-0.2-1.3l-0.9-1.6L95.8,94.9z"/>
	<g id="Calque_3">
	</g>
</g>
</svg>
