<?xml version="1.0" encoding="utf-8"?>
<!-- Generator: Adobe Illustrator 25.1.0, SVG Export Plug-In . SVG Version: 6.00 Build 0)  -->
<svg version="1.1" id="Calque_1" xmlns="http://www.w3.org/2000/svg" xmlns:xlink="http://www.w3.org/1999/xlink" x="0px" y="0px"
	 viewBox="0 0 127.2 130.3" style="enable-background:new 0 0 127.2 130.3;" xml:space="preserve">
<style type="text/css">
	.st0{fill:none;stroke:#A3A29A;stroke-width:0.5;stroke-miterlimit:10;}
	.st1{fill:none;stroke:#00A359;stroke-width:4;stroke-miterlimit:10;}
	.st2{fill:none;stroke:#00A359;stroke-width:2.5;stroke-linecap:round;stroke-linejoin:round;stroke-miterlimit:10;}
	.st3{fill:#002C3F;}
	.st4{fill:none;stroke:#00A359;stroke-width:2;stroke-linecap:round;stroke-linejoin:round;stroke-miterlimit:10;}
	.st5{fill:#00A359;}
	.st6{fill-rule:evenodd;clip-rule:evenodd;fill:#002C3F;}
	.st7{fill-rule:evenodd;clip-rule:evenodd;fill:#00A359;}
	.st8{fill:#00A359;stroke:#FFFFFF;stroke-miterlimit:10;}
	.st9{fill:#002C3F;stroke:#FFFFFF;stroke-width:2;stroke-miterlimit:10;}
	.st10{fill:none;stroke:#002C3F;stroke-width:3;stroke-linecap:round;stroke-linejoin:round;stroke-miterlimit:10;}
	.st11{fill:none;stroke:#00A359;stroke-width:3;stroke-linecap:round;stroke-linejoin:round;stroke-miterlimit:10;}
	.st12{fill:#002C3F;stroke:#FFFFFF;stroke-miterlimit:10;}
	.st13{fill:#00A359;stroke:#FFFFFF;stroke-width:0.5;stroke-miterlimit:10;}
	.st14{fill:#FFFFFF;}
	.st15{fill:none;stroke:#00A359;stroke-width:2.5;stroke-miterlimit:10;}
	.st16{fill:none;}
	.st17{fill:none;stroke:#002C3F;stroke-width:1.8;stroke-miterlimit:10;}
</style>
<g>
	<path class="st8" d="M31.5,36.5c-3.2,0-5.9,2.7-5.9,5.9v36.1c0,3.2,2.7,5.9,5.9,5.9h36.1l18,13.3c1,0.8,2.5,0.5,3.3-0.5
		c0.3-0.4,0.5-0.9,0.5-1.4V84.3h4.9c3.2,0,5.9-2.7,5.9-5.9V42.4c0-3.2-2.7-5.9-5.9-5.9H31.5z M31.5,41.1h62.8c0.7,0,1.2,0.5,1.2,1.2
		v36.1c0,0.7-0.5,1.2-1.2,1.2h-7.2c-1.3,0-2.3,1-2.3,2.3v9.1l-14.9-11c-0.4-0.3-0.9-0.4-1.4-0.4H31.5c-0.7,0-1.2-0.5-1.2-1.2V42.4
		C30.3,41.6,30.8,41.1,31.5,41.1z"/>
</g>
<circle class="st17" cx="47.2" cy="59.5" r="4.2"/>
<circle class="st17" cx="62.9" cy="59.5" r="4.2"/>
<circle class="st17" cx="78.6" cy="59.5" r="4.2"/>
</svg>
