<?xml version="1.0" encoding="utf-8"?>
<!-- Generator: Adobe Illustrator 25.1.0, SVG Export Plug-In . SVG Version: 6.00 Build 0)  -->
<svg version="1.1" id="Calque_1" xmlns="http://www.w3.org/2000/svg" xmlns:xlink="http://www.w3.org/1999/xlink" x="0px" y="0px"
	 viewBox="0 0 130.8 130.3" style="enable-background:new 0 0 130.8 130.3;" xml:space="preserve">
<style type="text/css">
	.st0{fill:none;stroke:#A3A29A;stroke-width:0.5;stroke-miterlimit:10;}
	.st1{fill:none;stroke:#00A359;stroke-width:4;stroke-miterlimit:10;}
	.st2{fill:none;stroke:#00A359;stroke-width:2.5;stroke-linecap:round;stroke-linejoin:round;stroke-miterlimit:10;}
	.st3{fill:#002C3F;}
	.st4{fill:none;stroke:#00A359;stroke-width:2;stroke-linecap:round;stroke-linejoin:round;stroke-miterlimit:10;}
	.st5{fill:#00A359;}
	.st6{fill-rule:evenodd;clip-rule:evenodd;fill:#002C3F;}
	.st7{fill-rule:evenodd;clip-rule:evenodd;fill:#00A359;}
	.st8{fill:#00A359;stroke:#FFFFFF;stroke-miterlimit:10;}
	.st9{fill:#002C3F;stroke:#FFFFFF;stroke-width:2;stroke-miterlimit:10;}
	.st10{fill:none;stroke:#002C3F;stroke-width:3;stroke-linecap:round;stroke-linejoin:round;stroke-miterlimit:10;}
	.st11{fill:none;stroke:#00A359;stroke-width:3;stroke-linecap:round;stroke-linejoin:round;stroke-miterlimit:10;}
	.st12{fill:#002C3F;stroke:#FFFFFF;stroke-miterlimit:10;}
	.st13{fill:#00A359;stroke:#FFFFFF;stroke-width:0.5;stroke-miterlimit:10;}
	.st14{fill:#FFFFFF;}
	.st15{fill:none;stroke:#00A359;stroke-width:2.5;stroke-miterlimit:10;}
	.st16{fill:none;}
	.st17{fill:none;stroke:#002C3F;stroke-width:1.8;stroke-miterlimit:10;}
</style>
<g>
	<path class="st3" d="M54.7,55.7c-7.7,0-14-6.2-14.1-13.9c0-7.7,6.2-14,13.9-14.1c7.7,0,14,6.2,14.1,13.9c0,0,0,0.1,0,0.1
		C68.6,49.5,62.4,55.7,54.7,55.7z M54.7,30.9c-6,0-10.9,4.8-10.9,10.8c0,6,4.8,10.9,10.8,10.9s10.9-4.8,10.9-10.8c0,0,0,0,0-0.1
		C65.4,35.8,60.6,30.9,54.7,30.9z"/>
	<path class="st5" d="M80.5,91.2c-0.9,0-1.6-0.7-1.6-1.6c0-13.4-10.9-24.3-24.3-24.3c-13.4,0-24.3,10.9-24.3,24.3c0,0,0,0,0,0
		c0,0.9-0.7,1.6-1.6,1.6c-0.9,0-1.6-0.7-1.6-1.6c0-15.2,12.3-27.5,27.5-27.5s27.5,12.3,27.5,27.5C82.1,90.5,81.4,91.2,80.5,91.2z"/>
	<g>
		<path class="st9" d="M101.5,79l-22,22L68.3,89.8c-1.1-1.1-2.9-1.1-4,0c-1.1,1.1-1.1,2.9,0,4L77.4,107c0.5,0.5,1.3,0.9,2,0.9
			s1.5-0.3,2-0.9l24-24c1.1-1.1,1.1-2.9,0-4C104.4,77.9,102.7,77.9,101.5,79z"/>
	</g>
</g>
</svg>
