<svg width="16" height="15" viewBox="0 0 16 15" fill="none" xmlns="http://www.w3.org/2000/svg">
<path d="M16 9.19811V15H12.5561V9.55189C12.5561 8.20755 12.0538 7.28774 10.8341 7.28774C9.90135 7.28774 9.32735 7.92453 9.11211 8.49057C9.04036 8.70283 8.96861 8.98585 8.96861 9.33962V15H5.52466C5.52466 15 5.59641 5.80189 5.52466 4.88208H8.96861V6.29717C9.39911 5.58962 10.2601 4.59906 12.0538 4.59906C14.278 4.59906 16 6.08491 16 9.19811ZM1.93722 0C0.789236 0 0 0.778302 0 1.76887C0 2.75943 0.717488 3.53774 1.86547 3.53774C3.0852 3.53774 3.80269 2.75943 3.80269 1.76887C3.87444 0.707547 3.15695 0 1.93722 0ZM0.215246 15H3.65919V4.88208H0.215246V15Z" fill="#00A359"/>
</svg>
