<svg version="1.1" x="0px" y="0px" width="571" height="264" xmlns="http://www.w3.org/2000/svg" xmlns:xlink="http://www.w3.org/1999/xlink" xmlns:a="http://ns.adobe.com/AdobeSVGViewerExtensions/3.0/" xml:space="preserve"><g transform="translate(351 20.575378417969) scale(2.5317736902757 2.5317737023415) rotate(0 39.498001098633 44.010498046875)"><path d="M73.157,18.884c0,0-1.145-0.292-3.134-0.844c-0.992-0.278-2.197-0.616-3.58-1.004
	c-1.396-0.317-2.963-0.674-4.658-1.094c-0.424-0.103-0.855-0.208-1.297-0.315c-0.449-0.08-0.906-0.162-1.371-0.245
	c-0.927-0.175-1.885-0.354-2.869-0.54c-1.957-0.434-4.062-0.635-6.217-0.948c-1.082-0.13-2.17-0.348-3.293-0.391
	c-1.118-0.076-2.248-0.158-3.387-0.26c-2.271-0.267-4.597-0.186-6.914-0.254c-0.579-0.01-1.159-0.043-1.738-0.041l-1.733,0.07
	c-1.154,0.046-2.304,0.093-3.444,0.138c-1.144,0.015-2.265,0.178-3.38,0.272c-1.115,0.109-2.216,0.217-3.299,0.322
	c-1.085,0.075-2.127,0.289-3.194,0.414c-1.052,0.142-2.042,0.326-3.03,0.48c-0.981,0.189-1.936,0.374-2.858,0.552
	c-0.919,0.203-1.807,0.398-2.66,0.587c-1.688,0.436-3.247,0.824-4.599,1.264c-1.371,0.394-2.523,0.851-3.498,1.18
	c-0.961,0.358-1.701,0.684-2.217,0.885C0.273,19.321,0,19.432,0,19.432s0.25-0.156,0.718-0.449c0.476-0.28,1.145-0.757,2.06-1.244
	c0.922-0.468,2.019-1.111,3.358-1.661c1.316-0.613,2.845-1.197,4.531-1.788c0.85-0.272,1.736-0.557,2.653-0.852
	c0.927-0.257,1.886-0.52,2.88-0.771c0.997-0.227,2.035-0.491,3.076-0.703c1.03-0.206,2.113-0.44,3.225-0.574
	c1.107-0.154,2.232-0.311,3.371-0.47c1.14-0.154,2.292-0.352,3.467-0.373c1.173-0.063,2.354-0.127,3.541-0.19l1.783-0.095
	c0.596-0.01,1.192,0.012,1.789,0.02c2.383,0.101,4.774,0.054,7.105,0.356c2.337,0.225,4.635,0.454,6.825,0.902
	c2.198,0.386,4.322,0.761,6.288,1.332c0.986,0.26,1.947,0.513,2.875,0.758c0.463,0.128,0.917,0.254,1.363,0.377
	c0.439,0.151,0.871,0.3,1.294,0.444c1.691,0.572,3.228,1.125,4.584,1.613c1.34,0.521,2.47,1.063,3.417,1.472
	C72.09,18.379,73.157,18.884,73.157,18.884z" fill="#000000"></path><path d="M78.996,34.445c0,0-0.949-0.704-2.58-1.969c-0.813-0.634-1.8-1.404-2.932-2.287
	c-1.17-0.823-2.485-1.749-3.894-2.78c-0.353-0.256-0.713-0.518-1.081-0.784c-0.384-0.245-0.775-0.494-1.174-0.748
	c-0.791-0.514-1.608-1.045-2.449-1.591c-1.645-1.144-3.514-2.131-5.389-3.24c-0.951-0.531-1.874-1.148-2.896-1.615
	c-1.005-0.495-2.02-1.001-3.032-1.528c-2-1.11-4.18-1.921-6.297-2.863c-0.531-0.23-1.057-0.479-1.591-0.7l-1.63-0.593
	c-1.085-0.396-2.166-0.789-3.238-1.18c-1.063-0.421-2.161-0.699-3.229-1.031c-1.072-0.321-2.132-0.639-3.174-0.951
	c-1.033-0.341-2.079-0.54-3.112-0.827c-1.027-0.269-2.014-0.474-2.987-0.706c-1.954-0.41-3.812-0.768-5.536-1.047
	c-1.727-0.24-3.316-0.476-4.733-0.584c-1.417-0.158-2.657-0.174-3.684-0.239c-1.025-0.034-1.833-0.013-2.386-0.022
	c-0.554-0.002-0.85-0.003-0.85-0.003s0.291-0.05,0.835-0.144c0.546-0.078,1.346-0.268,2.377-0.37c1.031-0.082,2.29-0.26,3.738-0.259
	c1.45-0.066,3.086-0.023,4.87,0.073c0.891,0.071,1.818,0.146,2.777,0.223c0.955,0.115,1.942,0.236,2.957,0.382
	c2.052,0.33,4.128,0.644,6.313,1.208c1.083,0.276,2.184,0.558,3.298,0.843c1.114,0.286,2.254,0.544,3.35,0.97
	c1.109,0.387,2.227,0.777,3.349,1.168l1.687,0.59c0.553,0.221,1.098,0.465,1.645,0.7c2.168,0.997,4.396,1.865,6.437,3.032
	c2.075,1.096,4.113,2.184,5.968,3.431c1.887,1.193,3.707,2.348,5.309,3.623c0.813,0.615,1.605,1.214,2.371,1.794
	c0.379,0.294,0.75,0.583,1.116,0.867c0.349,0.307,0.692,0.607,1.028,0.901c1.348,1.172,2.558,2.267,3.627,3.232
	c1.043,0.99,1.883,1.921,2.604,2.658C78.199,33.573,78.996,34.445,78.996,34.445z" fill="#000000"></path><path d="M0,68.589c0,0,0.273,0.111,0.786,0.32c0.515,0.198,1.26,0.535,2.226,0.883c0.97,0.34,2.124,0.771,3.495,1.17
	c0.678,0.214,1.4,0.435,2.178,0.621c0.775,0.19,1.571,0.443,2.429,0.62c1.701,0.401,3.556,0.775,5.526,1.138
	c0.986,0.177,1.998,0.355,3.042,0.504c0.502,0.07,1.087,0.177,1.535,0.231c0.538,0.062,1.082,0.124,1.629,0.188
	c1.096,0.126,2.21,0.254,3.337,0.384c0.563,0.057,1.135,0.15,1.698,0.177c0.561,0.026,1.124,0.054,1.689,0.081
	c2.265,0.092,4.546,0.31,6.874,0.177c1.159-0.012,2.318-0.023,3.473-0.035c0.578,0.01,1.152-0.028,1.726-0.084
	c0.573-0.047,1.144-0.093,1.714-0.14c1.137-0.098,2.268-0.182,3.387-0.251c1.117-0.083,2.208-0.283,3.289-0.415
	c1.081-0.144,2.141-0.304,3.186-0.424c1.043-0.125,2.043-0.369,3.03-0.54c0.985-0.186,1.943-0.366,2.87-0.54
	c0.936-0.143,1.821-0.36,2.671-0.573c1.7-0.421,3.272-0.779,4.668-1.097c1.378-0.388,2.577-0.726,3.566-1.004
	c1.985-0.55,3.135-0.843,3.135-0.843s-1.063,0.505-2.952,1.351c-0.947,0.412-2.088,0.951-3.43,1.482
	c-1.354,0.489-2.889,1.04-4.574,1.611c-1.668,0.636-3.551,1.06-5.524,1.59c-0.991,0.241-1.997,0.559-3.052,0.758
	c-1.053,0.21-2.135,0.388-3.233,0.588c-1.101,0.181-2.213,0.43-3.354,0.563c-1.143,0.129-2.301,0.247-3.471,0.354
	c-0.584,0.055-1.17,0.11-1.759,0.166c-0.589,0.064-1.179,0.112-1.774,0.11c-1.189,0.027-2.382,0.056-3.576,0.083
	c-2.38,0.102-4.792-0.152-7.152-0.285c-0.59-0.04-1.179-0.079-1.764-0.119c-0.582-0.052-1.135-0.166-1.699-0.246
	c-1.122-0.175-2.229-0.349-3.319-0.519c-0.545-0.086-1.085-0.17-1.621-0.254c-0.625-0.099-1.089-0.223-1.632-0.338
	c-1.047-0.222-2.066-0.473-3.058-0.72c-1.984-0.483-3.838-1.045-5.528-1.619c-1.691-0.573-3.221-1.155-4.539-1.764
	c-1.336-0.553-2.451-1.178-3.371-1.655c-0.92-0.476-1.577-0.956-2.056-1.234C0.25,68.745,0,68.589,0,68.589z" fill="#000000"></path><path d="M11.123,80.865c0,0,0.295,0,0.849-0.002c0.552-0.012,1.369,0.019,2.395-0.026
	c1.026-0.055,2.256-0.095,3.675-0.248c0.708-0.06,1.46-0.131,2.25-0.255c0.789-0.118,1.621-0.188,2.482-0.352
	c1.726-0.276,3.583-0.637,5.543-1.051c0.979-0.212,1.983-0.431,3.006-0.688c0.491-0.125,1.074-0.251,1.507-0.368
	c0.521-0.146,1.048-0.295,1.579-0.444c1.062-0.299,2.141-0.603,3.233-0.91c0.542-0.161,1.106-0.292,1.638-0.48
	c0.529-0.188,1.06-0.378,1.594-0.567c2.128-0.775,4.321-1.439,6.424-2.447c1.066-0.452,2.134-0.903,3.197-1.354
	c0.538-0.211,1.055-0.465,1.563-0.733c0.513-0.262,1.022-0.522,1.531-0.781c1.015-0.523,2.028-1.03,3.036-1.521
	c1.002-0.501,1.935-1.102,2.885-1.635c0.945-0.543,1.863-1.094,2.783-1.604c0.919-0.511,1.751-1.117,2.598-1.65
	c0.842-0.546,1.659-1.077,2.45-1.591c0.812-0.487,1.548-1.024,2.253-1.544c1.414-1.035,2.73-1.964,3.902-2.787
	c1.127-0.881,2.109-1.648,2.919-2.281c1.628-1.261,2.581-1.969,2.581-1.969s-0.793,0.87-2.219,2.369
	c-0.721,0.74-1.572,1.672-2.611,2.672c-1.068,0.967-2.277,2.059-3.619,3.228c-1.303,1.222-2.883,2.328-4.506,3.568
	c-0.825,0.601-1.635,1.276-2.535,1.861c-0.893,0.594-1.826,1.17-2.766,1.773c-0.95,0.586-1.883,1.239-2.889,1.795
	c-1.007,0.555-2.033,1.104-3.074,1.647c-0.52,0.273-1.041,0.548-1.563,0.823c-0.519,0.283-1.048,0.552-1.599,0.776
	c-1.089,0.478-2.182,0.957-3.275,1.437c-2.162,0.999-4.49,1.681-6.725,2.454c-0.561,0.188-1.119,0.375-1.676,0.561
	c-0.558,0.172-1.113,0.276-1.666,0.416c-1.104,0.264-2.195,0.523-3.268,0.779c-0.537,0.128-1.068,0.254-1.595,0.38
	c-0.618,0.145-1.093,0.207-1.639,0.307c-1.052,0.191-2.091,0.346-3.101,0.494c-2.019,0.307-3.946,0.494-5.728,0.606
	c-1.781,0.114-3.418,0.159-4.868,0.098c-1.446-0.001-2.715-0.156-3.747-0.248c-1.032-0.091-1.822-0.287-2.371-0.363
	C11.414,80.916,11.123,80.865,11.123,80.865z" fill="#000000"></path><path d="M76.277,55.488c0,0-0.521-1.064-1.392-2.943c-0.433-0.939-0.956-2.08-1.558-3.389
	c-0.664-1.272-1.411-2.702-2.191-4.271c-0.197-0.391-0.398-0.789-0.604-1.195c-0.217-0.401-0.463-0.799-0.699-1.209
	c-0.469-0.821-0.954-1.67-1.453-2.543c-0.515-0.862-0.963-1.794-1.566-2.66c-0.586-0.877-1.154-1.788-1.746-2.708
	c-0.607-0.907-1.143-1.886-1.834-2.773c-0.671-0.903-1.344-1.818-2.008-2.753c-1.277-1.906-2.831-3.644-4.301-5.445l-1.094-1.357
	c-0.382-0.437-0.787-0.853-1.179-1.279c-0.789-0.848-1.575-1.692-2.354-2.53c-0.761-0.857-1.586-1.637-2.402-2.406
	c-0.813-0.775-1.615-1.541-2.404-2.294c-0.396-0.368-0.785-0.771-1.178-1.103c-0.41-0.357-0.814-0.712-1.216-1.063
	c-0.794-0.723-1.585-1.347-2.349-1.999c-1.553-1.262-3.049-2.432-4.461-3.469c-1.429-1.009-2.741-1.944-3.956-2.69
	c-1.194-0.786-2.29-1.376-3.179-1.9c-0.897-0.503-1.628-0.853-2.118-1.115C28.543,0.137,28.28,0,28.28,0s0.282,0.089,0.811,0.256
	c0.523,0.181,1.324,0.378,2.29,0.763c0.959,0.395,2.161,0.82,3.454,1.481c1.324,0.605,2.766,1.392,4.31,2.299
	c0.759,0.472,1.569,0.941,2.376,1.471c0.799,0.541,1.632,1.089,2.465,1.695c0.821,0.61,1.71,1.224,2.537,1.881
	c0.419,0.328,0.843,0.66,1.271,0.995c0.451,0.352,0.841,0.727,1.27,1.094c0.843,0.74,1.699,1.493,2.565,2.255
	c0.434,0.382,0.87,0.766,1.309,1.151c0.431,0.395,0.816,0.837,1.229,1.257c0.814,0.852,1.635,1.71,2.459,2.571
	c0.408,0.435,0.831,0.857,1.23,1.302l1.143,1.383c1.489,1.874,3.061,3.686,4.35,5.659c1.358,1.924,2.66,3.84,3.744,5.802
	c0.561,0.969,1.125,1.913,1.649,2.854c0.556,0.923,0.952,1.905,1.417,2.817c0.873,1.855,1.783,3.558,2.387,5.254
	c0.662,1.664,1.238,3.196,1.748,4.55c0.469,1.362,0.792,2.578,1.095,3.567C75.969,54.344,76.277,55.488,76.277,55.488z" fill="#000000"></path><path d="M28.28,88.021c0,0,0.263-0.136,0.756-0.391c0.487-0.264,1.23-0.611,2.124-1.123
	c0.892-0.516,1.97-1.119,3.168-1.903c0.606-0.374,1.243-0.787,1.892-1.257c0.653-0.463,1.36-0.912,2.055-1.45
	c1.415-1.034,2.909-2.206,4.468-3.474c0.779-0.633,1.572-1.294,2.368-1.99l0.604-0.52l0.271-0.229l0.299-0.276
	c0.398-0.369,0.801-0.742,1.206-1.118c1.601-1.513,3.374-3.023,4.865-4.71c1.553-1.658,3.191-3.271,4.607-5.132
	c0.745-0.892,1.491-1.784,2.235-2.672c0.753-0.88,1.373-1.859,2.06-2.775c0.666-0.933,1.338-1.849,2.013-2.748
	c0.652-0.915,1.217-1.873,1.817-2.786c0.594-0.918,1.161-1.831,1.748-2.707c0.575-0.883,1.045-1.803,1.554-2.668
	c0.965-1.761,2.006-3.365,2.75-4.958c0.783-1.573,1.531-3.006,2.195-4.279c0.599-1.305,1.121-2.441,1.551-3.377
	c0.869-1.875,1.393-2.943,1.393-2.943s-0.307,1.14-0.889,3.132c-0.301,0.992-0.632,2.213-1.096,3.584
	c-0.508,1.353-1.084,2.882-1.743,4.541c-0.6,1.688-1.495,3.403-2.376,5.254c-0.458,0.915-0.876,1.887-1.402,2.825
	c-0.523,0.94-1.093,1.883-1.654,2.852c-0.576,0.959-1.116,1.965-1.747,2.93c-0.645,0.956-1.308,1.917-1.988,2.879
	c-0.693,0.95-1.319,1.965-2.081,2.882c-0.754,0.925-1.51,1.853-2.267,2.78c-1.474,1.882-3.221,3.568-4.87,5.275
	c-0.824,0.855-1.645,1.709-2.53,2.412c-0.866,0.74-1.722,1.471-2.562,2.189c-0.422,0.359-0.838,0.716-1.252,1.068L47.512,77.4
	l-0.358,0.278l-0.647,0.487c-0.854,0.65-1.705,1.27-2.542,1.86c-1.66,1.199-3.296,2.248-4.835,3.163
	c-0.757,0.475-1.516,0.882-2.233,1.271c-0.712,0.396-1.407,0.739-2.067,1.046c-1.292,0.658-2.492,1.105-3.457,1.493
	c-0.962,0.395-1.757,0.581-2.281,0.766C28.562,87.932,28.28,88.021,28.28,88.021z" fill="#000000"></path></g>
<g transform="translate(20.5625 176.42801124207)  scale(1 1)"><text dominant-baseline="auto" alignment-baseline="auto" font-family="Lucida Fax" font-size="34px" fill="#000000" letter-spacing="0" xml:space="preserve">CUSTOMER CENTRIC</text></g>
<g transform="translate(21 136.58828076755)  scale(0.9995925573815 0.9995925573815)"><text dominant-baseline="auto" alignment-baseline="auto" font-family="Lucida Fax" font-size="62px" fill="#000000" letter-spacing="0" xml:space="preserve">INSIGHT DATA</text></g>
</svg>