<svg width="20" height="12" viewBox="0 0 20 12" fill="none" xmlns="http://www.w3.org/2000/svg">
<path d="M17.75 0H2.13332C0.81668 0 0 0.712235 0 1.85418V10.1419C0 11.2529 0.83332 12 2.075 12H17.75C19.0333 12 20 11.2026 20 10.1419V1.85418C20 0.727731 19.1167 0 17.75 0ZM2.1375 0.774183H17.75C17.9833 0.774183 18.3917 0.812905 18.7083 1.00644L10.3458 7.2542L1.26668 0.979333C1.47918 0.847744 1.76668 0.774183 2.1375 0.774183ZM19.1667 10.1419C19.1667 10.8542 18.4542 11.2258 17.75 11.2258H2.075C1.29582 11.2258 0.83332 10.8194 0.83332 10.1419V1.85418C0.83332 1.78839 0.841641 1.71871 0.85 1.65288L10.1083 8.0516C10.2625 8.15612 10.4708 8.15224 10.6166 8.04387L19.1416 1.67611C19.1541 1.73417 19.1625 1.79612 19.1666 1.85803L19.1667 10.1419Z" fill="#00A359"/>
</svg>
