<svg width="26" height="17" viewBox="0 0 26 17" fill="none" xmlns="http://www.w3.org/2000/svg">
<path d="M23.075 0H2.77332C1.06168 0 0 1.009 0 2.62676V14.3677C0 15.9416 1.08332 17 2.6975 17H23.075C24.7433 17 26 15.8703 26 14.3677V2.62676C26 1.03095 24.8517 0 23.075 0ZM2.77875 1.09676H23.075C23.3783 1.09676 23.9092 1.15162 24.3208 1.42579L13.4496 10.2768L1.64668 1.38739C1.92293 1.20097 2.29668 1.09676 2.77875 1.09676ZM24.9167 14.3677C24.9167 15.3768 23.9904 15.9032 23.075 15.9032H2.6975C1.68457 15.9032 1.08332 15.3274 1.08332 14.3677V2.62676C1.08332 2.53355 1.09413 2.43484 1.105 2.34158L13.1408 11.4064C13.3413 11.5545 13.6121 11.549 13.8016 11.3955L24.8841 2.37449C24.9004 2.45674 24.9112 2.5445 24.9166 2.63221L24.9167 14.3677Z" fill="black"/>
</svg>
