<svg width="110" height="66" viewBox="0 0 110 66" fill="none" xmlns="http://www.w3.org/2000/svg">
<g clip-path="url(#clip0_332211_138)">
<path d="M83.8227 45.2312H60.6616V45.5085H83.8227V45.2312Z" fill="#3F3D56"/>
<path d="M83.8227 47.1725H60.6616V47.4498H83.8227V47.1725Z" fill="#3F3D56"/>
<path d="M83.8227 49.1136H60.6616V49.391H83.8227V49.1136Z" fill="#3F3D56"/>
<path d="M65.5824 42.0821H60.1558V37.3402H65.5824V42.0821ZM60.3728 41.8508H65.3653V37.5715H60.3728V41.8508Z" fill="#3F3D56"/>
<path d="M62.8259 40.8618C63.3972 40.8618 63.8603 40.3683 63.8603 39.7595C63.8603 39.1507 63.3972 38.6572 62.8259 38.6572C62.2546 38.6572 61.7915 39.1507 61.7915 39.7595C61.7915 40.3683 62.2546 40.8618 62.8259 40.8618Z" fill="#33E09A"/>
<path d="M83.8227 6.51306H60.6616V6.79038H83.8227V6.51306Z" fill="#3F3D56"/>
<path d="M83.8227 8.45422H60.6616V8.73154H83.8227V8.45422Z" fill="#3F3D56"/>
<path d="M83.8227 10.3955H60.6616V10.6728H83.8227V10.3955Z" fill="#3F3D56"/>
<path d="M65.5824 3.36396H60.1558V-1.37793H65.5824V3.36396ZM60.3728 3.13264H65.3653V-1.14662H60.3728V3.13264Z" fill="#3F3D56"/>
<path d="M62.8259 2.14368C63.3972 2.14368 63.8603 1.65016 63.8603 1.04138C63.8603 0.432602 63.3972 -0.0609131 62.8259 -0.0609131C62.2546 -0.0609131 61.7915 0.432602 61.7915 1.04138C61.7915 1.65016 62.2546 2.14368 62.8259 2.14368Z" fill="#33E09A"/>
<path d="M109.424 28.6968H86.2629V28.9741H109.424V28.6968Z" fill="#3F3D56"/>
<path d="M109.424 30.6381H86.2629V30.9154H109.424V30.6381Z" fill="#3F3D56"/>
<path d="M109.424 32.5792H86.2629V32.8565H109.424V32.5792Z" fill="#3F3D56"/>
<path d="M91.1838 25.5477H85.7572V20.8058H91.1838V25.5477ZM85.9743 25.3164H90.9667V21.0371H85.9743V25.3164Z" fill="#3F3D56"/>
<path d="M88.4273 24.3274C88.9986 24.3274 89.4617 23.8339 89.4617 23.2251C89.4617 22.6163 88.9986 22.1228 88.4273 22.1228C87.8561 22.1228 87.3929 22.6163 87.3929 23.2251C87.3929 23.8339 87.8561 24.3274 88.4273 24.3274Z" fill="#33E09A"/>
<path d="M25.2083 36.0725C25.1171 36.0796 25.0282 36.106 24.9466 36.15C24.865 36.1941 24.7925 36.255 24.7332 36.3292L23.9219 37.3355L23.7048 37.6045C23.5848 37.7536 23.5251 37.9473 23.5388 38.1432C23.5525 38.339 23.6386 38.5211 23.7781 38.6495L27.3762 41.9451L33.7573 47.7879C33.8906 47.9097 34.0621 47.9734 34.2375 47.9662C34.4129 47.959 34.5793 47.8814 34.7034 47.7491C34.7157 47.7361 34.7265 47.7234 34.7379 47.7098L35.359 46.9399L35.767 46.4336C35.7998 46.3932 35.8284 46.349 35.8522 46.302C35.9149 46.1773 35.9429 46.0361 35.933 45.8951C35.9264 45.7979 35.9017 45.7031 35.8603 45.6162C35.819 45.5293 35.7618 45.452 35.6922 45.3888L34.9316 44.692L29.3042 39.5388L25.7137 36.2495C25.5739 36.1214 25.3921 36.0578 25.2083 36.0725Z" fill="#33E09A"/>
<path d="M23.3274 33.0066C26.4889 33.0066 29.0518 30.2755 29.0518 26.9065C29.0518 23.5375 26.4889 20.8064 23.3274 20.8064C20.1659 20.8064 17.603 23.5375 17.603 26.9065C17.603 30.2755 20.1659 33.0066 23.3274 33.0066Z" fill="#33E09A"/>
<path d="M21.8615 50.33H20.2828C20.0984 50.3301 19.9217 50.4083 19.7913 50.5472C19.661 50.6861 19.5877 50.8744 19.5875 51.0708V65.0915C19.5877 65.288 19.661 65.4763 19.7913 65.6152C19.9217 65.7541 20.0984 65.8322 20.2828 65.8324H21.8615C22.0458 65.8322 22.2225 65.7541 22.3529 65.6152C22.4832 65.4763 22.5565 65.288 22.5567 65.0915V51.0708C22.5565 50.8744 22.4832 50.6861 22.3529 50.5472C22.2225 50.4083 22.0458 50.3301 21.8615 50.33Z" fill="#2F2E41"/>
<path d="M25.1975 50.33H23.6188C23.4345 50.3301 23.2577 50.4083 23.1274 50.5472C22.9971 50.6861 22.9238 50.8744 22.9236 51.0708V65.0915C22.9238 65.288 22.9971 65.4763 23.1274 65.6152C23.2577 65.7541 23.4345 65.8322 23.6188 65.8324H25.1975C25.2888 65.8324 25.3792 65.8133 25.4636 65.776C25.5479 65.7388 25.6246 65.6842 25.6891 65.6154C25.7537 65.5466 25.8049 65.465 25.8398 65.3751C25.8748 65.2852 25.8928 65.1888 25.8928 65.0915V51.0708C25.8928 50.9735 25.8748 50.8772 25.8398 50.7873C25.8049 50.6974 25.7537 50.6157 25.6891 50.5469C25.6246 50.4781 25.5479 50.4236 25.4636 50.3863C25.3792 50.3491 25.2888 50.33 25.1975 50.33Z" fill="#2F2E41"/>
<path d="M25.1244 52.9894L19.8511 52.8423C19.6209 52.8359 19.3941 52.7812 19.1838 52.6812C18.9735 52.5811 18.7839 52.4378 18.6257 52.2594C18.4676 52.0811 18.344 51.8711 18.2623 51.6417C18.1805 51.4123 18.142 51.168 18.1492 50.9227C18.2536 47.3376 18.5026 39.5794 18.505 39.504C18.505 38.5243 18.7926 37.5692 19.3275 36.7723C19.8624 35.9755 20.6178 35.377 21.4879 35.0606C22.358 34.7441 23.2992 34.7257 24.1796 35.0079C25.06 35.29 25.8356 35.8586 26.3976 36.6339C26.9965 37.4511 27.3211 38.4585 27.3197 39.4954L29.1054 47.8376C29.2376 48.4548 29.2376 49.0957 29.1055 49.7129C28.9734 50.3301 28.7126 50.9077 28.3424 51.4027C27.9722 51.8978 27.5022 52.2977 26.9672 52.5728C26.4321 52.8478 25.8459 52.9909 25.2518 52.9915C25.2095 52.9915 25.1669 52.9908 25.1244 52.9894Z" fill="#2F2E41"/>
<path d="M28.6223 28.3109L28.566 28.0909C28.9501 27.9793 29.2852 27.8652 29.4959 27.5995C29.5549 27.5209 29.5974 27.4297 29.6203 27.3321C29.6433 27.2345 29.6463 27.1328 29.6291 27.0339C29.62 26.973 29.5979 26.9153 29.5644 26.865C29.531 26.8148 29.4871 26.7735 29.4362 26.7443C29.2313 26.6352 28.9689 26.7556 28.7917 26.9047L28.6388 27.0333L28.3832 24.3793L28.596 24.3561L28.8135 26.6136C28.9179 26.5385 29.0384 26.4924 29.1639 26.4796C29.2894 26.4668 29.4159 26.4877 29.5318 26.5404C29.6119 26.5847 29.6812 26.6482 29.7344 26.7258C29.7876 26.8034 29.8233 26.8931 29.8386 26.9879C29.8624 27.1206 29.8587 27.2573 29.8278 27.3884C29.7968 27.5195 29.7393 27.6417 29.6593 27.7466C29.3886 28.0882 28.9637 28.2117 28.6223 28.3109Z" fill="#2F2E41"/>
<path d="M27.2431 24.9059L26.1235 25.1957L26.174 25.4172L27.2936 25.1274L27.2431 24.9059Z" fill="#2F2E41"/>
<path d="M21.2989 36.8562C21.2372 36.7843 21.1626 36.7263 21.0796 36.6854C20.9966 36.6445 20.9068 36.6216 20.8154 36.618L19.5715 36.5633L19.2388 36.5485C19.0547 36.5405 18.875 36.6106 18.7393 36.7435C18.6035 36.8764 18.5228 37.0612 18.5147 37.2574L18.3179 42.309L17.9703 51.2668C17.9632 51.4537 18.0226 51.6366 18.1367 51.7788C18.2507 51.921 18.4109 52.0121 18.5853 52.0338C18.6024 52.0361 18.6185 52.0373 18.6356 52.0384L19.5875 52.0806L20.2133 52.1079C20.2634 52.1103 20.3136 52.1069 20.363 52.0977C20.4937 52.0728 20.615 52.0087 20.7128 51.913C20.7802 51.8472 20.8347 51.7678 20.8731 51.6793C20.9114 51.5909 20.9329 51.4952 20.9363 51.3978L20.978 50.3298L21.285 42.4298L21.4818 37.3885C21.4895 37.1922 21.4237 37.0008 21.2989 36.8562Z" fill="#33E09A"/>
<path d="M20.3876 35.7508C20.2547 35.7209 20.1191 35.706 19.9833 35.7063C19.4587 35.707 18.9557 35.9294 18.5848 36.3247C18.2138 36.72 18.0051 37.2559 18.0045 37.8149V41.6903C18.0048 41.813 18.0336 41.9337 18.0883 42.0417C18.143 42.1497 18.2218 42.2416 18.3179 42.3092C18.3963 42.3641 18.4844 42.4014 18.5768 42.4186C18.6173 42.4268 18.6585 42.431 18.6998 42.4311H21.2668C21.2729 42.4314 21.279 42.431 21.285 42.43C21.4661 42.4251 21.6382 42.345 21.7646 42.2068C21.8911 42.0686 21.9619 41.8833 21.962 41.6903V37.8149C21.9615 37.3307 21.8047 36.8613 21.5181 36.4855C21.2315 36.1097 20.8323 35.8503 20.3876 35.7508Z" fill="#2F2E41"/>
<path d="M29.2374 38.6413L26.4234 36.1873C26.0173 35.833 25.4958 35.6651 24.9735 35.7206C24.4513 35.7761 23.9711 36.0503 23.6386 36.4831C23.3062 36.9158 23.1486 37.4716 23.2007 38.0281C23.2527 38.5846 23.5101 39.0963 23.9162 39.4506L26.7303 41.9046C26.8543 42.0128 27.0095 42.072 27.1697 42.0722C27.3299 42.0724 27.4853 42.0136 27.6095 41.9057C27.6465 41.8752 27.6799 41.84 27.709 41.8009L29.3348 39.6842C29.3923 39.61 29.4356 39.5244 29.462 39.4323C29.5021 39.2916 29.5021 39.1414 29.4621 39.0006C29.4222 38.8598 29.344 38.7348 29.2374 38.6413Z" fill="#2F2E41"/>
<path d="M23.3848 23.2005C24.4052 23.3717 25.5068 23.5683 26.5051 23.1764C27.3229 22.8554 28.0119 22.1219 27.9946 21.1455C27.978 20.2124 27.3847 19.3881 26.6394 18.9531C25.7964 18.461 24.7697 18.3832 23.8292 18.4817C23.2609 18.5412 22.6493 18.6939 22.2052 19.099C21.8498 19.4233 21.5757 19.9143 21.6266 20.4291L21.2114 20.4175C21.3734 19.8488 21.1042 19.28 20.6977 18.9121C20.2089 18.4697 19.5429 18.4051 18.9347 18.5427C17.6978 18.8227 16.5794 19.7554 15.7579 20.7466C14.9494 21.7254 14.3661 22.8915 14.0541 24.1524C13.7047 25.5685 13.6963 27.1558 14.2336 28.5209C14.7804 29.9103 15.9707 31.055 17.4283 31.1386C17.7041 31.1544 17.6926 31.6129 17.4151 31.597C16.0236 31.5173 14.7929 30.5686 14.114 29.2992C13.3338 27.8405 13.2331 26.0478 13.5512 24.43C13.8372 23.0137 14.4453 21.6939 15.3219 20.5866C16.1967 19.4736 17.4245 18.4428 18.7744 18.111C19.5501 17.9204 20.3662 18.0203 20.989 18.5772C21.5207 19.0527 21.8314 19.8199 21.6237 20.5489C21.5667 20.749 21.232 20.7749 21.2085 20.5373C21.0893 19.3327 22.0121 18.4586 23.0264 18.1687C23.6018 18.0173 24.1952 17.9592 24.7868 17.9966C25.3301 18.0134 25.8672 18.1238 26.3775 18.3233C27.3399 18.7179 28.1408 19.5385 28.3667 20.6375C28.5921 21.7339 28.0937 22.7499 27.2118 23.3197C26.0479 24.0716 24.6487 23.8733 23.3716 23.6589C23.3152 23.6551 23.2622 23.6286 23.2235 23.5847C23.1848 23.5408 23.1632 23.4829 23.1631 23.4227C23.1651 23.362 23.1895 23.3046 23.2311 23.263C23.2726 23.2214 23.3278 23.1989 23.3848 23.2005H23.3848Z" fill="#2F2E41"/>
<path d="M46.1994 62.6931H-3.06394C-3.09823 62.6931 -3.13112 62.6785 -3.15537 62.6527C-3.17961 62.6269 -3.19324 62.5918 -3.19324 62.5553C-3.19324 62.5187 -3.17961 62.4837 -3.15537 62.4578C-3.13112 62.432 -3.09823 62.4175 -3.06394 62.4175H46.1994C46.2337 62.4175 46.2666 62.432 46.2908 62.4578C46.3151 62.4837 46.3287 62.5187 46.3287 62.5553C46.3287 62.5918 46.3151 62.6269 46.2908 62.6527C46.2666 62.6785 46.2337 62.6931 46.1994 62.6931Z" fill="#3F3D56"/>
</g>
<defs>
<clipPath id="clip0_332211_138">
<rect width="109" height="66" fill="white" transform="translate(0.427246)"/>
</clipPath>
</defs>
</svg>
