<svg width="115" height="78" viewBox="0 0 115 78" fill="none" xmlns="http://www.w3.org/2000/svg">
<g clip-path="url(#clip0_332135_1004)">
<path d="M8.56874 80.809L8.29309 80.8039C8.3997 77.8999 8.72671 75.0069 9.27159 72.1474C10.4635 66.0252 12.4456 62.0044 15.1626 60.1968L15.3209 60.4105C8.97386 64.6331 8.57197 80.6477 8.56874 80.809Z" fill="#F1F1F1"/>
<path d="M12.0143 80.7465L11.7386 80.7414C11.7446 80.4521 11.9169 73.6354 14.7491 71.7512L14.9074 71.965C12.1894 73.7731 12.0156 80.677 12.0143 80.7465Z" fill="#F1F1F1"/>
<path d="M16.889 60.4341C17.6502 60.4341 18.2672 59.8494 18.2672 59.1282C18.2672 58.4069 17.6502 57.8223 16.889 57.8223C16.1278 57.8223 15.5107 58.4069 15.5107 59.1282C15.5107 59.8494 16.1278 60.4341 16.889 60.4341Z" fill="#F1F1F1"/>
<path d="M16.2065 71.665C16.9677 71.665 17.5847 71.0804 17.5847 70.3591C17.5847 69.6379 16.9677 69.0532 16.2065 69.0532C15.4453 69.0532 14.8282 69.6379 14.8282 70.3591C14.8282 71.0804 15.4453 71.665 16.2065 71.665Z" fill="#F1F1F1"/>
<path d="M11.3719 61.2169C11.631 62.7845 10.9559 64.1866 10.9559 64.1866C10.9559 64.1866 9.8608 63.0471 9.60179 61.4795C9.34277 59.9119 10.0179 58.5098 10.0179 58.5098C10.0179 58.5098 11.1129 59.6493 11.3719 61.2169Z" fill="#F1F1F1"/>
<path d="M15.8769 65.0241C14.2929 65.5389 12.7181 65.1534 12.7181 65.1534C12.7181 65.1534 13.7116 63.9331 15.2956 63.4183C16.8796 62.9035 18.4543 63.289 18.4543 63.289C18.4543 63.289 17.4609 64.5093 15.8769 65.0241Z" fill="#F1F1F1"/>
<path d="M15.928 74.9703C15.2111 75.1837 14.4476 75.2149 13.714 75.0609C14.1798 74.4989 14.8072 74.0766 15.5206 73.8447C16.2339 73.6129 17.0028 73.5814 17.7346 73.7542C17.2552 74.3024 16.6322 74.7218 15.928 74.9703Z" fill="#F1F1F1"/>
<path d="M93.2207 44.2726C105.249 44.2726 115 35.0334 115 23.6363C115 12.2392 105.249 3 93.2207 3C81.1924 3 71.4415 12.2392 71.4415 23.6363C71.4415 35.0334 81.1924 44.2726 93.2207 44.2726Z" fill="#F1F1F1"/>
<path d="M95.3987 15.9536V24.5921H82.1457L79.6973 27.3755L79.9769 24.5921H78.7856V15.9536H95.3987Z" fill="#00BFA6"/>
<path opacity="0.1" d="M95.3987 18.929H89.4221V24.5919H95.3987V18.929Z" fill="black"/>
<path d="M90.7389 20.1768H107.352V28.8152H106.16L106.44 31.5988L103.992 28.8152H90.7389V20.1768Z" fill="#00BFA6"/>
<path opacity="0.1" d="M79.7988 28.7685C81.8129 28.7685 83.4456 28.6175 83.4456 28.4313C83.4456 28.2452 81.8129 28.0942 79.7988 28.0942C77.7848 28.0942 76.1521 28.2452 76.1521 28.4313C76.1521 28.6175 77.7848 28.7685 79.7988 28.7685Z" fill="black"/>
<path opacity="0.1" d="M106.44 33.3262C108.734 33.3262 110.593 33.1543 110.593 32.9423C110.593 32.7302 108.734 32.5583 106.44 32.5583C104.146 32.5583 102.287 32.7302 102.287 32.9423C102.287 33.1543 104.146 33.3262 106.44 33.3262Z" fill="black"/>
<path d="M31.4988 60.9038H38.1634C38.1634 61.1744 45.4487 61.394 45.4487 61.394C45.6094 61.5086 45.7559 61.6402 45.8853 61.7861C46.2742 62.2256 46.4868 62.7812 46.4855 63.3547V63.7469C46.4853 64.3968 46.2126 65.0201 45.7276 65.4797C45.2426 65.9392 44.5848 66.1975 43.8989 66.1978H31.4988C30.8129 66.1972 30.1553 65.9388 29.6704 65.4793C29.1854 65.0198 28.9127 64.3967 28.9121 63.7469V63.3547C28.9131 62.705 29.1859 62.0821 29.6708 61.6227C30.1557 61.1632 30.813 60.9047 31.4988 60.9038Z" fill="#3F3D56"/>
<path d="M39.0354 66.1003H36.3453V80.813H39.0354V66.1003Z" fill="#3F3D56"/>
<path d="M48.4991 79.0424L50.5011 79.0423L51.4536 71.7251L48.4987 71.7252L48.4991 79.0424Z" fill="#9F616A"/>
<path d="M54.4163 79.0424L56.4185 79.0423L57.3708 71.7251L54.416 71.7252L54.4163 79.0424Z" fill="#9F616A"/>
<path d="M47.4482 55.8843C47.4204 55.6751 47.3444 55.4742 47.2258 55.2958C47.1072 55.1174 46.9487 54.9658 46.7615 54.8517C46.5744 54.7377 46.3631 54.6638 46.1426 54.6355C45.9221 54.6072 45.6977 54.625 45.4852 54.6877L43.257 52.1567L41.3035 53.0647L44.5032 56.597C44.638 56.9282 44.8964 57.201 45.2294 57.3638C45.5623 57.5265 45.9468 57.5679 46.3098 57.4801C46.6728 57.3922 46.9892 57.1812 47.199 56.8871C47.4088 56.593 47.4975 56.2362 47.4482 55.8843H47.4482Z" fill="#9F616A"/>
<path d="M39.9551 40.8723L41.2619 41.3807L41.5784 44.879L45.0791 53.9506L42.1058 54.8883L38.8026 48.8031L39.9551 40.8723Z" fill="#CBCBCB"/>
<path d="M36.5613 36.828C38.4838 36.828 40.0424 35.3513 40.0424 33.5296C40.0424 31.708 38.4838 30.2312 36.5613 30.2312C34.6387 30.2312 33.0802 31.708 33.0802 33.5296C33.0802 35.3513 34.6387 36.828 36.5613 36.828Z" fill="#9F616A"/>
<path d="M36.0257 31.9949C36.0257 31.9949 36.1785 29.9911 38.0631 30.8082C39.9477 31.6252 39.8247 29.3732 39.2552 28.9752C38.6857 28.5773 38.7037 28.4788 36.6208 28.7451C34.5378 29.0113 30.4939 29.4624 31.8015 33.4309C33.1091 37.3993 35.0348 36.3662 35.0348 36.3662C35.0348 36.3662 33.2539 32.8074 34.3071 33.4877L35.3602 34.168L35.9159 34.0565L36.0257 31.9949Z" fill="#2F2E41"/>
<path d="M33.4939 33.3128L32.7845 29.6742C32.772 29.6099 32.7729 29.5439 32.7873 29.48C32.8017 29.4161 32.8292 29.3554 32.8683 29.3016C32.9074 29.2478 32.9573 29.2018 33.0152 29.1662C33.0731 29.1306 33.1378 29.1062 33.2056 29.0944L34.0376 28.9487L34.8424 33.0768L33.4939 33.3128Z" fill="#00BFA6"/>
<path d="M34.2932 35.3789C35.1671 35.3789 35.8756 34.7077 35.8756 33.8796C35.8756 33.0516 35.1671 32.3804 34.2932 32.3804C33.4194 32.3804 32.7109 33.0516 32.7109 33.8796C32.7109 34.7077 33.4194 35.3789 34.2932 35.3789Z" fill="#00BFA6"/>
<path d="M34.2931 34.7791C34.8175 34.7791 35.2425 34.3764 35.2425 33.8795C35.2425 33.3827 34.8175 32.98 34.2931 32.98C33.7688 32.98 33.3438 33.3827 33.3438 33.8795C33.3438 34.3764 33.7688 34.7791 34.2931 34.7791Z" fill="#F2F2F2"/>
<path d="M34.2932 34.1795C34.4679 34.1795 34.6096 34.0453 34.6096 33.8797C34.6096 33.7141 34.4679 33.5798 34.2932 33.5798C34.1184 33.5798 33.9767 33.7141 33.9767 33.8797C33.9767 34.0453 34.1184 34.1795 34.2932 34.1795Z" fill="#00BFA6"/>
<path d="M30.8479 56.2178C30.8479 56.2178 29.6799 62.0699 34.124 62.8152C38.5681 63.5604 44.9832 64.0842 44.9832 64.0842L47.864 76.8197L51.7344 76.4923C51.7344 76.4923 51.2196 61.1615 49.9538 59.9621C48.6879 58.7627 42.6692 55.2527 42.6692 55.2527L30.8479 56.2178Z" fill="#2F2E41"/>
<path d="M39.5277 53.7654L41.4713 55.6129C41.4713 55.6129 55.5055 57.7548 56.0469 60.8262C56.8643 65.4631 57.8298 75.5466 57.8298 75.5466L53.6103 75.2467L51.9556 63.7846L45.2044 62.3295L37.5234 58.3632L39.5277 53.7654Z" fill="#2F2E41"/>
<path d="M39.4195 39.5979L38.2905 38.1796L34.6293 38.1228C33.4873 38.6987 32.5321 39.5582 31.866 40.6091C31.1999 41.6599 30.848 42.8627 30.848 44.0885V53.0628C30.848 53.0628 30.9 54.2571 30.6244 56.9995C30.3865 59.3657 43.6764 55.6128 43.6764 55.6128L41.9512 42.2948C41.9512 42.2948 42.0898 40.1734 39.4195 39.5979Z" fill="#CBCBCB"/>
<path d="M42.7696 58.8508C42.7418 58.6416 42.6659 58.4407 42.5472 58.2623C42.4286 58.084 42.2701 57.9324 42.0829 57.8183C41.8958 57.7042 41.6845 57.6304 41.464 57.6021C41.2435 57.5737 41.0191 57.5915 40.8066 57.6542L38.5784 55.1233L36.6249 56.0312L39.8246 59.5635C39.9594 59.8947 40.2178 60.1676 40.5508 60.3303C40.8838 60.4931 41.2682 60.5345 41.6312 60.4466C41.9942 60.3588 42.3106 60.1478 42.5204 59.8537C42.7302 59.5596 42.8189 59.2027 42.7696 58.8508Z" fill="#9F616A"/>
<path d="M33.5243 41.0486L32.364 40.6826C32.364 40.6826 30.9731 40.9726 30.1488 42.7478C29.3244 44.5229 30.1633 51.7694 30.1633 51.7694L38.7063 58.7589L40.3241 55.8914L35.586 49.8169C35.586 49.8169 37.6188 43.2715 33.5243 41.0486Z" fill="#CBCBCB"/>
</g>
<defs>
<clipPath id="clip0_332135_1004">
<rect width="115" height="78" fill="white"/>
</clipPath>
</defs>
</svg>
