<svg width="341" height="242" viewBox="0 0 341 242" fill="none" xmlns="http://www.w3.org/2000/svg">
<path d="M134.848 44H127.758V9.75195L117.299 13.3262V7.32031L133.939 1.19727H134.848V44ZM171.82 1.13867V7.02734H170.941C166.957 7.08594 163.773 8.17969 161.391 10.3086C159.008 12.4375 157.592 15.4551 157.143 19.3613C159.428 16.959 162.348 15.7578 165.902 15.7578C169.672 15.7578 172.641 17.0859 174.809 19.7422C176.996 22.3984 178.09 25.8262 178.09 30.0254C178.09 34.3613 176.811 37.877 174.252 40.5723C171.713 43.248 168.373 44.5859 164.232 44.5859C159.975 44.5859 156.518 43.0137 153.861 39.8691C151.225 36.7246 149.906 32.6035 149.906 27.5059V25.0742C149.906 17.5938 151.723 11.7344 155.355 7.49609C159.008 3.25781 164.252 1.13867 171.088 1.13867H171.82ZM164.174 21.5C162.611 21.5 161.176 21.9395 159.867 22.8184C158.578 23.6973 157.631 24.8691 157.025 26.334V28.502C157.025 31.666 157.689 34.1855 159.018 36.0605C160.346 37.916 162.064 38.8438 164.174 38.8438C166.283 38.8438 167.953 38.0527 169.184 36.4707C170.414 34.8887 171.029 32.8086 171.029 30.2305C171.029 27.6523 170.404 25.5527 169.154 23.9316C167.904 22.3105 166.244 21.5 164.174 21.5ZM221.127 28.5605H210.697C210.814 31.959 211.664 34.498 213.246 36.1777C214.848 37.8574 217.133 38.6973 220.102 38.6973C222.25 38.6973 224.252 38.375 226.107 37.7305L226.928 43.707C224.584 44.2734 222.162 44.5566 219.662 44.5566C214.662 44.5566 210.727 43.1504 207.855 40.3379C204.984 37.5254 203.471 33.5996 203.314 28.5605H198.275V24.4297H203.314V20.6797H198.275V16.5488H203.344C203.598 11.5684 205.189 7.70117 208.119 4.94727C211.049 2.17383 214.984 0.787109 219.926 0.787109C221.996 0.787109 224.33 1.08984 226.928 1.69531L226.107 7.70117C224.115 7.03711 222.133 6.70508 220.16 6.70508C217.211 6.70508 214.945 7.54492 213.363 9.22461C211.781 10.9043 210.902 13.3457 210.727 16.5488H221.127V20.6797H210.697V24.4297H221.127V28.5605Z" fill="#00A359"/>
<path d="M42.5918 82.6836C42.5918 85.6484 41.9355 88.0039 40.623 89.75C39.3105 91.4844 37.5527 92.3516 35.3496 92.3516C32.748 92.3516 30.7559 91.4375 29.373 89.6094V99.3125H27.2812V72.9805H29.2324L29.3379 75.6699C30.709 73.6426 32.6953 72.6289 35.2969 72.6289C37.5703 72.6289 39.3516 73.4902 40.6406 75.2129C41.9414 76.9355 42.5918 79.3262 42.5918 82.3848V82.6836ZM40.4824 82.3145C40.4824 79.8887 39.9844 77.9727 38.9883 76.5664C37.9922 75.1602 36.6035 74.457 34.8223 74.457C33.5332 74.457 32.4258 74.7676 31.5 75.3887C30.5742 76.0098 29.8652 76.9121 29.373 78.0957V87.2188C29.877 88.3086 30.5977 89.1406 31.5352 89.7148C32.4727 90.2891 33.5801 90.5762 34.8574 90.5762C36.627 90.5762 38.0039 89.873 38.9883 88.4668C39.9844 87.0488 40.4824 84.998 40.4824 82.3145ZM59.2734 92C59.0625 91.4023 58.9277 90.5176 58.8691 89.3457C58.1309 90.3066 57.1875 91.0508 56.0391 91.5781C54.9023 92.0938 53.6953 92.3516 52.418 92.3516C50.5898 92.3516 49.1074 91.8418 47.9707 90.8223C46.8457 89.8027 46.2832 88.5137 46.2832 86.9551C46.2832 85.1035 47.0508 83.6387 48.5859 82.5605C50.1328 81.4824 52.2832 80.9434 55.0371 80.9434H58.8516V78.7812C58.8516 77.4219 58.4297 76.3555 57.5859 75.582C56.7539 74.7969 55.5352 74.4043 53.9297 74.4043C52.4648 74.4043 51.252 74.7793 50.291 75.5293C49.3301 76.2793 48.8496 77.1816 48.8496 78.2363L46.7402 78.2188C46.7402 76.707 47.4434 75.4004 48.8496 74.2988C50.2559 73.1855 51.9844 72.6289 54.0352 72.6289C56.1562 72.6289 57.8262 73.1621 59.0449 74.2285C60.2754 75.2832 60.9082 76.7598 60.9434 78.6582V87.6582C60.9434 89.498 61.1367 90.875 61.5234 91.7891V92H59.2734ZM52.6641 90.4883C54.0703 90.4883 55.3242 90.1484 56.4258 89.4688C57.5391 88.7891 58.3477 87.8809 58.8516 86.7441V82.5605H55.0898C52.9922 82.584 51.3516 82.9707 50.168 83.7207C48.9844 84.459 48.3926 85.4785 48.3926 86.7793C48.3926 87.8457 48.7852 88.7305 49.5703 89.4336C50.3672 90.1367 51.3984 90.4883 52.6641 90.4883ZM75.3574 74.7734C74.9121 74.6914 74.4375 74.6504 73.9336 74.6504C72.6211 74.6504 71.5078 75.0195 70.5938 75.7578C69.6914 76.4844 69.0469 77.5449 68.6602 78.9395V92H66.5684V72.9805H68.625L68.6602 76.0039C69.7734 73.7539 71.5605 72.6289 74.0215 72.6289C74.6074 72.6289 75.0703 72.7051 75.4102 72.8574L75.3574 74.7734ZM90.7207 68.1113V72.9805H94.6582V74.7031H90.7207V87.377C90.7207 88.4316 90.9082 89.2168 91.2832 89.7324C91.6699 90.248 92.3086 90.5059 93.1992 90.5059C93.5508 90.5059 94.1191 90.4473 94.9043 90.3301L94.9922 92.0527C94.4414 92.252 93.6914 92.3516 92.7422 92.3516C91.3008 92.3516 90.252 91.9355 89.5957 91.1035C88.9395 90.2598 88.6113 89.0234 88.6113 87.3945V74.7031H85.1133V72.9805H88.6113V68.1113H90.7207ZM106.383 92.3516C104.766 92.3516 103.301 91.9531 101.988 91.1562C100.688 90.3594 99.6738 89.252 98.9473 87.834C98.2207 86.4043 97.8574 84.8047 97.8574 83.0352V82.2793C97.8574 80.4512 98.209 78.8047 98.9121 77.3398C99.627 75.875 100.617 74.7266 101.883 73.8945C103.148 73.0508 104.52 72.6289 105.996 72.6289C108.305 72.6289 110.133 73.4199 111.48 75.002C112.84 76.5723 113.52 78.7227 113.52 81.4531V82.6309H99.9492V83.0352C99.9492 85.1914 100.564 86.9902 101.795 88.4316C103.037 89.8613 104.596 90.5762 106.471 90.5762C107.596 90.5762 108.586 90.3711 109.441 89.9609C110.309 89.5508 111.094 88.8945 111.797 87.9922L113.115 88.9941C111.568 91.2324 109.324 92.3516 106.383 92.3516ZM105.996 74.4219C104.414 74.4219 103.078 75.002 101.988 76.1621C100.91 77.3223 100.254 78.8809 100.02 80.8379H111.428V80.6094C111.369 78.7812 110.848 77.293 109.863 76.1445C108.879 74.9961 107.59 74.4219 105.996 74.4219ZM129.006 87.166C129.006 86.123 128.584 85.2852 127.74 84.6523C126.908 84.0195 125.648 83.5273 123.961 83.1758C122.273 82.8125 120.961 82.4023 120.023 81.9453C119.098 81.4766 118.406 80.9082 117.949 80.2402C117.504 79.5723 117.281 78.7637 117.281 77.8145C117.281 76.3145 117.908 75.0781 119.162 74.1055C120.416 73.1211 122.021 72.6289 123.979 72.6289C126.1 72.6289 127.799 73.1562 129.076 74.2109C130.365 75.2539 131.01 76.6191 131.01 78.3066H128.9C128.9 77.1934 128.432 76.2676 127.494 75.5293C126.568 74.791 125.396 74.4219 123.979 74.4219C122.596 74.4219 121.482 74.7324 120.639 75.3535C119.807 75.9629 119.391 76.7598 119.391 77.7441C119.391 78.6934 119.736 79.4316 120.428 79.959C121.131 80.4746 122.402 80.9492 124.242 81.3828C126.094 81.8164 127.477 82.2793 128.391 82.7715C129.316 83.2637 130.002 83.8555 130.447 84.5469C130.893 85.2383 131.115 86.0762 131.115 87.0605C131.115 88.666 130.465 89.9492 129.164 90.9102C127.875 91.8711 126.188 92.3516 124.102 92.3516C121.887 92.3516 120.088 91.8184 118.705 90.752C117.334 89.6738 116.648 88.3145 116.648 86.6738H118.758C118.84 87.9043 119.355 88.8652 120.305 89.5566C121.266 90.2363 122.531 90.5762 124.102 90.5762C125.566 90.5762 126.75 90.2539 127.652 89.6094C128.555 88.9648 129.006 88.1504 129.006 87.166ZM139.131 68.1113V72.9805H143.068V74.7031H139.131V87.377C139.131 88.4316 139.318 89.2168 139.693 89.7324C140.08 90.248 140.719 90.5059 141.609 90.5059C141.961 90.5059 142.529 90.4473 143.314 90.3301L143.402 92.0527C142.852 92.252 142.102 92.3516 141.152 92.3516C139.711 92.3516 138.662 91.9355 138.006 91.1035C137.35 90.2598 137.021 89.0234 137.021 87.3945V74.7031H133.523V72.9805H137.021V68.1113H139.131ZM168.416 89.5918C167.15 91.4316 165.129 92.3516 162.352 92.3516C160.324 92.3516 158.783 91.7656 157.729 90.5938C156.674 89.4102 156.135 87.6641 156.111 85.3555V72.9805H158.203V85.0918C158.203 88.7129 159.668 90.5234 162.598 90.5234C165.645 90.5234 167.572 89.2637 168.381 86.7441V72.9805H170.49V92H168.451L168.416 89.5918ZM179.244 68.1113V72.9805H183.182V74.7031H179.244V87.377C179.244 88.4316 179.432 89.2168 179.807 89.7324C180.193 90.248 180.832 90.5059 181.723 90.5059C182.074 90.5059 182.643 90.4473 183.428 90.3301L183.516 92.0527C182.965 92.252 182.215 92.3516 181.266 92.3516C179.824 92.3516 178.775 91.9355 178.119 91.1035C177.463 90.2598 177.135 89.0234 177.135 87.3945V74.7031H173.637V72.9805H177.135V68.1113H179.244ZM189.896 92H187.787V72.9805H189.896V92ZM187.418 67.4785C187.418 67.0801 187.547 66.7461 187.805 66.4766C188.062 66.1953 188.414 66.0547 188.859 66.0547C189.305 66.0547 189.656 66.1953 189.914 66.4766C190.184 66.7461 190.318 67.0801 190.318 67.4785C190.318 67.877 190.184 68.2109 189.914 68.4805C189.656 68.75 189.305 68.8848 188.859 68.8848C188.414 68.8848 188.062 68.75 187.805 68.4805C187.547 68.2109 187.418 67.877 187.418 67.4785ZM197.982 92H195.873V65H197.982V92ZM206.068 92H203.959V72.9805H206.068V92ZM203.59 67.4785C203.59 67.0801 203.719 66.7461 203.977 66.4766C204.234 66.1953 204.586 66.0547 205.031 66.0547C205.477 66.0547 205.828 66.1953 206.086 66.4766C206.355 66.7461 206.49 67.0801 206.49 67.4785C206.49 67.877 206.355 68.2109 206.086 68.4805C205.828 68.75 205.477 68.8848 205.031 68.8848C204.586 68.8848 204.234 68.75 203.977 68.4805C203.719 68.2109 203.59 67.877 203.59 67.4785ZM223.189 87.166C223.189 86.123 222.768 85.2852 221.924 84.6523C221.092 84.0195 219.832 83.5273 218.145 83.1758C216.457 82.8125 215.145 82.4023 214.207 81.9453C213.281 81.4766 212.59 80.9082 212.133 80.2402C211.688 79.5723 211.465 78.7637 211.465 77.8145C211.465 76.3145 212.092 75.0781 213.346 74.1055C214.6 73.1211 216.205 72.6289 218.162 72.6289C220.283 72.6289 221.982 73.1562 223.26 74.2109C224.549 75.2539 225.193 76.6191 225.193 78.3066H223.084C223.084 77.1934 222.615 76.2676 221.678 75.5293C220.752 74.791 219.58 74.4219 218.162 74.4219C216.779 74.4219 215.666 74.7324 214.822 75.3535C213.99 75.9629 213.574 76.7598 213.574 77.7441C213.574 78.6934 213.92 79.4316 214.611 79.959C215.314 80.4746 216.586 80.9492 218.426 81.3828C220.277 81.8164 221.66 82.2793 222.574 82.7715C223.5 83.2637 224.186 83.8555 224.631 84.5469C225.076 85.2383 225.299 86.0762 225.299 87.0605C225.299 88.666 224.648 89.9492 223.348 90.9102C222.059 91.8711 220.371 92.3516 218.285 92.3516C216.07 92.3516 214.271 91.8184 212.889 90.752C211.518 89.6738 210.832 88.3145 210.832 86.6738H212.941C213.023 87.9043 213.539 88.8652 214.488 89.5566C215.449 90.2363 216.715 90.5762 218.285 90.5762C219.75 90.5762 220.934 90.2539 221.836 89.6094C222.738 88.9648 223.189 88.1504 223.189 87.166ZM242.051 92C241.84 91.4023 241.705 90.5176 241.646 89.3457C240.908 90.3066 239.965 91.0508 238.816 91.5781C237.68 92.0938 236.473 92.3516 235.195 92.3516C233.367 92.3516 231.885 91.8418 230.748 90.8223C229.623 89.8027 229.061 88.5137 229.061 86.9551C229.061 85.1035 229.828 83.6387 231.363 82.5605C232.91 81.4824 235.061 80.9434 237.814 80.9434H241.629V78.7812C241.629 77.4219 241.207 76.3555 240.363 75.582C239.531 74.7969 238.312 74.4043 236.707 74.4043C235.242 74.4043 234.029 74.7793 233.068 75.5293C232.107 76.2793 231.627 77.1816 231.627 78.2363L229.518 78.2188C229.518 76.707 230.221 75.4004 231.627 74.2988C233.033 73.1855 234.762 72.6289 236.812 72.6289C238.934 72.6289 240.604 73.1621 241.822 74.2285C243.053 75.2832 243.686 76.7598 243.721 78.6582V87.6582C243.721 89.498 243.914 90.875 244.301 91.7891V92H242.051ZM235.441 90.4883C236.848 90.4883 238.102 90.1484 239.203 89.4688C240.316 88.7891 241.125 87.8809 241.629 86.7441V82.5605H237.867C235.77 82.584 234.129 82.9707 232.945 83.7207C231.762 84.459 231.17 85.4785 231.17 86.7793C231.17 87.8457 231.562 88.7305 232.348 89.4336C233.145 90.1367 234.176 90.4883 235.441 90.4883ZM252.615 68.1113V72.9805H256.553V74.7031H252.615V87.377C252.615 88.4316 252.803 89.2168 253.178 89.7324C253.564 90.248 254.203 90.5059 255.094 90.5059C255.445 90.5059 256.014 90.4473 256.799 90.3301L256.887 92.0527C256.336 92.252 255.586 92.3516 254.637 92.3516C253.195 92.3516 252.146 91.9355 251.49 91.1035C250.834 90.2598 250.506 89.0234 250.506 87.3945V74.7031H247.008V72.9805H250.506V68.1113H252.615ZM268.277 92.3516C266.66 92.3516 265.195 91.9531 263.883 91.1562C262.582 90.3594 261.568 89.252 260.842 87.834C260.115 86.4043 259.752 84.8047 259.752 83.0352V82.2793C259.752 80.4512 260.104 78.8047 260.807 77.3398C261.521 75.875 262.512 74.7266 263.777 73.8945C265.043 73.0508 266.414 72.6289 267.891 72.6289C270.199 72.6289 272.027 73.4199 273.375 75.002C274.734 76.5723 275.414 78.7227 275.414 81.4531V82.6309H261.844V83.0352C261.844 85.1914 262.459 86.9902 263.689 88.4316C264.932 89.8613 266.49 90.5762 268.365 90.5762C269.49 90.5762 270.48 90.3711 271.336 89.9609C272.203 89.5508 272.988 88.8945 273.691 87.9922L275.01 88.9941C273.463 91.2324 271.219 92.3516 268.277 92.3516ZM267.891 74.4219C266.309 74.4219 264.973 75.002 263.883 76.1621C262.805 77.3223 262.148 78.8809 261.914 80.8379H273.322V80.6094C273.264 78.7812 272.742 77.293 271.758 76.1445C270.773 74.9961 269.484 74.4219 267.891 74.4219ZM291.744 89.5918C290.479 91.4316 288.457 92.3516 285.68 92.3516C283.652 92.3516 282.111 91.7656 281.057 90.5938C280.002 89.4102 279.463 87.6641 279.439 85.3555V72.9805H281.531V85.0918C281.531 88.7129 282.996 90.5234 285.926 90.5234C288.973 90.5234 290.9 89.2637 291.709 86.7441V72.9805H293.818V92H291.779L291.744 89.5918ZM308.092 74.7734C307.646 74.6914 307.172 74.6504 306.668 74.6504C305.355 74.6504 304.242 75.0195 303.328 75.7578C302.426 76.4844 301.781 77.5449 301.395 78.9395V92H299.303V72.9805H301.359L301.395 76.0039C302.508 73.7539 304.295 72.6289 306.756 72.6289C307.342 72.6289 307.805 72.7051 308.145 72.8574L308.092 74.7734ZM66.791 165.756C66.791 164.574 66.376 163.642 65.5459 162.958C64.7158 162.265 63.1973 161.61 60.9902 160.995C58.7832 160.37 57.1719 159.691 56.1562 158.959C54.7109 157.924 53.9883 156.566 53.9883 154.887C53.9883 153.256 54.6572 151.933 55.9951 150.917C57.3428 149.892 59.0615 149.379 61.1514 149.379C62.5674 149.379 63.832 149.652 64.9453 150.199C66.0684 150.746 66.9375 151.508 67.5527 152.484C68.168 153.461 68.4756 154.55 68.4756 155.751H66.6592C66.6592 154.296 66.1611 153.129 65.165 152.25C64.1689 151.361 62.8311 150.917 61.1514 150.917C59.5205 150.917 58.2217 151.283 57.2549 152.016C56.2881 152.738 55.8047 153.686 55.8047 154.857C55.8047 155.941 56.2393 156.825 57.1084 157.509C57.9775 158.192 59.3691 158.798 61.2832 159.325C63.1973 159.843 64.6475 160.385 65.6338 160.951C66.6201 161.508 67.3623 162.177 67.8604 162.958C68.3584 163.739 68.6074 164.662 68.6074 165.727C68.6074 167.406 67.9336 168.754 66.5859 169.77C65.248 170.785 63.4805 171.293 61.2832 171.293C59.7793 171.293 58.3975 171.024 57.1377 170.487C55.8877 169.95 54.9355 169.198 54.2812 168.231C53.6367 167.265 53.3145 166.156 53.3145 164.906H55.1162C55.1162 166.41 55.6777 167.597 56.8008 168.466C57.9238 169.335 59.418 169.77 61.2832 169.77C62.9434 169.77 64.2764 169.403 65.2822 168.671C66.2881 167.938 66.791 166.967 66.791 165.756ZM82.0986 171C81.9229 170.502 81.8105 169.765 81.7617 168.788C81.1465 169.589 80.3604 170.209 79.4033 170.648C78.4561 171.078 77.4502 171.293 76.3857 171.293C74.8623 171.293 73.627 170.868 72.6797 170.019C71.7422 169.169 71.2734 168.095 71.2734 166.796C71.2734 165.253 71.9131 164.032 73.1924 163.134C74.4814 162.235 76.2734 161.786 78.5684 161.786H81.7471V159.984C81.7471 158.852 81.3955 157.963 80.6924 157.318C79.999 156.664 78.9834 156.337 77.6455 156.337C76.4248 156.337 75.4141 156.649 74.6133 157.274C73.8125 157.899 73.4121 158.651 73.4121 159.53L71.6543 159.516C71.6543 158.256 72.2402 157.167 73.4121 156.249C74.584 155.321 76.0244 154.857 77.7334 154.857C79.501 154.857 80.8926 155.302 81.9082 156.19C82.9336 157.069 83.4609 158.3 83.4902 159.882V167.382C83.4902 168.915 83.6514 170.062 83.9736 170.824V171H82.0986ZM76.5908 169.74C77.7627 169.74 78.8076 169.457 79.7256 168.891C80.6533 168.324 81.3271 167.567 81.7471 166.62V163.134H78.6123C76.8643 163.153 75.4971 163.476 74.5107 164.101C73.5244 164.716 73.0312 165.565 73.0312 166.649C73.0312 167.538 73.3584 168.275 74.0127 168.861C74.6768 169.447 75.5361 169.74 76.5908 169.74ZM89.8477 155.15L89.9062 157.86C90.502 156.884 91.2441 156.142 92.1328 155.634C93.0215 155.116 94.0029 154.857 95.0771 154.857C96.7764 154.857 98.041 155.336 98.8711 156.293C99.7012 157.25 100.121 158.686 100.131 160.6V171H98.3877V160.585C98.3779 159.169 98.0752 158.114 97.4795 157.421C96.8936 156.728 95.9512 156.381 94.6523 156.381C93.5684 156.381 92.6064 156.723 91.7666 157.406C90.9365 158.08 90.3213 158.993 89.9209 160.146V171H88.1777V155.15H89.8477ZM114.164 166.972C114.164 166.103 113.812 165.404 113.109 164.877C112.416 164.35 111.366 163.939 109.96 163.646C108.554 163.344 107.46 163.002 106.679 162.621C105.907 162.23 105.331 161.757 104.95 161.2C104.579 160.644 104.394 159.97 104.394 159.179C104.394 157.929 104.916 156.898 105.961 156.088C107.006 155.268 108.344 154.857 109.975 154.857C111.742 154.857 113.158 155.297 114.223 156.176C115.297 157.045 115.834 158.183 115.834 159.589H114.076C114.076 158.661 113.686 157.89 112.904 157.274C112.133 156.659 111.156 156.352 109.975 156.352C108.822 156.352 107.895 156.61 107.191 157.128C106.498 157.636 106.151 158.3 106.151 159.12C106.151 159.911 106.439 160.526 107.016 160.966C107.602 161.396 108.661 161.791 110.194 162.152C111.737 162.514 112.89 162.899 113.651 163.31C114.423 163.72 114.994 164.213 115.365 164.789C115.736 165.365 115.922 166.063 115.922 166.884C115.922 168.222 115.38 169.291 114.296 170.092C113.222 170.893 111.815 171.293 110.077 171.293C108.231 171.293 106.732 170.849 105.58 169.96C104.438 169.062 103.866 167.929 103.866 166.562H105.624C105.692 167.587 106.122 168.388 106.913 168.964C107.714 169.53 108.769 169.813 110.077 169.813C111.298 169.813 112.284 169.545 113.036 169.008C113.788 168.471 114.164 167.792 114.164 166.972ZM133.31 171.293C131.962 171.293 130.741 170.961 129.647 170.297C128.563 169.633 127.719 168.71 127.113 167.528C126.508 166.337 126.205 165.004 126.205 163.529V162.899C126.205 161.376 126.498 160.004 127.084 158.783C127.68 157.562 128.505 156.605 129.56 155.912C130.614 155.209 131.757 154.857 132.987 154.857C134.911 154.857 136.435 155.517 137.558 156.835C138.69 158.144 139.257 159.936 139.257 162.211V163.192H127.948V163.529C127.948 165.326 128.461 166.825 129.486 168.026C130.521 169.218 131.82 169.813 133.383 169.813C134.32 169.813 135.146 169.643 135.858 169.301C136.581 168.959 137.235 168.412 137.821 167.66L138.92 168.495C137.631 170.36 135.761 171.293 133.31 171.293ZM132.987 156.352C131.669 156.352 130.556 156.835 129.647 157.802C128.749 158.769 128.202 160.067 128.007 161.698H137.514V161.508C137.465 159.984 137.03 158.744 136.21 157.787C135.39 156.83 134.315 156.352 132.987 156.352ZM144.34 155.15L144.398 157.86C144.994 156.884 145.736 156.142 146.625 155.634C147.514 155.116 148.495 154.857 149.569 154.857C151.269 154.857 152.533 155.336 153.363 156.293C154.193 157.25 154.613 158.686 154.623 160.6V171H152.88V160.585C152.87 159.169 152.567 158.114 151.972 157.421C151.386 156.728 150.443 156.381 149.145 156.381C148.061 156.381 147.099 156.723 146.259 157.406C145.429 158.08 144.813 158.993 144.413 160.146V171H142.67V155.15H144.34ZM158.461 162.929C158.461 160.448 159.008 158.485 160.102 157.04C161.205 155.585 162.699 154.857 164.584 154.857C166.742 154.857 168.383 155.717 169.506 157.436L169.594 155.15H171.234V170.678C171.234 172.719 170.663 174.335 169.521 175.526C168.378 176.718 166.83 177.313 164.877 177.313C163.773 177.313 162.719 177.064 161.713 176.566C160.717 176.078 159.931 175.424 159.354 174.604L160.336 173.549C161.576 175.072 163.051 175.834 164.76 175.834C166.225 175.834 167.367 175.399 168.188 174.53C169.008 173.671 169.433 172.475 169.462 170.941V168.949C168.339 170.512 166.703 171.293 164.555 171.293C162.719 171.293 161.244 170.561 160.131 169.096C159.018 167.631 158.461 165.653 158.461 163.163V162.929ZM160.233 163.236C160.233 165.258 160.639 166.854 161.449 168.026C162.26 169.188 163.402 169.77 164.877 169.77C167.035 169.77 168.563 168.803 169.462 166.869V159.501C169.052 158.485 168.461 157.714 167.689 157.187C166.918 156.649 165.99 156.381 164.906 156.381C163.432 156.381 162.284 156.962 161.464 158.124C160.644 159.276 160.233 160.98 160.233 163.236ZM185.81 171C185.634 170.502 185.521 169.765 185.473 168.788C184.857 169.589 184.071 170.209 183.114 170.648C182.167 171.078 181.161 171.293 180.097 171.293C178.573 171.293 177.338 170.868 176.391 170.019C175.453 169.169 174.984 168.095 174.984 166.796C174.984 165.253 175.624 164.032 176.903 163.134C178.192 162.235 179.984 161.786 182.279 161.786H185.458V159.984C185.458 158.852 185.106 157.963 184.403 157.318C183.71 156.664 182.694 156.337 181.356 156.337C180.136 156.337 179.125 156.649 178.324 157.274C177.523 157.899 177.123 158.651 177.123 159.53L175.365 159.516C175.365 158.256 175.951 157.167 177.123 156.249C178.295 155.321 179.735 154.857 181.444 154.857C183.212 154.857 184.604 155.302 185.619 156.19C186.645 157.069 187.172 158.3 187.201 159.882V167.382C187.201 168.915 187.362 170.062 187.685 170.824V171H185.81ZM180.302 169.74C181.474 169.74 182.519 169.457 183.437 168.891C184.364 168.324 185.038 167.567 185.458 166.62V163.134H182.323C180.575 163.153 179.208 163.476 178.222 164.101C177.235 164.716 176.742 165.565 176.742 166.649C176.742 167.538 177.069 168.275 177.724 168.861C178.388 169.447 179.247 169.74 180.302 169.74ZM191.186 162.929C191.186 160.448 191.732 158.485 192.826 157.04C193.93 155.585 195.424 154.857 197.309 154.857C199.467 154.857 201.107 155.717 202.23 157.436L202.318 155.15H203.959V170.678C203.959 172.719 203.388 174.335 202.245 175.526C201.103 176.718 199.555 177.313 197.602 177.313C196.498 177.313 195.443 177.064 194.438 176.566C193.441 176.078 192.655 175.424 192.079 174.604L193.061 173.549C194.301 175.072 195.775 175.834 197.484 175.834C198.949 175.834 200.092 175.399 200.912 174.53C201.732 173.671 202.157 172.475 202.187 170.941V168.949C201.063 170.512 199.428 171.293 197.279 171.293C195.443 171.293 193.969 170.561 192.855 169.096C191.742 167.631 191.186 165.653 191.186 163.163V162.929ZM192.958 163.236C192.958 165.258 193.363 166.854 194.174 168.026C194.984 169.188 196.127 169.77 197.602 169.77C199.76 169.77 201.288 168.803 202.187 166.869V159.501C201.776 158.485 201.186 157.714 200.414 157.187C199.643 156.649 198.715 156.381 197.631 156.381C196.156 156.381 195.009 156.962 194.188 158.124C193.368 159.276 192.958 160.98 192.958 163.236ZM214.667 171.293C213.319 171.293 212.099 170.961 211.005 170.297C209.921 169.633 209.076 168.71 208.471 167.528C207.865 166.337 207.562 165.004 207.562 163.529V162.899C207.562 161.376 207.855 160.004 208.441 158.783C209.037 157.562 209.862 156.605 210.917 155.912C211.972 155.209 213.114 154.857 214.345 154.857C216.269 154.857 217.792 155.517 218.915 156.835C220.048 158.144 220.614 159.936 220.614 162.211V163.192H209.306V163.529C209.306 165.326 209.818 166.825 210.844 168.026C211.879 169.218 213.178 169.813 214.74 169.813C215.678 169.813 216.503 169.643 217.216 169.301C217.938 168.959 218.593 168.412 219.179 167.66L220.277 168.495C218.988 170.36 217.118 171.293 214.667 171.293ZM214.345 156.352C213.026 156.352 211.913 156.835 211.005 157.802C210.106 158.769 209.56 160.067 209.364 161.698H218.871V161.508C218.822 159.984 218.388 158.744 217.567 157.787C216.747 156.83 215.673 156.352 214.345 156.352ZM225.624 155.15L225.683 157.729C226.269 156.771 227.001 156.054 227.88 155.575C228.759 155.097 229.735 154.857 230.81 154.857C233.31 154.857 234.896 155.883 235.57 157.934C236.137 156.947 236.894 156.19 237.841 155.663C238.788 155.126 239.833 154.857 240.976 154.857C244.374 154.857 246.107 156.713 246.176 160.424V171H244.418V160.556C244.408 159.14 244.101 158.09 243.495 157.406C242.899 156.723 241.923 156.381 240.565 156.381C239.306 156.4 238.241 156.811 237.372 157.611C236.503 158.402 236.02 159.369 235.922 160.512V171H234.164V160.424C234.154 159.066 233.832 158.056 233.197 157.392C232.572 156.718 231.605 156.381 230.297 156.381C229.193 156.381 228.246 156.698 227.455 157.333C226.664 157.958 226.078 158.891 225.697 160.131V171H223.939V155.15H225.624ZM256.767 171.293C255.419 171.293 254.198 170.961 253.104 170.297C252.021 169.633 251.176 168.71 250.57 167.528C249.965 166.337 249.662 165.004 249.662 163.529V162.899C249.662 161.376 249.955 160.004 250.541 158.783C251.137 157.562 251.962 156.605 253.017 155.912C254.071 155.209 255.214 154.857 256.444 154.857C258.368 154.857 259.892 155.517 261.015 156.835C262.147 158.144 262.714 159.936 262.714 162.211V163.192H251.405V163.529C251.405 165.326 251.918 166.825 252.943 168.026C253.979 169.218 255.277 169.813 256.84 169.813C257.777 169.813 258.603 169.643 259.315 169.301C260.038 168.959 260.692 168.412 261.278 167.66L262.377 168.495C261.088 170.36 259.218 171.293 256.767 171.293ZM256.444 156.352C255.126 156.352 254.013 156.835 253.104 157.802C252.206 158.769 251.659 160.067 251.464 161.698H260.971V161.508C260.922 159.984 260.487 158.744 259.667 157.787C258.847 156.83 257.772 156.352 256.444 156.352ZM267.797 155.15L267.855 157.86C268.451 156.884 269.193 156.142 270.082 155.634C270.971 155.116 271.952 154.857 273.026 154.857C274.726 154.857 275.99 155.336 276.82 156.293C277.65 157.25 278.07 158.686 278.08 160.6V171H276.337V160.585C276.327 159.169 276.024 158.114 275.429 157.421C274.843 156.728 273.9 156.381 272.602 156.381C271.518 156.381 270.556 156.723 269.716 157.406C268.886 158.08 268.271 158.993 267.87 160.146V171H266.127V155.15H267.797ZM285.346 151.093V155.15H288.627V156.586H285.346V167.147C285.346 168.026 285.502 168.681 285.814 169.11C286.137 169.54 286.669 169.755 287.411 169.755C287.704 169.755 288.178 169.706 288.832 169.608L288.905 171.044C288.446 171.21 287.821 171.293 287.03 171.293C285.829 171.293 284.955 170.946 284.408 170.253C283.861 169.55 283.588 168.52 283.588 167.162V156.586H280.673V155.15H283.588V151.093H285.346ZM59.9795 194.384H61.7959C62.8018 194.384 63.6807 194.208 64.4326 193.856C65.1846 193.495 65.7559 193.007 66.1465 192.392C66.5469 191.767 66.7471 191.049 66.7471 190.238C66.7471 188.871 66.3613 187.802 65.5898 187.03C64.8184 186.259 63.71 185.873 62.2646 185.873C60.8975 185.873 59.7744 186.278 58.8955 187.089C58.0264 187.89 57.5918 188.949 57.5918 190.268H55.834C55.834 189.164 56.1123 188.158 56.6689 187.25C57.2256 186.332 57.9971 185.624 58.9834 185.126C59.9697 184.628 61.0635 184.379 62.2646 184.379C64.1982 184.379 65.7217 184.906 66.835 185.961C67.9482 187.016 68.5049 188.461 68.5049 190.297C68.5049 191.322 68.1777 192.27 67.5234 193.139C66.8789 193.998 65.9902 194.643 64.8574 195.072C66.1855 195.443 67.1914 196.083 67.875 196.991C68.5586 197.89 68.9004 198.964 68.9004 200.214C68.9004 202.04 68.3047 203.51 67.1133 204.623C65.9219 205.736 64.3301 206.293 62.3379 206.293C61.0684 206.293 59.9014 206.039 58.8369 205.531C57.7822 205.023 56.9619 204.315 56.376 203.407C55.7998 202.489 55.5117 201.425 55.5117 200.214H57.2695C57.2695 201.571 57.7432 202.68 58.6904 203.539C59.6377 204.389 60.8535 204.813 62.3379 204.813C63.8516 204.813 65.0283 204.428 65.8682 203.656C66.7178 202.875 67.1426 201.747 67.1426 200.272C67.1426 198.847 66.6836 197.758 65.7656 197.006C64.8574 196.254 63.5146 195.878 61.7373 195.878H59.9795V194.384ZM83.0215 186.093V190.15H86.3027V191.586H83.0215V202.147C83.0215 203.026 83.1777 203.681 83.4902 204.11C83.8125 204.54 84.3447 204.755 85.0869 204.755C85.3799 204.755 85.8535 204.706 86.5078 204.608L86.5811 206.044C86.1221 206.21 85.4971 206.293 84.7061 206.293C83.5049 206.293 82.6309 205.946 82.084 205.253C81.5371 204.55 81.2637 203.52 81.2637 202.162V191.586H78.3486V190.15H81.2637V186.093H83.0215ZM94.96 203.48L99.5889 190.15H101.479L94.7109 208.695L94.3594 209.516C93.4902 211.439 92.1475 212.401 90.3311 212.401C89.9111 212.401 89.4619 212.333 88.9834 212.196L88.9688 210.746L89.877 210.834C90.7363 210.834 91.4297 210.619 91.957 210.189C92.4941 209.77 92.9482 209.042 93.3193 208.007L94.0957 205.868L88.1191 190.15H90.0381L94.96 203.48ZM116.947 198.236C116.947 200.707 116.4 202.67 115.307 204.125C114.213 205.57 112.748 206.293 110.912 206.293C108.744 206.293 107.084 205.531 105.932 204.008V212.094H104.188V190.15H105.814L105.902 192.392C107.045 190.702 108.7 189.857 110.868 189.857C112.763 189.857 114.247 190.575 115.321 192.011C116.405 193.446 116.947 195.438 116.947 197.987V198.236ZM115.189 197.929C115.189 195.907 114.774 194.311 113.944 193.139C113.114 191.967 111.957 191.381 110.473 191.381C109.398 191.381 108.476 191.64 107.704 192.157C106.933 192.675 106.342 193.427 105.932 194.413V202.016C106.352 202.924 106.952 203.617 107.733 204.096C108.515 204.574 109.438 204.813 110.502 204.813C111.977 204.813 113.124 204.228 113.944 203.056C114.774 201.874 115.189 200.165 115.189 197.929ZM126.981 206.293C125.634 206.293 124.413 205.961 123.319 205.297C122.235 204.633 121.391 203.71 120.785 202.528C120.18 201.337 119.877 200.004 119.877 198.529V197.899C119.877 196.376 120.17 195.004 120.756 193.783C121.352 192.562 122.177 191.605 123.231 190.912C124.286 190.209 125.429 189.857 126.659 189.857C128.583 189.857 130.106 190.517 131.229 191.835C132.362 193.144 132.929 194.936 132.929 197.211V198.192H121.62V198.529C121.62 200.326 122.133 201.825 123.158 203.026C124.193 204.218 125.492 204.813 127.055 204.813C127.992 204.813 128.817 204.643 129.53 204.301C130.253 203.959 130.907 203.412 131.493 202.66L132.592 203.495C131.303 205.36 129.433 206.293 126.981 206.293ZM126.659 191.352C125.341 191.352 124.228 191.835 123.319 192.802C122.421 193.769 121.874 195.067 121.679 196.698H131.186V196.508C131.137 194.984 130.702 193.744 129.882 192.787C129.062 191.83 127.987 191.352 126.659 191.352ZM145.834 201.972C145.834 201.103 145.482 200.404 144.779 199.877C144.086 199.35 143.036 198.939 141.63 198.646C140.224 198.344 139.13 198.002 138.349 197.621C137.577 197.23 137.001 196.757 136.62 196.2C136.249 195.644 136.063 194.97 136.063 194.179C136.063 192.929 136.586 191.898 137.631 191.088C138.676 190.268 140.014 189.857 141.645 189.857C143.412 189.857 144.828 190.297 145.893 191.176C146.967 192.045 147.504 193.183 147.504 194.589H145.746C145.746 193.661 145.355 192.89 144.574 192.274C143.803 191.659 142.826 191.352 141.645 191.352C140.492 191.352 139.564 191.61 138.861 192.128C138.168 192.636 137.821 193.3 137.821 194.12C137.821 194.911 138.109 195.526 138.686 195.966C139.271 196.396 140.331 196.791 141.864 197.152C143.407 197.514 144.56 197.899 145.321 198.31C146.093 198.72 146.664 199.213 147.035 199.789C147.406 200.365 147.592 201.063 147.592 201.884C147.592 203.222 147.05 204.291 145.966 205.092C144.892 205.893 143.485 206.293 141.747 206.293C139.901 206.293 138.402 205.849 137.25 204.96C136.107 204.062 135.536 202.929 135.536 201.562H137.294C137.362 202.587 137.792 203.388 138.583 203.964C139.384 204.53 140.438 204.813 141.747 204.813C142.968 204.813 143.954 204.545 144.706 204.008C145.458 203.471 145.834 202.792 145.834 201.972ZM158.139 197.929C158.139 195.468 158.686 193.51 159.779 192.055C160.883 190.59 162.377 189.857 164.262 189.857C166.4 189.857 168.031 190.702 169.154 192.392V183.5H170.897V206H169.257L169.184 203.891C168.061 205.492 166.41 206.293 164.232 206.293C162.406 206.293 160.932 205.561 159.809 204.096C158.695 202.621 158.139 200.634 158.139 198.134V197.929ZM159.911 198.236C159.911 200.258 160.316 201.854 161.127 203.026C161.938 204.188 163.08 204.77 164.555 204.77C166.713 204.77 168.246 203.817 169.154 201.913V194.472C168.246 192.411 166.723 191.381 164.584 191.381C163.109 191.381 161.962 191.962 161.142 193.124C160.321 194.276 159.911 195.98 159.911 198.236ZM181.649 206.293C180.302 206.293 179.081 205.961 177.987 205.297C176.903 204.633 176.059 203.71 175.453 202.528C174.848 201.337 174.545 200.004 174.545 198.529V197.899C174.545 196.376 174.838 195.004 175.424 193.783C176.02 192.562 176.845 191.605 177.899 190.912C178.954 190.209 180.097 189.857 181.327 189.857C183.251 189.857 184.774 190.517 185.897 191.835C187.03 193.144 187.597 194.936 187.597 197.211V198.192H176.288V198.529C176.288 200.326 176.801 201.825 177.826 203.026C178.861 204.218 180.16 204.813 181.723 204.813C182.66 204.813 183.485 204.643 184.198 204.301C184.921 203.959 185.575 203.412 186.161 202.66L187.26 203.495C185.971 205.36 184.101 206.293 181.649 206.293ZM181.327 191.352C180.009 191.352 178.896 191.835 177.987 192.802C177.089 193.769 176.542 195.067 176.347 196.698H185.854V196.508C185.805 194.984 185.37 193.744 184.55 192.787C183.729 191.83 182.655 191.352 181.327 191.352ZM200.268 206H198.51V183.5H200.268V206ZM207.006 206H205.248V190.15H207.006V206ZM204.94 185.565C204.94 185.233 205.048 184.955 205.263 184.73C205.478 184.496 205.771 184.379 206.142 184.379C206.513 184.379 206.806 184.496 207.021 184.73C207.245 184.955 207.357 185.233 207.357 185.565C207.357 185.897 207.245 186.176 207.021 186.4C206.806 186.625 206.513 186.737 206.142 186.737C205.771 186.737 205.478 186.625 205.263 186.4C205.048 186.176 204.94 185.897 204.94 185.565ZM217.641 204.813C218.861 204.813 219.882 204.472 220.702 203.788C221.532 203.095 221.981 202.201 222.05 201.107H223.734C223.686 202.074 223.383 202.958 222.826 203.759C222.27 204.55 221.527 205.17 220.6 205.619C219.682 206.068 218.695 206.293 217.641 206.293C215.561 206.293 213.91 205.57 212.689 204.125C211.479 202.68 210.873 200.736 210.873 198.295V197.768C210.873 196.205 211.146 194.823 211.693 193.622C212.24 192.421 213.021 191.493 214.037 190.839C215.062 190.185 216.259 189.857 217.626 189.857C219.364 189.857 220.795 190.375 221.918 191.41C223.051 192.445 223.656 193.808 223.734 195.497H222.05C221.972 194.257 221.522 193.256 220.702 192.494C219.892 191.732 218.866 191.352 217.626 191.352C216.044 191.352 214.813 191.923 213.935 193.065C213.065 194.208 212.631 195.81 212.631 197.87V198.383C212.631 200.404 213.065 201.981 213.935 203.114C214.813 204.247 216.049 204.813 217.641 204.813ZM233.388 206.293C232.04 206.293 230.819 205.961 229.726 205.297C228.642 204.633 227.797 203.71 227.191 202.528C226.586 201.337 226.283 200.004 226.283 198.529V197.899C226.283 196.376 226.576 195.004 227.162 193.783C227.758 192.562 228.583 191.605 229.638 190.912C230.692 190.209 231.835 189.857 233.065 189.857C234.989 189.857 236.513 190.517 237.636 191.835C238.769 193.144 239.335 194.936 239.335 197.211V198.192H228.026V198.529C228.026 200.326 228.539 201.825 229.564 203.026C230.6 204.218 231.898 204.813 233.461 204.813C234.398 204.813 235.224 204.643 235.937 204.301C236.659 203.959 237.313 203.412 237.899 202.66L238.998 203.495C237.709 205.36 235.839 206.293 233.388 206.293ZM233.065 191.352C231.747 191.352 230.634 191.835 229.726 192.802C228.827 193.769 228.28 195.067 228.085 196.698H237.592V196.508C237.543 194.984 237.108 193.744 236.288 192.787C235.468 191.83 234.394 191.352 233.065 191.352ZM244.418 190.15L244.477 192.86C245.072 191.884 245.814 191.142 246.703 190.634C247.592 190.116 248.573 189.857 249.647 189.857C251.347 189.857 252.611 190.336 253.441 191.293C254.271 192.25 254.691 193.686 254.701 195.6V206H252.958V195.585C252.948 194.169 252.646 193.114 252.05 192.421C251.464 191.728 250.521 191.381 249.223 191.381C248.139 191.381 247.177 191.723 246.337 192.406C245.507 193.08 244.892 193.993 244.491 195.146V206H242.748V190.15H244.418ZM265.102 204.813C266.322 204.813 267.343 204.472 268.163 203.788C268.993 203.095 269.442 202.201 269.511 201.107H271.195C271.146 202.074 270.844 202.958 270.287 203.759C269.73 204.55 268.988 205.17 268.061 205.619C267.143 206.068 266.156 206.293 265.102 206.293C263.021 206.293 261.371 205.57 260.15 204.125C258.939 202.68 258.334 200.736 258.334 198.295V197.768C258.334 196.205 258.607 194.823 259.154 193.622C259.701 192.421 260.482 191.493 261.498 190.839C262.523 190.185 263.72 189.857 265.087 189.857C266.825 189.857 268.256 190.375 269.379 191.41C270.512 192.445 271.117 193.808 271.195 195.497H269.511C269.433 194.257 268.983 193.256 268.163 192.494C267.353 191.732 266.327 191.352 265.087 191.352C263.505 191.352 262.274 191.923 261.396 193.065C260.526 194.208 260.092 195.81 260.092 197.87V198.383C260.092 200.404 260.526 201.981 261.396 203.114C262.274 204.247 263.51 204.813 265.102 204.813ZM280.849 206.293C279.501 206.293 278.28 205.961 277.187 205.297C276.103 204.633 275.258 203.71 274.652 202.528C274.047 201.337 273.744 200.004 273.744 198.529V197.899C273.744 196.376 274.037 195.004 274.623 193.783C275.219 192.562 276.044 191.605 277.099 190.912C278.153 190.209 279.296 189.857 280.526 189.857C282.45 189.857 283.974 190.517 285.097 191.835C286.229 193.144 286.796 194.936 286.796 197.211V198.192H275.487V198.529C275.487 200.326 276 201.825 277.025 203.026C278.061 204.218 279.359 204.813 280.922 204.813C281.859 204.813 282.685 204.643 283.397 204.301C284.12 203.959 284.774 203.412 285.36 202.66L286.459 203.495C285.17 205.36 283.3 206.293 280.849 206.293ZM280.526 191.352C279.208 191.352 278.095 191.835 277.187 192.802C276.288 193.769 275.741 195.067 275.546 196.698H285.053V196.508C285.004 194.984 284.569 193.744 283.749 192.787C282.929 191.83 281.854 191.352 280.526 191.352ZM14.1006 235.023H4.41797L2.2207 241H0.331055L8.40234 219.672H10.1162L18.1875 241H16.3125L14.1006 235.023ZM4.97461 233.485H13.5293L9.25195 221.869L4.97461 233.485ZM25.1309 238.583L29.9502 225.15H31.752L25.834 241H24.4131L18.4658 225.15H20.2676L25.1309 238.583ZM40.5703 241.293C39.2227 241.293 38.002 240.961 36.9082 240.297C35.8242 239.633 34.9795 238.71 34.374 237.528C33.7686 236.337 33.4658 235.004 33.4658 233.529V232.899C33.4658 231.376 33.7588 230.004 34.3447 228.783C34.9404 227.562 35.7656 226.605 36.8203 225.912C37.875 225.209 39.0176 224.857 40.248 224.857C42.1719 224.857 43.6953 225.517 44.8184 226.835C45.9512 228.144 46.5176 229.936 46.5176 232.211V233.192H35.209V233.529C35.209 235.326 35.7217 236.825 36.7471 238.026C37.7822 239.218 39.0811 239.813 40.6436 239.813C41.5811 239.813 42.4062 239.643 43.1191 239.301C43.8418 238.959 44.4961 238.412 45.082 237.66L46.1807 238.495C44.8916 240.36 43.0215 241.293 40.5703 241.293ZM40.248 226.352C38.9297 226.352 37.8164 226.835 36.9082 227.802C36.0098 228.769 35.4629 230.067 35.2676 231.698H44.7744V231.508C44.7256 229.984 44.291 228.744 43.4707 227.787C42.6504 226.83 41.5762 226.352 40.248 226.352ZM55.79 239.813C57.0107 239.813 58.0312 239.472 58.8516 238.788C59.6816 238.095 60.1309 237.201 60.1992 236.107H61.8838C61.835 237.074 61.5322 237.958 60.9756 238.759C60.4189 239.55 59.6768 240.17 58.749 240.619C57.8311 241.068 56.8447 241.293 55.79 241.293C53.71 241.293 52.0596 240.57 50.8389 239.125C49.6279 237.68 49.0225 235.736 49.0225 233.295V232.768C49.0225 231.205 49.2959 229.823 49.8428 228.622C50.3896 227.421 51.1709 226.493 52.1865 225.839C53.2119 225.185 54.4082 224.857 55.7754 224.857C57.5137 224.857 58.9443 225.375 60.0674 226.41C61.2002 227.445 61.8057 228.808 61.8838 230.497H60.1992C60.1211 229.257 59.6719 228.256 58.8516 227.494C58.041 226.732 57.0156 226.352 55.7754 226.352C54.1934 226.352 52.9629 226.923 52.084 228.065C51.2148 229.208 50.7803 230.81 50.7803 232.87V233.383C50.7803 235.404 51.2148 236.981 52.084 238.114C52.9629 239.247 54.1982 239.813 55.79 239.813ZM71.7275 232.841C71.7275 231.317 72.0205 229.945 72.6064 228.725C73.2021 227.504 74.0371 226.557 75.1113 225.883C76.1953 225.199 77.4209 224.857 78.7881 224.857C80.8975 224.857 82.6064 225.6 83.915 227.084C85.2236 228.559 85.8779 230.517 85.8779 232.958V233.324C85.8779 234.857 85.5801 236.239 84.9844 237.47C84.3984 238.69 83.5684 239.633 82.4941 240.297C81.4199 240.961 80.1943 241.293 78.8174 241.293C76.7178 241.293 75.0088 240.556 73.6904 239.081C72.3818 237.597 71.7275 235.634 71.7275 233.192V232.841ZM73.4854 233.324C73.4854 235.219 73.9736 236.776 74.9502 237.997C75.9365 239.208 77.2256 239.813 78.8174 239.813C80.3994 239.813 81.6787 239.208 82.6553 237.997C83.6416 236.776 84.1348 235.17 84.1348 233.178V232.841C84.1348 231.63 83.9102 230.521 83.4609 229.516C83.0117 228.51 82.3818 227.733 81.5713 227.187C80.7607 226.63 79.833 226.352 78.7881 226.352C77.2256 226.352 75.9512 226.967 74.9648 228.197C73.9785 229.418 73.4854 231.02 73.4854 233.002V233.324ZM99.7061 238.993C98.6514 240.526 96.9668 241.293 94.6523 241.293C92.9629 241.293 91.6787 240.805 90.7998 239.828C89.9209 238.842 89.4717 237.387 89.4521 235.463V225.15H91.1953V235.243C91.1953 238.261 92.416 239.77 94.8574 239.77C97.3965 239.77 99.0029 238.72 99.6768 236.62V225.15H101.435V241H99.7354L99.7061 238.993ZM122.792 236.972C122.792 236.103 122.44 235.404 121.737 234.877C121.044 234.35 119.994 233.939 118.588 233.646C117.182 233.344 116.088 233.002 115.307 232.621C114.535 232.23 113.959 231.757 113.578 231.2C113.207 230.644 113.021 229.97 113.021 229.179C113.021 227.929 113.544 226.898 114.589 226.088C115.634 225.268 116.972 224.857 118.603 224.857C120.37 224.857 121.786 225.297 122.851 226.176C123.925 227.045 124.462 228.183 124.462 229.589H122.704C122.704 228.661 122.313 227.89 121.532 227.274C120.761 226.659 119.784 226.352 118.603 226.352C117.45 226.352 116.522 226.61 115.819 227.128C115.126 227.636 114.779 228.3 114.779 229.12C114.779 229.911 115.067 230.526 115.644 230.966C116.229 231.396 117.289 231.791 118.822 232.152C120.365 232.514 121.518 232.899 122.279 233.31C123.051 233.72 123.622 234.213 123.993 234.789C124.364 235.365 124.55 236.063 124.55 236.884C124.55 238.222 124.008 239.291 122.924 240.092C121.85 240.893 120.443 241.293 118.705 241.293C116.859 241.293 115.36 240.849 114.208 239.96C113.065 239.062 112.494 237.929 112.494 236.562H114.252C114.32 237.587 114.75 238.388 115.541 238.964C116.342 239.53 117.396 239.813 118.705 239.813C119.926 239.813 120.912 239.545 121.664 239.008C122.416 238.471 122.792 237.792 122.792 236.972ZM138.51 241C138.334 240.502 138.222 239.765 138.173 238.788C137.558 239.589 136.771 240.209 135.814 240.648C134.867 241.078 133.861 241.293 132.797 241.293C131.273 241.293 130.038 240.868 129.091 240.019C128.153 239.169 127.685 238.095 127.685 236.796C127.685 235.253 128.324 234.032 129.604 233.134C130.893 232.235 132.685 231.786 134.979 231.786H138.158V229.984C138.158 228.852 137.807 227.963 137.104 227.318C136.41 226.664 135.395 226.337 134.057 226.337C132.836 226.337 131.825 226.649 131.024 227.274C130.224 227.899 129.823 228.651 129.823 229.53L128.065 229.516C128.065 228.256 128.651 227.167 129.823 226.249C130.995 225.321 132.436 224.857 134.145 224.857C135.912 224.857 137.304 225.302 138.319 226.19C139.345 227.069 139.872 228.3 139.901 229.882V237.382C139.901 238.915 140.062 240.062 140.385 240.824V241H138.51ZM133.002 239.74C134.174 239.74 135.219 239.457 136.137 238.891C137.064 238.324 137.738 237.567 138.158 236.62V233.134H135.023C133.275 233.153 131.908 233.476 130.922 234.101C129.936 234.716 129.442 235.565 129.442 236.649C129.442 237.538 129.77 238.275 130.424 238.861C131.088 239.447 131.947 239.74 133.002 239.74ZM146.259 225.15L146.317 227.86C146.913 226.884 147.655 226.142 148.544 225.634C149.433 225.116 150.414 224.857 151.488 224.857C153.188 224.857 154.452 225.336 155.282 226.293C156.112 227.25 156.532 228.686 156.542 230.6V241H154.799V230.585C154.789 229.169 154.486 228.114 153.891 227.421C153.305 226.728 152.362 226.381 151.063 226.381C149.979 226.381 149.018 226.723 148.178 227.406C147.348 228.08 146.732 228.993 146.332 230.146V241H144.589V225.15H146.259ZM170.575 236.972C170.575 236.103 170.224 235.404 169.521 234.877C168.827 234.35 167.777 233.939 166.371 233.646C164.965 233.344 163.871 233.002 163.09 232.621C162.318 232.23 161.742 231.757 161.361 231.2C160.99 230.644 160.805 229.97 160.805 229.179C160.805 227.929 161.327 226.898 162.372 226.088C163.417 225.268 164.755 224.857 166.386 224.857C168.153 224.857 169.569 225.297 170.634 226.176C171.708 227.045 172.245 228.183 172.245 229.589H170.487C170.487 228.661 170.097 227.89 169.315 227.274C168.544 226.659 167.567 226.352 166.386 226.352C165.233 226.352 164.306 226.61 163.603 227.128C162.909 227.636 162.562 228.3 162.562 229.12C162.562 229.911 162.851 230.526 163.427 230.966C164.013 231.396 165.072 231.791 166.605 232.152C168.148 232.514 169.301 232.899 170.062 233.31C170.834 233.72 171.405 234.213 171.776 234.789C172.147 235.365 172.333 236.063 172.333 236.884C172.333 238.222 171.791 239.291 170.707 240.092C169.633 240.893 168.227 241.293 166.488 241.293C164.643 241.293 163.144 240.849 161.991 239.96C160.849 239.062 160.277 237.929 160.277 236.562H162.035C162.104 237.587 162.533 238.388 163.324 238.964C164.125 239.53 165.18 239.813 166.488 239.813C167.709 239.813 168.695 239.545 169.447 239.008C170.199 238.471 170.575 237.792 170.575 236.972ZM188.52 238.583L193.339 225.15H195.141L189.223 241H187.802L181.854 225.15H183.656L188.52 238.583ZM196.825 232.841C196.825 231.317 197.118 229.945 197.704 228.725C198.3 227.504 199.135 226.557 200.209 225.883C201.293 225.199 202.519 224.857 203.886 224.857C205.995 224.857 207.704 225.6 209.013 227.084C210.321 228.559 210.976 230.517 210.976 232.958V233.324C210.976 234.857 210.678 236.239 210.082 237.47C209.496 238.69 208.666 239.633 207.592 240.297C206.518 240.961 205.292 241.293 203.915 241.293C201.815 241.293 200.106 240.556 198.788 239.081C197.479 237.597 196.825 235.634 196.825 233.192V232.841ZM198.583 233.324C198.583 235.219 199.071 236.776 200.048 237.997C201.034 239.208 202.323 239.813 203.915 239.813C205.497 239.813 206.776 239.208 207.753 237.997C208.739 236.776 209.232 235.17 209.232 233.178V232.841C209.232 231.63 209.008 230.521 208.559 229.516C208.109 228.51 207.479 227.733 206.669 227.187C205.858 226.63 204.931 226.352 203.886 226.352C202.323 226.352 201.049 226.967 200.062 228.197C199.076 229.418 198.583 231.02 198.583 233.002V233.324ZM224.101 236.972C224.101 236.103 223.749 235.404 223.046 234.877C222.353 234.35 221.303 233.939 219.896 233.646C218.49 233.344 217.396 233.002 216.615 232.621C215.844 232.23 215.268 231.757 214.887 231.2C214.516 230.644 214.33 229.97 214.33 229.179C214.33 227.929 214.853 226.898 215.897 226.088C216.942 225.268 218.28 224.857 219.911 224.857C221.679 224.857 223.095 225.297 224.159 226.176C225.233 227.045 225.771 228.183 225.771 229.589H224.013C224.013 228.661 223.622 227.89 222.841 227.274C222.069 226.659 221.093 226.352 219.911 226.352C218.759 226.352 217.831 226.61 217.128 227.128C216.435 227.636 216.088 228.3 216.088 229.12C216.088 229.911 216.376 230.526 216.952 230.966C217.538 231.396 218.598 231.791 220.131 232.152C221.674 232.514 222.826 232.899 223.588 233.31C224.359 233.72 224.931 234.213 225.302 234.789C225.673 235.365 225.858 236.063 225.858 236.884C225.858 238.222 225.316 239.291 224.232 240.092C223.158 240.893 221.752 241.293 220.014 241.293C218.168 241.293 216.669 240.849 215.517 239.96C214.374 239.062 213.803 237.929 213.803 236.562H215.561C215.629 237.587 216.059 238.388 216.85 238.964C217.65 239.53 218.705 239.813 220.014 239.813C221.234 239.813 222.221 239.545 222.973 239.008C223.725 238.471 224.101 237.792 224.101 236.972ZM239.833 221.093V225.15H243.114V226.586H239.833V237.147C239.833 238.026 239.989 238.681 240.302 239.11C240.624 239.54 241.156 239.755 241.898 239.755C242.191 239.755 242.665 239.706 243.319 239.608L243.393 241.044C242.934 241.21 242.309 241.293 241.518 241.293C240.316 241.293 239.442 240.946 238.896 240.253C238.349 239.55 238.075 238.52 238.075 237.162V226.586H235.16V225.15H238.075V221.093H239.833ZM252.885 241.293C251.537 241.293 250.316 240.961 249.223 240.297C248.139 239.633 247.294 238.71 246.688 237.528C246.083 236.337 245.78 235.004 245.78 233.529V232.899C245.78 231.376 246.073 230.004 246.659 228.783C247.255 227.562 248.08 226.605 249.135 225.912C250.189 225.209 251.332 224.857 252.562 224.857C254.486 224.857 256.01 225.517 257.133 226.835C258.266 228.144 258.832 229.936 258.832 232.211V233.192H247.523V233.529C247.523 235.326 248.036 236.825 249.062 238.026C250.097 239.218 251.396 239.813 252.958 239.813C253.896 239.813 254.721 239.643 255.434 239.301C256.156 238.959 256.811 238.412 257.396 237.66L258.495 238.495C257.206 240.36 255.336 241.293 252.885 241.293ZM252.562 226.352C251.244 226.352 250.131 226.835 249.223 227.802C248.324 228.769 247.777 230.067 247.582 231.698H257.089V231.508C257.04 229.984 256.605 228.744 255.785 227.787C254.965 226.83 253.891 226.352 252.562 226.352ZM271.737 236.972C271.737 236.103 271.386 235.404 270.683 234.877C269.989 234.35 268.939 233.939 267.533 233.646C266.127 233.344 265.033 233.002 264.252 232.621C263.48 232.23 262.904 231.757 262.523 231.2C262.152 230.644 261.967 229.97 261.967 229.179C261.967 227.929 262.489 226.898 263.534 226.088C264.579 225.268 265.917 224.857 267.548 224.857C269.315 224.857 270.731 225.297 271.796 226.176C272.87 227.045 273.407 228.183 273.407 229.589H271.649C271.649 228.661 271.259 227.89 270.478 227.274C269.706 226.659 268.729 226.352 267.548 226.352C266.396 226.352 265.468 226.61 264.765 227.128C264.071 227.636 263.725 228.3 263.725 229.12C263.725 229.911 264.013 230.526 264.589 230.966C265.175 231.396 266.234 231.791 267.768 232.152C269.311 232.514 270.463 232.899 271.225 233.31C271.996 233.72 272.567 234.213 272.938 234.789C273.31 235.365 273.495 236.063 273.495 236.884C273.495 238.222 272.953 239.291 271.869 240.092C270.795 240.893 269.389 241.293 267.65 241.293C265.805 241.293 264.306 240.849 263.153 239.96C262.011 239.062 261.439 237.929 261.439 236.562H263.197C263.266 237.587 263.695 238.388 264.486 238.964C265.287 239.53 266.342 239.813 267.65 239.813C268.871 239.813 269.857 239.545 270.609 239.008C271.361 238.471 271.737 237.792 271.737 236.972ZM280.175 221.093V225.15H283.456V226.586H280.175V237.147C280.175 238.026 280.331 238.681 280.644 239.11C280.966 239.54 281.498 239.755 282.24 239.755C282.533 239.755 283.007 239.706 283.661 239.608L283.734 241.044C283.275 241.21 282.65 241.293 281.859 241.293C280.658 241.293 279.784 240.946 279.237 240.253C278.69 239.55 278.417 238.52 278.417 237.162V226.586H275.502V225.15H278.417V221.093H280.175ZM293.227 241.293C291.879 241.293 290.658 240.961 289.564 240.297C288.48 239.633 287.636 238.71 287.03 237.528C286.425 236.337 286.122 235.004 286.122 233.529V232.899C286.122 231.376 286.415 230.004 287.001 228.783C287.597 227.562 288.422 226.605 289.477 225.912C290.531 225.209 291.674 224.857 292.904 224.857C294.828 224.857 296.352 225.517 297.475 226.835C298.607 228.144 299.174 229.936 299.174 232.211V233.192H287.865V233.529C287.865 235.326 288.378 236.825 289.403 238.026C290.438 239.218 291.737 239.813 293.3 239.813C294.237 239.813 295.062 239.643 295.775 239.301C296.498 238.959 297.152 238.412 297.738 237.66L298.837 238.495C297.548 240.36 295.678 241.293 293.227 241.293ZM292.904 226.352C291.586 226.352 290.473 226.835 289.564 227.802C288.666 228.769 288.119 230.067 287.924 231.698H297.431V231.508C297.382 229.984 296.947 228.744 296.127 227.787C295.307 226.83 294.232 226.352 292.904 226.352ZM312.782 238.993C311.728 240.526 310.043 241.293 307.729 241.293C306.039 241.293 304.755 240.805 303.876 239.828C302.997 238.842 302.548 237.387 302.528 235.463V225.15H304.271V235.243C304.271 238.261 305.492 239.77 307.934 239.77C310.473 239.77 312.079 238.72 312.753 236.62V225.15H314.511V241H312.812L312.782 238.993ZM326.405 226.645C326.034 226.576 325.639 226.542 325.219 226.542C324.125 226.542 323.197 226.85 322.436 227.465C321.684 228.07 321.146 228.954 320.824 230.116V241H319.081V225.15H320.795L320.824 227.67C321.752 225.795 323.241 224.857 325.292 224.857C325.78 224.857 326.166 224.921 326.449 225.048L326.405 226.645ZM338.681 236.972C338.681 236.103 338.329 235.404 337.626 234.877C336.933 234.35 335.883 233.939 334.477 233.646C333.07 233.344 331.977 233.002 331.195 232.621C330.424 232.23 329.848 231.757 329.467 231.2C329.096 230.644 328.91 229.97 328.91 229.179C328.91 227.929 329.433 226.898 330.478 226.088C331.522 225.268 332.86 224.857 334.491 224.857C336.259 224.857 337.675 225.297 338.739 226.176C339.813 227.045 340.351 228.183 340.351 229.589H338.593C338.593 228.661 338.202 227.89 337.421 227.274C336.649 226.659 335.673 226.352 334.491 226.352C333.339 226.352 332.411 226.61 331.708 227.128C331.015 227.636 330.668 228.3 330.668 229.12C330.668 229.911 330.956 230.526 331.532 230.966C332.118 231.396 333.178 231.791 334.711 232.152C336.254 232.514 337.406 232.899 338.168 233.31C338.939 233.72 339.511 234.213 339.882 234.789C340.253 235.365 340.438 236.063 340.438 236.884C340.438 238.222 339.896 239.291 338.812 240.092C337.738 240.893 336.332 241.293 334.594 241.293C332.748 241.293 331.249 240.849 330.097 239.96C328.954 239.062 328.383 237.929 328.383 236.562H330.141C330.209 237.587 330.639 238.388 331.43 238.964C332.23 239.53 333.285 239.813 334.594 239.813C335.814 239.813 336.801 239.545 337.553 239.008C338.305 238.471 338.681 237.792 338.681 236.972Z" fill="black"/>
</svg>
