<svg width="282" height="213" viewBox="0 0 282 213" fill="none" xmlns="http://www.w3.org/2000/svg">
<path d="M117.252 44H88.5703V39.1074L102.779 23.6094C104.83 21.3242 106.285 19.4199 107.145 17.8965C108.023 16.3535 108.463 14.8105 108.463 13.2676C108.463 11.2363 107.887 9.5957 106.734 8.3457C105.602 7.0957 104.068 6.4707 102.135 6.4707C99.8301 6.4707 98.043 7.17383 96.7734 8.58008C95.5039 9.98633 94.8691 11.9102 94.8691 14.3516H87.75C87.75 11.7539 88.3359 9.41992 89.5078 7.34961C90.6992 5.25977 92.3887 3.63867 94.5762 2.48633C96.7832 1.33398 99.3223 0.757812 102.193 0.757812C106.334 0.757812 109.596 1.80273 111.979 3.89258C114.381 5.96289 115.582 8.83398 115.582 12.5059C115.582 14.6348 114.977 16.8711 113.766 19.2148C112.574 21.5391 110.611 24.1855 107.877 27.1543L97.4473 38.3164H117.252V44ZM124.576 22.8477L126.891 1.34375H149.801V7.49609H132.809L131.637 17.6914C133.609 16.5586 135.836 15.9922 138.316 15.9922C142.379 15.9922 145.533 17.291 147.779 19.8887C150.045 22.4863 151.178 25.9824 151.178 30.377C151.178 34.7129 149.928 38.1699 147.428 40.748C144.928 43.3066 141.5 44.5859 137.145 44.5859C133.238 44.5859 129.996 43.4824 127.418 41.2754C124.859 39.0488 123.473 36.1191 123.258 32.4863H130.143C130.416 34.5566 131.158 36.1484 132.369 37.2617C133.58 38.3555 135.162 38.9023 137.115 38.9023C139.303 38.9023 141.002 38.1211 142.213 36.5586C143.443 34.9961 144.059 32.8672 144.059 30.1719C144.059 27.5742 143.385 25.5234 142.037 24.0195C140.689 22.4961 138.834 21.7344 136.471 21.7344C135.182 21.7344 134.088 21.9102 133.189 22.2617C132.291 22.5938 131.314 23.2578 130.26 24.2539L124.576 22.8477ZM194.127 28.5605H183.697C183.814 31.959 184.664 34.498 186.246 36.1777C187.848 37.8574 190.133 38.6973 193.102 38.6973C195.25 38.6973 197.252 38.375 199.107 37.7305L199.928 43.707C197.584 44.2734 195.162 44.5566 192.662 44.5566C187.662 44.5566 183.727 43.1504 180.855 40.3379C177.984 37.5254 176.471 33.5996 176.314 28.5605H171.275V24.4297H176.314V20.6797H171.275V16.5488H176.344C176.598 11.5684 178.189 7.70117 181.119 4.94727C184.049 2.17383 187.984 0.787109 192.926 0.787109C194.996 0.787109 197.33 1.08984 199.928 1.69531L199.107 7.70117C197.115 7.03711 195.133 6.70508 193.16 6.70508C190.211 6.70508 187.945 7.54492 186.363 9.22461C184.781 10.9043 183.902 13.3457 183.727 16.5488H194.127V20.6797H183.697V24.4297H194.127V28.5605Z" fill="#00A359"/>
<path d="M15.5918 82.6836C15.5918 85.6484 14.9355 88.0039 13.623 89.75C12.3105 91.4844 10.5527 92.3516 8.34961 92.3516C5.74805 92.3516 3.75586 91.4375 2.37305 89.6094V99.3125H0.28125V72.9805H2.23242L2.33789 75.6699C3.70898 73.6426 5.69531 72.6289 8.29688 72.6289C10.5703 72.6289 12.3516 73.4902 13.6406 75.2129C14.9414 76.9355 15.5918 79.3262 15.5918 82.3848V82.6836ZM13.4824 82.3145C13.4824 79.8887 12.9844 77.9727 11.9883 76.5664C10.9922 75.1602 9.60352 74.457 7.82227 74.457C6.5332 74.457 5.42578 74.7676 4.5 75.3887C3.57422 76.0098 2.86523 76.9121 2.37305 78.0957V87.2188C2.87695 88.3086 3.59766 89.1406 4.53516 89.7148C5.47266 90.2891 6.58008 90.5762 7.85742 90.5762C9.62695 90.5762 11.0039 89.873 11.9883 88.4668C12.9844 87.0488 13.4824 84.998 13.4824 82.3145ZM32.2734 92C32.0625 91.4023 31.9277 90.5176 31.8691 89.3457C31.1309 90.3066 30.1875 91.0508 29.0391 91.5781C27.9023 92.0938 26.6953 92.3516 25.418 92.3516C23.5898 92.3516 22.1074 91.8418 20.9707 90.8223C19.8457 89.8027 19.2832 88.5137 19.2832 86.9551C19.2832 85.1035 20.0508 83.6387 21.5859 82.5605C23.1328 81.4824 25.2832 80.9434 28.0371 80.9434H31.8516V78.7812C31.8516 77.4219 31.4297 76.3555 30.5859 75.582C29.7539 74.7969 28.5352 74.4043 26.9297 74.4043C25.4648 74.4043 24.252 74.7793 23.291 75.5293C22.3301 76.2793 21.8496 77.1816 21.8496 78.2363L19.7402 78.2188C19.7402 76.707 20.4434 75.4004 21.8496 74.2988C23.2559 73.1855 24.9844 72.6289 27.0352 72.6289C29.1562 72.6289 30.8262 73.1621 32.0449 74.2285C33.2754 75.2832 33.9082 76.7598 33.9434 78.6582V87.6582C33.9434 89.498 34.1367 90.875 34.5234 91.7891V92H32.2734ZM25.6641 90.4883C27.0703 90.4883 28.3242 90.1484 29.4258 89.4688C30.5391 88.7891 31.3477 87.8809 31.8516 86.7441V82.5605H28.0898C25.9922 82.584 24.3516 82.9707 23.168 83.7207C21.9844 84.459 21.3926 85.4785 21.3926 86.7793C21.3926 87.8457 21.7852 88.7305 22.5703 89.4336C23.3672 90.1367 24.3984 90.4883 25.6641 90.4883ZM48.3574 74.7734C47.9121 74.6914 47.4375 74.6504 46.9336 74.6504C45.6211 74.6504 44.5078 75.0195 43.5938 75.7578C42.6914 76.4844 42.0469 77.5449 41.6602 78.9395V92H39.5684V72.9805H41.625L41.6602 76.0039C42.7734 73.7539 44.5605 72.6289 47.0215 72.6289C47.6074 72.6289 48.0703 72.7051 48.4102 72.8574L48.3574 74.7734ZM63.7207 68.1113V72.9805H67.6582V74.7031H63.7207V87.377C63.7207 88.4316 63.9082 89.2168 64.2832 89.7324C64.6699 90.248 65.3086 90.5059 66.1992 90.5059C66.5508 90.5059 67.1191 90.4473 67.9043 90.3301L67.9922 92.0527C67.4414 92.252 66.6914 92.3516 65.7422 92.3516C64.3008 92.3516 63.252 91.9355 62.5957 91.1035C61.9395 90.2598 61.6113 89.0234 61.6113 87.3945V74.7031H58.1133V72.9805H61.6113V68.1113H63.7207ZM79.3828 92.3516C77.7656 92.3516 76.3008 91.9531 74.9883 91.1562C73.6875 90.3594 72.6738 89.252 71.9473 87.834C71.2207 86.4043 70.8574 84.8047 70.8574 83.0352V82.2793C70.8574 80.4512 71.209 78.8047 71.9121 77.3398C72.627 75.875 73.6172 74.7266 74.8828 73.8945C76.1484 73.0508 77.5195 72.6289 78.9961 72.6289C81.3047 72.6289 83.1328 73.4199 84.4805 75.002C85.8398 76.5723 86.5195 78.7227 86.5195 81.4531V82.6309H72.9492V83.0352C72.9492 85.1914 73.5645 86.9902 74.7949 88.4316C76.0371 89.8613 77.5957 90.5762 79.4707 90.5762C80.5957 90.5762 81.5859 90.3711 82.4414 89.9609C83.3086 89.5508 84.0938 88.8945 84.7969 87.9922L86.1152 88.9941C84.5684 91.2324 82.3242 92.3516 79.3828 92.3516ZM78.9961 74.4219C77.4141 74.4219 76.0781 75.002 74.9883 76.1621C73.9102 77.3223 73.2539 78.8809 73.0195 80.8379H84.4277V80.6094C84.3691 78.7812 83.8477 77.293 82.8633 76.1445C81.8789 74.9961 80.5898 74.4219 78.9961 74.4219ZM102.006 87.166C102.006 86.123 101.584 85.2852 100.74 84.6523C99.9082 84.0195 98.6484 83.5273 96.9609 83.1758C95.2734 82.8125 93.9609 82.4023 93.0234 81.9453C92.0977 81.4766 91.4062 80.9082 90.9492 80.2402C90.5039 79.5723 90.2812 78.7637 90.2812 77.8145C90.2812 76.3145 90.9082 75.0781 92.1621 74.1055C93.416 73.1211 95.0215 72.6289 96.9785 72.6289C99.0996 72.6289 100.799 73.1562 102.076 74.2109C103.365 75.2539 104.01 76.6191 104.01 78.3066H101.9C101.9 77.1934 101.432 76.2676 100.494 75.5293C99.5684 74.791 98.3965 74.4219 96.9785 74.4219C95.5957 74.4219 94.4824 74.7324 93.6387 75.3535C92.8066 75.9629 92.3906 76.7598 92.3906 77.7441C92.3906 78.6934 92.7363 79.4316 93.4277 79.959C94.1309 80.4746 95.4023 80.9492 97.2422 81.3828C99.0938 81.8164 100.477 82.2793 101.391 82.7715C102.316 83.2637 103.002 83.8555 103.447 84.5469C103.893 85.2383 104.115 86.0762 104.115 87.0605C104.115 88.666 103.465 89.9492 102.164 90.9102C100.875 91.8711 99.1875 92.3516 97.1016 92.3516C94.8867 92.3516 93.0879 91.8184 91.7051 90.752C90.334 89.6738 89.6484 88.3145 89.6484 86.6738H91.7578C91.8398 87.9043 92.3555 88.8652 93.3047 89.5566C94.2656 90.2363 95.5312 90.5762 97.1016 90.5762C98.5664 90.5762 99.75 90.2539 100.652 89.6094C101.555 88.9648 102.006 88.1504 102.006 87.166ZM112.131 68.1113V72.9805H116.068V74.7031H112.131V87.377C112.131 88.4316 112.318 89.2168 112.693 89.7324C113.08 90.248 113.719 90.5059 114.609 90.5059C114.961 90.5059 115.529 90.4473 116.314 90.3301L116.402 92.0527C115.852 92.252 115.102 92.3516 114.152 92.3516C112.711 92.3516 111.662 91.9355 111.006 91.1035C110.35 90.2598 110.021 89.0234 110.021 87.3945V74.7031H106.523V72.9805H110.021V68.1113H112.131ZM141.416 89.5918C140.15 91.4316 138.129 92.3516 135.352 92.3516C133.324 92.3516 131.783 91.7656 130.729 90.5938C129.674 89.4102 129.135 87.6641 129.111 85.3555V72.9805H131.203V85.0918C131.203 88.7129 132.668 90.5234 135.598 90.5234C138.645 90.5234 140.572 89.2637 141.381 86.7441V72.9805H143.49V92H141.451L141.416 89.5918ZM152.244 68.1113V72.9805H156.182V74.7031H152.244V87.377C152.244 88.4316 152.432 89.2168 152.807 89.7324C153.193 90.248 153.832 90.5059 154.723 90.5059C155.074 90.5059 155.643 90.4473 156.428 90.3301L156.516 92.0527C155.965 92.252 155.215 92.3516 154.266 92.3516C152.824 92.3516 151.775 91.9355 151.119 91.1035C150.463 90.2598 150.135 89.0234 150.135 87.3945V74.7031H146.637V72.9805H150.135V68.1113H152.244ZM162.896 92H160.787V72.9805H162.896V92ZM160.418 67.4785C160.418 67.0801 160.547 66.7461 160.805 66.4766C161.062 66.1953 161.414 66.0547 161.859 66.0547C162.305 66.0547 162.656 66.1953 162.914 66.4766C163.184 66.7461 163.318 67.0801 163.318 67.4785C163.318 67.877 163.184 68.2109 162.914 68.4805C162.656 68.75 162.305 68.8848 161.859 68.8848C161.414 68.8848 161.062 68.75 160.805 68.4805C160.547 68.2109 160.418 67.877 160.418 67.4785ZM170.982 92H168.873V65H170.982V92ZM179.068 92H176.959V72.9805H179.068V92ZM176.59 67.4785C176.59 67.0801 176.719 66.7461 176.977 66.4766C177.234 66.1953 177.586 66.0547 178.031 66.0547C178.477 66.0547 178.828 66.1953 179.086 66.4766C179.355 66.7461 179.49 67.0801 179.49 67.4785C179.49 67.877 179.355 68.2109 179.086 68.4805C178.828 68.75 178.477 68.8848 178.031 68.8848C177.586 68.8848 177.234 68.75 176.977 68.4805C176.719 68.2109 176.59 67.877 176.59 67.4785ZM196.189 87.166C196.189 86.123 195.768 85.2852 194.924 84.6523C194.092 84.0195 192.832 83.5273 191.145 83.1758C189.457 82.8125 188.145 82.4023 187.207 81.9453C186.281 81.4766 185.59 80.9082 185.133 80.2402C184.688 79.5723 184.465 78.7637 184.465 77.8145C184.465 76.3145 185.092 75.0781 186.346 74.1055C187.6 73.1211 189.205 72.6289 191.162 72.6289C193.283 72.6289 194.982 73.1562 196.26 74.2109C197.549 75.2539 198.193 76.6191 198.193 78.3066H196.084C196.084 77.1934 195.615 76.2676 194.678 75.5293C193.752 74.791 192.58 74.4219 191.162 74.4219C189.779 74.4219 188.666 74.7324 187.822 75.3535C186.99 75.9629 186.574 76.7598 186.574 77.7441C186.574 78.6934 186.92 79.4316 187.611 79.959C188.314 80.4746 189.586 80.9492 191.426 81.3828C193.277 81.8164 194.66 82.2793 195.574 82.7715C196.5 83.2637 197.186 83.8555 197.631 84.5469C198.076 85.2383 198.299 86.0762 198.299 87.0605C198.299 88.666 197.648 89.9492 196.348 90.9102C195.059 91.8711 193.371 92.3516 191.285 92.3516C189.07 92.3516 187.271 91.8184 185.889 90.752C184.518 89.6738 183.832 88.3145 183.832 86.6738H185.941C186.023 87.9043 186.539 88.8652 187.488 89.5566C188.449 90.2363 189.715 90.5762 191.285 90.5762C192.75 90.5762 193.934 90.2539 194.836 89.6094C195.738 88.9648 196.189 88.1504 196.189 87.166ZM215.051 92C214.84 91.4023 214.705 90.5176 214.646 89.3457C213.908 90.3066 212.965 91.0508 211.816 91.5781C210.68 92.0938 209.473 92.3516 208.195 92.3516C206.367 92.3516 204.885 91.8418 203.748 90.8223C202.623 89.8027 202.061 88.5137 202.061 86.9551C202.061 85.1035 202.828 83.6387 204.363 82.5605C205.91 81.4824 208.061 80.9434 210.814 80.9434H214.629V78.7812C214.629 77.4219 214.207 76.3555 213.363 75.582C212.531 74.7969 211.312 74.4043 209.707 74.4043C208.242 74.4043 207.029 74.7793 206.068 75.5293C205.107 76.2793 204.627 77.1816 204.627 78.2363L202.518 78.2188C202.518 76.707 203.221 75.4004 204.627 74.2988C206.033 73.1855 207.762 72.6289 209.812 72.6289C211.934 72.6289 213.604 73.1621 214.822 74.2285C216.053 75.2832 216.686 76.7598 216.721 78.6582V87.6582C216.721 89.498 216.914 90.875 217.301 91.7891V92H215.051ZM208.441 90.4883C209.848 90.4883 211.102 90.1484 212.203 89.4688C213.316 88.7891 214.125 87.8809 214.629 86.7441V82.5605H210.867C208.77 82.584 207.129 82.9707 205.945 83.7207C204.762 84.459 204.17 85.4785 204.17 86.7793C204.17 87.8457 204.562 88.7305 205.348 89.4336C206.145 90.1367 207.176 90.4883 208.441 90.4883ZM225.615 68.1113V72.9805H229.553V74.7031H225.615V87.377C225.615 88.4316 225.803 89.2168 226.178 89.7324C226.564 90.248 227.203 90.5059 228.094 90.5059C228.445 90.5059 229.014 90.4473 229.799 90.3301L229.887 92.0527C229.336 92.252 228.586 92.3516 227.637 92.3516C226.195 92.3516 225.146 91.9355 224.49 91.1035C223.834 90.2598 223.506 89.0234 223.506 87.3945V74.7031H220.008V72.9805H223.506V68.1113H225.615ZM241.277 92.3516C239.66 92.3516 238.195 91.9531 236.883 91.1562C235.582 90.3594 234.568 89.252 233.842 87.834C233.115 86.4043 232.752 84.8047 232.752 83.0352V82.2793C232.752 80.4512 233.104 78.8047 233.807 77.3398C234.521 75.875 235.512 74.7266 236.777 73.8945C238.043 73.0508 239.414 72.6289 240.891 72.6289C243.199 72.6289 245.027 73.4199 246.375 75.002C247.734 76.5723 248.414 78.7227 248.414 81.4531V82.6309H234.844V83.0352C234.844 85.1914 235.459 86.9902 236.689 88.4316C237.932 89.8613 239.49 90.5762 241.365 90.5762C242.49 90.5762 243.48 90.3711 244.336 89.9609C245.203 89.5508 245.988 88.8945 246.691 87.9922L248.01 88.9941C246.463 91.2324 244.219 92.3516 241.277 92.3516ZM240.891 74.4219C239.309 74.4219 237.973 75.002 236.883 76.1621C235.805 77.3223 235.148 78.8809 234.914 80.8379H246.322V80.6094C246.264 78.7812 245.742 77.293 244.758 76.1445C243.773 74.9961 242.484 74.4219 240.891 74.4219ZM264.744 89.5918C263.479 91.4316 261.457 92.3516 258.68 92.3516C256.652 92.3516 255.111 91.7656 254.057 90.5938C253.002 89.4102 252.463 87.6641 252.439 85.3555V72.9805H254.531V85.0918C254.531 88.7129 255.996 90.5234 258.926 90.5234C261.973 90.5234 263.9 89.2637 264.709 86.7441V72.9805H266.818V92H264.779L264.744 89.5918ZM281.092 74.7734C280.646 74.6914 280.172 74.6504 279.668 74.6504C278.355 74.6504 277.242 75.0195 276.328 75.7578C275.426 76.4844 274.781 77.5449 274.395 78.9395V92H272.303V72.9805H274.359L274.395 76.0039C275.508 73.7539 277.295 72.6289 279.756 72.6289C280.342 72.6289 280.805 72.7051 281.145 72.8574L281.092 74.7734ZM38.1943 162.313V171H36.3926V149.672H43.6582C45.875 149.672 47.623 150.238 48.9023 151.371C50.1914 152.504 50.8359 154.062 50.8359 156.044C50.8359 158.046 50.2158 159.594 48.9756 160.688C47.7451 161.771 45.958 162.313 43.6143 162.313H38.1943ZM38.1943 160.79H43.6582C45.4062 160.79 46.7393 160.375 47.6572 159.545C48.5752 158.715 49.0342 157.558 49.0342 156.073C49.0342 154.599 48.5752 153.427 47.6572 152.558C46.749 151.679 45.4551 151.229 43.7754 151.21H38.1943V160.79ZM64.2979 171C64.1221 170.502 64.0098 169.765 63.9609 168.788C63.3457 169.589 62.5596 170.209 61.6025 170.648C60.6553 171.078 59.6494 171.293 58.585 171.293C57.0615 171.293 55.8262 170.868 54.8789 170.019C53.9414 169.169 53.4727 168.095 53.4727 166.796C53.4727 165.253 54.1123 164.032 55.3916 163.134C56.6807 162.235 58.4727 161.786 60.7676 161.786H63.9463V159.984C63.9463 158.852 63.5947 157.963 62.8916 157.318C62.1982 156.664 61.1826 156.337 59.8447 156.337C58.624 156.337 57.6133 156.649 56.8125 157.274C56.0117 157.899 55.6113 158.651 55.6113 159.53L53.8535 159.516C53.8535 158.256 54.4395 157.167 55.6113 156.249C56.7832 155.321 58.2236 154.857 59.9326 154.857C61.7002 154.857 63.0918 155.302 64.1074 156.19C65.1328 157.069 65.6602 158.3 65.6895 159.882V167.382C65.6895 168.915 65.8506 170.062 66.1729 170.824V171H64.2979ZM58.79 169.74C59.9619 169.74 61.0068 169.457 61.9248 168.891C62.8525 168.324 63.5264 167.567 63.9463 166.62V163.134H60.8115C59.0635 163.153 57.6963 163.476 56.71 164.101C55.7236 164.716 55.2305 165.565 55.2305 166.649C55.2305 167.538 55.5576 168.275 56.2119 168.861C56.876 169.447 57.7354 169.74 58.79 169.74ZM72.3398 171H70.582V155.15H72.3398V171ZM70.2744 150.565C70.2744 150.233 70.3818 149.955 70.5967 149.73C70.8115 149.496 71.1045 149.379 71.4756 149.379C71.8467 149.379 72.1396 149.496 72.3545 149.73C72.5791 149.955 72.6914 150.233 72.6914 150.565C72.6914 150.897 72.5791 151.176 72.3545 151.4C72.1396 151.625 71.8467 151.737 71.4756 151.737C71.1045 151.737 70.8115 151.625 70.5967 151.4C70.3818 151.176 70.2744 150.897 70.2744 150.565ZM83.2529 171.293C81.9053 171.293 80.6846 170.961 79.5908 170.297C78.5068 169.633 77.6621 168.71 77.0566 167.528C76.4512 166.337 76.1484 165.004 76.1484 163.529V162.899C76.1484 161.376 76.4414 160.004 77.0273 158.783C77.623 157.562 78.4482 156.605 79.5029 155.912C80.5576 155.209 81.7002 154.857 82.9307 154.857C84.8545 154.857 86.3779 155.517 87.501 156.835C88.6338 158.144 89.2002 159.936 89.2002 162.211V163.192H77.8916V163.529C77.8916 165.326 78.4043 166.825 79.4297 168.026C80.4648 169.218 81.7637 169.813 83.3262 169.813C84.2637 169.813 85.0889 169.643 85.8018 169.301C86.5244 168.959 87.1787 168.412 87.7646 167.66L88.8633 168.495C87.5742 170.36 85.7041 171.293 83.2529 171.293ZM82.9307 156.352C81.6123 156.352 80.499 156.835 79.5908 157.802C78.6924 158.769 78.1455 160.067 77.9502 161.698H87.457V161.508C87.4082 159.984 86.9736 158.744 86.1533 157.787C85.333 156.83 84.2588 156.352 82.9307 156.352ZM94.21 155.15L94.2686 157.729C94.8545 156.771 95.5869 156.054 96.4658 155.575C97.3447 155.097 98.3213 154.857 99.3955 154.857C101.896 154.857 103.482 155.883 104.156 157.934C104.723 156.947 105.479 156.19 106.427 155.663C107.374 155.126 108.419 154.857 109.562 154.857C112.96 154.857 114.693 156.713 114.762 160.424V171H113.004V160.556C112.994 159.14 112.687 158.09 112.081 157.406C111.485 156.723 110.509 156.381 109.151 156.381C107.892 156.4 106.827 156.811 105.958 157.611C105.089 158.402 104.605 159.369 104.508 160.512V171H102.75V160.424C102.74 159.066 102.418 158.056 101.783 157.392C101.158 156.718 100.191 156.381 98.8828 156.381C97.7793 156.381 96.832 156.698 96.041 157.333C95.25 157.958 94.6641 158.891 94.2832 160.131V171H92.5254V155.15H94.21ZM125.353 171.293C124.005 171.293 122.784 170.961 121.69 170.297C120.606 169.633 119.762 168.71 119.156 167.528C118.551 166.337 118.248 165.004 118.248 163.529V162.899C118.248 161.376 118.541 160.004 119.127 158.783C119.723 157.562 120.548 156.605 121.603 155.912C122.657 155.209 123.8 154.857 125.03 154.857C126.954 154.857 128.478 155.517 129.601 156.835C130.733 158.144 131.3 159.936 131.3 162.211V163.192H119.991V163.529C119.991 165.326 120.504 166.825 121.529 168.026C122.564 169.218 123.863 169.813 125.426 169.813C126.363 169.813 127.188 169.643 127.901 169.301C128.624 168.959 129.278 168.412 129.864 167.66L130.963 168.495C129.674 170.36 127.804 171.293 125.353 171.293ZM125.03 156.352C123.712 156.352 122.599 156.835 121.69 157.802C120.792 158.769 120.245 160.067 120.05 161.698H129.557V161.508C129.508 159.984 129.073 158.744 128.253 157.787C127.433 156.83 126.358 156.352 125.03 156.352ZM136.383 155.15L136.441 157.86C137.037 156.884 137.779 156.142 138.668 155.634C139.557 155.116 140.538 154.857 141.612 154.857C143.312 154.857 144.576 155.336 145.406 156.293C146.236 157.25 146.656 158.686 146.666 160.6V171H144.923V160.585C144.913 159.169 144.61 158.114 144.015 157.421C143.429 156.728 142.486 156.381 141.188 156.381C140.104 156.381 139.142 156.723 138.302 157.406C137.472 158.08 136.856 158.993 136.456 160.146V171H134.713V155.15H136.383ZM153.932 151.093V155.15H157.213V156.586H153.932V167.147C153.932 168.026 154.088 168.681 154.4 169.11C154.723 169.54 155.255 169.755 155.997 169.755C156.29 169.755 156.764 169.706 157.418 169.608L157.491 171.044C157.032 171.21 156.407 171.293 155.616 171.293C154.415 171.293 153.541 170.946 152.994 170.253C152.447 169.55 152.174 168.52 152.174 167.162V156.586H149.259V155.15H152.174V151.093H153.932ZM178.336 168.993C177.281 170.526 175.597 171.293 173.282 171.293C171.593 171.293 170.309 170.805 169.43 169.828C168.551 168.842 168.102 167.387 168.082 165.463V155.15H169.825V165.243C169.825 168.261 171.046 169.77 173.487 169.77C176.026 169.77 177.633 168.72 178.307 166.62V155.15H180.064V171H178.365L178.336 168.993ZM186.305 155.15L186.363 157.86C186.959 156.884 187.701 156.142 188.59 155.634C189.479 155.116 190.46 154.857 191.534 154.857C193.233 154.857 194.498 155.336 195.328 156.293C196.158 157.25 196.578 158.686 196.588 160.6V171H194.845V160.585C194.835 159.169 194.532 158.114 193.937 157.421C193.351 156.728 192.408 156.381 191.109 156.381C190.025 156.381 189.063 156.723 188.224 157.406C187.394 158.08 186.778 158.993 186.378 160.146V171H184.635V155.15H186.305ZM203.092 171H201.334V155.15H203.092V171ZM201.026 150.565C201.026 150.233 201.134 149.955 201.349 149.73C201.563 149.496 201.856 149.379 202.228 149.379C202.599 149.379 202.892 149.496 203.106 149.73C203.331 149.955 203.443 150.233 203.443 150.565C203.443 150.897 203.331 151.176 203.106 151.4C202.892 151.625 202.599 151.737 202.228 151.737C201.856 151.737 201.563 151.625 201.349 151.4C201.134 151.176 201.026 150.897 201.026 150.565ZM207.164 162.929C207.164 160.448 207.711 158.485 208.805 157.04C209.908 155.585 211.412 154.857 213.316 154.857C215.455 154.857 217.081 155.673 218.194 157.304L218.282 155.15H219.923V177.094H218.165V169.037C217.013 170.541 215.387 171.293 213.287 171.293C211.432 171.293 209.947 170.561 208.834 169.096C207.721 167.631 207.164 165.653 207.164 163.163V162.929ZM208.937 163.236C208.937 165.287 209.347 166.898 210.167 168.07C210.997 169.232 212.145 169.813 213.609 169.813C215.709 169.813 217.228 168.9 218.165 167.074V159.311C217.726 158.363 217.115 157.636 216.334 157.128C215.562 156.61 214.664 156.352 213.639 156.352C212.164 156.352 211.012 156.938 210.182 158.109C209.352 159.271 208.937 160.98 208.937 163.236ZM234.791 168.993C233.736 170.526 232.052 171.293 229.737 171.293C228.048 171.293 226.764 170.805 225.885 169.828C225.006 168.842 224.557 167.387 224.537 165.463V155.15H226.28V165.243C226.28 168.261 227.501 169.77 229.942 169.77C232.481 169.77 234.088 168.72 234.762 166.62V155.15H236.52V171H234.82L234.791 168.993ZM247.228 171.293C245.88 171.293 244.659 170.961 243.565 170.297C242.481 169.633 241.637 168.71 241.031 167.528C240.426 166.337 240.123 165.004 240.123 163.529V162.899C240.123 161.376 240.416 160.004 241.002 158.783C241.598 157.562 242.423 156.605 243.478 155.912C244.532 155.209 245.675 154.857 246.905 154.857C248.829 154.857 250.353 155.517 251.476 156.835C252.608 158.144 253.175 159.936 253.175 162.211V163.192H241.866V163.529C241.866 165.326 242.379 166.825 243.404 168.026C244.439 169.218 245.738 169.813 247.301 169.813C248.238 169.813 249.063 169.643 249.776 169.301C250.499 168.959 251.153 168.412 251.739 167.66L252.838 168.495C251.549 170.36 249.679 171.293 247.228 171.293ZM246.905 156.352C245.587 156.352 244.474 156.835 243.565 157.802C242.667 158.769 242.12 160.067 241.925 161.698H251.432V161.508C251.383 159.984 250.948 158.744 250.128 157.787C249.308 156.83 248.233 156.352 246.905 156.352ZM29.3174 197.313V206H27.5156V184.672H34.7812C36.998 184.672 38.7461 185.238 40.0254 186.371C41.3145 187.504 41.959 189.062 41.959 191.044C41.959 193.046 41.3389 194.594 40.0986 195.688C38.8682 196.771 37.0811 197.313 34.7373 197.313H29.3174ZM29.3174 195.79H34.7812C36.5293 195.79 37.8623 195.375 38.7803 194.545C39.6982 193.715 40.1572 192.558 40.1572 191.073C40.1572 189.599 39.6982 188.427 38.7803 187.558C37.8721 186.679 36.5781 186.229 34.8984 186.21H29.3174V195.79ZM55.4209 206C55.2451 205.502 55.1328 204.765 55.084 203.788C54.4688 204.589 53.6826 205.209 52.7256 205.648C51.7783 206.078 50.7725 206.293 49.708 206.293C48.1846 206.293 46.9492 205.868 46.002 205.019C45.0645 204.169 44.5957 203.095 44.5957 201.796C44.5957 200.253 45.2354 199.032 46.5146 198.134C47.8037 197.235 49.5957 196.786 51.8906 196.786H55.0693V194.984C55.0693 193.852 54.7178 192.963 54.0146 192.318C53.3213 191.664 52.3057 191.337 50.9678 191.337C49.7471 191.337 48.7363 191.649 47.9355 192.274C47.1348 192.899 46.7344 193.651 46.7344 194.53L44.9766 194.516C44.9766 193.256 45.5625 192.167 46.7344 191.249C47.9062 190.321 49.3467 189.857 51.0557 189.857C52.8232 189.857 54.2148 190.302 55.2305 191.19C56.2559 192.069 56.7832 193.3 56.8125 194.882V202.382C56.8125 203.915 56.9736 205.062 57.2959 205.824V206H55.4209ZM49.9131 204.74C51.085 204.74 52.1299 204.457 53.0479 203.891C53.9756 203.324 54.6494 202.567 55.0693 201.62V198.134H51.9346C50.1865 198.153 48.8193 198.476 47.833 199.101C46.8467 199.716 46.3535 200.565 46.3535 201.649C46.3535 202.538 46.6807 203.275 47.335 203.861C47.999 204.447 48.8584 204.74 49.9131 204.74ZM63.1699 190.15L63.2285 192.86C63.8242 191.884 64.5664 191.142 65.4551 190.634C66.3438 190.116 67.3252 189.857 68.3994 189.857C70.0986 189.857 71.3633 190.336 72.1934 191.293C73.0234 192.25 73.4434 193.686 73.4531 195.6V206H71.71V195.585C71.7002 194.169 71.3975 193.114 70.8018 192.421C70.2158 191.728 69.2734 191.381 67.9746 191.381C66.8906 191.381 65.9287 191.723 65.0889 192.406C64.2588 193.08 63.6436 193.993 63.2432 195.146V206H61.5V190.15H63.1699ZM84.1318 206.293C82.7842 206.293 81.5635 205.961 80.4697 205.297C79.3857 204.633 78.541 203.71 77.9355 202.528C77.3301 201.337 77.0273 200.004 77.0273 198.529V197.899C77.0273 196.376 77.3203 195.004 77.9062 193.783C78.502 192.562 79.3271 191.605 80.3818 190.912C81.4365 190.209 82.5791 189.857 83.8096 189.857C85.7334 189.857 87.2568 190.517 88.3799 191.835C89.5127 193.144 90.0791 194.936 90.0791 197.211V198.192H78.7705V198.529C78.7705 200.326 79.2832 201.825 80.3086 203.026C81.3438 204.218 82.6426 204.813 84.2051 204.813C85.1426 204.813 85.9678 204.643 86.6807 204.301C87.4033 203.959 88.0576 203.412 88.6436 202.66L89.7422 203.495C88.4531 205.36 86.583 206.293 84.1318 206.293ZM83.8096 191.352C82.4912 191.352 81.3779 191.835 80.4697 192.802C79.5713 193.769 79.0244 195.067 78.8291 196.698H88.3359V196.508C88.2871 194.984 87.8525 193.744 87.0322 192.787C86.2119 191.83 85.1377 191.352 83.8096 191.352ZM95.4551 206H93.6973V183.5H95.4551V206ZM110.133 206H108.331V184.672H110.133V206ZM117.193 190.15L117.252 192.86C117.848 191.884 118.59 191.142 119.479 190.634C120.367 190.116 121.349 189.857 122.423 189.857C124.122 189.857 125.387 190.336 126.217 191.293C127.047 192.25 127.467 193.686 127.477 195.6V206H125.733V195.585C125.724 194.169 125.421 193.114 124.825 192.421C124.239 191.728 123.297 191.381 121.998 191.381C120.914 191.381 119.952 191.723 119.112 192.406C118.282 193.08 117.667 193.993 117.267 195.146V206H115.523V190.15H117.193ZM141.51 201.972C141.51 201.103 141.158 200.404 140.455 199.877C139.762 199.35 138.712 198.939 137.306 198.646C135.899 198.344 134.806 198.002 134.024 197.621C133.253 197.23 132.677 196.757 132.296 196.2C131.925 195.644 131.739 194.97 131.739 194.179C131.739 192.929 132.262 191.898 133.307 191.088C134.352 190.268 135.689 189.857 137.32 189.857C139.088 189.857 140.504 190.297 141.568 191.176C142.643 192.045 143.18 193.183 143.18 194.589H141.422C141.422 193.661 141.031 192.89 140.25 192.274C139.479 191.659 138.502 191.352 137.32 191.352C136.168 191.352 135.24 191.61 134.537 192.128C133.844 192.636 133.497 193.3 133.497 194.12C133.497 194.911 133.785 195.526 134.361 195.966C134.947 196.396 136.007 196.791 137.54 197.152C139.083 197.514 140.235 197.899 140.997 198.31C141.769 198.72 142.34 199.213 142.711 199.789C143.082 200.365 143.268 201.063 143.268 201.884C143.268 203.222 142.726 204.291 141.642 205.092C140.567 205.893 139.161 206.293 137.423 206.293C135.577 206.293 134.078 205.849 132.926 204.96C131.783 204.062 131.212 202.929 131.212 201.562H132.97C133.038 202.587 133.468 203.388 134.259 203.964C135.06 204.53 136.114 204.813 137.423 204.813C138.644 204.813 139.63 204.545 140.382 204.008C141.134 203.471 141.51 202.792 141.51 201.972ZM149.186 206H147.428V190.15H149.186V206ZM147.12 185.565C147.12 185.233 147.228 184.955 147.442 184.73C147.657 184.496 147.95 184.379 148.321 184.379C148.692 184.379 148.985 184.496 149.2 184.73C149.425 184.955 149.537 185.233 149.537 185.565C149.537 185.897 149.425 186.176 149.2 186.4C148.985 186.625 148.692 186.737 148.321 186.737C147.95 186.737 147.657 186.625 147.442 186.4C147.228 186.176 147.12 185.897 147.12 185.565ZM153.258 197.929C153.258 195.448 153.805 193.485 154.898 192.04C156.002 190.585 157.496 189.857 159.381 189.857C161.539 189.857 163.18 190.717 164.303 192.436L164.391 190.15H166.031V205.678C166.031 207.719 165.46 209.335 164.317 210.526C163.175 211.718 161.627 212.313 159.674 212.313C158.57 212.313 157.516 212.064 156.51 211.566C155.514 211.078 154.728 210.424 154.151 209.604L155.133 208.549C156.373 210.072 157.848 210.834 159.557 210.834C161.021 210.834 162.164 210.399 162.984 209.53C163.805 208.671 164.229 207.475 164.259 205.941V203.949C163.136 205.512 161.5 206.293 159.352 206.293C157.516 206.293 156.041 205.561 154.928 204.096C153.814 202.631 153.258 200.653 153.258 198.163V197.929ZM155.03 198.236C155.03 200.258 155.436 201.854 156.246 203.026C157.057 204.188 158.199 204.77 159.674 204.77C161.832 204.77 163.36 203.803 164.259 201.869V194.501C163.849 193.485 163.258 192.714 162.486 192.187C161.715 191.649 160.787 191.381 159.703 191.381C158.229 191.381 157.081 191.962 156.261 193.124C155.44 194.276 155.03 195.98 155.03 198.236ZM172.345 192.831C172.921 191.884 173.658 191.151 174.557 190.634C175.455 190.116 176.437 189.857 177.501 189.857C179.2 189.857 180.465 190.336 181.295 191.293C182.125 192.25 182.545 193.686 182.555 195.6V206H180.812V195.585C180.802 194.169 180.499 193.114 179.903 192.421C179.317 191.728 178.375 191.381 177.076 191.381C175.992 191.381 175.03 191.723 174.19 192.406C173.36 193.08 172.745 193.993 172.345 195.146V206H170.602V183.5H172.345V192.831ZM189.791 186.093V190.15H193.072V191.586H189.791V202.147C189.791 203.026 189.947 203.681 190.26 204.11C190.582 204.54 191.114 204.755 191.856 204.755C192.149 204.755 192.623 204.706 193.277 204.608L193.351 206.044C192.892 206.21 192.267 206.293 191.476 206.293C190.274 206.293 189.4 205.946 188.854 205.253C188.307 204.55 188.033 203.52 188.033 202.162V191.586H185.118V190.15H188.033V186.093H189.791ZM204.41 206V184.672H210.372C212.12 184.672 213.688 185.072 215.074 185.873C216.461 186.664 217.54 187.802 218.312 189.286C219.093 190.771 219.483 192.46 219.483 194.354V196.317C219.483 198.222 219.098 199.911 218.326 201.386C217.555 202.86 216.466 203.998 215.06 204.799C213.663 205.6 212.057 206 210.24 206H204.41ZM206.212 186.21V204.477H210.255C212.501 204.477 214.303 203.734 215.66 202.25C217.018 200.756 217.696 198.739 217.696 196.2V194.325C217.696 191.874 217.027 189.911 215.689 188.437C214.352 186.962 212.589 186.22 210.401 186.21H206.212ZM233.663 206C233.487 205.502 233.375 204.765 233.326 203.788C232.711 204.589 231.925 205.209 230.968 205.648C230.021 206.078 229.015 206.293 227.95 206.293C226.427 206.293 225.191 205.868 224.244 205.019C223.307 204.169 222.838 203.095 222.838 201.796C222.838 200.253 223.478 199.032 224.757 198.134C226.046 197.235 227.838 196.786 230.133 196.786H233.312V194.984C233.312 193.852 232.96 192.963 232.257 192.318C231.563 191.664 230.548 191.337 229.21 191.337C227.989 191.337 226.979 191.649 226.178 192.274C225.377 192.899 224.977 193.651 224.977 194.53L223.219 194.516C223.219 193.256 223.805 192.167 224.977 191.249C226.148 190.321 227.589 189.857 229.298 189.857C231.065 189.857 232.457 190.302 233.473 191.19C234.498 192.069 235.025 193.3 235.055 194.882V202.382C235.055 203.915 235.216 205.062 235.538 205.824V206H233.663ZM228.155 204.74C229.327 204.74 230.372 204.457 231.29 203.891C232.218 203.324 232.892 202.567 233.312 201.62V198.134H230.177C228.429 198.153 227.062 198.476 226.075 199.101C225.089 199.716 224.596 200.565 224.596 201.649C224.596 202.538 224.923 203.275 225.577 203.861C226.241 204.447 227.101 204.74 228.155 204.74ZM242.467 186.093V190.15H245.748V191.586H242.467V202.147C242.467 203.026 242.623 203.681 242.936 204.11C243.258 204.54 243.79 204.755 244.532 204.755C244.825 204.755 245.299 204.706 245.953 204.608L246.026 206.044C245.567 206.21 244.942 206.293 244.151 206.293C242.95 206.293 242.076 205.946 241.529 205.253C240.982 204.55 240.709 203.52 240.709 202.162V191.586H237.794V190.15H240.709V186.093H242.467ZM259.386 206C259.21 205.502 259.098 204.765 259.049 203.788C258.434 204.589 257.647 205.209 256.69 205.648C255.743 206.078 254.737 206.293 253.673 206.293C252.149 206.293 250.914 205.868 249.967 205.019C249.029 204.169 248.561 203.095 248.561 201.796C248.561 200.253 249.2 199.032 250.479 198.134C251.769 197.235 253.561 196.786 255.855 196.786H259.034V194.984C259.034 193.852 258.683 192.963 257.979 192.318C257.286 191.664 256.271 191.337 254.933 191.337C253.712 191.337 252.701 191.649 251.9 192.274C251.1 192.899 250.699 193.651 250.699 194.53L248.941 194.516C248.941 193.256 249.527 192.167 250.699 191.249C251.871 190.321 253.312 189.857 255.021 189.857C256.788 189.857 258.18 190.302 259.195 191.19C260.221 192.069 260.748 193.3 260.777 194.882V202.382C260.777 203.915 260.938 205.062 261.261 205.824V206H259.386ZM253.878 204.74C255.05 204.74 256.095 204.457 257.013 203.891C257.94 203.324 258.614 202.567 259.034 201.62V198.134H255.899C254.151 198.153 252.784 198.476 251.798 199.101C250.812 199.716 250.318 200.565 250.318 201.649C250.318 202.538 250.646 203.275 251.3 203.861C251.964 204.447 252.823 204.74 253.878 204.74Z" fill="black"/>
</svg>
