<svg width="14" height="13" viewBox="0 0 14 13" fill="none" xmlns="http://www.w3.org/2000/svg">
<path d="M13.2793 5.05556H11.9695C11.759 5.05556 11.5855 4.94794 11.5049 4.76739C11.4243 4.58683 11.4652 4.39665 11.6138 4.25846L12.5399 3.39878C12.676 3.27239 12.7509 3.10411 12.7509 2.92548C12.7509 2.74661 12.676 2.57857 12.5399 2.45194L11.3594 1.35585C11.0872 1.10307 10.6125 1.10259 10.3398 1.35585L9.41396 2.21554C9.26515 2.35348 9.05981 2.392 8.86589 2.31689C8.67144 2.24202 8.55556 2.08096 8.55556 1.88548V0.669259C8.55556 0.300204 8.23226 0 7.83481 0H6.16519C5.76774 0 5.44444 0.300204 5.44444 0.669259V1.88548C5.44444 2.08096 5.32856 2.24202 5.13411 2.31689C4.94019 2.39224 4.73485 2.35348 4.58604 2.21554L3.66022 1.35585C3.38748 1.10259 2.91278 1.10307 2.64056 1.35585L1.46015 2.45194C1.32404 2.57833 1.24911 2.74661 1.24911 2.92548C1.24911 3.10411 1.32404 3.27215 1.46015 3.39878L2.38622 4.25846C2.53478 4.39665 2.57548 4.58683 2.49511 4.76739C2.41474 4.94794 2.24104 5.05556 2.03052 5.05556H0.720741C0.323296 5.05556 0 5.35576 0 5.72481V7.27494C0 7.64424 0.323296 7.94444 0.720741 7.94444H2.03052C2.24104 7.94444 2.41448 8.05206 2.49511 8.23261C2.57574 8.41317 2.53478 8.60335 2.38622 8.74154L1.46015 9.60122C1.32404 9.72761 1.24911 9.89589 1.24911 10.0745C1.24911 10.2534 1.32404 10.4214 1.46015 10.5481L2.64056 11.6441C2.91304 11.8972 3.38748 11.8976 3.66022 11.6441L4.58604 10.7842C4.73485 10.6463 4.93941 10.6082 5.13411 10.6831C5.32856 10.758 5.44444 10.919 5.44444 11.1145V12.3307C5.44444 12.6998 5.76774 13 6.16519 13H7.83456C8.232 13 8.5553 12.6998 8.5553 12.3307V11.1145C8.5553 10.919 8.67118 10.758 8.86563 10.6831C9.06033 10.608 9.26489 10.6463 9.4137 10.7842L10.3395 11.6441C10.6123 11.8974 11.087 11.8969 11.3592 11.6441L12.5396 10.5481C12.6757 10.4217 12.7506 10.2534 12.7506 10.0745C12.7506 9.89589 12.6757 9.72785 12.5396 9.60122L11.6135 8.74154C11.465 8.60335 11.4243 8.41317 11.5046 8.23261C11.585 8.05206 11.759 7.94444 11.9695 7.94444H13.2793C13.6767 7.94444 14 7.64424 14 7.27519V5.72481C14 5.35576 13.6767 5.05556 13.2793 5.05556ZM13.4815 7.27519C13.4815 7.3787 13.3907 7.46296 13.2793 7.46296H11.9695C11.5484 7.46296 11.1868 7.68733 11.0258 8.04844C10.8645 8.40956 10.9493 8.80582 11.2472 9.08219L12.1733 9.94187C12.2523 10.0153 12.2523 10.1345 12.1733 10.2076L10.9929 11.3037C10.914 11.3769 10.7857 11.3774 10.7066 11.3037L9.78082 10.4438C9.48293 10.1672 9.05644 10.089 8.66755 10.2382C8.27867 10.3877 8.03704 10.7236 8.03704 11.1145V12.3307C8.03704 12.4343 7.9463 12.5185 7.83481 12.5185H6.16519C6.0537 12.5185 5.96296 12.4343 5.96296 12.3307V11.1145C5.96296 10.7236 5.72133 10.3877 5.33244 10.2382C5.20204 10.1879 5.06774 10.1634 4.935 10.1634C4.67211 10.1634 4.41726 10.2596 4.21919 10.4436L3.29337 11.3035C3.21404 11.3772 3.0857 11.3767 3.00715 11.3035L1.82674 10.2074C1.74767 10.134 1.74767 10.0148 1.82674 9.94163L2.75281 9.08194C3.05044 8.80557 3.13548 8.40932 2.97422 8.0482C2.81322 7.68733 2.45156 7.46296 2.03052 7.46296H0.720741C0.609259 7.46296 0.518519 7.3787 0.518519 7.27519V5.72481C0.518519 5.6213 0.609259 5.53704 0.720741 5.53704H2.03052C2.45156 5.53704 2.81322 5.31267 2.97422 4.95156C3.13548 4.59044 3.0507 4.19419 2.75281 3.91781L1.82674 3.05813C1.74767 2.9847 1.74767 2.86554 1.82674 2.79235L3.00715 1.69626C3.08596 1.62283 3.2143 1.62283 3.29337 1.69626L4.21919 2.55594C4.51656 2.83207 4.94304 2.91128 5.33244 2.76154C5.72133 2.61228 5.96296 2.27644 5.96296 1.88548V0.669259C5.96296 0.565741 6.0537 0.481481 6.16519 0.481481H7.83456C7.9463 0.481481 8.03704 0.565741 8.03704 0.669259V1.88548C8.03704 2.27644 8.27867 2.61228 8.66755 2.76178C9.05696 2.91152 9.48319 2.83256 9.78082 2.55619L10.7066 1.6965C10.786 1.62307 10.9143 1.62307 10.9929 1.6965L12.1733 2.79259C12.2523 2.86602 12.2523 2.98519 12.1733 3.05837L11.2472 3.91806C10.9496 4.19443 10.8645 4.59069 11.0258 4.9518C11.1868 5.31291 11.5484 5.53728 11.9695 5.53728H13.2793C13.3907 5.53704 13.4815 5.6213 13.4815 5.72481V7.27519Z" fill="#00A359"/>
</svg>
