<svg width="95" height="65" viewBox="0 0 95 65" fill="none" xmlns="http://www.w3.org/2000/svg">
<g clip-path="url(#clip0_332135_973)">
<path d="M18.8208 59.9481L18.5685 59.9428C18.6661 56.9374 18.9654 53.9435 19.4642 50.9842C20.5553 44.6483 22.3696 40.4872 24.8567 38.6165L25.0016 38.8377C19.1917 43.2076 18.8238 59.7811 18.8208 59.9481Z" fill="#2F2E41"/>
<path d="M21.9749 59.8834L21.7225 59.8781C21.728 59.5788 21.8857 52.5241 24.4783 50.5742L24.6232 50.7954C22.1351 52.6667 21.9761 59.8115 21.9749 59.8834Z" fill="#2F2E41"/>
<path d="M26.437 38.8624C27.1338 38.8624 27.6986 38.2573 27.6986 37.5109C27.6986 36.7645 27.1338 36.1594 26.437 36.1594C25.7403 36.1594 25.1754 36.7645 25.1754 37.5109C25.1754 38.2573 25.7403 38.8624 26.437 38.8624Z" fill="#00BFA6"/>
<path d="M25.8123 50.4852C26.5091 50.4852 27.0739 49.8801 27.0739 49.1337C27.0739 48.3873 26.5091 47.7822 25.8123 47.7822C25.1155 47.7822 24.5507 48.3873 24.5507 49.1337C24.5507 49.8801 25.1155 50.4852 25.8123 50.4852Z" fill="#00BFA6"/>
<path d="M21.3869 39.6725C21.624 41.2948 21.0061 42.7458 21.0061 42.7458C21.0061 42.7458 20.0037 41.5665 19.7666 39.9442C19.5295 38.3219 20.1475 36.8708 20.1475 36.8708C20.1475 36.8708 21.1498 38.0501 21.3869 39.6725Z" fill="#2F2E41"/>
<path d="M25.5106 43.6125C24.0606 44.1453 22.6191 43.7462 22.6191 43.7462C22.6191 43.7462 23.5285 42.4834 24.9785 41.9506C26.4284 41.4178 27.87 41.8168 27.87 41.8168C27.87 41.8168 26.9606 43.0797 25.5106 43.6125Z" fill="#2F2E41"/>
<path d="M25.5573 53.9057C24.9011 54.1265 24.2022 54.1589 23.5306 53.9995C23.9571 53.4179 24.5314 52.9808 25.1843 52.7409C25.8373 52.501 26.5412 52.4684 27.211 52.6472C26.7722 53.2146 26.2019 53.6486 25.5573 53.9057Z" fill="#2F2E41"/>
<path d="M76.5388 60.1757H74.881L74.0924 53.3257L76.5392 53.3258L76.5388 60.1757Z" fill="#9E616A"/>
<path d="M76.9617 61.8971L71.6162 61.8969V61.8245C71.6162 61.2334 71.8355 60.6665 72.2257 60.2485C72.6158 59.8306 73.145 59.5957 73.6968 59.5957H73.697L76.9618 59.5958L76.9617 61.8971Z" fill="#2F2E41"/>
<path d="M66.307 60.1757H64.6491L63.8605 53.3257L66.3073 53.3258L66.307 60.1757Z" fill="#9E616A"/>
<path d="M66.7298 61.8971L61.3843 61.8969V61.8245C61.3843 61.2334 61.6035 60.6665 61.9937 60.2485C62.3839 59.8306 62.9131 59.5957 63.4649 59.5957H63.465L66.7299 59.5958L66.7298 61.8971Z" fill="#2F2E41"/>
<path d="M62.1712 21.8156L59.8752 21.4355L59.1334 22.7146L51.1508 24.8943L51.1724 25.0122C50.9467 24.7597 50.6503 24.5929 50.3282 24.5369C50.006 24.481 49.6756 24.539 49.3869 24.7021C49.0983 24.8653 48.8671 25.1247 48.7284 25.4412C48.5896 25.7576 48.5509 26.1139 48.6181 26.456C48.6852 26.7981 48.8546 27.1075 49.1005 27.3374C49.3464 27.5672 49.6555 27.705 49.9811 27.7298C50.3066 27.7546 50.6309 27.6652 50.9047 27.475C51.1786 27.2849 51.3872 27.0043 51.4989 26.6758L61.166 24.516L62.1712 21.8156Z" fill="#9E616A"/>
<path d="M85.1032 20.2926C84.9141 20.2928 84.7268 20.3314 84.5512 20.4063L84.597 20.3207L74.4481 14.7012L73.0645 17.0974L83.6159 22.1148C83.6543 22.421 83.7742 22.7089 83.9613 22.9441C84.1484 23.1792 84.3948 23.3516 84.671 23.4407C84.9471 23.5298 85.2414 23.5318 85.5186 23.4464C85.7958 23.3611 86.0442 23.192 86.234 22.9594C86.4239 22.7268 86.5472 22.4405 86.5891 22.1349C86.6311 21.8292 86.59 21.517 86.4707 21.2357C86.3514 20.9544 86.159 20.7159 85.9165 20.5486C85.674 20.3814 85.3916 20.2925 85.1032 20.2926H85.1032Z" fill="#9E616A"/>
<path d="M69.0927 5.63616C69.4893 3.01783 67.8294 0.550808 65.3852 0.125912C62.941 -0.298985 60.638 1.47915 60.2414 4.09747C59.8447 6.7158 61.5046 9.18283 63.9488 9.60772C66.3931 10.0326 68.696 8.25449 69.0927 5.63616Z" fill="#2F2E41"/>
<path d="M64.6282 9.62835C66.2079 9.62835 67.4884 8.25658 67.4884 6.56442C67.4884 4.87226 66.2079 3.50049 64.6282 3.50049C63.0486 3.50049 61.7681 4.87226 61.7681 6.56442C61.7681 8.25658 63.0486 9.62835 64.6282 9.62835Z" fill="#A0616A"/>
<path d="M64.667 5.52927C66.3748 5.52927 67.7592 4.63947 67.7592 3.54186C67.7592 2.44424 66.3748 1.55444 64.667 1.55444C62.9593 1.55444 61.575 2.44424 61.575 3.54186C61.575 4.63947 62.9593 5.52927 64.667 5.52927Z" fill="#2F2E41"/>
<path d="M64.9761 2.05125C66.0007 2.05125 66.8314 1.16145 66.8314 0.0638314C66.8314 -1.03379 66.0007 -1.92358 64.9761 -1.92358C63.9515 -1.92358 63.1208 -1.03379 63.1208 0.0638314C63.1208 1.16145 63.9515 2.05125 64.9761 2.05125Z" fill="#2F2E41"/>
<path d="M62.5025 -1.01259C62.5026 -1.50384 62.6724 -1.97768 62.9793 -2.34269C63.2862 -2.7077 63.7085 -2.93804 64.1646 -2.98925C64.1003 -2.9964 64.0358 -2.99998 63.9713 -3C63.4796 -2.99939 63.0083 -2.78973 62.6608 -2.41708C62.3133 -2.04444 62.1182 -1.53928 62.1182 -1.01258C62.1182 -0.48589 62.3133 0.0192654 62.6608 0.391912C63.0083 0.764558 63.4796 0.974218 63.9713 0.974832C64.0358 0.974815 64.1003 0.971226 64.1646 0.964086C63.7085 0.912868 63.2862 0.682535 62.9793 0.317518C62.6724 -0.0475001 62.5025 -0.52134 62.5025 -1.01259Z" fill="#2F2E41"/>
<path d="M63.1412 14.1708L63.3719 11.7954C63.3719 11.7954 66.5014 9.58604 67.565 10.8918L73.9221 22.5434C73.9221 22.5434 77.8739 24.0484 77.7342 29.7952L77.5452 57.5737L73.0643 58.0999L70.3432 36.4423L67.8847 58.8805L62.6679 58.7055L63.1372 43.9235L65.6248 29.5941L65.601 24.8392L64.5054 22.9203C64.5054 22.9203 62.4985 22.0566 62.4424 19.6159L62.3984 16.1851L63.1412 14.1708Z" fill="#2F2E41"/>
<path d="M66.4229 11.5439L66.4846 10.4304C66.4846 10.4304 75.9508 13.1026 75.1998 15.0132C74.4488 16.9238 73.0408 17.5271 73.0408 17.5271L67.5962 15.2143L66.4229 11.5439Z" fill="#2F2E41"/>
<path d="M63.9491 14.3149L63.2368 13.5012C63.2368 13.5012 57.5555 22.0411 59.2735 22.9953C60.9915 23.9495 62.4342 23.4485 62.4342 23.4485L65.2385 17.9403L63.9491 14.3149Z" fill="#2F2E41"/>
<path d="M52.5774 42.1225L88.2259 34.4996L85.2467 18.512L49.5983 26.1349L52.5774 42.1225Z" fill="white"/>
<path d="M88.5176 34.7079L52.3828 42.4348L49.3065 25.9262L85.4414 18.1992L88.5176 34.7079ZM52.7721 41.8098L87.9342 34.2909L85.0521 18.8243L49.89 26.3432L52.7721 41.8098Z" fill="#E4E4E4"/>
<path d="M82.8111 23.6336L53.9613 29.8027L54.1115 30.6085L82.9613 24.4394L82.8111 23.6336Z" fill="#E4E4E4"/>
<path d="M83.3958 26.7713L54.546 32.9404L54.6962 33.7462L83.546 27.5771L83.3958 26.7713Z" fill="#E4E4E4"/>
<path d="M83.9838 29.927L55.134 36.0962L55.2842 36.902L84.134 30.7328L83.9838 29.927Z" fill="#E4E4E4"/>
<path d="M69.027 28.6411L68.018 28.8569C67.9442 28.8726 67.8677 28.8563 67.8052 28.8116C67.7427 28.7669 67.6993 28.6975 67.6845 28.6186L67.2075 26.0585C67.1928 25.9796 67.208 25.8976 67.2497 25.8306C67.2915 25.7637 67.3563 25.7172 67.4299 25.7013L68.4389 25.4856C68.5127 25.4699 68.5892 25.4862 68.6517 25.5309C68.7142 25.5755 68.7576 25.6449 68.7724 25.7239L69.2494 28.2839C69.2641 28.3629 69.2489 28.4449 69.2072 28.5118C69.1654 28.5788 69.1006 28.6253 69.027 28.6411Z" fill="#00BFA6"/>
<path d="M80.5199 29.4461L79.5109 29.6618C79.4372 29.6775 79.3607 29.6612 79.2981 29.6165C79.2356 29.5718 79.1922 29.5024 79.1774 29.4235L78.7004 26.8634C78.6857 26.7845 78.701 26.7025 78.7427 26.6356C78.7844 26.5686 78.8492 26.5221 78.9229 26.5062L79.9319 26.2905C80.0056 26.2748 80.0821 26.2911 80.1446 26.3358C80.2071 26.3805 80.2505 26.4499 80.2653 26.5288L80.7424 29.0889C80.757 29.1678 80.7418 29.2498 80.7001 29.3167C80.6584 29.3837 80.5936 29.4302 80.5199 29.4461Z" fill="#00BFA6"/>
<path d="M74.2961 34.0581L73.2871 34.2739C73.2134 34.2896 73.1369 34.2733 73.0744 34.2286C73.0119 34.1839 72.9685 34.1145 72.9537 34.0356L72.4766 31.4755C72.462 31.3965 72.4772 31.3146 72.5189 31.2476C72.5606 31.1807 72.6254 31.1342 72.6991 31.1183L73.7081 30.9025C73.7818 30.8869 73.8583 30.9032 73.9208 30.9478C73.9834 30.9925 74.0268 31.0619 74.0416 31.1409L74.5186 33.7009C74.5332 33.7799 74.518 33.8619 74.4763 33.9288C74.4346 33.9958 74.3698 34.0423 74.2961 34.0581Z" fill="#00BFA6"/>
<path d="M94.8738 62H0.126162C0.0927018 62 0.0606119 61.9858 0.0369519 61.9605C0.0132919 61.9351 0 61.9007 0 61.8649C0 61.829 0.0132919 61.7947 0.0369519 61.7693C0.0606119 61.744 0.0927018 61.7297 0.126162 61.7297H94.8738C94.9073 61.7297 94.9394 61.744 94.9631 61.7693C94.9867 61.7947 95 61.829 95 61.8649C95 61.9007 94.9867 61.9351 94.9631 61.9605C94.9394 61.9858 94.9073 62 94.8738 62Z" fill="#CACACA"/>
</g>
<defs>
<clipPath id="clip0_332135_973">
<rect width="95" height="65" fill="white"/>
</clipPath>
</defs>
</svg>
