<svg width="29" height="21" viewBox="0 0 29 21" fill="none" xmlns="http://www.w3.org/2000/svg">
<path d="M15.7917 5.33335C15.7917 2.47877 13.4796 0.166687 10.625 0.166687C7.77044 0.166687 5.45835 2.47877 5.45835 5.33335C5.45835 8.18794 7.77044 10.5 10.625 10.5C13.4796 10.5 15.7917 8.18794 15.7917 5.33335ZM13.2084 5.33335C13.2084 6.75419 12.0459 7.91669 10.625 7.91669C9.20419 7.91669 8.04169 6.75419 8.04169 5.33335C8.04169 3.91252 9.20419 2.75002 10.625 2.75002C12.0459 2.75002 13.2084 3.91252 13.2084 5.33335ZM0.291687 18.25V20.8334H20.9584V18.25C20.9584 14.8142 14.0738 13.0834 10.625 13.0834C7.17627 13.0834 0.291687 14.8142 0.291687 18.25ZM2.87502 18.25C3.13335 17.3329 7.13752 15.6667 10.625 15.6667C14.0996 15.6667 18.0909 17.32 18.375 18.25H2.87502ZM24.8334 14.375V10.5H28.7084V7.91669H24.8334V4.04169H22.25V7.91669H18.375V10.5H22.25V14.375H24.8334Z" fill="black"/>
</svg>
